<svg width="293" height="40" viewBox="0 0 293 40" fill="none" xmlns="http://www.w3.org/2000/svg">
<g clip-path="url(#clip0_4_177375)">
<path d="M0.00668178 0.772461H7.69898V12.5873L15.7243 0.772461H25.0683L11.4952 14.6186L36.2771 0.772461V9.56368L14.026 17.9153L36.2771 15.8307V24.1824L14.026 22.0978L36.2771 30.4494V39.2406L11.4952 25.3945L25.0683 39.2406H15.7176L7.69234 27.4258V39.2406H1.52588e-05V0.772461H0.00668178Z" fill="white"/>
<path d="M41.7647 0.772461H50.8291L49.4571 25.6609L60.7191 0.772461H68.1383V39.234H59.0743L60.4463 14.3456L49.1839 39.234H41.7647V0.772461Z" fill="white"/>
<path d="M73.6333 0.772461H82.6973V15.611H90.3897V0.772461H99.4541V39.234H90.3897V21.6516H82.6973V39.234H73.6333V0.772461Z" fill="white"/>
<path d="M103.63 20C103.63 9.01097 108.685 0 118.848 0C129.011 0 134.066 9.01097 134.066 20C134.066 30.989 129.011 40 118.848 40C108.685 40.0068 103.63 30.9957 103.63 20ZM118.848 34.2924C122.418 34.2924 124.509 27.972 124.509 20.0067C124.509 12.0413 122.418 5.72093 118.848 5.72093C115.278 5.72093 113.187 12.0413 113.187 20.0067C113.194 27.972 115.278 34.2924 118.848 34.2924Z" fill="white"/>
<path d="M138.242 0.772461H164.342V39.234H155.278V6.81308H147.312V39.234H138.248V0.772461H138.242Z" fill="white"/>
<path d="M168.518 20C168.518 9.01097 173.573 0 183.736 0C193.899 0 198.954 9.01097 198.954 20C198.954 30.989 193.899 40 183.736 40C173.573 40 168.518 30.9957 168.518 20ZM183.743 34.2924C187.312 34.2924 189.404 27.972 189.404 20.0067C189.404 12.0413 187.312 5.72093 183.743 5.72093C180.173 5.72093 178.082 12.0413 178.082 20.0067C178.082 27.972 180.166 34.2924 183.743 34.2924Z" fill="white"/>
<path d="M203.137 0.772461H212.201L210.829 25.6609L222.091 0.772461H229.51V39.234H220.446L221.818 14.3456L210.556 39.234H203.137V0.772461Z" fill="white"/>
<path d="M253.626 25.661L262.251 26.9797L261.978 28.2984C260.493 35.4445 255.991 40 248.572 40C238.408 40 233.68 30.989 233.68 20C233.68 9.01097 238.408 0 248.572 0C255.718 0 260.273 4.56209 261.872 11.2621L262.144 12.4143L253.3 14.3923C252.641 9.06426 251.049 5.70762 248.572 5.70762C245.002 5.70762 243.244 12.028 243.244 19.9933C243.244 27.9587 245.002 34.2791 248.572 34.2791C251.269 34.2924 252.967 30.7159 253.626 25.661Z" fill="white"/>
<path d="M265.987 0.772461H275.052V18.0818L282.471 0.772461H291.815L281.099 19.4005L292.088 39.234H281.924L275.058 21.9246V39.234H265.994V0.772461H265.987Z" fill="white"/>
</g>
<defs>
<clipPath id="clip0_4_177375">
<rect width="292.4" height="40" fill="white"/>
</clipPath>
</defs>
</svg>
