<svg width="41" height="41" viewBox="0 0 41 41" fill="none" xmlns="http://www.w3.org/2000/svg">
<path d="M20.1625 3.71387C24.4133 3.71387 28.003 5.50871 28.003 8.19415L28.004 12.7167C31.6508 12.9949 34.5709 14.6229 34.7176 16.9688L34.7234 17.1547V30.5956L34.7176 30.7815C34.5561 33.3635 31.0349 35.0759 26.8829 35.0759C23.1155 35.0759 19.8675 33.6661 19.1774 31.4759C17.7335 32.3385 15.6794 32.8357 13.4421 32.8357C9.2901 32.8357 5.76888 31.1234 5.60735 28.5413L5.60156 28.3554V19.3949L5.60735 19.209C5.75413 16.8628 8.67483 15.2347 12.3221 14.9568L12.322 8.19415L12.3278 8.00825C12.4893 5.4262 16.0105 3.71387 20.1625 3.71387ZM32.4839 29.3141C31.0483 30.1284 29.0517 30.5956 26.8829 30.5956C24.7148 30.5956 22.7186 30.1286 21.283 29.3147L21.2826 30.5956L21.2896 30.6923C21.435 31.6964 23.8097 32.8357 26.8829 32.8357C29.9562 32.8357 32.3308 31.6964 32.4762 30.6923L32.4833 30.5956L32.4839 29.3141ZM19.0431 27.074C17.6074 27.8883 15.6108 28.3554 13.4421 28.3554C11.2739 28.3554 9.27772 27.8885 7.84216 27.0746L7.84171 28.3554L7.84877 28.4522C7.99418 29.4563 10.3688 30.5956 13.4421 30.5956C16.5153 30.5956 18.8899 29.4563 19.0354 28.4522L19.0424 28.3554L19.0431 27.074ZM32.4839 24.8338C31.0483 25.6481 29.0517 26.1153 26.8829 26.1153C24.7148 26.1153 22.7186 25.6484 21.283 24.8344L21.2826 26.1153C21.2826 27.1414 23.7106 28.3554 26.8829 28.3554C29.9562 28.3554 32.3308 27.2161 32.4762 26.212L32.4833 26.1153L32.4839 24.8338ZM19.0431 22.5937C17.6074 23.408 15.6108 23.8752 13.4421 23.8752C11.2739 23.8752 9.27772 23.4082 7.84216 22.5943L7.84171 23.8752C7.84171 24.9013 10.2697 26.1153 13.4421 26.1153C16.5153 26.1153 18.8899 24.976 19.0354 23.9719L19.0424 23.8752L19.0431 22.5937ZM32.4839 20.3535C31.0483 21.1678 29.0517 21.635 26.8829 21.635C24.7148 21.635 22.7186 21.1681 21.283 20.3542L21.2826 21.635C21.2826 22.6612 23.7106 23.8752 26.8829 23.8752C29.9562 23.8752 32.3308 22.7358 32.4762 21.7317L32.4833 21.635L32.4839 20.3535ZM13.4421 17.1547C10.2697 17.1547 7.84171 18.3687 7.84171 19.3949C7.84171 20.421 10.2697 21.635 13.4421 21.635C16.6144 21.635 19.0424 20.421 19.0424 19.3949C19.0424 18.3687 16.6144 17.1547 13.4421 17.1547ZM26.8829 14.9146C23.7106 14.9146 21.2826 16.1286 21.2826 17.1547C21.2826 18.1809 23.7106 19.3949 26.8829 19.3949C30.0553 19.3949 32.4833 18.1809 32.4833 17.1547C32.4833 16.1286 30.0553 14.9146 26.8829 14.9146ZM25.7635 11.393C24.3279 12.2073 22.3312 12.6744 20.1625 12.6744C17.9943 12.6744 15.9981 12.2075 14.5626 11.3936L14.5621 12.6744C14.5621 13.7006 16.9901 14.9146 20.1625 14.9146L20.0175 14.9124C21.1908 13.6996 23.3113 12.904 25.7596 12.7169L25.7629 12.6744L25.7635 11.393ZM20.1625 5.95401C16.9901 5.95401 14.5621 7.16801 14.5621 8.19415C14.5621 9.2203 16.9901 10.4343 20.1625 10.4343C23.3349 10.4343 25.7629 9.2203 25.7629 8.19415C25.7629 7.16801 23.3349 5.95401 20.1625 5.95401Z" fill="#00D3E6"/>
</svg>
