<svg width="44" height="41" viewBox="0 0 44 41" fill="none" xmlns="http://www.w3.org/2000/svg">
<g filter="url(#filter0_d_1484_7734)">
<mask id="path-1-outside-1_1484_7734" maskUnits="userSpaceOnUse" x="3.88086" y="7.27344" width="36" height="26" fill="black">
<rect fill="white" x="3.88086" y="7.27344" width="36" height="26"/>
<path d="M22.1621 8.27344C31.1803 8.27371 39.4433 15.2937 39.4434 20.5146C39.4433 25.7356 31.1803 32.7556 22.1621 32.7559C13.1437 32.7559 4.88093 25.7357 4.88086 20.5146C4.88091 15.2936 13.1437 8.27344 22.1621 8.27344ZM22.1611 11.1543C18.0722 11.1543 14.3888 12.6073 11.5098 15.0312C9.23704 16.9448 7.75977 19.31 7.75977 20.5146C7.75987 21.7194 9.23712 24.0845 11.5098 25.998C14.3888 28.422 18.0722 29.875 22.1611 29.875C26.25 29.8749 29.9335 28.422 32.8125 25.998C35.085 24.0846 36.5614 21.7193 36.5615 20.5146C36.5615 19.31 35.0851 16.9448 32.8125 15.0312C29.9335 12.6072 26.25 11.1544 22.1611 11.1543ZM22.1621 14.0342C25.7408 14.0345 28.6426 16.9358 28.6426 20.5146C28.6424 24.0933 25.7407 26.9947 22.1621 26.9951C18.5832 26.9951 15.6818 24.0935 15.6816 20.5146C15.6816 16.9356 18.5831 14.0342 22.1621 14.0342ZM22.1621 16.9141C20.1739 16.9142 18.5625 18.5264 18.5625 20.5146C18.5627 22.5027 20.174 24.1141 22.1621 24.1143C24.1502 24.1141 25.7625 22.5027 25.7627 20.5146C25.7627 18.5264 24.1503 16.9142 22.1621 16.9141Z"/>
</mask>
<path d="M22.1621 8.27344C31.1803 8.27371 39.4433 15.2937 39.4434 20.5146C39.4433 25.7356 31.1803 32.7556 22.1621 32.7559C13.1437 32.7559 4.88093 25.7357 4.88086 20.5146C4.88091 15.2936 13.1437 8.27344 22.1621 8.27344ZM22.1611 11.1543C18.0722 11.1543 14.3888 12.6073 11.5098 15.0312C9.23704 16.9448 7.75977 19.31 7.75977 20.5146C7.75987 21.7194 9.23712 24.0845 11.5098 25.998C14.3888 28.422 18.0722 29.875 22.1611 29.875C26.25 29.8749 29.9335 28.422 32.8125 25.998C35.085 24.0846 36.5614 21.7193 36.5615 20.5146C36.5615 19.31 35.0851 16.9448 32.8125 15.0312C29.9335 12.6072 26.25 11.1544 22.1611 11.1543ZM22.1621 14.0342C25.7408 14.0345 28.6426 16.9358 28.6426 20.5146C28.6424 24.0933 25.7407 26.9947 22.1621 26.9951C18.5832 26.9951 15.6818 24.0935 15.6816 20.5146C15.6816 16.9356 18.5831 14.0342 22.1621 14.0342ZM22.1621 16.9141C20.1739 16.9142 18.5625 18.5264 18.5625 20.5146C18.5627 22.5027 20.174 24.1141 22.1621 24.1143C24.1502 24.1141 25.7625 22.5027 25.7627 20.5146C25.7627 18.5264 24.1503 16.9142 22.1621 16.9141Z" fill="#00D3E6"/>
<path d="M22.1621 8.27344L22.1621 7.87021H22.1621V8.27344ZM39.4434 20.5146L39.8466 20.5147L39.8466 20.5146L39.4434 20.5146ZM22.1621 32.7559L22.1621 33.1591L22.1621 33.1591L22.1621 32.7559ZM4.88086 20.5146L4.47763 20.5146L4.47763 20.5147L4.88086 20.5146ZM22.1611 11.1543L22.1611 10.7511H22.1611V11.1543ZM11.5098 15.0312L11.2501 14.7228L11.2501 14.7228L11.5098 15.0312ZM7.75977 20.5146L7.35654 20.5146L7.35654 20.5147L7.75977 20.5146ZM11.5098 25.998L11.2501 26.3065L11.2501 26.3065L11.5098 25.998ZM22.1611 29.875L22.1611 30.2782L22.1611 30.2782L22.1611 29.875ZM32.8125 25.998L33.0722 26.3065L33.0722 26.3065L32.8125 25.998ZM36.5615 20.5146L36.9647 20.5147V20.5146H36.5615ZM32.8125 15.0312L33.0722 14.7228L33.0722 14.7228L32.8125 15.0312ZM22.1621 14.0342L22.1622 13.631H22.1621V14.0342ZM28.6426 20.5146L29.0458 20.5147V20.5146H28.6426ZM22.1621 26.9951L22.1621 27.3983L22.1622 27.3983L22.1621 26.9951ZM15.6816 20.5146L15.2784 20.5146L15.2784 20.5147L15.6816 20.5146ZM22.1621 16.9141L22.1621 16.5108L22.1621 16.5108L22.1621 16.9141ZM18.5625 20.5146L18.1593 20.5146L18.1593 20.5147L18.5625 20.5146ZM22.1621 24.1143L22.1621 24.5175L22.1621 24.5175L22.1621 24.1143ZM25.7627 20.5146L26.1659 20.5147V20.5146H25.7627ZM22.1621 8.27344L22.1621 8.67666C26.5703 8.6768 30.8073 10.3947 33.9418 12.7582C37.0977 15.1379 39.0401 18.0937 39.0401 20.5147L39.4434 20.5146L39.8466 20.5146C39.8466 17.7147 37.6575 14.55 34.4273 12.1143C31.1758 9.66257 26.7721 7.87035 22.1621 7.87021L22.1621 8.27344ZM39.4434 20.5146L39.0401 20.5146C39.0401 22.9356 37.0977 25.8914 33.9418 28.271C30.8073 30.6346 26.5703 32.3525 22.1621 32.3526L22.1621 32.7559L22.1621 33.1591C26.7721 33.1589 31.1758 31.3667 34.4273 28.915C37.6574 26.4793 39.8465 23.3146 39.8466 20.5147L39.4434 20.5146ZM22.1621 32.7559V32.3526C17.7538 32.3526 13.5169 30.6347 10.3824 28.2712C7.22648 25.8915 5.28412 22.9357 5.28409 20.5146L4.88086 20.5146L4.47763 20.5147C4.47767 23.3147 6.66672 26.4794 9.89683 28.9151C13.1483 31.3669 17.552 33.1591 22.1621 33.1591V32.7559ZM4.88086 20.5146L5.28409 20.5147C5.28411 18.0936 7.22647 15.1378 10.3824 12.7581C13.5168 10.3946 17.7538 8.67666 22.1621 8.67666V8.27344V7.87021C17.552 7.87021 13.1483 9.6624 9.89682 12.1142C6.66671 14.5499 4.47766 17.7146 4.47763 20.5146L4.88086 20.5146ZM22.1611 11.1543V10.7511C17.9737 10.7511 14.1991 12.2399 11.2501 14.7228L11.5098 15.0312L11.7695 15.3397C14.5785 12.9747 18.1707 11.5575 22.1611 11.5575V11.1543ZM11.5098 15.0312L11.2501 14.7228C10.0857 15.7031 9.12232 16.8011 8.44689 17.8153C8.10916 18.3224 7.83969 18.8141 7.65345 19.2647C7.46934 19.7102 7.35654 20.1394 7.35654 20.5146H7.75977H8.16299C8.16299 20.2875 8.23485 19.9694 8.39876 19.5728C8.56052 19.1813 8.80242 18.7363 9.1181 18.2623C9.74949 17.3143 10.6611 16.2729 11.7695 15.3397L11.5098 15.0312ZM7.75977 20.5146L7.35654 20.5147C7.35657 20.8899 7.46939 21.3191 7.65351 21.7646C7.83976 22.2153 8.10923 22.707 8.44696 23.2141C9.12238 24.2282 10.0858 25.3262 11.2501 26.3065L11.5098 25.998L11.7695 25.6896C10.6611 24.7564 9.74956 23.715 9.11817 22.767C8.8025 22.2931 8.56059 21.848 8.39881 21.4566C8.23489 21.06 8.16301 20.7418 8.16299 20.5146L7.75977 20.5146ZM11.5098 25.998L11.2501 26.3065C14.1991 28.7894 17.9738 30.2782 22.1611 30.2782V29.875V29.4718C18.1707 29.4718 14.5785 28.0546 11.7695 25.6896L11.5098 25.998ZM22.1611 29.875L22.1611 30.2782C26.3485 30.2781 30.1232 28.7894 33.0722 26.3065L32.8125 25.998L32.5528 25.6896C29.7438 28.0546 26.1515 29.4717 22.1611 29.4718L22.1611 29.875ZM32.8125 25.998L33.0722 26.3065C34.2365 25.3262 35.1996 24.2282 35.8748 23.214C36.2124 22.7069 36.4818 22.2152 36.6679 21.7645C36.852 21.319 36.9647 20.8898 36.9647 20.5147L36.5615 20.5146L36.1583 20.5146C36.1583 20.7418 36.0864 21.06 35.9226 21.4566C35.7609 21.8481 35.5191 22.2931 35.2035 22.7671C34.5724 23.7151 33.6611 24.7564 32.5528 25.6896L32.8125 25.998ZM36.5615 20.5146H36.9647C36.9647 20.1395 36.852 19.7103 36.668 19.2648C36.4818 18.8142 36.2125 18.3224 35.8749 17.8153C35.1997 16.8012 34.2365 15.7031 33.0722 14.7228L32.8125 15.0312L32.5528 15.3397C33.6611 16.2729 34.5724 17.3143 35.2036 18.2623C35.5191 18.7362 35.7609 19.1813 35.9226 19.5727C36.0865 19.9693 36.1583 20.2875 36.1583 20.5146H36.5615ZM32.8125 15.0312L33.0722 14.7228C30.1232 12.2398 26.3485 10.7512 22.1611 10.7511L22.1611 11.1543L22.1611 11.5575C26.1516 11.5576 29.7438 12.9746 32.5528 15.3397L32.8125 15.0312ZM22.1621 14.0342L22.1621 14.4374C25.5182 14.4378 28.2394 17.1586 28.2394 20.5146H28.6426H29.0458C29.0458 16.7131 25.9635 13.6313 22.1622 13.631L22.1621 14.0342ZM28.6426 20.5146L28.2394 20.5146C28.2392 23.8706 25.518 26.5915 22.1621 26.5919L22.1621 26.9951L22.1622 27.3983C25.9634 27.398 29.0456 24.316 29.0458 20.5147L28.6426 20.5146ZM22.1621 26.9951V26.5919C18.8059 26.5919 16.085 23.8709 16.0849 20.5146L15.6816 20.5146L15.2784 20.5147C15.2786 24.3162 18.3605 27.3983 22.1621 27.3983V26.9951ZM15.6816 20.5146H16.0849C16.0849 17.1583 18.8058 14.4374 22.1621 14.4374V14.0342V13.631C18.3604 13.631 15.2784 16.7129 15.2784 20.5146H15.6816ZM22.1621 16.9141L22.1621 16.5108C19.9511 16.511 18.1593 18.3038 18.1593 20.5146H18.5625H18.9657C18.9657 18.749 20.3967 17.3174 22.1621 17.3173L22.1621 16.9141ZM18.5625 20.5146L18.1593 20.5147C18.1595 22.7254 19.9513 24.5173 22.1621 24.5175L22.1621 24.1143L22.1621 23.711C20.3968 23.7109 18.9659 22.28 18.9657 20.5146L18.5625 20.5146ZM22.1621 24.1143L22.1621 24.5175C24.3727 24.5173 26.1657 22.7255 26.1659 20.5147L25.7627 20.5146L25.3595 20.5146C25.3593 22.2799 23.9276 23.7109 22.1621 23.711L22.1621 24.1143ZM25.7627 20.5146H26.1659C26.1659 18.3037 24.373 16.511 22.1621 16.5108L22.1621 16.9141L22.1621 17.3173C23.9276 17.3174 25.3595 18.7491 25.3595 20.5146H25.7627Z" fill="black" fill-opacity="0.12" mask="url(#path-1-outside-1_1484_7734)"/>
</g>
<defs>
<filter id="filter0_d_1484_7734" x="0.446258" y="3.83786" width="43.4317" height="33.3536" filterUnits="userSpaceOnUse" color-interpolation-filters="sRGB">
<feFlood flood-opacity="0" result="BackgroundImageFix"/>
<feColorMatrix in="SourceAlpha" type="matrix" values="0 0 0 0 0 0 0 0 0 0 0 0 0 0 0 0 0 0 127 0" result="hardAlpha"/>
<feOffset/>
<feGaussianBlur stdDeviation="2.01613"/>
<feColorMatrix type="matrix" values="0 0 0 0 0 0 0 0 0 0 0 0 0 0 0 0 0 0 0.16 0"/>
<feBlend mode="normal" in2="BackgroundImageFix" result="effect1_dropShadow_1484_7734"/>
<feBlend mode="normal" in="SourceGraphic" in2="effect1_dropShadow_1484_7734" result="shape"/>
</filter>
</defs>
</svg>
