<svg width="41" height="41" viewBox="0 0 41 41" fill="none" xmlns="http://www.w3.org/2000/svg">
<path fill-rule="evenodd" clip-rule="evenodd" d="M12.6003 7.24902C9.25987 7.24902 6.55192 9.95698 6.55192 13.2974C6.55192 16.6378 9.25987 19.3458 12.6003 19.3458C15.9407 19.3458 18.6487 16.6378 18.6487 13.2974C18.6487 9.95698 15.9407 7.24902 12.6003 7.24902ZM9.57611 13.2974C9.57611 14.9676 10.9301 16.3216 12.6003 16.3216C14.2705 16.3216 15.6245 14.9676 15.6245 13.2974C15.6245 11.6272 14.2705 10.2732 12.6003 10.2732C10.9301 10.2732 9.57611 11.6272 9.57611 13.2974Z" fill="#00D3E6"/>
<path fill-rule="evenodd" clip-rule="evenodd" d="M5.41826 23.5174C7.35406 22.4006 9.90618 21.866 12.6003 21.866C15.2944 21.866 17.8465 22.4006 19.7823 23.5174C21.7519 24.6537 23.185 26.4767 23.185 28.9224C23.185 30.3482 22.6294 31.5553 21.6094 32.3713C20.6348 33.151 19.3834 33.4587 18.1447 33.4587H7.05595C5.81726 33.4587 4.5658 33.151 3.59119 32.3713C2.57116 31.5553 2.01562 30.3482 2.01562 28.9224C2.01562 26.4767 3.44875 24.6536 5.41826 23.5174ZM6.92952 26.1369C5.62282 26.8908 5.03982 27.8398 5.03982 28.9224C5.03982 29.5128 5.24033 29.8178 5.48039 30.0098C5.76585 30.2382 6.27851 30.4345 7.05595 30.4345H18.1447C18.9221 30.4345 19.4348 30.2382 19.7202 30.0098C19.9603 29.8178 20.1608 29.5128 20.1608 28.9224C20.1608 27.8398 19.5778 26.8908 18.2711 26.1369C16.9307 25.3636 14.9465 24.8902 12.6003 24.8902C10.2541 24.8902 8.26993 25.3636 6.92952 26.1369Z" fill="#00D3E6"/>
<path fill-rule="evenodd" clip-rule="evenodd" d="M27.7213 7.24902C24.3808 7.24902 21.6729 9.95698 21.6729 13.2974C21.6729 16.6378 24.3808 19.3458 27.7213 19.3458C31.0617 19.3458 33.7697 16.6378 33.7697 13.2974C33.7697 9.95698 31.0617 7.24902 27.7213 7.24902ZM24.6971 13.2974C24.6971 14.9676 26.0511 16.3216 27.7213 16.3216C29.3915 16.3216 30.7455 14.9676 30.7455 13.2974C30.7455 11.6272 29.3915 10.2732 27.7213 10.2732C26.0511 10.2732 24.6971 11.6272 24.6971 13.2974Z" fill="#00D3E6"/>
<path d="M27.7213 24.8902C27.2637 24.8902 26.8069 24.9126 26.3568 24.9567C25.5257 25.0383 24.7858 24.4306 24.7043 23.5995C24.6228 22.7684 25.2304 22.0285 26.0615 21.947C26.61 21.8932 27.1653 21.866 27.7213 21.866C30.4154 21.866 32.9675 22.4006 34.9033 23.5174C36.8728 24.6537 38.3059 26.4767 38.3059 28.9224C38.306 30.3482 37.7504 31.5553 36.7304 32.3713C35.7558 33.151 34.5043 33.4587 33.2656 33.4587H27.2172C26.3821 33.4587 25.7051 32.7817 25.7051 31.9466C25.7051 31.1115 26.3821 30.4345 27.2172 30.4345H33.2656C34.0431 30.4345 34.5557 30.2382 34.8412 30.0098C35.0812 29.8178 35.2818 29.5128 35.2818 28.9224C35.2818 27.8398 34.6987 26.8908 33.3921 26.1369C32.0516 25.3636 30.0675 24.8902 27.7213 24.8902Z" fill="#00D3E6"/>
</svg>
