<svg width="64" height="64" viewBox="0 0 64 64" fill="none" xmlns="http://www.w3.org/2000/svg">
<path d="M52.5721 47.9996C53.8345 47.9996 54.8578 49.0229 54.8578 50.2853C54.8578 51.5477 53.8345 52.571 52.5721 52.571H11.4293C10.1669 52.571 9.14355 51.5477 9.14355 50.2853C9.14355 49.0229 10.1669 47.9996 11.4293 47.9996H52.5721ZM50.2864 13.7139C51.5488 13.7139 52.5721 14.7372 52.5721 15.9996V27.4282C52.5721 28.6905 51.5488 29.7139 50.2864 29.7139C49.024 29.7139 48.0007 28.6905 48.0007 27.4282V21.5173L33.6169 35.9015C32.793 36.7255 31.4965 36.7889 30.5998 36.0917L30.3845 35.9015L25.1436 30.6606L15.3312 40.473C14.4386 41.3656 12.9914 41.3656 12.0987 40.473C11.2061 39.5803 11.2061 38.1331 12.0987 37.2405L23.5273 25.8119C24.4199 24.9193 25.8672 24.9193 26.7598 25.8119L32.0007 31.0528L44.7641 18.2853H38.8578C37.6856 18.2853 36.7195 17.4029 36.5875 16.2661L36.5721 15.9996C36.5721 14.7372 37.5955 13.7139 38.8578 13.7139H50.2864Z" fill="#00D3E6"/>
</svg>
