<svg width="64" height="64" viewBox="0 0 64 64" fill="none" xmlns="http://www.w3.org/2000/svg">
<path fill-rule="evenodd" clip-rule="evenodd" d="M25.1545 9.47432C24.2129 5.6043 20.0106 3.48272 16.3496 5.14102C13.5408 6.41329 12.0534 9.512 12.7594 12.4989L16.6557 29.6529C13.9762 27.6011 10.0572 28.1175 8.01891 30.956C6.43593 33.1605 6.47416 36.1517 8.11432 38.3144L18.6795 52.2456C18.6802 52.2466 18.681 52.2477 18.6817 52.2487C18.703 52.2785 18.7304 52.3163 18.7641 52.3614C18.8315 52.4516 18.9243 52.5714 19.0432 52.7155C19.2809 53.0037 19.6241 53.3904 20.0799 53.8338C20.991 54.7201 22.3574 55.8381 24.2325 56.8426C28.023 58.8731 33.7375 60.3556 41.6684 58.7544C48.17 57.4417 52.7407 53.8415 55.1599 48.9468C57.5395 44.1322 57.7222 38.3083 56.0048 32.6123L53.4599 21.7711C52.5493 17.8921 48.4395 15.6658 44.703 17.1335C43.7834 17.4947 42.9906 18.0419 42.3503 18.7159C40.917 17.5958 39.022 17.1053 37.119 17.526C35.9659 17.7809 35.0173 18.3125 34.2804 19.0207C34.1225 18.9071 33.9578 18.8009 33.7864 18.7024C32.3712 17.8897 30.6843 17.716 28.9972 18.1406C28.9283 18.1579 28.8603 18.1785 28.7934 18.2021C28.4001 18.3411 27.9711 18.5258 27.5439 18.7808L25.1545 9.47432ZM33.1919 27.6291L33.1933 27.6346C33.5097 28.8555 34.7552 29.5895 35.9766 29.2746C37.1979 28.9598 37.9334 27.7152 37.62 26.4934L37.6186 26.488L37.0374 24.2217C36.7141 22.961 37.3749 22.1512 38.1058 21.9896C38.9575 21.8013 39.8454 22.2889 40.1375 23.1805L41.1242 26.1921L41.1268 26.1999C41.5193 27.398 42.8078 28.052 44.0067 27.6616C45.2055 27.2712 45.8618 25.9838 45.4735 24.7843L45.471 24.7765L45.1999 23.9389C44.8582 22.8832 45.4009 21.7708 46.3744 21.3884C47.4643 20.9603 48.7221 21.5916 49.0094 22.8158L51.5709 33.7278C51.5822 33.776 51.5951 33.8238 51.6095 33.8711C53.0851 38.7185 52.8339 43.3357 51.0617 46.9213C49.3191 50.4471 45.9915 53.2179 40.7637 54.2734C33.8709 55.665 29.2401 54.3391 26.3912 52.8129C24.9465 52.039 23.9197 51.1915 23.2675 50.5571C22.9416 50.24 22.7107 49.9776 22.5696 49.8065C22.4992 49.7211 22.4514 49.6588 22.4256 49.6244C22.4141 49.609 22.407 49.5992 22.4043 49.5954C22.3856 49.5684 22.3664 49.5419 22.3466 49.5157L11.7568 35.552C11.3291 34.9882 11.3185 34.1985 11.7322 33.6224C12.2968 32.8361 13.4001 32.7617 14.0611 33.448C14.0794 33.467 14.0981 33.4857 14.117 33.504L18.9814 38.2161C19.7079 38.9199 20.8105 39.0625 21.6922 38.5666C22.5738 38.0708 23.0247 37.0545 22.8007 36.0681L17.2148 11.4755C17.213 11.4674 17.2111 11.4594 17.2092 11.4513C16.996 10.5577 17.4482 9.66191 18.2358 9.30517C19.234 8.853 20.438 9.41161 20.7141 10.561C20.7169 10.5726 20.7197 10.5841 20.7227 10.5956L25.3456 28.6008C25.6587 29.8206 26.8995 30.5572 28.1203 30.2482C29.3412 29.9392 30.082 28.7009 29.7772 27.4791C29.1156 24.8272 29.3114 23.6326 29.5018 23.1619C29.6151 22.8817 29.7711 22.7201 30.2143 22.55C30.851 22.411 31.2662 22.5268 31.5098 22.6667C31.767 22.8144 32.0165 23.0926 32.1433 23.5821L33.1919 27.6291ZM22.4116 49.606L22.411 49.605ZM22.4126 49.6074L22.4116 49.606L22.411 49.605" fill="#00D3E6"/>
</svg>
