<svg width="64" height="64" viewBox="0 0 64 64" fill="none" xmlns="http://www.w3.org/2000/svg">
<path fill-rule="evenodd" clip-rule="evenodd" d="M60.5449 47.9059C59.7796 53.072 55.2156 57.1423 47.9982 57.1423L35.4424 57.1423C31.165 57.1423 27.0657 55.4295 24.0597 52.3865L7.51704 35.64C3.64007 31.7152 3.54981 25.4308 7.31249 21.3963L18.3692 9.54084C21.1997 6.50592 26.2838 8.50881 26.2838 12.6588L26.2838 13.7138C26.2838 14.9762 27.3071 15.9995 28.5695 15.9995L34.4318 15.9995L33.4689 11.9451C33.1772 10.7172 33.9356 9.48371 35.1634 9.19165C36.3912 8.8996 37.6233 9.6579 37.9158 10.8856L37.9164 10.888L42.4806 30.0455C42.847 31.5835 43.9821 32.8229 45.482 33.3229L52.1495 35.5453C58.257 37.5812 61.2921 42.8627 60.5449 47.9059ZM35.5239 20.571L36.1529 23.2107L29.0845 25.2303C27.8707 25.5771 27.1678 26.8422 27.5146 28.056C27.8614 29.2698 29.1265 29.9726 30.3403 29.6258L37.2134 27.6621L38.0336 31.105C38.1391 31.5479 38.2766 31.9785 38.4435 32.3941L35.8468 33.2597C34.6492 33.6589 34.0019 34.9533 34.4011 36.1509C34.8003 37.3485 36.0948 37.9957 37.2924 37.5965L41.3621 36.24C42.1572 36.8501 43.058 37.3336 44.0364 37.6597L50.7039 39.8822C54.8822 41.275 56.4186 44.5649 56.0229 47.236C55.6454 49.7841 53.3522 52.5709 47.9982 52.5709L35.4424 52.5709C32.3871 52.5708 29.459 51.3475 27.3119 49.1739L10.7693 32.4274C8.61539 30.247 8.56525 26.7556 10.6556 24.5142L21.7124 12.6588L21.7124 13.7138C21.7124 17.5009 24.7824 20.571 28.5695 20.571L35.5239 20.571Z" fill="#00D3E6"/>
</svg>
