<svg width="25" height="25" viewBox="0 0 25 25" fill="none" xmlns="http://www.w3.org/2000/svg">
<g clip-path="url(#clip0_2037_15841)">
<path d="M10.8428 1.02686C11.5581 -0.341614 13.4419 -0.341614 14.1572 1.02686L16.7744 6.03467C17.0458 6.55389 17.5268 6.91791 18.084 7.02686L23.458 8.07764C24.9265 8.36455 25.5088 10.233 24.4824 11.3657L20.7266 15.5112C20.3372 15.941 20.1527 16.5302 20.2256 17.1167L20.9297 22.7739C21.1219 24.3197 19.5977 25.4746 18.248 24.8062L13.3096 22.3599C12.7974 22.1062 12.2026 22.1062 11.6904 22.3599L6.75098 24.8062C5.40138 25.4744 3.87808 24.3196 4.07031 22.7739L4.77344 17.1167C4.8463 16.5302 4.66279 15.941 4.27344 15.5112L0.517578 11.3657C-0.50879 10.233 0.0735384 8.36455 1.54199 8.07764L6.91602 7.02686C7.47308 6.91785 7.95421 6.55384 8.22559 6.03467L10.8428 1.02686ZM18.8203 10.1362C18.3776 9.66456 17.6361 9.641 17.1641 10.0835L11.7422 15.1655L8.63867 12.062C8.18101 11.6045 7.43807 11.6044 6.98047 12.062C6.52319 12.5196 6.52307 13.2627 6.98047 13.7202L10.8867 17.6265C11.3339 18.0736 12.0561 18.0841 12.5176 17.6519L18.7676 11.7925C19.2394 11.3498 19.2629 10.6083 18.8203 10.1362Z" fill="white"/>
</g>
<defs>
<clipPath id="clip0_2037_15841">
<rect width="25" height="25" fill="white"/>
</clipPath>
</defs>
</svg>
