<svg width="41" height="40" viewBox="0 0 41 40" fill="none" xmlns="http://www.w3.org/2000/svg">
<path fill-rule="evenodd" clip-rule="evenodd" d="M28.064 17.2744C28.064 14.1983 25.5732 11.7047 22.5006 11.7047H17.3586C16.5806 11.7047 15.95 12.3361 15.95 13.1149L15.9483 20H14.8018C14.0173 20 13.3813 20.6367 13.3813 21.422C13.3813 22.2074 14.0173 22.8441 14.8018 22.8441L15.9483 22.8436V24.9772H14.6242C13.9378 24.9772 13.3813 25.5342 13.3813 26.2214C13.3813 26.9086 13.9378 27.4657 14.6242 27.4657H15.9483L15.95 28.5441C15.95 29.323 16.5806 29.9543 17.3586 29.9543C18.1365 29.9543 18.7672 29.323 18.7672 28.5441V27.4657H21.2529C21.9394 27.4657 22.4958 26.9086 22.4958 26.2214C22.4958 25.5342 21.9394 24.9772 21.2529 24.9772H18.7672V22.8436L22.5006 22.8441C25.5732 22.8441 28.064 20.3504 28.064 17.2744ZM18.7672 14.3118H22.555C24.124 14.3118 25.3959 15.5851 25.3959 17.1559C25.3959 18.7266 24.124 20 22.555 20H18.7672V14.3118Z" fill="#7CEDF8"/>
<path fill-rule="evenodd" clip-rule="evenodd" d="M20.4324 3.40942C15.8514 3.40942 11.7017 5.26802 8.70106 8.26869C5.70039 11.2694 3.8418 15.419 3.8418 20C3.8418 24.5809 5.70039 28.7306 8.70106 31.7313C11.7017 34.7319 15.8514 36.5905 20.4324 36.5905C25.0133 36.5905 29.163 34.7319 32.1637 31.7313C35.1643 28.7306 37.0229 24.5809 37.0229 20C37.0229 15.419 35.1643 11.2694 32.1637 8.26869C29.163 5.26802 25.0133 3.40942 20.4324 3.40942ZM10.8127 10.3803C13.2762 7.9168 16.6752 6.39572 20.4324 6.39572C24.1895 6.39572 27.5885 7.9168 30.052 10.3803C32.5155 12.8438 34.0366 16.2429 34.0366 20C34.0366 23.7571 32.5155 27.1561 30.052 29.6196C27.5885 32.0832 24.1895 33.6042 20.4324 33.6042C16.6752 33.6042 13.2762 32.0832 10.8127 29.6196C8.34917 27.1561 6.8281 23.7571 6.8281 20C6.8281 16.2429 8.34917 12.8438 10.8127 10.3803Z" fill="#7CEDF8"/>
</svg>
