<svg width="35" height="36" viewBox="0 0 35 36" fill="none" xmlns="http://www.w3.org/2000/svg">
<path fill-rule="evenodd" clip-rule="evenodd" d="M7.83056 8.06396C10.3721 5.5224 13.8869 3.94824 17.7668 3.94824C21.3653 3.94824 24.6498 5.30239 27.135 7.52658V5.22569C27.135 4.52018 27.7069 3.94824 28.4124 3.94824C29.118 3.94824 29.6899 4.52018 29.6899 5.22569V10.9032C29.6899 11.6088 29.118 12.1807 28.4125 12.1807L23.4446 12.1807C22.7391 12.1807 22.1672 11.6088 22.1671 10.9033C22.1671 10.1978 22.7391 9.62583 23.4446 9.62582L25.6441 9.62581C23.5853 7.68828 20.8155 6.50314 17.7668 6.50314C14.5917 6.50314 11.7191 7.78854 9.63715 9.87054C7.55514 11.9525 6.26974 14.8251 6.26974 18.0002C6.26974 21.1753 7.55514 24.0478 9.63715 26.1298C11.7191 28.2118 14.5917 29.4972 17.7668 29.4972C20.9419 29.4972 23.8144 28.2118 25.8964 26.1298C26.3953 25.6309 27.2041 25.6309 27.703 26.1298C28.2019 26.6287 28.2019 27.4375 27.703 27.9364C25.1614 30.4779 21.6467 32.0521 17.7668 32.0521C13.8869 32.0521 10.3721 30.478 7.83056 27.9364C5.289 25.3948 3.71484 21.8801 3.71484 18.0002C3.71484 14.1203 5.289 10.6055 7.83056 8.06396ZM17.767 11.0452C18.4726 11.0452 19.0445 11.6171 19.0445 12.3226V17.613L22.2188 20.7873C22.7177 21.2862 22.7177 22.095 22.2188 22.5939C21.7199 23.0927 20.9111 23.0927 20.4122 22.5939L16.8638 19.0454C16.6242 18.8058 16.4896 18.4809 16.4896 18.1421V12.3226C16.4896 11.6171 17.0615 11.0452 17.767 11.0452Z" fill="#7CEDF8"/>
</svg>
