<svg width="41" height="40" viewBox="0 0 41 40" fill="none" xmlns="http://www.w3.org/2000/svg">
<path d="M14.0628 21.6592C15.1878 21.6592 15.9501 21.8064 16.7492 22.2337C17.54 22.6566 18.1784 23.2951 18.6013 24.0859C18.9812 24.7961 19.1397 25.4774 19.1702 26.4102L19.1759 26.7723V31.1458C19.1759 32.2708 19.0287 33.0331 18.6013 33.8322C18.1784 34.623 17.54 35.2614 16.7492 35.6843C16.0389 36.0642 15.3577 36.2227 14.4249 36.2532L14.0628 36.2589H9.68929C8.56421 36.2589 7.80191 36.1117 7.00287 35.6843C6.21209 35.2614 5.57362 34.623 5.15071 33.8322C4.77086 33.1219 4.61234 32.4407 4.58181 31.5079L4.57617 31.1458V26.7723C4.57617 25.6472 4.72338 24.8849 5.15071 24.0859C5.57362 23.2951 6.21209 22.6566 7.00287 22.2337C7.71313 21.8539 8.39435 21.6953 9.32715 21.6648L9.68929 21.6592H14.0628ZM31.9806 21.6592C33.1056 21.6592 33.8679 21.8064 34.667 22.2337C35.4578 22.6566 36.0962 23.2951 36.5191 24.0859C36.899 24.7961 37.0575 25.4774 37.088 26.4102L37.0937 26.7723V31.1458C37.0937 32.2708 36.9465 33.0331 36.5191 33.8322C36.0962 34.623 35.4578 35.2614 34.667 35.6843C33.9567 36.0642 33.2755 36.2227 32.3427 36.2532L31.9806 36.2589H27.6071C26.482 36.2589 25.7197 36.1117 24.9207 35.6843C24.1299 35.2614 23.4914 34.623 23.0685 33.8322C22.6887 33.1219 22.5302 32.4407 22.4996 31.5079L22.494 31.1458V26.7723C22.494 25.6472 22.6412 24.8849 23.0685 24.0859C23.4914 23.2951 24.1299 22.6566 24.9207 22.2337C25.6309 21.8539 26.3122 21.6953 27.245 21.6648L27.6071 21.6592H31.9806ZM14.0628 24.6455H9.68929C8.94975 24.6455 8.68157 24.7225 8.41121 24.8671C8.14084 25.0117 7.92866 25.2238 7.78407 25.4942C7.65755 25.7308 7.58278 25.9657 7.56606 26.5161L7.56247 26.7723V31.1458C7.56247 31.8853 7.63947 32.1535 7.78407 32.4238C7.92866 32.6942 8.14084 32.9064 8.41121 33.051C8.64778 33.1775 8.88267 33.2523 9.43313 33.269L9.68929 33.2726H14.0628C14.8023 33.2726 15.0705 33.1956 15.3408 33.051C15.6112 32.9064 15.8234 32.6942 15.968 32.4238C16.0945 32.1873 16.1693 31.9524 16.186 31.4019L16.1896 31.1458V26.7723C16.1896 26.0328 16.1126 25.7646 15.968 25.4942C15.8234 25.2238 15.6112 25.0117 15.3408 24.8671C15.0705 24.7225 14.8023 24.6455 14.0628 24.6455ZM31.9806 24.6455H27.6071C26.8676 24.6455 26.5994 24.7225 26.329 24.8671C26.0587 25.0117 25.8465 25.2238 25.7019 25.4942C25.5754 25.7308 25.5006 25.9657 25.4839 26.5161L25.4803 26.7723V31.1458C25.4803 31.8853 25.5573 32.1535 25.7019 32.4238C25.8465 32.6942 26.0587 32.9064 26.329 33.051C26.5656 33.1775 26.8005 33.2523 27.3509 33.269L27.6071 33.2726H31.9806C32.7201 33.2726 32.9883 33.1956 33.2586 33.051C33.529 32.9064 33.7412 32.6942 33.8858 32.4238C34.0123 32.1873 34.0871 31.9524 34.1038 31.4019L34.1074 31.1458V26.7723C34.1074 26.0328 34.0304 25.7646 33.8858 25.4942C33.7412 25.2238 33.529 25.0117 33.2586 24.8671C32.9883 24.7225 32.7201 24.6455 31.9806 24.6455ZM31.1035 2.83987C31.8623 3.06985 32.4495 3.43159 33.1174 4.0514L33.4093 4.33319L36.5019 7.4257C37.2974 8.22125 37.7323 8.86437 37.9952 9.73154C38.2553 10.5898 38.2553 11.4927 37.9952 12.3509C37.7652 13.1097 37.4035 13.6969 36.7836 14.3648L36.5019 14.6567L33.4093 17.7492C32.6138 18.5448 31.9707 18.9797 31.1035 19.2426C30.2453 19.5027 29.3424 19.5027 28.4841 19.2426C27.7254 19.0126 27.1381 18.6508 26.4702 18.031L26.1783 17.7492L23.0858 14.6567C22.2903 13.8612 21.8553 13.2181 21.5925 12.3509C21.3324 11.4927 21.3324 10.5898 21.5925 9.73154C21.8225 8.97276 22.1842 8.38553 22.804 7.71762L23.0858 7.4257L26.1783 4.33319C26.9739 3.53764 27.617 3.1027 28.4841 2.83987C29.3424 2.57974 30.2453 2.57974 31.1035 2.83987ZM14.0628 3.74137C15.1878 3.74137 15.9501 3.88858 16.7492 4.3159C17.54 4.73882 18.1784 5.37729 18.6013 6.16807C19.0287 6.9671 19.1759 7.7294 19.1759 8.85448V13.2279C19.1759 14.353 19.0287 15.1153 18.6013 15.9144C18.1784 16.7051 17.54 17.3436 16.7492 17.7665C15.9501 18.1939 15.1878 18.3411 14.0628 18.3411H9.68929C8.56421 18.3411 7.80191 18.1939 7.00287 17.7665C6.21209 17.3436 5.57362 16.7051 5.15071 15.9144C4.72338 15.1153 4.57617 14.353 4.57617 13.2279V8.85448C4.57617 7.7294 4.72338 6.9671 5.15071 6.16807C5.57362 5.37729 6.21209 4.73882 7.00287 4.3159C7.80191 3.88858 8.56421 3.74137 9.68929 3.74137H14.0628ZM29.3504 5.69778C29.0936 5.7756 28.8747 5.88882 28.4736 6.26623L28.2899 6.44483L25.1974 9.53733C24.6745 10.0603 24.5393 10.3043 24.4504 10.5978C24.3615 10.8912 24.3615 11.1913 24.4504 11.4847C24.5282 11.7414 24.6414 11.9604 25.0188 12.3614L25.1974 12.5451L28.2899 15.6376C28.8129 16.1605 29.057 16.2957 29.3504 16.3847C29.6438 16.4736 29.9439 16.4736 30.2373 16.3847C30.494 16.3068 30.713 16.1936 31.114 15.8162L31.2977 15.6376L34.3902 12.5451C34.9132 12.0222 35.0483 11.7781 35.1373 11.4847C35.2262 11.1913 35.2262 10.8912 35.1373 10.5978C35.0594 10.341 34.9462 10.1221 34.5688 9.721L34.3902 9.53733L31.2977 6.44483C30.7748 5.92189 30.5307 5.78671 30.2373 5.69778C29.9439 5.60884 29.6438 5.60884 29.3504 5.69778ZM14.0628 6.72767H9.68929C8.94975 6.72767 8.68157 6.80467 8.41121 6.94926C8.14084 7.09386 7.92866 7.30604 7.78407 7.57641C7.63947 7.84677 7.56247 8.11494 7.56247 8.85448V13.2279C7.56247 13.9675 7.63947 14.2357 7.78407 14.506C7.92866 14.7764 8.14084 14.9886 8.41121 15.1332C8.68157 15.2778 8.94975 15.3548 9.68929 15.3548H14.0628C14.8023 15.3548 15.0705 15.2778 15.3408 15.1332C15.6112 14.9886 15.8234 14.7764 15.968 14.506C16.1126 14.2357 16.1896 13.9675 16.1896 13.2279V8.85448C16.1896 8.11494 16.1126 7.84677 15.968 7.57641C15.8234 7.30604 15.6112 7.09386 15.3408 6.94926C15.0705 6.80467 14.8023 6.72767 14.0628 6.72767Z" fill="#00D3E6"/>
</svg>
