<svg width="41" height="40" viewBox="0 0 41 40" fill="none" xmlns="http://www.w3.org/2000/svg">
<path d="M25.5318 15.46C26.1149 14.8769 27.0604 14.8769 27.6435 15.46C28.2266 16.0431 28.2266 16.9886 27.6435 17.5717L20.0118 25.2033C19.4287 25.7864 18.4833 25.7864 17.9002 25.2033L13.5866 20.8898C13.0035 20.3067 13.0035 19.3613 13.5866 18.7781C14.1697 18.195 15.1152 18.195 15.6983 18.7781L18.956 22.0359L25.5318 15.46Z" fill="#00D3E6"/>
<path fill-rule="evenodd" clip-rule="evenodd" d="M16.4037 5.06836H24.8265C26.3984 5.06834 27.6688 5.06833 28.6982 5.15243C29.7588 5.23909 30.6942 5.42242 31.5608 5.864C32.9344 6.56386 34.0511 7.68059 34.751 9.05415C35.1925 9.92078 35.3759 10.8562 35.4625 11.9168C35.5466 12.9461 35.5466 14.2165 35.5466 15.7885V24.2112C35.5466 25.7832 35.5466 27.0536 35.4625 28.0829C35.3759 29.1435 35.1925 30.079 34.751 30.9456C34.0511 32.3191 32.9344 33.4359 31.5608 34.1357C30.6942 34.5773 29.7588 34.7606 28.6982 34.8473C27.6688 34.9314 26.3984 34.9314 24.8265 34.9314H16.4037C14.8318 34.9314 13.5614 34.9314 12.532 34.8473C11.4714 34.7606 10.536 34.5773 9.66938 34.1357C8.29583 33.4359 7.17909 32.3191 6.47923 30.9456C6.03766 30.0789 5.85432 29.1435 5.76766 28.0829C5.68357 27.0536 5.68358 25.7832 5.68359 24.2112V15.7885C5.68358 14.2165 5.68357 12.9461 5.76766 11.9168C5.85432 10.8562 6.03766 9.92078 6.47923 9.05415C7.17909 7.68059 8.29583 6.56386 9.66938 5.864C10.536 5.42242 11.4714 5.23909 12.532 5.15243C13.5614 5.06833 14.8318 5.06834 16.4037 5.06836ZM12.7752 8.12881C11.8993 8.20038 11.4006 8.33349 11.0251 8.52481C10.2135 8.93836 9.5536 9.59825 9.14004 10.4099C8.94872 10.7854 8.81561 11.284 8.74405 12.16C8.67106 13.0534 8.6699 14.2016 8.6699 15.8522V24.1475C8.6699 25.7982 8.67106 26.9464 8.74405 27.8397C8.81561 28.7157 8.94872 29.2143 9.14004 29.5898C9.5536 30.4015 10.2135 31.0614 11.0251 31.4749C11.4006 31.6662 11.8993 31.7994 12.7752 31.8709C13.6686 31.9439 14.8168 31.9451 16.4675 31.9451H24.7627C26.4134 31.9451 27.5616 31.9439 28.455 31.8709C29.3309 31.7994 29.8296 31.6662 30.2051 31.4749C31.0167 31.0614 31.6766 30.4015 32.0902 29.5898C32.2815 29.2143 32.4146 28.7157 32.4862 27.8397C32.5591 26.9464 32.5603 25.7982 32.5603 24.1475V15.8522C32.5603 14.2016 32.5591 13.0534 32.4862 12.16C32.4146 11.284 32.2815 10.7854 32.0902 10.4099C31.6766 9.59825 31.0167 8.93836 30.2051 8.52481C29.8296 8.33349 29.3309 8.20038 28.455 8.12881C27.5616 8.05582 26.4134 8.05466 24.7627 8.05466H16.4675C14.8168 8.05466 13.6686 8.05582 12.7752 8.12881Z" fill="#00D3E6"/>
</svg>
