<?xml version="1.0" standalone="no"?>
<!DOCTYPE svg PUBLIC "-//W3C//DTD SVG 20010904//EN"
 "http://www.w3.org/TR/2001/REC-SVG-20010904/DTD/svg10.dtd">
<svg version="1.0" xmlns="http://www.w3.org/2000/svg"
 width="700.000000pt" height="700.000000pt" viewBox="0 0 700.000000 700.000000"
 preserveAspectRatio="xMidYMid meet">
<metadata>
Created by potrace 1.14, written by Peter Selinger 2001-2017
</metadata>
<g transform="translate(0.000000,700.000000) scale(0.100000,-0.100000)"
fill="#000000" stroke="none">
<path d="M2430 6989 c-1116 -22 -1562 -128 -1910 -456 -271 -255 -414 -608
-474 -1178 -37 -347 -41 -514 -41 -1850 0 -1368 4 -1534 45 -1897 69 -604 240
-974 564 -1223 306 -234 675 -325 1486 -366 339 -18 2461 -18 2800 0 894 45
1289 163 1604 477 314 315 432 710 477 1604 18 339 18 2461 0 2800 -26 525
-69 816 -157 1079 -129 384 -401 672 -776 820 -221 87 -537 145 -933 171 -409
27 -1808 37 -2685 19z m615 -1636 c62 -21 133 -90 167 -163 14 -30 96 -237
183 -460 86 -223 162 -410 168 -416 7 -6 178 -34 380 -62 329 -46 374 -55 419
-79 139 -76 171 -248 70 -381 -20 -27 -156 -163 -302 -301 -146 -139 -266
-260 -268 -269 -1 -9 45 -210 103 -447 94 -380 106 -438 102 -497 -10 -157
-124 -257 -261 -228 -59 12 -69 18 -525 335 l-294 204 -36 -28 c-20 -16 -200
-162 -401 -325 -378 -308 -448 -355 -538 -364 -153 -14 -267 113 -248 277 4
31 66 275 138 543 72 269 130 490 127 491 -2 2 -164 134 -359 294 -195 159
-372 308 -392 331 -106 118 -117 264 -26 366 50 57 90 82 164 100 54 14 467
46 806 62 75 4 141 10 147 13 6 4 92 198 191 431 100 234 195 446 212 472 65
102 164 139 273 101z"/>
</g>
</svg>
