<svg width="224" height="125" viewBox="0 0 224 125" fill="none" xmlns="http://www.w3.org/2000/svg">
<g clip-path="url(#clip0_6457_44095)">
<rect x="0.602539" y="42.2002" width="210.27" height="83.7188" rx="16.9443" transform="rotate(-11.5776 0.602539 42.2002)" fill="#FF3985"/>
<path d="M49.8459 85.7593L44.4449 86.8658L42.5345 77.5406L32.6186 79.572L31.5553 74.382L41.4713 72.3505L39.5522 62.9831L44.9533 61.8767L46.8723 71.2441L56.7882 69.2127L57.8515 74.4027L47.9355 76.4341L49.8459 85.7593ZM74.5381 83.2069L73.1204 76.2869L89.2468 63.7942C90.8404 62.5591 91.9081 61.4756 92.45 60.5439C92.9919 59.6122 93.1505 58.5978 92.9258 57.5007C92.6491 56.1505 91.8365 55.1885 90.4879 54.6147C89.1675 54.0352 87.3258 53.9875 84.9628 54.4716C82.853 54.9038 81.0713 55.6498 79.6177 56.7097C78.1642 57.7696 77.109 59.1289 76.4522 60.7876L69.5941 61.0055C70.3738 57.944 72.0063 55.3965 74.4916 53.3632C77.0049 51.3242 80.2307 49.9012 84.169 49.0944C86.8132 48.5527 89.2147 48.4711 91.3733 48.8496C93.5543 49.1942 95.3374 49.9574 96.7226 51.1391C98.1302 52.287 99.0184 53.7611 99.3872 55.5615C99.8079 57.615 99.5633 59.497 98.6534 61.2076C97.7434 62.9182 95.8969 64.85 93.1138 67.0029L82.8793 74.9911L83.0695 75.9194L102.817 71.8738L103.906 77.1905L74.5381 83.2069ZM126.417 73.722C122.563 74.5115 119.091 74.5193 116.001 73.7453C112.906 72.9432 110.368 71.4994 108.387 69.4137C106.429 67.2942 105.133 64.6872 104.499 61.5929C103.865 58.4986 104.031 55.5919 104.999 52.8731C105.994 50.1484 107.76 47.8228 110.296 45.8963C112.827 43.9416 116.019 42.5695 119.873 41.78C123.699 40.9962 127.145 41.0083 130.213 41.8162C133.302 42.5901 135.843 44.0481 137.835 46.19C139.822 48.3038 141.129 50.8938 141.757 53.96C142.386 57.0262 142.202 59.9216 141.207 62.6462C140.211 65.3709 138.448 67.7106 135.918 69.6652C133.41 71.586 130.243 72.9383 126.417 73.722ZM125.232 67.9412C127.68 67.4399 129.686 66.5745 131.252 65.3452C132.817 64.1158 133.894 62.6494 134.483 60.946C135.095 59.2086 135.199 57.3554 134.795 55.3863C134.386 53.389 133.562 51.726 132.322 50.3971C131.105 49.0343 129.535 48.0956 127.612 47.5808C125.69 47.0661 123.505 47.0594 121.057 47.5608C118.61 48.0622 116.59 48.9304 114.996 50.1655C113.431 51.3948 112.342 52.8782 111.731 54.6155C111.142 56.319 111.052 58.1693 111.461 60.1666C111.864 62.1357 112.675 63.8017 113.892 65.1644C115.131 66.4933 116.712 67.4151 118.635 67.9298C120.586 68.4388 122.785 68.4426 125.232 67.9412ZM155.919 49.9595C152.319 50.6972 149.438 50.5839 147.276 49.6198C145.109 48.6275 143.795 47.0062 143.334 44.7557C142.873 42.5053 143.447 40.5119 145.055 38.7755C146.657 37.011 149.259 35.76 152.859 35.0223C156.432 34.2904 159.302 34.4206 161.469 35.4129C163.658 36.3713 164.984 37.9757 165.445 40.2261C165.906 42.4765 165.335 44.484 163.733 46.2485C162.125 47.9849 159.52 49.2219 155.919 49.9595ZM161.795 65.3313L155.043 66.7144L177.262 31.1662L183.971 29.7918L161.795 65.3313ZM155.029 45.6134C157.139 45.1812 158.603 44.6027 159.422 43.8781C160.241 43.1534 160.546 42.2848 160.339 41.2721C160.132 40.2594 159.509 39.5809 158.471 39.2366C157.433 38.8923 155.86 38.9362 153.75 39.3684C151.612 39.8064 150.133 40.3877 149.315 41.1124C148.524 41.8313 148.232 42.6971 148.44 43.7098C148.647 44.7225 149.256 45.4038 150.266 45.7539C151.303 46.0982 152.891 46.0514 155.029 45.6134ZM186.197 61.4752C182.597 62.2129 179.716 62.0996 177.554 61.1355C175.387 60.1432 174.073 58.5218 173.612 56.2714C173.151 54.021 173.725 52.0276 175.333 50.2912C176.935 48.5267 179.537 47.2756 183.137 46.538C186.71 45.8061 189.58 45.9363 191.747 46.9286C193.936 47.8869 195.261 49.4914 195.723 51.7418C196.184 53.9922 195.613 55.9997 194.011 57.7642C192.402 59.5005 189.798 60.7376 186.197 61.4752ZM185.307 57.1291C187.417 56.6968 188.881 56.1184 189.7 55.3938C190.519 54.6691 190.824 53.8004 190.617 52.7877C190.409 51.7751 189.787 51.0966 188.749 50.7522C187.711 50.4079 186.137 50.4519 184.028 50.8841C181.89 51.3221 180.411 51.9034 179.593 52.6281C178.802 53.347 178.51 54.2127 178.718 55.2254C178.925 56.2381 179.534 56.9195 180.543 57.2696C181.581 57.6139 183.169 57.567 185.307 57.1291Z" fill="white"/>
</g>
<defs>
<clipPath id="clip0_6457_44095">
<rect x="0.602539" y="42.2002" width="210.27" height="83.7188" rx="16.9443" transform="rotate(-11.5776 0.602539 42.2002)" fill="white"/>
</clipPath>
</defs>
</svg>
