<svg width="266" height="44" viewBox="0 0 266 44" fill="none" xmlns="http://www.w3.org/2000/svg">
<path d="M71.7552 33.1369H66.2944L58.5244 11.1375H62.5498L68.7596 29.2675H69.3837L75.8119 11.1375H79.7749L71.7552 33.1369Z" fill="white"/>
<path d="M90.1714 21.7471L100.282 33.1369H95.3514L87.1133 23.713H86.1772V33.1369H82.4326V11.1375H86.1772V20.0933H87.0821L94.8833 11.1375H99.5016L90.1714 21.7471Z" fill="white"/>
<path d="M127.965 33.1369H123.971L122.286 28.425H111.863L110.116 33.1369H106.215L114.641 11.1375H119.789L127.965 33.1369ZM116.856 15.0069L113.143 24.9924H121.069L117.48 15.0069H116.856Z" fill="white"/>
<path d="M136.679 33.4489C135.161 33.4489 133.798 33.0953 132.592 32.388C131.385 31.6599 130.438 30.6613 129.752 29.3923C129.086 28.1025 128.753 26.6463 128.753 25.0236C128.753 23.401 129.086 21.9552 129.752 20.6862C130.438 19.3964 131.385 18.3978 132.592 17.6905C133.798 16.9624 135.161 16.5984 136.679 16.5984C137.99 16.5984 139.155 16.8688 140.174 17.4097C141.194 17.9298 142.026 18.5851 142.671 19.3756V11.1375H146.259V33.1369H143.576L142.827 30.5157C142.161 31.327 141.308 32.0239 140.268 32.6064C139.228 33.1681 138.032 33.4489 136.679 33.4489ZM137.553 30.2348C139.072 30.2348 140.299 29.7564 141.235 28.7994C142.192 27.8217 142.671 26.5631 142.671 25.0236C142.671 23.4842 142.192 22.236 141.235 21.2791C140.299 20.3013 139.072 19.8125 137.553 19.8125C136.055 19.8125 134.838 20.3013 133.902 21.2791C132.966 22.236 132.498 23.4842 132.498 25.0236C132.498 26.5631 132.966 27.8217 133.902 28.7994C134.838 29.7564 136.055 30.2348 137.553 30.2348Z" fill="white"/>
<path d="M163.36 21.8408C164.546 22.1944 165.472 22.8289 166.137 23.7443C166.824 24.6388 167.167 25.7206 167.167 26.9896C167.167 28.1961 166.865 29.2675 166.262 30.2036C165.659 31.119 164.816 31.8367 163.734 32.3568C162.653 32.8769 161.405 33.1369 159.99 33.1369H150.784V11.1375H159.366C160.76 11.1375 161.997 11.3976 163.079 11.9176C164.161 12.4169 165.003 13.1242 165.607 14.0396C166.21 14.9549 166.512 15.9847 166.512 17.1288C166.512 18.2314 166.231 19.1988 165.669 20.0309C165.107 20.863 164.338 21.4663 163.36 21.8408ZM154.529 14.414V20.4365H159.366C160.364 20.4365 161.176 20.1661 161.8 19.6252C162.424 19.0635 162.736 18.3354 162.736 17.4409C162.736 16.5464 162.424 15.8182 161.8 15.2566C161.176 14.6949 160.364 14.414 159.366 14.414H154.529ZM159.99 29.8604C160.968 29.8604 161.769 29.5795 162.393 29.0179C163.017 28.4354 163.329 27.6865 163.329 26.7711C163.329 25.8766 163.017 25.1485 162.393 24.5868C161.769 24.0043 160.968 23.713 159.99 23.713H154.529V29.8604H159.99Z" fill="white"/>
<path d="M174.329 33.1369H170.741V11.1375H174.329V33.1369Z" fill="white"/>
<path d="M186.277 33.4489C184.613 33.4489 183.115 33.0953 181.784 32.388C180.473 31.6599 179.443 30.6613 178.694 29.3923C177.966 28.1025 177.602 26.6463 177.602 25.0236C177.602 23.401 177.966 21.9552 178.694 20.6862C179.443 19.3964 180.473 18.3978 181.784 17.6905C183.115 16.9624 184.613 16.5984 186.277 16.5984C187.941 16.5984 189.429 16.9624 190.74 17.6905C192.071 18.3978 193.101 19.3964 193.829 20.6862C194.578 21.9552 194.952 23.401 194.952 25.0236C194.952 26.6463 194.578 28.1025 193.829 29.3923C193.101 30.6613 192.071 31.6599 190.74 32.388C189.429 33.0953 187.941 33.4489 186.277 33.4489ZM186.277 30.1724C187.733 30.1724 188.919 29.7044 189.835 28.7682C190.75 27.8113 191.208 26.5631 191.208 25.0236C191.208 23.4842 190.75 22.2464 189.835 21.3103C188.919 20.3533 187.733 19.8749 186.277 19.8749C184.821 19.8749 183.635 20.3533 182.72 21.3103C181.805 22.2464 181.347 23.4842 181.347 25.0236C181.347 26.5631 181.805 27.8113 182.72 28.7682C183.635 29.7044 184.821 30.1724 186.277 30.1724Z" fill="white"/>
<path d="M205.467 39.5339C203.616 39.5339 201.972 39.0866 200.537 38.1921C199.122 37.3183 198.124 36.1013 197.541 34.5411L201.068 33.9482C201.525 34.6971 202.129 35.2692 202.877 35.6645C203.626 36.0597 204.5 36.2574 205.499 36.2574C206.934 36.2574 208.12 35.8517 209.056 35.0404C209.992 34.2291 210.46 32.9601 210.46 31.2334V29.7668C209.836 30.5781 209.035 31.223 208.057 31.7015C207.1 32.1591 206.008 32.388 204.781 32.388C203.304 32.388 201.983 32.0551 200.818 31.3894C199.674 30.7029 198.769 29.7668 198.103 28.581C197.458 27.3744 197.136 26.0118 197.136 24.4932C197.136 22.9745 197.458 21.6223 198.103 20.4365C198.769 19.23 199.674 18.2938 200.818 17.6281C201.983 16.9416 203.304 16.5984 204.781 16.5984C206.092 16.5984 207.236 16.8584 208.213 17.3785C209.212 17.8778 210.013 18.5747 210.616 19.4692L211.365 16.9104H214.049V31.2646C214.049 33.0329 213.664 34.5411 212.894 35.7893C212.124 37.0375 211.084 37.9736 209.774 38.5977C208.484 39.2218 207.048 39.5339 205.467 39.5339ZM205.655 29.1739C207.069 29.1739 208.224 28.7474 209.118 27.8945C210.013 27.0208 210.46 25.887 210.46 24.4932C210.46 23.0994 210.013 21.976 209.118 21.1231C208.224 20.2493 207.069 19.8125 205.655 19.8125C204.24 19.8125 203.085 20.2493 202.191 21.1231C201.317 21.976 200.88 23.0994 200.88 24.4932C200.88 25.887 201.317 27.0208 202.191 27.8945C203.085 28.7474 204.24 29.1739 205.655 29.1739Z" fill="white"/>
<path d="M225.488 39.5339C223.637 39.5339 221.994 39.0866 220.558 38.1921C219.143 37.3183 218.145 36.1013 217.562 34.5411L221.089 33.9482C221.546 34.6971 222.15 35.2692 222.898 35.6645C223.647 36.0597 224.521 36.2574 225.52 36.2574C226.955 36.2574 228.141 35.8517 229.077 35.0404C230.013 34.2291 230.481 32.9601 230.481 31.2334V29.7668C229.857 30.5781 229.056 31.223 228.078 31.7015C227.122 32.1591 226.029 32.388 224.802 32.388C223.325 32.388 222.004 32.0551 220.839 31.3894C219.695 30.7029 218.79 29.7668 218.124 28.581C217.479 27.3744 217.157 26.0118 217.157 24.4932C217.157 22.9745 217.479 21.6223 218.124 20.4365C218.79 19.23 219.695 18.2938 220.839 17.6281C222.004 16.9416 223.325 16.5984 224.802 16.5984C226.113 16.5984 227.257 16.8584 228.234 17.3785C229.233 17.8778 230.034 18.5747 230.637 19.4692L231.386 16.9104H234.07V31.2646C234.07 33.0329 233.685 34.5411 232.915 35.7893C232.145 37.0375 231.105 37.9736 229.795 38.5977C228.505 39.2218 227.069 39.5339 225.488 39.5339ZM225.676 29.1739C227.09 29.1739 228.245 28.7474 229.139 27.8945C230.034 27.0208 230.481 25.887 230.481 24.4932C230.481 23.0994 230.034 21.976 229.139 21.1231C228.245 20.2493 227.09 19.8125 225.676 19.8125C224.261 19.8125 223.106 20.2493 222.212 21.1231C221.338 21.976 220.901 23.0994 220.901 24.4932C220.901 25.887 221.338 27.0208 222.212 27.8945C223.106 28.7474 224.261 29.1739 225.676 29.1739Z" fill="white"/>
<path d="M254.028 24.8364C254.028 25.1485 254.008 25.5333 253.966 25.991H240.922C241.089 27.26 241.609 28.2793 242.483 29.0491C243.356 29.798 244.469 30.1724 245.822 30.1724C246.737 30.1724 247.559 29.9956 248.287 29.642C249.036 29.2883 249.608 28.8098 250.003 28.2065L253.373 28.7682C252.791 30.2661 251.782 31.4206 250.346 32.232C248.932 33.0433 247.351 33.4489 245.603 33.4489C243.98 33.4489 242.524 33.0953 241.234 32.388C239.965 31.6599 238.967 30.6613 238.239 29.3923C237.531 28.1025 237.178 26.6463 237.178 25.0236C237.178 23.401 237.531 21.9552 238.239 20.6862C238.967 19.3964 239.965 18.3978 241.234 17.6905C242.524 16.9624 243.98 16.5984 245.603 16.5984C247.226 16.5984 248.672 16.9624 249.941 17.6905C251.23 18.3978 252.229 19.386 252.936 20.655C253.664 21.9032 254.028 23.297 254.028 24.8364ZM245.603 19.7188C244.521 19.7188 243.575 20.0309 242.763 20.655C241.973 21.2791 241.432 22.1216 241.141 23.1826H250.128C249.816 22.1424 249.254 21.3103 248.443 20.6862C247.652 20.0413 246.706 19.7188 245.603 19.7188Z" fill="white"/>
<path d="M256.825 33.1369V16.9104H259.508L260.195 19.2508C260.715 18.3978 261.329 17.7945 262.036 17.4409C262.764 17.0872 263.638 16.9104 264.657 16.9104H265.344L265.656 20.3429H263.596C261.474 20.3429 260.413 21.4143 260.413 23.557V33.1369H256.825Z" fill="white"/>
<path d="M0 21.12C0 11.1628 0 6.18644 3.0932 3.09324C6.18639 4.57764e-05 11.1628 4.57764e-05 21.12 4.57764e-05H22.88C32.8372 4.57764e-05 37.8136 4.57764e-05 40.9068 3.09324C44 6.18644 44 11.1628 44 21.12V22.88C44 32.8372 44 37.8136 40.9068 40.9068C37.8136 44 32.8372 44 22.88 44H21.12C11.1628 44 6.18639 44 3.0932 40.9068C0 37.8136 0 32.8372 0 22.88V21.12Z" fill="#00D3E6"/>
<path d="M35.1975 21.9998C35.1755 18.8142 35.2811 15.6198 35.0083 12.4386C34.7751 8.94499 33.684 5.68899 30.1774 4.2854C27.7444 3.2734 25.1266 2.8642 22.5616 2.3142C20.4937 1.8918 18.4303 1.4606 16.358 1.0822C13.771 0.633399 11.118 0.145 8.49579 0.5498C8.4738 0.5498 8.4518 0.5586 8.4298 0.563C6.13316 0.994199 4.43928 1.751 3.09738 3.093C3.09738 3.093 3.09298 3.0974 3.08858 3.1018C3.02698 3.1634 2.96979 3.2294 2.90819 3.291C2.8598 3.3394 2.8158 3.3922 2.7718 3.4406C0.70395 5.76379 0.180387 9.12539 0.0439969 14.665C0 16.5482 0 18.6866 0 21.1198V22.8798C0 26.6154 0 29.647 0.162788 32.1418C0.162788 32.1462 0.162788 32.1506 0.162788 32.1594C0.189187 32.529 0.215585 32.8854 0.246382 33.233C0.444368 35.3846 0.805143 37.105 1.4475 38.5174C1.86547 39.4282 2.39783 40.2158 3.08858 40.9066C3.29537 41.1134 3.51095 41.307 3.73533 41.483C3.74853 41.4962 3.76613 41.505 3.77933 41.5182C3.97292 41.6722 4.1753 41.813 4.37769 41.9494C4.44808 41.9978 4.52288 42.0418 4.59767 42.0858C4.69886 42.1474 4.80446 42.2046 4.90565 42.2618C5.72399 42.7106 6.65673 43.0406 7.72585 43.287C10.5021 43.859 13.6082 43.4674 16.3448 42.9086C18.4215 42.5346 20.4849 42.099 22.5484 41.6766C25.1134 41.1266 27.7312 40.7174 30.1642 39.7054C33.6708 38.2974 34.7619 35.0546 34.9951 31.5522C35.2723 28.3754 35.1667 25.181 35.1843 21.991L35.1975 21.9998Z" fill="#0077FF"/>
<path d="M11.0791 30.6764C11.0791 30.3816 11.1451 30.0956 11.2199 29.814C11.3651 29.2772 11.5059 28.736 11.6511 28.1992C11.7963 27.6712 11.9415 27.1388 12.0867 26.6108C12.1703 26.2984 12.2495 25.986 12.3331 25.6736C12.4343 25.2996 12.5399 24.9256 12.6411 24.5516C12.6807 24.402 12.7203 24.2568 12.7555 24.1072C12.7731 24.0412 12.7555 23.9884 12.6983 23.9444C12.2847 23.6144 11.8755 23.28 11.4663 22.9456C11.2331 22.752 10.9999 22.5584 10.7667 22.3648C10.3707 22.0436 9.97469 21.7224 9.57869 21.4012C9.2707 21.1504 8.9627 20.8952 8.6503 20.6444C8.4083 20.4508 8.1663 20.2572 7.9639 20.0152C7.6251 19.6016 7.4359 19.1396 7.4843 18.594C7.5107 18.308 7.6119 18.0484 7.7923 17.8152C8.0739 17.45 8.4523 17.2344 8.89229 17.12C9.23549 17.0276 9.58309 17.0232 9.93069 16.9968C10.2827 16.9748 10.6391 16.9572 10.9911 16.9264C11.1891 16.9088 11.3827 16.9044 11.5807 16.8868C11.9767 16.856 12.3771 16.8428 12.7731 16.812C13.0767 16.7856 13.3847 16.7768 13.6883 16.7592C13.9743 16.7416 14.2603 16.7196 14.5507 16.702C14.6387 16.6976 14.7267 16.6976 14.8147 16.6976C14.8939 16.6976 14.9423 16.6624 14.9731 16.5876C15.1667 16.13 15.3647 15.6724 15.5583 15.2148C15.7343 14.8012 15.9103 14.392 16.0819 13.9784C16.3459 13.3536 16.6099 12.7288 16.8827 12.104C17.0279 11.774 17.1467 11.4352 17.3271 11.1184C17.5031 10.806 17.7407 10.5464 18.0663 10.388C18.3127 10.2692 18.5723 10.2252 18.8451 10.2648C19.3511 10.344 19.7119 10.6388 19.9979 11.0392C20.1607 11.268 20.2707 11.5188 20.3675 11.7784C20.5831 12.3328 20.8031 12.8872 21.0187 13.4416C21.2079 13.9256 21.3971 14.4052 21.5819 14.8892C21.8107 15.4788 22.0395 16.0728 22.2683 16.6668C22.2947 16.7372 22.3299 16.8032 22.3563 16.8736C22.3739 16.922 22.4135 16.9484 22.4619 16.9528C22.8359 16.9968 23.2055 17.054 23.5795 17.1068C23.9975 17.1684 24.4199 17.2212 24.8423 17.2784C25.3219 17.3444 25.8015 17.4148 26.2811 17.4808C26.5231 17.516 26.7695 17.5424 27.0115 17.5996C27.3283 17.67 27.6011 17.824 27.8299 18.066C28.1071 18.3608 28.2347 18.7172 28.2347 19.1132C28.2347 19.5532 28.0763 19.9448 27.7947 20.2792C27.5615 20.5564 27.2799 20.7896 27.0203 21.0404C26.5935 21.4496 26.1623 21.8632 25.7355 22.2724C25.4231 22.5716 25.1107 22.8708 24.7939 23.17C24.6267 23.3284 24.4595 23.4868 24.2923 23.6452C24.2439 23.6892 24.2263 23.7332 24.2439 23.7948C24.3231 24.0984 24.3935 24.402 24.4683 24.7056C24.5519 25.0488 24.6311 25.3964 24.7191 25.7396C24.7939 26.0212 24.8643 26.3072 24.9303 26.5932C24.9919 26.8572 25.0667 27.1124 25.1239 27.3764C25.1899 27.6624 25.2779 27.9484 25.3395 28.2344C25.4143 28.5644 25.5243 28.89 25.5595 29.2288C25.6079 29.6908 25.5683 30.1484 25.2999 30.5532C25.0535 30.9272 24.7059 31.1428 24.2439 31.156C23.8523 31.1648 23.5179 31.0152 23.2055 30.7996C22.8975 30.5884 22.5939 30.3772 22.2859 30.1616C21.9779 29.946 21.6743 29.726 21.3663 29.5148C21.0671 29.308 20.7635 29.1012 20.4643 28.8944C20.2355 28.736 20.0111 28.5776 19.7823 28.4192C19.4655 28.1992 19.1531 27.9836 18.8363 27.7636C18.7923 27.7328 18.7571 27.7372 18.7175 27.768C18.3171 28.0936 17.9167 28.4192 17.5163 28.7404C17.1555 29.0308 16.7991 29.3212 16.4383 29.6116C16.0775 29.9064 15.7211 30.2012 15.3603 30.4916C14.9731 30.8084 14.5815 31.1164 14.1899 31.4332C13.9655 31.6136 13.7455 31.8028 13.4903 31.948C13.1691 32.1328 12.8259 32.2516 12.4563 32.2428C11.8755 32.2296 11.4091 31.9304 11.1891 31.3496C11.1055 31.1296 11.0703 30.9008 11.0703 30.6632L11.0791 30.6764Z" fill="white"/>
</svg>
