<svg width="353" height="44" viewBox="0 0 353 44" fill="none" xmlns="http://www.w3.org/2000/svg">
<path d="M71.7551 33.1369H66.2943L58.5243 11.1375H62.5497L68.7595 29.2675H69.3836L75.8117 11.1375H79.7747L71.7551 33.1369Z" fill="white"/>
<path d="M90.1713 21.7472L100.282 33.1369H95.3513L87.1132 23.7131H86.1771V33.1369H82.4325V11.1375H86.1771V20.0933H87.082L94.8832 11.1375H99.5015L90.1713 21.7472Z" fill="white"/>
<path d="M127.965 33.1369H123.971L122.286 28.425H111.863L110.116 33.1369H106.215L114.64 11.1375H119.789L127.965 33.1369ZM116.856 15.0069L113.143 24.9925H121.069L117.48 15.0069H116.856Z" fill="white"/>
<path d="M136.679 33.449C135.161 33.449 133.798 33.0953 132.591 32.388C131.385 31.6599 130.438 30.6613 129.752 29.3923C129.086 28.1025 128.753 26.6463 128.753 25.0237C128.753 23.401 129.086 21.9552 129.752 20.6862C130.438 19.3964 131.385 18.3979 132.591 17.6905C133.798 16.9624 135.161 16.5984 136.679 16.5984C137.99 16.5984 139.155 16.8688 140.174 17.4097C141.194 17.9298 142.026 18.5851 142.671 19.3756V11.1375H146.259V33.1369H143.576L142.827 30.5157C142.161 31.327 141.308 32.0239 140.268 32.6064C139.228 33.1681 138.032 33.449 136.679 33.449ZM137.553 30.2349C139.072 30.2349 140.299 29.7564 141.235 28.7994C142.192 27.8217 142.671 26.5631 142.671 25.0237C142.671 23.4842 142.192 22.236 141.235 21.2791C140.299 20.3013 139.072 19.8125 137.553 19.8125C136.055 19.8125 134.838 20.3013 133.902 21.2791C132.966 22.236 132.498 23.4842 132.498 25.0237C132.498 26.5631 132.966 27.8217 133.902 28.7994C134.838 29.7564 136.055 30.2349 137.553 30.2349Z" fill="white"/>
<path d="M163.36 21.8408C164.546 22.1944 165.471 22.8289 166.137 23.7443C166.824 24.6388 167.167 25.7206 167.167 26.9896C167.167 28.1961 166.865 29.2675 166.262 30.2037C165.659 31.119 164.816 31.8367 163.734 32.3568C162.653 32.8769 161.404 33.1369 159.99 33.1369H150.784V11.1375H159.366C160.759 11.1375 161.997 11.3976 163.079 11.9177C164.161 12.4169 165.003 13.1242 165.607 14.0396C166.21 14.9549 166.512 15.9847 166.512 17.1289C166.512 18.2314 166.231 19.1988 165.669 20.0309C165.107 20.863 164.338 21.4663 163.36 21.8408ZM154.529 14.414V20.4366H159.366C160.364 20.4366 161.176 20.1661 161.8 19.6252C162.424 19.0636 162.736 18.3354 162.736 17.4409C162.736 16.5464 162.424 15.8183 161.8 15.2566C161.176 14.6949 160.364 14.414 159.366 14.414H154.529ZM159.99 29.8604C160.968 29.8604 161.768 29.5796 162.393 29.0179C163.017 28.4354 163.329 27.6865 163.329 26.7711C163.329 25.8766 163.017 25.1485 162.393 24.5868C161.768 24.0043 160.968 23.7131 159.99 23.7131H154.529V29.8604H159.99Z" fill="white"/>
<path d="M174.329 33.1369H170.741V11.1375H174.329V33.1369Z" fill="white"/>
<path d="M186.277 33.449C184.613 33.449 183.115 33.0953 181.784 32.388C180.473 31.6599 179.443 30.6613 178.694 29.3923C177.966 28.1025 177.602 26.6463 177.602 25.0237C177.602 23.401 177.966 21.9552 178.694 20.6862C179.443 19.3964 180.473 18.3979 181.784 17.6905C183.115 16.9624 184.613 16.5984 186.277 16.5984C187.941 16.5984 189.429 16.9624 190.739 17.6905C192.071 18.3979 193.101 19.3964 193.829 20.6862C194.578 21.9552 194.952 23.401 194.952 25.0237C194.952 26.6463 194.578 28.1025 193.829 29.3923C193.101 30.6613 192.071 31.6599 190.739 32.388C189.429 33.0953 187.941 33.449 186.277 33.449ZM186.277 30.1725C187.733 30.1725 188.919 29.7044 189.834 28.7682C190.75 27.8113 191.207 26.5631 191.207 25.0237C191.207 23.4842 190.75 22.2464 189.834 21.3103C188.919 20.3534 187.733 19.8749 186.277 19.8749C184.821 19.8749 183.635 20.3534 182.72 21.3103C181.804 22.2464 181.347 23.4842 181.347 25.0237C181.347 26.5631 181.804 27.8113 182.72 28.7682C183.635 29.7044 184.821 30.1725 186.277 30.1725Z" fill="white"/>
<path d="M205.467 39.5339C203.616 39.5339 201.972 39.0866 200.537 38.1921C199.122 37.3183 198.124 36.1014 197.541 34.5411L201.067 33.9482C201.525 34.6971 202.128 35.2692 202.877 35.6645C203.626 36.0598 204.5 36.2574 205.499 36.2574C206.934 36.2574 208.12 35.8517 209.056 35.0404C209.992 34.2291 210.46 32.9601 210.46 31.2334V29.7668C209.836 30.5781 209.035 31.223 208.057 31.7015C207.1 32.1592 206.008 32.388 204.781 32.388C203.304 32.388 201.983 32.0551 200.818 31.3894C199.674 30.7029 198.769 29.7668 198.103 28.581C197.458 27.3744 197.136 26.0118 197.136 24.4932C197.136 22.9746 197.458 21.6223 198.103 20.4366C198.769 19.23 199.674 18.2938 200.818 17.6281C201.983 16.9416 203.304 16.5984 204.781 16.5984C206.091 16.5984 207.236 16.8584 208.213 17.3785C209.212 17.8778 210.013 18.5747 210.616 19.4692L211.365 16.9104H214.049V31.2646C214.049 33.0329 213.664 34.5411 212.894 35.7893C212.124 37.0375 211.084 37.9736 209.774 38.5977C208.484 39.2218 207.048 39.5339 205.467 39.5339ZM205.655 29.1739C207.069 29.1739 208.224 28.7474 209.118 27.8945C210.013 27.0208 210.46 25.887 210.46 24.4932C210.46 23.0994 210.013 21.976 209.118 21.1231C208.224 20.2493 207.069 19.8125 205.655 19.8125C204.24 19.8125 203.085 20.2493 202.191 21.1231C201.317 21.976 200.88 23.0994 200.88 24.4932C200.88 25.887 201.317 27.0208 202.191 27.8945C203.085 28.7474 204.24 29.1739 205.655 29.1739Z" fill="white"/>
<path d="M225.488 39.5339C223.637 39.5339 221.993 39.0866 220.558 38.1921C219.143 37.3183 218.145 36.1014 217.562 34.5411L221.088 33.9482C221.546 34.6971 222.149 35.2692 222.898 35.6645C223.647 36.0598 224.521 36.2574 225.52 36.2574C226.955 36.2574 228.141 35.8517 229.077 35.0404C230.013 34.2291 230.481 32.9601 230.481 31.2334V29.7668C229.857 30.5781 229.056 31.223 228.078 31.7015C227.121 32.1592 226.029 32.388 224.802 32.388C223.325 32.388 222.004 32.0551 220.839 31.3894C219.695 30.7029 218.79 29.7668 218.124 28.581C217.479 27.3744 217.157 26.0118 217.157 24.4932C217.157 22.9746 217.479 21.6223 218.124 20.4366C218.79 19.23 219.695 18.2938 220.839 17.6281C222.004 16.9416 223.325 16.5984 224.802 16.5984C226.112 16.5984 227.257 16.8584 228.234 17.3785C229.233 17.8778 230.034 18.5747 230.637 19.4692L231.386 16.9104H234.07V31.2646C234.07 33.0329 233.685 34.5411 232.915 35.7893C232.145 37.0375 231.105 37.9736 229.795 38.5977C228.505 39.2218 227.069 39.5339 225.488 39.5339ZM225.676 29.1739C227.09 29.1739 228.245 28.7474 229.139 27.8945C230.034 27.0208 230.481 25.887 230.481 24.4932C230.481 23.0994 230.034 21.976 229.139 21.1231C228.245 20.2493 227.09 19.8125 225.676 19.8125C224.261 19.8125 223.106 20.2493 222.212 21.1231C221.338 21.976 220.901 23.0994 220.901 24.4932C220.901 25.887 221.338 27.0208 222.212 27.8945C223.106 28.7474 224.261 29.1739 225.676 29.1739Z" fill="white"/>
<path d="M254.028 24.8364C254.028 25.1485 254.007 25.5333 253.966 25.991H240.922C241.089 27.26 241.609 28.2794 242.482 29.0491C243.356 29.798 244.469 30.1725 245.821 30.1725C246.737 30.1725 247.558 29.9956 248.287 29.642C249.035 29.2883 249.608 28.8098 250.003 28.2066L253.373 28.7682C252.79 30.2661 251.782 31.4206 250.346 32.232C248.931 33.0433 247.35 33.449 245.603 33.449C243.98 33.449 242.524 33.0953 241.234 32.388C239.965 31.6599 238.967 30.6613 238.239 29.3923C237.531 28.1025 237.178 26.6463 237.178 25.0237C237.178 23.401 237.531 21.9552 238.239 20.6862C238.967 19.3964 239.965 18.3979 241.234 17.6905C242.524 16.9624 243.98 16.5984 245.603 16.5984C247.226 16.5984 248.671 16.9624 249.94 17.6905C251.23 18.3979 252.229 19.386 252.936 20.655C253.664 21.9032 254.028 23.297 254.028 24.8364ZM245.603 19.7189C244.521 19.7189 243.575 20.0309 242.763 20.655C241.973 21.2791 241.432 22.1216 241.141 23.1826H250.128C249.816 22.1424 249.254 21.3103 248.443 20.6862C247.652 20.0413 246.706 19.7189 245.603 19.7189Z" fill="white"/>
<path d="M256.824 33.1369V16.9104H259.508L260.195 19.2508C260.715 18.3979 261.328 17.7946 262.036 17.4409C262.764 17.0873 263.638 16.9104 264.657 16.9104H265.343L265.655 20.3429H263.596C261.474 20.3429 260.413 21.4143 260.413 23.557V33.1369H256.824Z" fill="white"/>
<path d="M0 21.12C0 11.1629 0 6.18645 3.0932 3.09326C6.18639 6.10352e-05 11.1628 6.10352e-05 21.12 6.10352e-05H22.88C32.8372 6.10352e-05 37.8136 6.10352e-05 40.9068 3.09326C44 6.18645 44 11.1629 44 21.12V22.88C44 32.8372 44 37.8136 40.9068 40.9068C37.8136 44 32.8372 44 22.88 44H21.12C11.1628 44 6.18639 44 3.0932 40.9068C0 37.8136 0 32.8372 0 22.88V21.12Z" fill="#00D3E6"/>
<path d="M35.1975 21.9998C35.1755 18.8142 35.2811 15.6198 35.0083 12.4386C34.7751 8.94501 33.684 5.68901 30.1774 4.28541C27.7444 3.27341 25.1266 2.86421 22.5616 2.31421C20.4937 1.89181 18.4303 1.46061 16.358 1.08221C13.771 0.633415 11.118 0.145015 8.49579 0.549815C8.4738 0.549815 8.4518 0.558615 8.4298 0.563015C6.13316 0.994214 4.43928 1.75101 3.09738 3.09301C3.09738 3.09301 3.09298 3.09741 3.08858 3.10181C3.02698 3.16341 2.96979 3.22941 2.90819 3.29101C2.8598 3.33941 2.8158 3.39221 2.7718 3.44061C0.70395 5.76381 0.180387 9.12541 0.0439969 14.665C0 16.5482 0 18.6866 0 21.1198V22.8798C0 26.6154 0 29.647 0.162788 32.1418C0.162788 32.1462 0.162788 32.1506 0.162788 32.1594C0.189187 32.529 0.215585 32.8854 0.246382 33.233C0.444368 35.3846 0.805143 37.105 1.4475 38.5174C1.86547 39.4282 2.39783 40.2158 3.08858 40.9066C3.29537 41.1134 3.51095 41.307 3.73533 41.483C3.74853 41.4962 3.76613 41.505 3.77933 41.5182C3.97292 41.6722 4.1753 41.813 4.37769 41.9494C4.44808 41.9978 4.52288 42.0418 4.59767 42.0858C4.69886 42.1474 4.80446 42.2046 4.90565 42.2618C5.72399 42.7106 6.65673 43.0406 7.72585 43.287C10.5021 43.859 13.6082 43.4674 16.3448 42.9086C18.4215 42.5346 20.4849 42.099 22.5484 41.6766C25.1134 41.1266 27.7312 40.7174 30.1642 39.7054C33.6708 38.2974 34.7619 35.0546 34.9951 31.5522C35.2723 28.3754 35.1667 25.181 35.1843 21.991L35.1975 21.9998Z" fill="#0077FF"/>
<path d="M11.0792 30.6764C11.0792 30.3816 11.1452 30.0956 11.22 29.814C11.3652 29.2772 11.506 28.736 11.6512 28.1992C11.7964 27.6712 11.9416 27.1388 12.0868 26.6108C12.1704 26.2984 12.2496 25.986 12.3332 25.6736C12.4344 25.2996 12.54 24.9256 12.6412 24.5516C12.6808 24.402 12.7204 24.2568 12.7556 24.1072C12.7732 24.0412 12.7556 23.9884 12.6984 23.9444C12.2848 23.6144 11.8756 23.28 11.4664 22.9456C11.2332 22.752 11 22.5584 10.7668 22.3648C10.3708 22.0436 9.97482 21.7224 9.57882 21.4012C9.27082 21.1504 8.96282 20.8952 8.65042 20.6444C8.40842 20.4508 8.16642 20.2572 7.96402 20.0152C7.62522 19.6017 7.43602 19.1396 7.48442 18.594C7.51082 18.3081 7.61202 18.0485 7.79242 17.8153C8.07402 17.4501 8.45242 17.2345 8.89242 17.1201C9.23562 17.0277 9.58322 17.0233 9.93082 16.9969C10.2828 16.9749 10.6392 16.9573 10.9912 16.9265C11.1892 16.9089 11.3828 16.9045 11.5808 16.8869C11.9768 16.8561 12.3772 16.8429 12.7732 16.8121C13.0768 16.7857 13.3848 16.7769 13.6884 16.7593C13.9744 16.7417 14.2604 16.7197 14.5508 16.7021C14.6388 16.6977 14.7268 16.6977 14.8148 16.6977C14.894 16.6977 14.9424 16.6625 14.9732 16.5877C15.1668 16.1301 15.3648 15.6725 15.5584 15.2149C15.7344 14.8013 15.9104 14.3921 16.082 13.9785C16.346 13.3537 16.61 12.7289 16.8828 12.1041C17.028 11.7741 17.1468 11.4353 17.3272 11.1185C17.5032 10.8061 17.7408 10.5465 18.0664 10.3881C18.3128 10.2693 18.5724 10.2253 18.8452 10.2649C19.3512 10.3441 19.712 10.6389 19.998 11.0393C20.1608 11.2681 20.2708 11.5189 20.3676 11.7785C20.5832 12.3329 20.8032 12.8873 21.0188 13.4417C21.208 13.9257 21.3972 14.4053 21.582 14.8893C21.8108 15.4789 22.0396 16.0729 22.2684 16.6669C22.2948 16.7373 22.33 16.8033 22.3564 16.8737C22.374 16.9221 22.4136 16.9485 22.462 16.9529C22.836 16.9969 23.2056 17.0541 23.5796 17.1069C23.9976 17.1685 24.42 17.2213 24.8424 17.2785C25.322 17.3445 25.8016 17.4149 26.2812 17.4809C26.5232 17.5161 26.7696 17.5425 27.0116 17.5997C27.3284 17.6701 27.6012 17.8241 27.83 18.0661C28.1072 18.3609 28.2348 18.7172 28.2348 19.1132C28.2348 19.5532 28.0764 19.9448 27.7948 20.2792C27.5616 20.5564 27.28 20.7896 27.0204 21.0404C26.5936 21.4496 26.1624 21.8632 25.7356 22.2724C25.4232 22.5716 25.1108 22.8708 24.794 23.17C24.6268 23.3284 24.4596 23.4868 24.2924 23.6452C24.244 23.6892 24.2264 23.7332 24.244 23.7948C24.3232 24.0984 24.3936 24.402 24.4684 24.7056C24.552 25.0488 24.6312 25.3964 24.7192 25.7396C24.794 26.0212 24.8644 26.3072 24.9304 26.5932C24.992 26.8572 25.0668 27.1124 25.124 27.3764C25.19 27.6624 25.278 27.9484 25.3396 28.2344C25.4144 28.5644 25.5244 28.89 25.5596 29.2288C25.608 29.6908 25.5684 30.1484 25.3 30.5532C25.0536 30.9272 24.706 31.1428 24.244 31.156C23.8524 31.1648 23.518 31.0152 23.2056 30.7996C22.8976 30.5884 22.594 30.3772 22.286 30.1616C21.978 29.946 21.6744 29.726 21.3664 29.5148C21.0672 29.308 20.7636 29.1012 20.4644 28.8944C20.2356 28.736 20.0112 28.5776 19.7824 28.4192C19.4656 28.1992 19.1532 27.9836 18.8364 27.7636C18.7924 27.7328 18.7572 27.7372 18.7176 27.768C18.3172 28.0936 17.9168 28.4192 17.5164 28.7404C17.1556 29.0308 16.7992 29.3212 16.4384 29.6116C16.0776 29.9064 15.7212 30.2012 15.3604 30.4916C14.9732 30.8084 14.5816 31.1164 14.19 31.4332C13.9656 31.6136 13.7456 31.8028 13.4904 31.948C13.1692 32.1328 12.826 32.2516 12.4564 32.2428C11.8756 32.2296 11.4092 31.9304 11.1892 31.3496C11.1056 31.1296 11.0704 30.9008 11.0704 30.6632L11.0792 30.6764Z" fill="white"/>
<rect x="277.654" y="8.50006" width="59" height="27" rx="12" fill="#202020"/>
<path d="M294.206 27.6801C292.478 27.6801 291.308 26.7801 290.66 25.9521L290.228 27.5001H288.95V14.8101H290.714V19.6701C291.38 18.8601 292.532 18.0141 294.206 18.0141C296.852 18.0141 298.742 20.0301 298.742 22.8561C298.742 25.6641 296.852 27.6801 294.206 27.6801ZM293.828 26.0961C295.646 26.0961 296.906 24.7641 296.906 22.8561C296.906 20.9481 295.646 19.6161 293.828 19.6161C291.992 19.6161 290.714 20.9481 290.714 22.8561C290.714 24.7641 291.992 26.0961 293.828 26.0961ZM309.638 22.7841C309.638 22.9821 309.638 23.1441 309.62 23.3421H301.934C302.132 24.9801 303.302 26.0601 305.012 26.0601C306.218 26.0601 307.172 25.5201 307.64 24.7821L309.296 25.0521C308.558 26.7801 306.794 27.6801 304.904 27.6801C302.096 27.6801 300.098 25.6641 300.098 22.8561C300.098 20.0301 302.078 18.0141 304.868 18.0141C307.658 18.0141 309.638 20.0481 309.638 22.7841ZM304.868 19.5801C303.428 19.5801 302.366 20.4981 302.024 21.9021H307.712C307.406 20.5341 306.326 19.5801 304.868 19.5801ZM314.573 25.9521H316.373L316.211 27.5001H314.573C312.629 27.5001 311.603 26.5101 311.603 24.7101V19.7601H310.001V18.1941H311.603L312.089 15.4941H313.367V18.1941H316.211V19.7601H313.367V24.7101C313.367 25.5381 313.763 25.9521 314.573 25.9521ZM321.378 18.0141C323.664 18.0141 325.104 19.5621 325.104 22.2801V27.5001H323.844L323.43 26.0421C322.926 26.8341 321.954 27.6801 320.406 27.6801C318.498 27.6801 317.166 26.4561 317.166 24.7281C317.166 23.0181 318.534 21.8301 321.234 21.8301H323.34C323.25 20.3721 322.494 19.5261 321.288 19.5261C320.352 19.5261 319.632 20.0301 319.29 20.6961L317.652 20.4261C318.138 18.9141 319.65 18.0141 321.378 18.0141ZM320.784 26.1861C322.26 26.1861 323.34 25.1601 323.34 23.3781V23.2701H321.288C319.56 23.2701 318.948 23.8281 318.948 24.6741C318.948 25.5921 319.668 26.1861 320.784 26.1861Z" fill="#00D3E6"/>
</svg>
 