<svg width="256" height="36" viewBox="0 0 256 36" fill="none" xmlns="http://www.w3.org/2000/svg">
<path d="M58.7088 27.1123H54.2408L47.8835 9.11279H51.1771L56.2578 23.9464H56.7684L62.0278 9.11279H65.2703L58.7088 27.1123Z" fill="white"/>
<path d="M73.7766 17.7934L82.0487 27.1123H78.0147L71.2745 19.4019H70.5086V27.1123H67.4448V9.11279H70.5086V16.4402H71.249L77.6318 9.11279H81.4104L73.7766 17.7934Z" fill="white"/>
<path d="M104.699 27.1123H101.431L100.052 23.2571H91.5245L90.0948 27.1123H86.9034L93.7968 9.11279H98.0094L104.699 27.1123ZM95.6095 12.2787L92.5713 20.4486H99.0562L96.1201 12.2787H95.6095Z" fill="white"/>
<path d="M111.829 27.3676C110.586 27.3676 109.471 27.0782 108.484 26.4995C107.497 25.9038 106.722 25.0868 106.161 24.0485C105.616 22.9932 105.344 21.8018 105.344 20.4742C105.344 19.1465 105.616 17.9636 106.161 16.9253C106.722 15.87 107.497 15.053 108.484 14.4743C109.471 13.8786 110.586 13.5808 111.829 13.5808C112.901 13.5808 113.854 13.802 114.688 14.2446C115.522 14.6701 116.203 15.2062 116.731 15.853V9.11279H119.667V27.1123H117.471L116.858 24.9677C116.314 25.6315 115.616 26.2017 114.765 26.6782C113.914 27.1378 112.935 27.3676 111.829 27.3676ZM112.543 24.7379C113.786 24.7379 114.79 24.3464 115.556 23.5634C116.339 22.7635 116.731 21.7337 116.731 20.4742C116.731 19.2146 116.339 18.1934 115.556 17.4104C114.79 16.6105 113.786 16.2105 112.543 16.2105C111.318 16.2105 110.322 16.6105 109.556 17.4104C108.79 18.1934 108.407 19.2146 108.407 20.4742C108.407 21.7337 108.79 22.7635 109.556 23.5634C110.322 24.3464 111.318 24.7379 112.543 24.7379Z" fill="white"/>
<path d="M133.658 17.87C134.628 18.1593 135.386 18.6785 135.93 19.4274C136.492 20.1593 136.773 21.0444 136.773 22.0826C136.773 23.0698 136.526 23.9464 136.033 24.7123C135.539 25.4613 134.85 26.0485 133.965 26.474C133.079 26.8995 132.058 27.1123 130.901 27.1123H123.369V9.11279H130.39C131.531 9.11279 132.543 9.32555 133.428 9.75107C134.313 10.1596 135.003 10.7383 135.496 11.4872C135.99 12.2361 136.237 13.0786 136.237 14.0148C136.237 14.9169 136.007 15.7084 135.547 16.3892C135.088 17.07 134.458 17.5636 133.658 17.87ZM126.433 11.7936V16.7211H130.39C131.207 16.7211 131.871 16.4998 132.382 16.0573C132.892 15.5977 133.148 15.002 133.148 14.2701C133.148 13.5382 132.892 12.9425 132.382 12.4829C131.871 12.0233 131.207 11.7936 130.39 11.7936H126.433ZM130.901 24.4315C131.701 24.4315 132.356 24.2017 132.867 23.7422C133.377 23.2656 133.633 22.6528 133.633 21.9039C133.633 21.172 133.377 20.5763 132.867 20.1167C132.356 19.6402 131.701 19.4019 130.901 19.4019H126.433V24.4315H130.901Z" fill="white"/>
<path d="M142.633 27.1123H139.697V9.11279H142.633V27.1123Z" fill="white"/>
<path d="M152.409 27.3676C151.047 27.3676 149.821 27.0782 148.732 26.4995C147.66 25.9038 146.817 25.0868 146.205 24.0485C145.609 22.9932 145.311 21.8018 145.311 20.4742C145.311 19.1465 145.609 17.9636 146.205 16.9253C146.817 15.87 147.66 15.053 148.732 14.4743C149.821 13.8786 151.047 13.5808 152.409 13.5808C153.77 13.5808 154.987 13.8786 156.06 14.4743C157.149 15.053 157.991 15.87 158.587 16.9253C159.2 17.9636 159.506 19.1465 159.506 20.4742C159.506 21.8018 159.2 22.9932 158.587 24.0485C157.991 25.0868 157.149 25.9038 156.06 26.4995C154.987 27.0782 153.77 27.3676 152.409 27.3676ZM152.409 24.6868C153.6 24.6868 154.57 24.3038 155.319 23.5379C156.068 22.755 156.443 21.7337 156.443 20.4742C156.443 19.2146 156.068 18.2019 155.319 17.436C154.57 16.653 153.6 16.2615 152.409 16.2615C151.217 16.2615 150.247 16.653 149.498 17.436C148.749 18.2019 148.375 19.2146 148.375 20.4742C148.375 21.7337 148.749 22.755 149.498 23.5379C150.247 24.3038 151.217 24.6868 152.409 24.6868Z" fill="white"/>
<path d="M168.11 32.3462C166.595 32.3462 165.25 31.9802 164.076 31.2483C162.918 30.5335 162.101 29.5377 161.625 28.2612L164.51 27.7761C164.884 28.3888 165.378 28.8569 165.991 29.1803C166.603 29.5037 167.318 29.6654 168.135 29.6654C169.31 29.6654 170.28 29.3335 171.046 28.6697C171.812 28.0059 172.195 26.9676 172.195 25.5549V24.3549C171.684 25.0187 171.029 25.5464 170.229 25.9378C169.446 26.3123 168.552 26.4995 167.548 26.4995C166.34 26.4995 165.259 26.2272 164.306 25.6825C163.369 25.1208 162.629 24.3549 162.084 23.3847C161.557 22.3975 161.293 21.2827 161.293 20.0401C161.293 18.7976 161.557 17.6913 162.084 16.7211C162.629 15.7339 163.369 14.9679 164.306 14.4233C165.259 13.8616 166.34 13.5808 167.548 13.5808C168.62 13.5808 169.556 13.7935 170.356 14.219C171.173 14.6275 171.829 15.1977 172.322 15.9296L172.935 13.8361H175.131V25.5804C175.131 27.0272 174.816 28.2612 174.186 29.2824C173.556 30.3037 172.705 31.0696 171.633 31.5802C170.578 32.0909 169.403 32.3462 168.11 32.3462ZM168.263 23.8698C169.42 23.8698 170.365 23.5209 171.097 22.823C171.829 22.1082 172.195 21.1805 172.195 20.0401C172.195 18.8997 171.829 17.9806 171.097 17.2828C170.365 16.5679 169.42 16.2105 168.263 16.2105C167.105 16.2105 166.161 16.5679 165.429 17.2828C164.714 17.9806 164.357 18.8997 164.357 20.0401C164.357 21.1805 164.714 22.1082 165.429 22.823C166.161 23.5209 167.105 23.8698 168.263 23.8698Z" fill="white"/>
<path d="M184.491 32.3462C182.976 32.3462 181.631 31.9802 180.457 31.2483C179.299 30.5335 178.482 29.5377 178.006 28.2612L180.891 27.7761C181.265 28.3888 181.759 28.8569 182.371 29.1803C182.984 29.5037 183.699 29.6654 184.516 29.6654C185.691 29.6654 186.661 29.3335 187.427 28.6697C188.193 28.0059 188.576 26.9676 188.576 25.5549V24.3549C188.065 25.0187 187.41 25.5464 186.61 25.9378C185.827 26.3123 184.933 26.4995 183.929 26.4995C182.72 26.4995 181.64 26.2272 180.686 25.6825C179.75 25.1208 179.01 24.3549 178.465 23.3847C177.938 22.3975 177.674 21.2827 177.674 20.0401C177.674 18.7976 177.938 17.6913 178.465 16.7211C179.01 15.7339 179.75 14.9679 180.686 14.4233C181.64 13.8616 182.72 13.5808 183.929 13.5808C185.001 13.5808 185.937 13.7935 186.737 14.219C187.554 14.6275 188.21 15.1977 188.703 15.9296L189.316 13.8361H191.512V25.5804C191.512 27.0272 191.197 28.2612 190.567 29.2824C189.937 30.3037 189.086 31.0696 188.014 31.5802C186.959 32.0909 185.784 32.3462 184.491 32.3462ZM184.644 23.8698C185.801 23.8698 186.746 23.5209 187.478 22.823C188.21 22.1082 188.576 21.1805 188.576 20.0401C188.576 18.8997 188.21 17.9806 187.478 17.2828C186.746 16.5679 185.801 16.2105 184.644 16.2105C183.486 16.2105 182.542 16.5679 181.81 17.2828C181.095 17.9806 180.737 18.8997 180.737 20.0401C180.737 21.1805 181.095 22.1082 181.81 22.823C182.542 23.5209 183.486 23.8698 184.644 23.8698Z" fill="white"/>
<path d="M207.841 20.321C207.841 20.5763 207.824 20.8912 207.79 21.2656H197.118C197.254 22.3039 197.68 23.1379 198.395 23.7677C199.11 24.3804 200.02 24.6868 201.127 24.6868C201.876 24.6868 202.548 24.5421 203.144 24.2528C203.756 23.9634 204.224 23.572 204.548 23.0784L207.305 23.5379C206.829 24.7634 206.003 25.7081 204.829 26.3719C203.671 27.0357 202.378 27.3676 200.948 27.3676C199.62 27.3676 198.429 27.0782 197.374 26.4995C196.335 25.9038 195.518 25.0868 194.923 24.0485C194.344 22.9932 194.055 21.8018 194.055 20.4742C194.055 19.1465 194.344 17.9636 194.923 16.9253C195.518 15.87 196.335 15.053 197.374 14.4743C198.429 13.8786 199.62 13.5808 200.948 13.5808C202.276 13.5808 203.459 13.8786 204.497 14.4743C205.552 15.053 206.369 15.8615 206.948 16.8998C207.544 17.9211 207.841 19.0614 207.841 20.321ZM200.948 16.1339C200.063 16.1339 199.288 16.3892 198.625 16.8998C197.978 17.4104 197.535 18.0998 197.297 18.9678H204.65C204.395 18.1168 203.935 17.436 203.271 16.9253C202.625 16.3977 201.85 16.1339 200.948 16.1339Z" fill="white"/>
<path d="M210.129 27.1123V13.8361H212.325L212.887 15.7509C213.312 15.053 213.814 14.5594 214.393 14.2701C214.989 13.9807 215.704 13.8361 216.538 13.8361H217.099L217.355 16.6445H215.669C213.933 16.6445 213.065 17.5211 213.065 19.2742V27.1123H210.129Z" fill="white"/>
<path d="M0 17.28C0 9.13319 0 5.0616 2.5308 2.5308C5.0616 0 9.13319 0 17.28 0H18.72C26.8668 0 30.9384 0 33.4692 2.5308C36 5.0616 36 9.13319 36 17.28V18.72C36 26.8668 36 30.9384 33.4692 33.4692C30.9384 36 26.8668 36 18.72 36H17.28C9.13319 36 5.0616 36 2.5308 33.4692C0 30.9384 0 26.8668 0 18.72V17.28Z" fill="#00D3E6"/>
<path d="M28.798 17.9997C28.78 15.3933 28.8664 12.7797 28.6432 10.1769C28.4524 7.31852 27.5596 4.65452 24.6906 3.50612C22.7 2.67812 20.5581 2.34333 18.4595 1.89333C16.7676 1.54773 15.0793 1.19493 13.3839 0.885326C11.2672 0.518126 9.09656 0.118527 6.95111 0.449726C6.93311 0.449726 6.91511 0.456926 6.89711 0.460526C5.01804 0.813326 3.63214 1.43253 2.53422 2.53053C2.53422 2.53053 2.53062 2.53413 2.52702 2.53773C2.47662 2.58813 2.42983 2.64213 2.37943 2.69253C2.33983 2.73213 2.30384 2.77533 2.26784 2.81492C0.575959 4.71572 0.14759 7.46612 0.0359975 11.9985C0 13.5393 0 15.2889 0 17.2797V18.7197C0 21.7761 0 24.2565 0.133191 26.2977C0.133191 26.3013 0.133191 26.3049 0.133191 26.3121C0.154789 26.6145 0.176388 26.9061 0.201586 27.1905C0.363574 28.9509 0.658753 30.3585 1.18432 31.5141C1.52629 32.2593 1.96186 32.9037 2.52702 33.4689C2.69621 33.6381 2.8726 33.7965 3.05618 33.9405C3.06698 33.9513 3.08138 33.9585 3.09218 33.9693C3.25057 34.0953 3.41616 34.2105 3.58175 34.3221C3.63934 34.3617 3.70054 34.3977 3.76173 34.4337C3.84453 34.4841 3.93092 34.5309 4.01372 34.5777C4.68327 34.9449 5.44641 35.2149 6.32115 35.4165C8.59259 35.8845 11.134 35.5641 13.3731 35.1069C15.0721 34.8009 16.7604 34.4445 18.4487 34.0989C20.5473 33.6489 22.6892 33.3141 24.6799 32.4861C27.5488 31.3341 28.4416 28.6809 28.6324 25.8153C28.8592 23.2161 28.7728 20.6025 28.7872 17.9925L28.798 17.9997Z" fill="#0077FF"/>
<path d="M9.06476 25.0987C9.06476 24.8575 9.11876 24.6235 9.17996 24.3931C9.29876 23.9539 9.41396 23.5111 9.53276 23.0719C9.65156 22.6399 9.77036 22.2043 9.88916 21.7723C9.95756 21.5167 10.0224 21.2611 10.0908 21.0055C10.1736 20.6995 10.26 20.3935 10.3428 20.0875C10.3752 19.9651 10.4076 19.8463 10.4364 19.7239C10.4508 19.6699 10.4364 19.6267 10.3896 19.5907C10.0512 19.3207 9.71636 19.0471 9.38156 18.7735C9.19076 18.6151 8.99996 18.4567 8.80916 18.2983C8.48516 18.0355 8.16116 17.7727 7.83716 17.5099C7.58516 17.3047 7.33316 17.0959 7.07756 16.8907C6.87956 16.7323 6.68156 16.5739 6.51596 16.3759C6.23876 16.0375 6.08396 15.6595 6.12356 15.2131C6.14516 14.9791 6.22796 14.7667 6.37556 14.5759C6.60596 14.2771 6.91556 14.1007 7.27556 14.0071C7.55636 13.9315 7.84076 13.9279 8.12516 13.9063C8.41316 13.8883 8.70476 13.8739 8.99276 13.8487C9.15476 13.8343 9.31316 13.8307 9.47516 13.8163C9.79916 13.7911 10.1268 13.7803 10.4508 13.7551C10.6992 13.7335 10.9512 13.7263 11.1996 13.7119C11.4336 13.6975 11.6676 13.6795 11.9052 13.6651C11.9772 13.6615 12.0492 13.6615 12.1212 13.6615C12.186 13.6615 12.2256 13.6327 12.2508 13.5715C12.4092 13.1971 12.5712 12.8227 12.7296 12.4483C12.8736 12.1099 13.0176 11.7751 13.158 11.4367C13.374 10.9255 13.59 10.4143 13.8132 9.90313C13.932 9.63313 14.0292 9.35593 14.1768 9.09673C14.3208 8.84113 14.5152 8.62873 14.7816 8.49913C14.9832 8.40193 15.1956 8.36593 15.4188 8.39833C15.8328 8.46313 16.128 8.70433 16.362 9.03193C16.4952 9.21913 16.5852 9.42433 16.6644 9.63673C16.8408 10.0903 17.0208 10.5439 17.1972 10.9975C17.352 11.3935 17.5068 11.7859 17.658 12.1819C17.8452 12.6643 18.0324 13.1503 18.2196 13.6363C18.2412 13.6939 18.27 13.7479 18.2916 13.8055C18.306 13.8451 18.3384 13.8667 18.378 13.8703C18.684 13.9063 18.9864 13.9531 19.2924 13.9963C19.6344 14.0467 19.98 14.0899 20.3256 14.1367C20.718 14.1907 21.1104 14.2483 21.5028 14.3023C21.7008 14.3311 21.9023 14.3527 22.1003 14.3995C22.3596 14.4571 22.5828 14.5831 22.7699 14.7811C22.9967 15.0223 23.1011 15.3139 23.1011 15.6379C23.1011 15.9979 22.9715 16.3183 22.7411 16.5919C22.5503 16.8187 22.32 17.0095 22.1075 17.2147C21.7584 17.5495 21.4056 17.8879 21.0564 18.2227C20.8008 18.4675 20.5452 18.7123 20.286 18.9571C20.1492 19.0867 20.0124 19.2163 19.8756 19.3459C19.836 19.3819 19.8216 19.4179 19.836 19.4683C19.9008 19.7167 19.9584 19.9651 20.0196 20.2135C20.088 20.4943 20.1528 20.7787 20.2248 21.0595C20.286 21.2899 20.3436 21.5239 20.3976 21.7579C20.448 21.9739 20.5092 22.1827 20.556 22.3987C20.61 22.6327 20.682 22.8667 20.7324 23.1007C20.7936 23.3707 20.8836 23.6371 20.9124 23.9143C20.952 24.2923 20.9196 24.6667 20.7 24.9979C20.4984 25.3039 20.214 25.4803 19.836 25.4911C19.5156 25.4983 19.242 25.3759 18.9864 25.1995C18.7344 25.0267 18.486 24.8539 18.234 24.6775C17.982 24.5011 17.7336 24.3211 17.4816 24.1483C17.2368 23.9791 16.9884 23.8099 16.7436 23.6407C16.5564 23.5111 16.3728 23.3815 16.1856 23.2519C15.9264 23.0719 15.6708 22.8955 15.4116 22.7155C15.3756 22.6903 15.3468 22.6939 15.3144 22.7191C14.9868 22.9855 14.6592 23.2519 14.3316 23.5147C14.0364 23.7523 13.7448 23.9899 13.4496 24.2275C13.1544 24.4687 12.8628 24.7099 12.5676 24.9475C12.2508 25.2067 11.9304 25.4587 11.61 25.7179C11.4264 25.8655 11.2464 26.0203 11.0376 26.1391C10.7748 26.2903 10.494 26.3875 10.1916 26.3803C9.71636 26.3695 9.33476 26.1247 9.15476 25.6495C9.08636 25.4695 9.05756 25.2823 9.05756 25.0879L9.06476 25.0987Z" fill="white"/>
<rect x="225.354" width="30" height="13" rx="5.76" fill="#202020"/>
<path d="M233.988 9.09C233.124 9.09 232.539 8.64 232.215 8.226L231.999 9H231.36V2.655H232.242V5.085C232.575 4.68 233.151 4.257 233.988 4.257C235.311 4.257 236.256 5.265 236.256 6.678C236.256 8.082 235.311 9.09 233.988 9.09ZM233.799 8.298C234.708 8.298 235.338 7.632 235.338 6.678C235.338 5.724 234.708 5.058 233.799 5.058C232.881 5.058 232.242 5.724 232.242 6.678C232.242 7.632 232.881 8.298 233.799 8.298ZM241.704 6.642C241.704 6.741 241.704 6.822 241.695 6.921H237.852C237.951 7.74 238.536 8.28 239.391 8.28C239.994 8.28 240.471 8.01 240.705 7.641L241.533 7.776C241.164 8.64 240.282 9.09 239.337 9.09C237.933 9.09 236.934 8.082 236.934 6.678C236.934 5.265 237.924 4.257 239.319 4.257C240.714 4.257 241.704 5.274 241.704 6.642ZM239.319 5.04C238.599 5.04 238.068 5.499 237.897 6.201H240.741C240.588 5.517 240.048 5.04 239.319 5.04ZM244.171 8.226H245.071L244.99 9H244.171C243.199 9 242.686 8.505 242.686 7.605V5.13H241.885V4.347H242.686L242.929 2.997H243.568V4.347H244.99V5.13H243.568V7.605C243.568 8.019 243.766 8.226 244.171 8.226ZM247.574 4.257C248.717 4.257 249.437 5.031 249.437 6.39V9H248.807L248.6 8.271C248.348 8.667 247.862 9.09 247.088 9.09C246.134 9.09 245.468 8.478 245.468 7.614C245.468 6.759 246.152 6.165 247.502 6.165H248.555C248.51 5.436 248.132 5.013 247.529 5.013C247.061 5.013 246.701 5.265 246.53 5.598L245.711 5.463C245.954 4.707 246.71 4.257 247.574 4.257ZM247.277 8.343C248.015 8.343 248.555 7.83 248.555 6.939V6.885H247.529C246.665 6.885 246.359 7.164 246.359 7.587C246.359 8.046 246.719 8.343 247.277 8.343Z" fill="#00D3E6"/>
</svg>
