<svg width="395" height="129" viewBox="0 0 395 129" fill="none" xmlns="http://www.w3.org/2000/svg">
<mask id="path-1-inside-1_2268_21434" fill="white">
<path d="M0 99.1211C0 115.504 13.281 128.785 29.664 128.785H365.336C381.719 128.785 395 115.504 395 99.1211V63.7852C395 52.1872 385.598 42.7852 374 42.7852C362.402 42.7852 353 33.3831 353 21.7852C353 10.1872 343.598 0.785156 332 0.785156H29.664C13.281 0.785156 0 14.0662 0 30.4492V99.1211Z"/>
</mask>
<path d="M0 99.1211C0 115.504 13.281 128.785 29.664 128.785H365.336C381.719 128.785 395 115.504 395 99.1211V63.7852C395 52.1872 385.598 42.7852 374 42.7852C362.402 42.7852 353 33.3831 353 21.7852C353 10.1872 343.598 0.785156 332 0.785156H29.664C13.281 0.785156 0 14.0662 0 30.4492V99.1211Z" fill="#202020"/>
<path d="M29.664 128.785V126.785H365.336V128.785V130.785H29.664V128.785ZM395 99.1211H393V63.7852H395H397V99.1211H395ZM332 0.785156V2.78516H29.664V0.785156V-1.21484H332V0.785156ZM0 30.4492H2V99.1211H0H-2V30.4492H0ZM29.664 0.785156V2.78516C14.3856 2.78516 2 15.1708 2 30.4492H0H-2C-2 12.9616 12.1765 -1.21484 29.664 -1.21484V0.785156ZM353 21.7852H351C351 11.2917 342.493 2.78516 332 2.78516V0.785156V-1.21484C344.703 -1.21484 355 9.08261 355 21.7852H353ZM374 42.7852V44.7852C361.297 44.7852 351 34.4877 351 21.7852H353H355C355 32.2786 363.507 40.7852 374 40.7852V42.7852ZM395 63.7852H393C393 53.2917 384.493 44.7852 374 44.7852V42.7852V40.7852C386.703 40.7852 397 51.0826 397 63.7852H395ZM365.336 128.785V126.785C380.614 126.785 393 114.4 393 99.1211H395H397C397 116.609 382.824 130.785 365.336 130.785V128.785ZM29.664 128.785V130.785C12.1765 130.785 -2 116.609 -2 99.1211H0H2C2 114.4 14.3856 126.785 29.664 126.785V128.785Z" fill="#00D3E6" mask="url(#path-1-inside-1_2268_21434)"/>
</svg>
