<svg width="312" height="160" viewBox="0 0 312 160" fill="none" xmlns="http://www.w3.org/2000/svg">
<mask id="path-1-inside-1_1714_26467" fill="white">
<path d="M0 136.373C0 149.314 10.4903 159.804 23.4308 159.804H288.569C301.51 159.804 312 149.314 312 136.373V63.8042C312 52.2062 302.598 42.8042 291 42.8042C279.402 42.8042 270 33.4022 270 21.8042C270 10.2062 260.598 0.804199 249 0.804199H23.4308C10.4903 0.804199 0 11.2945 0 24.235V136.373Z"/>
</mask>
<path d="M23.4308 159.804V157.804H288.569V159.804V161.804H23.4308V159.804ZM312 136.373H310V63.8042H312H314V136.373H312ZM249 0.804199V2.8042H23.4308V0.804199V-1.1958H249V0.804199ZM0 24.235H2V136.373H0H-2V24.235H0ZM23.4308 0.804199V2.8042C11.5949 2.8042 2 12.3991 2 24.235H0H-2C-2 10.19 9.38577 -1.1958 23.4308 -1.1958V0.804199ZM270 21.8042H268C268 11.3108 259.493 2.8042 249 2.8042V0.804199V-1.1958C261.703 -1.1958 272 9.10165 272 21.8042H270ZM291 42.8042V44.8042C278.297 44.8042 268 34.5067 268 21.8042H270H272C272 32.2976 280.507 40.8042 291 40.8042V42.8042ZM312 63.8042H310C310 53.3108 301.493 44.8042 291 44.8042V42.8042V40.8042C303.703 40.8042 314 51.1017 314 63.8042H312ZM288.569 159.804V157.804C300.405 157.804 310 148.209 310 136.373H312H314C314 150.418 302.614 161.804 288.569 161.804V159.804ZM23.4308 159.804V161.804C9.38577 161.804 -2 150.418 -2 136.373H0H2C2 148.209 11.5949 157.804 23.4308 157.804V159.804Z" fill="#7CEDF8" mask="url(#path-1-inside-1_1714_26467)"/>
</svg>
