<svg width="395" height="181" viewBox="0 0 395 181" fill="none" xmlns="http://www.w3.org/2000/svg">
<mask id="path-1-inside-1_1714_26617" fill="white">
<path d="M0 150.846C0 167.229 13.281 180.51 29.664 180.51H365.336C381.719 180.51 395 167.229 395 150.846V63.5103C395 51.9123 385.598 42.5103 374 42.5103C362.402 42.5103 353 33.1082 353 21.5103C353 9.91227 343.598 0.510254 332 0.510254H29.664C13.281 0.510254 0 13.7913 0 30.1743V150.846Z"/>
</mask>
<path d="M29.664 180.51V178.51H365.336V180.51V182.51H29.664V180.51ZM395 150.846H393V63.5103H395H397V150.846H395ZM332 0.510254V2.51025H29.664V0.510254V-1.48975H332V0.510254ZM0 30.1743H2V150.846H0H-2V30.1743H0ZM29.664 0.510254V2.51025C14.3856 2.51025 2 14.8959 2 30.1743H0H-2C-2 12.6867 12.1765 -1.48975 29.664 -1.48975V0.510254ZM353 21.5103H351C351 11.0168 342.493 2.51025 332 2.51025V0.510254V-1.48975C344.703 -1.48975 355 8.8077 355 21.5103H353ZM374 42.5103V44.5103C361.297 44.5103 351 34.2128 351 21.5103H353H355C355 32.0037 363.507 40.5103 374 40.5103V42.5103ZM395 63.5103H393C393 53.0168 384.493 44.5103 374 44.5103V42.5103V40.5103C386.703 40.5103 397 50.8077 397 63.5103H395ZM365.336 180.51V178.51C380.614 178.51 393 166.125 393 150.846H395H397C397 168.334 382.824 182.51 365.336 182.51V180.51ZM29.664 180.51V182.51C12.1765 182.51 -2 168.334 -2 150.846H0H2C2 166.125 14.3856 178.51 29.664 178.51V180.51Z" fill="#7CEDF8" mask="url(#path-1-inside-1_1714_26617)"/>
</svg>
