<svg width="872" height="281" viewBox="0 0 872 281" fill="none" xmlns="http://www.w3.org/2000/svg">
<rect width="872" height="281" fill="#202020"/>
<rect x="38" y="43" width="211.589" height="86.5886" rx="27.7453" fill="black"/>
<path d="M76.333 96.2942H73.113V81.7342H83.053V84.6742H76.333V96.2942ZM98.8773 88.8462C98.8773 89.1262 98.8587 89.4715 98.8213 89.8822H87.1173C87.2667 91.0209 87.7333 91.9355 88.5173 92.6262C89.3013 93.2982 90.3 93.6342 91.5133 93.6342C92.3347 93.6342 93.072 93.4755 93.7253 93.1582C94.3973 92.8409 94.9107 92.4115 95.2653 91.8702L98.2893 92.3742C97.7667 93.7182 96.8613 94.7542 95.5733 95.4822C94.304 96.2102 92.8853 96.5742 91.3173 96.5742C89.8613 96.5742 88.5547 96.2569 87.3973 95.6222C86.2587 94.9689 85.3627 94.0729 84.7093 92.9342C84.0747 91.7769 83.7573 90.4702 83.7573 89.0142C83.7573 87.5582 84.0747 86.2609 84.7093 85.1222C85.3627 83.9649 86.2587 83.0689 87.3973 82.4342C88.5547 81.7809 89.8613 81.4542 91.3173 81.4542C92.7733 81.4542 94.0707 81.7809 95.2093 82.4342C96.3667 83.0689 97.2627 83.9555 97.8973 85.0942C98.5507 86.2142 98.8773 87.4649 98.8773 88.8462ZM91.3173 84.2542C90.3467 84.2542 89.4973 84.5342 88.7693 85.0942C88.06 85.6542 87.5747 86.4102 87.3133 87.3622H95.3773C95.0973 86.4289 94.5933 85.6822 93.8653 85.1222C93.156 84.5435 92.3067 84.2542 91.3173 84.2542ZM108.33 96.5742C106.837 96.5742 105.493 96.2569 104.298 95.6222C103.122 94.9689 102.198 94.0729 101.526 92.9342C100.873 91.7769 100.546 90.4702 100.546 89.0142C100.546 87.5582 100.873 86.2609 101.526 85.1222C102.198 83.9649 103.122 83.0689 104.298 82.4342C105.493 81.7809 106.837 81.4542 108.33 81.4542C109.824 81.4542 111.158 81.7809 112.334 82.4342C113.529 83.0689 114.453 83.9649 115.106 85.1222C115.778 86.2609 116.114 87.5582 116.114 89.0142C116.114 90.4702 115.778 91.7769 115.106 92.9342C114.453 94.0729 113.529 94.9689 112.334 95.6222C111.158 96.2569 109.824 96.5742 108.33 96.5742ZM108.33 93.6342C109.637 93.6342 110.701 93.2142 111.522 92.3742C112.344 91.5155 112.754 90.3955 112.754 89.0142C112.754 87.6329 112.344 86.5222 111.522 85.6822C110.701 84.8235 109.637 84.3942 108.33 84.3942C107.024 84.3942 105.96 84.8235 105.138 85.6822C104.317 86.5222 103.906 87.6329 103.906 89.0142C103.906 90.3955 104.317 91.5155 105.138 92.3742C105.96 93.2142 107.024 93.6342 108.33 93.6342ZM122.134 96.2942H118.914V81.7342H128.854V84.6742H122.134V96.2942ZM130.945 102.034V81.7342H133.353L134.025 84.0862C134.622 83.3582 135.388 82.7422 136.321 82.2382C137.254 81.7155 138.328 81.4542 139.541 81.4542C140.904 81.4542 142.126 81.7809 143.209 82.4342C144.292 83.0689 145.132 83.9649 145.729 85.1222C146.345 86.2609 146.653 87.5582 146.653 89.0142C146.653 90.4702 146.345 91.7769 145.729 92.9342C145.132 94.0729 144.292 94.9689 143.209 95.6222C142.126 96.2569 140.904 96.5742 139.541 96.5742C138.365 96.5742 137.32 96.3409 136.405 95.8742C135.49 95.3889 134.744 94.7915 134.165 94.0822V102.034H130.945ZM138.757 93.6902C140.101 93.6902 141.193 93.2609 142.033 92.4022C142.873 91.5249 143.293 90.3955 143.293 89.0142C143.293 87.6329 142.873 86.5129 142.033 85.6542C141.193 84.7769 140.101 84.3382 138.757 84.3382C137.394 84.3382 136.284 84.7769 135.425 85.6542C134.585 86.5129 134.165 87.6329 134.165 89.0142C134.165 90.3955 134.585 91.5249 135.425 92.4022C136.284 93.2609 137.394 93.6902 138.757 93.6902ZM155.393 81.4542C157.259 81.4542 158.725 82.0422 159.789 83.2182C160.871 84.3755 161.413 86.0089 161.413 88.1182V96.2942H159.033L158.361 93.9982C157.95 94.6889 157.343 95.2955 156.541 95.8182C155.738 96.3222 154.786 96.5742 153.685 96.5742C152.714 96.5742 151.837 96.3782 151.053 95.9862C150.287 95.5942 149.69 95.0435 149.261 94.3342C148.831 93.6249 148.617 92.8222 148.617 91.9262C148.617 90.5449 149.158 89.4435 150.241 88.6222C151.342 87.7822 152.938 87.3622 155.029 87.3622H158.165C158.09 86.3915 157.791 85.6262 157.269 85.0662C156.765 84.4875 156.083 84.1982 155.225 84.1982C154.534 84.1982 153.937 84.3662 153.433 84.7022C152.929 85.0382 152.555 85.4489 152.313 85.9342L149.345 85.4302C149.699 84.1982 150.427 83.2275 151.529 82.5182C152.649 81.8089 153.937 81.4542 155.393 81.4542ZM154.441 93.8582C155.561 93.8582 156.466 93.4942 157.157 92.7662C157.847 92.0382 158.193 91.0769 158.193 89.8822H155.141C152.957 89.8822 151.865 90.5169 151.865 91.7862C151.865 92.4209 152.098 92.9249 152.565 93.2982C153.031 93.6715 153.657 93.8582 154.441 93.8582ZM171.794 96.3502C170.301 96.3502 168.966 96.0422 167.79 95.4262C166.614 94.7915 165.699 93.9142 165.046 92.7942C164.393 91.6742 164.066 90.4049 164.066 88.9862C164.066 87.5675 164.393 86.3075 165.046 85.2062C165.699 84.0862 166.614 83.2182 167.79 82.6022C168.966 81.9675 170.301 81.6502 171.794 81.6502V76.5542H174.874V81.6502C176.367 81.6502 177.702 81.9675 178.878 82.6022C180.054 83.2182 180.969 84.0862 181.622 85.2062C182.275 86.3075 182.602 87.5675 182.602 88.9862C182.602 90.4049 182.275 91.6742 181.622 92.7942C180.969 93.9142 180.054 94.7915 178.878 95.4262C177.702 96.0422 176.367 96.3502 174.874 96.3502V102.034H171.794V96.3502ZM171.794 84.5342C170.506 84.5342 169.451 84.9542 168.63 85.7942C167.827 86.6155 167.426 87.6795 167.426 88.9862C167.426 90.3115 167.827 91.3942 168.63 92.2342C169.451 93.0555 170.506 93.4662 171.794 93.4662V84.5342ZM174.874 93.4662C176.162 93.4662 177.207 93.0555 178.01 92.2342C178.831 91.3942 179.242 90.3115 179.242 88.9862C179.242 87.6795 178.831 86.6155 178.01 85.7942C177.207 84.9542 176.162 84.5342 174.874 84.5342V93.4662ZM189.978 96.2942H185.414V81.7342H188.494V92.5422H188.942L194.374 81.7342H198.938V96.2942H195.858V85.4862H195.41L189.978 96.2942ZM214.29 81.7342V96.2942H211.07V91.6182H208.494L205.414 96.2942H201.746L205.218 91.1142C204.266 90.7409 203.519 90.1622 202.978 89.3782C202.436 88.5942 202.166 87.6889 202.166 86.6622C202.166 85.7102 202.408 84.8609 202.894 84.1142C203.379 83.3675 204.051 82.7889 204.91 82.3782C205.768 81.9489 206.739 81.7342 207.822 81.7342H214.29ZM211.07 88.8182V84.5342H207.822C207.094 84.5342 206.506 84.7302 206.058 85.1222C205.61 85.5142 205.386 86.0275 205.386 86.6622C205.386 87.3155 205.61 87.8382 206.058 88.2302C206.506 88.6222 207.094 88.8182 207.822 88.8182H211.07Z" fill="white"/>
<rect x="265.207" y="43" width="412.589" height="86.5886" rx="27.7453" fill="black"/>
<path d="M303.54 96.2942H300.32V81.7342H313.144V96.2942H309.924V84.6742H303.54V96.2942ZM323.725 96.5742C322.232 96.5742 320.888 96.2569 319.693 95.6222C318.517 94.9689 317.593 94.0729 316.921 92.9342C316.268 91.7769 315.941 90.4702 315.941 89.0142C315.941 87.5582 316.268 86.2609 316.921 85.1222C317.593 83.9649 318.517 83.0689 319.693 82.4342C320.888 81.7809 322.232 81.4542 323.725 81.4542C325.218 81.4542 326.553 81.7809 327.729 82.4342C328.924 83.0689 329.848 83.9649 330.501 85.1222C331.173 86.2609 331.509 87.5582 331.509 89.0142C331.509 90.4702 331.173 91.7769 330.501 92.9342C329.848 94.0729 328.924 94.9689 327.729 95.6222C326.553 96.2569 325.218 96.5742 323.725 96.5742ZM323.725 93.6342C325.032 93.6342 326.096 93.2142 326.917 92.3742C327.738 91.5155 328.149 90.3955 328.149 89.0142C328.149 87.6329 327.738 86.5222 326.917 85.6822C326.096 84.8235 325.032 84.3942 323.725 84.3942C322.418 84.3942 321.354 84.8235 320.533 85.6822C319.712 86.5222 319.301 87.6329 319.301 89.0142C319.301 90.3955 319.712 91.5155 320.533 92.3742C321.354 93.2142 322.418 93.6342 323.725 93.6342ZM335.589 81.7342H346.257V96.2942H343.037V84.6742H338.585L338.249 90.8062C338.155 92.5982 337.679 93.9889 336.821 94.9782C335.981 95.9489 334.833 96.4342 333.377 96.4342C333.003 96.4342 332.574 96.4062 332.089 96.3502L331.781 93.2702C332.005 93.2889 332.406 93.2982 332.985 93.2982C333.694 93.2982 334.198 93.1209 334.497 92.7662C334.814 92.3929 335.001 91.7582 335.057 90.8622L335.589 81.7342ZM361.185 96.2942H356.621V81.7342H359.701V92.5422H360.149L365.581 81.7342H370.145V96.2942H367.065V85.4862H366.617L361.185 96.2942ZM390.543 88.7342C391.29 88.9769 391.906 89.4155 392.391 90.0502C392.877 90.6662 393.119 91.4035 393.119 92.2622C393.119 93.0275 392.895 93.7182 392.447 94.3342C391.999 94.9502 391.365 95.4355 390.543 95.7902C389.741 96.1262 388.826 96.2942 387.799 96.2942H380.519V81.7342H387.491C388.481 81.7342 389.367 81.9022 390.151 82.2382C390.935 82.5742 391.542 83.0409 391.971 83.6382C392.401 84.2169 392.615 84.8889 392.615 85.6542C392.615 87.0542 391.925 88.0809 390.543 88.7342ZM383.739 84.3942V87.5582H387.491C388.051 87.5582 388.509 87.4182 388.863 87.1382C389.218 86.8395 389.395 86.4569 389.395 85.9902C389.395 85.5235 389.218 85.1409 388.863 84.8422C388.509 84.5435 388.051 84.3942 387.491 84.3942H383.739ZM387.799 93.6342C388.434 93.6342 388.938 93.4755 389.311 93.1582C389.703 92.8222 389.899 92.3929 389.899 91.8702C389.899 91.3289 389.703 90.8995 389.311 90.5822C388.938 90.2462 388.434 90.0782 387.799 90.0782H383.739V93.6342H387.799ZM402.721 96.5742C401.228 96.5742 399.884 96.2569 398.689 95.6222C397.513 94.9689 396.589 94.0729 395.917 92.9342C395.264 91.7769 394.937 90.4702 394.937 89.0142C394.937 87.5582 395.264 86.2609 395.917 85.1222C396.589 83.9649 397.513 83.0689 398.689 82.4342C399.884 81.7809 401.228 81.4542 402.721 81.4542C404.214 81.4542 405.549 81.7809 406.725 82.4342C407.92 83.0689 408.844 83.9649 409.497 85.1222C410.169 86.2609 410.505 87.5582 410.505 89.0142C410.505 90.4702 410.169 91.7769 409.497 92.9342C408.844 94.0729 407.92 94.9689 406.725 95.6222C405.549 96.2569 404.214 96.5742 402.721 96.5742ZM402.721 93.6342C404.028 93.6342 405.092 93.2142 405.913 92.3742C406.734 91.5155 407.145 90.3955 407.145 89.0142C407.145 87.6329 406.734 86.5222 405.913 85.6822C405.092 84.8235 404.028 84.3942 402.721 84.3942C401.414 84.3942 400.35 84.8235 399.529 85.6822C398.708 86.5222 398.297 87.6329 398.297 89.0142C398.297 90.3955 398.708 91.5155 399.529 92.3742C400.35 93.2142 401.414 93.6342 402.721 93.6342ZM421.592 88.8742C422.395 89.1169 423.058 89.5369 423.58 90.1342C424.122 90.7129 424.392 91.4315 424.392 92.2902C424.392 93.0929 424.14 93.8209 423.636 94.4742C423.151 95.1089 422.442 95.6222 421.508 96.0142C420.594 96.3875 419.539 96.5742 418.344 96.5742C416.758 96.5742 415.395 96.2009 414.256 95.4542C413.136 94.7075 412.399 93.7182 412.044 92.4862L415.012 91.9822C415.33 92.6355 415.75 93.1115 416.272 93.4102C416.795 93.6902 417.476 93.8302 418.316 93.8302C419.231 93.8302 419.931 93.6715 420.416 93.3542C420.92 93.0369 421.172 92.5982 421.172 92.0382C421.172 90.9369 420.22 90.3862 418.316 90.3862H416.496V87.5862H418.316C419.175 87.5862 419.828 87.4462 420.276 87.1662C420.724 86.8675 420.948 86.4662 420.948 85.9622C420.948 85.4209 420.715 84.9915 420.248 84.6742C419.782 84.3569 419.203 84.1982 418.512 84.1982C417.822 84.1982 417.196 84.3662 416.636 84.7022C416.095 85.0382 415.675 85.4955 415.376 86.0742L412.408 85.5702C412.838 84.2262 413.603 83.2089 414.704 82.5182C415.824 81.8089 417.131 81.4542 418.624 81.4542C419.688 81.4542 420.64 81.6315 421.48 81.9862C422.32 82.3409 422.974 82.8355 423.44 83.4702C423.926 84.1049 424.168 84.8235 424.168 85.6262C424.168 86.4289 423.926 87.1195 423.44 87.6982C422.974 88.2769 422.358 88.6689 421.592 88.8742ZM427.468 102.034V81.7342H429.876L430.548 84.0862C431.146 83.3582 431.911 82.7422 432.844 82.2382C433.778 81.7155 434.851 81.4542 436.064 81.4542C437.427 81.4542 438.65 81.7809 439.732 82.4342C440.815 83.0689 441.655 83.9649 442.252 85.1222C442.868 86.2609 443.176 87.5582 443.176 89.0142C443.176 90.4702 442.868 91.7769 442.252 92.9342C441.655 94.0729 440.815 94.9689 439.732 95.6222C438.65 96.2569 437.427 96.5742 436.064 96.5742C434.888 96.5742 433.843 96.3409 432.928 95.8742C432.014 95.3889 431.267 94.7915 430.688 94.0822V102.034H427.468ZM435.28 93.6902C436.624 93.6902 437.716 93.2609 438.556 92.4022C439.396 91.5249 439.816 90.3955 439.816 89.0142C439.816 87.6329 439.396 86.5129 438.556 85.6542C437.716 84.7769 436.624 84.3382 435.28 84.3382C433.918 84.3382 432.807 84.7769 431.948 85.6542C431.108 86.5129 430.688 87.6329 430.688 89.0142C430.688 90.3955 431.108 91.5249 431.948 92.4022C432.807 93.2609 433.918 93.6902 435.28 93.6902ZM451.916 81.4542C453.783 81.4542 455.248 82.0422 456.312 83.2182C457.395 84.3755 457.936 86.0089 457.936 88.1182V96.2942H455.556L454.884 93.9982C454.473 94.6889 453.867 95.2955 453.064 95.8182C452.261 96.3222 451.309 96.5742 450.208 96.5742C449.237 96.5742 448.36 96.3782 447.576 95.9862C446.811 95.5942 446.213 95.0435 445.784 94.3342C445.355 93.6249 445.14 92.8222 445.14 91.9262C445.14 90.5449 445.681 89.4435 446.764 88.6222C447.865 87.7822 449.461 87.3622 451.552 87.3622H454.688C454.613 86.3915 454.315 85.6262 453.792 85.0662C453.288 84.4875 452.607 84.1982 451.748 84.1982C451.057 84.1982 450.46 84.3662 449.956 84.7022C449.452 85.0382 449.079 85.4489 448.836 85.9342L445.868 85.4302C446.223 84.1982 446.951 83.2275 448.052 82.5182C449.172 81.8089 450.46 81.4542 451.916 81.4542ZM450.964 93.8582C452.084 93.8582 452.989 93.4942 453.68 92.7662C454.371 92.0382 454.716 91.0769 454.716 89.8822H451.664C449.48 89.8822 448.388 90.5169 448.388 91.7862C448.388 92.4209 448.621 92.9249 449.088 93.2982C449.555 93.6715 450.18 93.8582 450.964 93.8582ZM468.177 96.5742C466.721 96.5742 465.415 96.2569 464.257 95.6222C463.1 94.9689 462.195 94.0729 461.541 92.9342C460.907 91.7769 460.589 90.4702 460.589 89.0142C460.589 87.5582 460.907 86.2609 461.541 85.1222C462.195 83.9649 463.1 83.0689 464.257 82.4342C465.415 81.7809 466.721 81.4542 468.177 81.4542C469.783 81.4542 471.201 81.8555 472.433 82.6582C473.684 83.4422 474.571 84.5622 475.093 86.0182L472.069 86.5222C471.752 85.8875 471.257 85.3742 470.585 84.9822C469.932 84.5902 469.195 84.3942 468.373 84.3942C467.067 84.3942 466.003 84.8235 465.181 85.6822C464.36 86.5409 463.949 87.6515 463.949 89.0142C463.949 90.3769 464.36 91.4875 465.181 92.3462C466.003 93.2049 467.067 93.6342 468.373 93.6342C469.232 93.6342 469.997 93.4382 470.669 93.0462C471.341 92.6355 471.845 92.1035 472.181 91.4502L475.205 91.9542C474.683 93.4289 473.777 94.5675 472.489 95.3702C471.201 96.1729 469.764 96.5742 468.177 96.5742ZM483.766 96.2942H480.546V84.6742H475.506V81.7342H488.806V84.6742H483.766V96.2942ZM503.158 81.4542C505.025 81.4542 506.49 82.0422 507.554 83.2182C508.637 84.3755 509.178 86.0089 509.178 88.1182V96.2942H506.798L506.126 93.9982C505.716 94.6889 505.109 95.2955 504.306 95.8182C503.504 96.3222 502.552 96.5742 501.45 96.5742C500.48 96.5742 499.602 96.3782 498.818 95.9862C498.053 95.5942 497.456 95.0435 497.026 94.3342C496.597 93.6249 496.382 92.8222 496.382 91.9262C496.382 90.5449 496.924 89.4435 498.006 88.6222C499.108 87.7822 500.704 87.3622 502.794 87.3622H505.93C505.856 86.3915 505.557 85.6262 505.034 85.0662C504.53 84.4875 503.849 84.1982 502.99 84.1982C502.3 84.1982 501.702 84.3662 501.198 84.7022C500.694 85.0382 500.321 85.4489 500.078 85.9342L497.11 85.4302C497.465 84.1982 498.193 83.2275 499.294 82.5182C500.414 81.8089 501.702 81.4542 503.158 81.4542ZM502.206 93.8582C503.326 93.8582 504.232 93.4942 504.922 92.7662C505.613 92.0382 505.958 91.0769 505.958 89.8822H502.906C500.722 89.8822 499.63 90.5169 499.63 91.7862C499.63 92.4209 499.864 92.9249 500.33 93.2982C500.797 93.6715 501.422 93.8582 502.206 93.8582ZM522.485 81.7342H525.761L519.797 98.1142C519.293 99.4955 518.639 100.494 517.837 101.11C517.053 101.726 515.998 102.034 514.673 102.034H512.461L512.181 99.0942H514.897C515.438 99.0942 515.849 98.9729 516.129 98.7302C516.427 98.5062 516.679 98.1049 516.885 97.5262L517.053 97.0782L510.585 81.7342H514.029L518.313 92.2342H518.761L522.485 81.7342ZM525.487 100.634V93.3542H525.851C527.344 93.3542 528.222 91.9635 528.483 89.1822L529.211 81.7342H539.879V93.3542H542.399V100.634H539.179V96.2942H528.707V100.634H525.487ZM536.659 93.3542V84.6742H532.179L531.731 89.1262C531.619 90.2649 531.46 91.1609 531.255 91.8142C531.05 92.4675 530.76 92.9809 530.387 93.3542H536.659ZM549.2 96.2942H544.636V81.7342H547.716V92.5422H548.164L553.596 81.7342H558.16V96.2942H555.08V85.4862H554.632L549.2 96.2942ZM568.668 96.2942H565.448V84.6742H560.408V81.7342H573.708V84.6742H568.668V96.2942ZM582.342 96.5742C580.849 96.5742 579.505 96.2569 578.31 95.6222C577.134 94.9689 576.21 94.0729 575.538 92.9342C574.885 91.7769 574.558 90.4702 574.558 89.0142C574.558 87.5582 574.885 86.2609 575.538 85.1222C576.21 83.9649 577.134 83.0689 578.31 82.4342C579.505 81.7809 580.849 81.4542 582.342 81.4542C583.835 81.4542 585.17 81.7809 586.346 82.4342C587.541 83.0689 588.465 83.9649 589.118 85.1222C589.79 86.2609 590.126 87.5582 590.126 89.0142C590.126 90.4702 589.79 91.7769 589.118 92.9342C588.465 94.0729 587.541 94.9689 586.346 95.6222C585.17 96.2569 583.835 96.5742 582.342 96.5742ZM582.342 93.6342C583.649 93.6342 584.713 93.2142 585.534 92.3742C586.355 91.5155 586.766 90.3955 586.766 89.0142C586.766 87.6329 586.355 86.5222 585.534 85.6822C584.713 84.8235 583.649 84.3942 582.342 84.3942C581.035 84.3942 579.971 84.8235 579.15 85.6822C578.329 86.5222 577.918 87.6329 577.918 89.0142C577.918 90.3955 578.329 91.5155 579.15 92.3742C579.971 93.2142 581.035 93.6342 582.342 93.6342ZM592.925 102.034V81.7342H595.333L596.005 84.0862C596.603 83.3582 597.368 82.7422 598.301 82.2382C599.235 81.7155 600.308 81.4542 601.521 81.4542C602.884 81.4542 604.107 81.7809 605.189 82.4342C606.272 83.0689 607.112 83.9649 607.709 85.1222C608.325 86.2609 608.633 87.5582 608.633 89.0142C608.633 90.4702 608.325 91.7769 607.709 92.9342C607.112 94.0729 606.272 94.9689 605.189 95.6222C604.107 96.2569 602.884 96.5742 601.521 96.5742C600.345 96.5742 599.3 96.3409 598.385 95.8742C597.471 95.3889 596.724 94.7915 596.145 94.0822V102.034H592.925ZM600.737 93.6902C602.081 93.6902 603.173 93.2609 604.013 92.4022C604.853 91.5249 605.273 90.3955 605.273 89.0142C605.273 87.6329 604.853 86.5129 604.013 85.6542C603.173 84.7769 602.081 84.3382 600.737 84.3382C599.375 84.3382 598.264 84.7769 597.405 85.6542C596.565 86.5129 596.145 87.6329 596.145 89.0142C596.145 90.3955 596.565 91.5249 597.405 92.4022C598.264 93.2609 599.375 93.6902 600.737 93.6902ZM616.001 96.2942H611.437V81.7342H614.517V92.5422H614.965L620.397 81.7342H624.961V96.2942H621.881V85.4862H621.433L616.001 96.2942ZM633.173 96.2942H628.609V81.7342H631.689V92.5422H632.137L637.569 81.7342H642.133V96.2942H639.053V85.4862H638.605L633.173 96.2942Z" fill="white"/>
<rect x="693.41" y="43" width="130.589" height="86.5886" rx="27.7453" fill="black"/>
<path d="M737.539 96.5742C735.672 96.5742 734.002 96.1449 732.527 95.2862C731.052 94.4089 729.895 93.2049 729.055 91.6742C728.234 90.1249 727.823 88.3702 727.823 86.4102C727.823 84.4689 728.234 82.7329 729.055 81.2022C729.895 79.6529 731.052 78.4489 732.527 77.5902C734.002 76.7129 735.672 76.2742 737.539 76.2742C739.574 76.2742 741.375 76.7875 742.943 77.8142C744.511 78.8222 745.631 80.2129 746.303 81.9862L742.971 82.5462C742.504 81.5382 741.795 80.7542 740.843 80.1942C739.91 79.6342 738.846 79.3542 737.651 79.3542C736.419 79.3542 735.318 79.6529 734.347 80.2502C733.395 80.8475 732.648 81.6782 732.107 82.7422C731.584 83.8062 731.323 85.0289 731.323 86.4102C731.323 87.7915 731.584 89.0235 732.107 90.1062C732.648 91.1702 733.395 92.0009 734.347 92.5982C735.318 93.1955 736.419 93.4942 737.651 93.4942C738.864 93.4942 739.956 93.2049 740.927 92.6262C741.898 92.0289 742.626 91.2075 743.111 90.1622L746.443 90.7222C745.734 92.5142 744.576 93.9422 742.971 95.0062C741.384 96.0515 739.574 96.5742 737.539 96.5742ZM749.256 96.2942V76.5542H756.256C757.6 76.5542 758.814 76.8435 759.896 77.4222C760.998 77.9822 761.856 78.7662 762.472 79.7742C763.088 80.7822 763.396 81.9302 763.396 83.2182C763.396 84.4875 763.088 85.6355 762.472 86.6622C761.856 87.6702 760.998 88.4635 759.896 89.0422C758.814 89.6022 757.6 89.8822 756.256 89.8822H752.616V96.2942H749.256ZM756.256 86.8022C757.358 86.8022 758.244 86.4755 758.916 85.8222C759.607 85.1502 759.952 84.2822 759.952 83.2182C759.952 82.1542 759.607 81.2955 758.916 80.6422C758.244 79.9702 757.358 79.6342 756.256 79.6342H752.616V86.8022H756.256ZM769.485 96.2942H766.209V76.5542H771.473L776.849 91.4782H777.297L782.785 76.5542H787.937V96.2942H784.661V81.0342H784.213L778.585 96.2942H775.449L769.933 81.0342H769.485V96.2942Z" fill="white"/>
<rect x="38" y="151.589" width="287.589" height="86.5886" rx="27.7453" fill="black"/>
<path d="M79.861 205.163C78.405 205.163 77.0983 204.845 75.941 204.211C74.7836 203.557 73.8783 202.661 73.225 201.523C72.5903 200.365 72.273 199.059 72.273 197.603C72.273 196.147 72.5903 194.849 73.225 193.711C73.8783 192.553 74.7836 191.657 75.941 191.023C77.0983 190.369 78.405 190.043 79.861 190.043C81.4663 190.043 82.885 190.444 84.117 191.247C85.3676 192.031 86.2543 193.151 86.777 194.607L83.753 195.111C83.4356 194.476 82.941 193.963 82.269 193.571C81.6156 193.179 80.8783 192.983 80.057 192.983C78.7503 192.983 77.6863 193.412 76.865 194.271C76.0436 195.129 75.633 196.24 75.633 197.603C75.633 198.965 76.0436 200.076 76.865 200.935C77.6863 201.793 78.7503 202.223 80.057 202.223C80.9156 202.223 81.681 202.027 82.353 201.635C83.025 201.224 83.529 200.692 83.865 200.039L86.889 200.543C86.3663 202.017 85.461 203.156 84.173 203.959C82.885 204.761 81.4476 205.163 79.861 205.163ZM89.1364 210.623V190.323H91.5444L92.2164 192.675C92.8137 191.947 93.5791 191.331 94.5124 190.827C95.4457 190.304 96.5191 190.043 97.7324 190.043C99.0951 190.043 100.318 190.369 101.4 191.023C102.483 191.657 103.323 192.553 103.92 193.711C104.536 194.849 104.844 196.147 104.844 197.603C104.844 199.059 104.536 200.365 103.92 201.523C103.323 202.661 102.483 203.557 101.4 204.211C100.318 204.845 99.0951 205.163 97.7324 205.163C96.5564 205.163 95.5111 204.929 94.5964 204.463C93.6817 203.977 92.9351 203.38 92.3564 202.671V210.623H89.1364ZM96.9484 202.279C98.2924 202.279 99.3844 201.849 100.224 200.991C101.064 200.113 101.484 198.984 101.484 197.603C101.484 196.221 101.064 195.101 100.224 194.243C99.3844 193.365 98.2924 192.927 96.9484 192.927C95.5857 192.927 94.4751 193.365 93.6164 194.243C92.7764 195.101 92.3564 196.221 92.3564 197.603C92.3564 198.984 92.7764 200.113 93.6164 200.991C94.4751 201.849 95.5857 202.279 96.9484 202.279ZM121.928 197.435C121.928 197.715 121.909 198.06 121.872 198.471H110.168C110.317 199.609 110.784 200.524 111.568 201.215C112.352 201.887 113.351 202.223 114.564 202.223C115.385 202.223 116.123 202.064 116.776 201.747C117.448 201.429 117.961 201 118.316 200.459L121.34 200.963C120.817 202.307 119.912 203.343 118.624 204.071C117.355 204.799 115.936 205.163 114.368 205.163C112.912 205.163 111.605 204.845 110.448 204.211C109.309 203.557 108.413 202.661 107.76 201.523C107.125 200.365 106.808 199.059 106.808 197.603C106.808 196.147 107.125 194.849 107.76 193.711C108.413 192.553 109.309 191.657 110.448 191.023C111.605 190.369 112.912 190.043 114.368 190.043C115.824 190.043 117.121 190.369 118.26 191.023C119.417 191.657 120.313 192.544 120.948 193.683C121.601 194.803 121.928 196.053 121.928 197.435ZM114.368 192.843C113.397 192.843 112.548 193.123 111.82 193.683C111.111 194.243 110.625 194.999 110.364 195.951H118.428C118.148 195.017 117.644 194.271 116.916 193.711C116.207 193.132 115.357 192.843 114.368 192.843ZM122.05 209.223V201.943H122.414C123.907 201.943 124.784 200.552 125.046 197.771L125.774 190.323H136.442V201.943H138.962V209.223H135.742V204.883H125.27V209.223H122.05ZM133.222 201.943V193.263H128.742L128.294 197.715C128.182 198.853 128.023 199.749 127.818 200.403C127.612 201.056 127.323 201.569 126.95 201.943H133.222ZM150.943 196.063V190.323H154.163V204.883H150.943V199.003H144.419V204.883H141.199V190.323H144.419V196.063H150.943ZM162.361 204.883H157.797V190.323H160.877V201.131H161.325L166.757 190.323H171.321V204.883H168.241V194.075H167.793L162.361 204.883ZM189.248 197.435C189.248 197.715 189.23 198.06 189.192 198.471H177.488C177.638 199.609 178.104 200.524 178.888 201.215C179.672 201.887 180.671 202.223 181.884 202.223C182.706 202.223 183.443 202.064 184.096 201.747C184.768 201.429 185.282 201 185.636 200.459L188.66 200.963C188.138 202.307 187.232 203.343 185.944 204.071C184.675 204.799 183.256 205.163 181.688 205.163C180.232 205.163 178.926 204.845 177.768 204.211C176.63 203.557 175.734 202.661 175.08 201.523C174.446 200.365 174.128 199.059 174.128 197.603C174.128 196.147 174.446 194.849 175.08 193.711C175.734 192.553 176.63 191.657 177.768 191.023C178.926 190.369 180.232 190.043 181.688 190.043C183.144 190.043 184.442 190.369 185.58 191.023C186.738 191.657 187.634 192.544 188.268 193.683C188.922 194.803 189.248 196.053 189.248 197.435ZM181.688 192.843C180.718 192.843 179.868 193.123 179.14 193.683C178.431 194.243 177.946 194.999 177.684 195.951H185.748C185.468 195.017 184.964 194.271 184.236 193.711C183.527 193.132 182.678 192.843 181.688 192.843ZM204.881 205.163C203.388 205.163 202.044 204.845 200.849 204.211C199.673 203.557 198.749 202.661 198.077 201.523C197.424 200.365 197.097 199.059 197.097 197.603C197.097 196.147 197.424 194.849 198.077 193.711C198.749 192.553 199.673 191.657 200.849 191.023C202.044 190.369 203.388 190.043 204.881 190.043C206.375 190.043 207.709 190.369 208.885 191.023C210.08 191.657 211.004 192.553 211.657 193.711C212.329 194.849 212.665 196.147 212.665 197.603C212.665 199.059 212.329 200.365 211.657 201.523C211.004 202.661 210.08 203.557 208.885 204.211C207.709 204.845 206.375 205.163 204.881 205.163ZM204.881 202.223C206.188 202.223 207.252 201.803 208.073 200.963C208.895 200.104 209.305 198.984 209.305 197.603C209.305 196.221 208.895 195.111 208.073 194.271C207.252 193.412 206.188 192.983 204.881 192.983C203.575 192.983 202.511 193.412 201.689 194.271C200.868 195.111 200.457 196.221 200.457 197.603C200.457 198.984 200.868 200.104 201.689 200.963C202.511 201.803 203.575 202.223 204.881 202.223ZM216.822 204.883H213.182L217.802 197.435L213.714 190.323H217.354L220.07 195.223H220.602L223.458 190.323H227.014L222.926 197.239L227.546 204.883H223.794L220.686 199.367H220.154L216.822 204.883ZM239.461 197.323C240.208 197.565 240.824 198.004 241.309 198.639C241.795 199.255 242.037 199.992 242.037 200.851C242.037 201.616 241.813 202.307 241.365 202.923C240.917 203.539 240.283 204.024 239.461 204.379C238.659 204.715 237.744 204.883 236.717 204.883H229.437V190.323H236.409C237.399 190.323 238.285 190.491 239.069 190.827C239.853 191.163 240.46 191.629 240.889 192.227C241.319 192.805 241.533 193.477 241.533 194.243C241.533 195.643 240.843 196.669 239.461 197.323ZM232.657 192.983V196.147H236.409C236.969 196.147 237.427 196.007 237.781 195.727C238.136 195.428 238.313 195.045 238.313 194.579C238.313 194.112 238.136 193.729 237.781 193.431C237.427 193.132 236.969 192.983 236.409 192.983H232.657ZM236.717 202.223C237.352 202.223 237.856 202.064 238.229 201.747C238.621 201.411 238.817 200.981 238.817 200.459C238.817 199.917 238.621 199.488 238.229 199.171C237.856 198.835 237.352 198.667 236.717 198.667H232.657V202.223H236.717ZM250.631 190.043C252.498 190.043 253.963 190.631 255.027 191.807C256.11 192.964 256.651 194.597 256.651 196.707V204.883H254.271L253.599 202.587C253.188 203.277 252.582 203.884 251.779 204.407C250.976 204.911 250.024 205.163 248.923 205.163C247.952 205.163 247.075 204.967 246.291 204.575C245.526 204.183 244.928 203.632 244.499 202.923C244.07 202.213 243.855 201.411 243.855 200.515C243.855 199.133 244.396 198.032 245.479 197.211C246.58 196.371 248.176 195.951 250.267 195.951H253.403C253.328 194.98 253.03 194.215 252.507 193.655C252.003 193.076 251.322 192.787 250.463 192.787C249.772 192.787 249.175 192.955 248.671 193.291C248.167 193.627 247.794 194.037 247.551 194.523L244.583 194.019C244.938 192.787 245.666 191.816 246.767 191.107C247.887 190.397 249.175 190.043 250.631 190.043ZM249.679 202.447C250.799 202.447 251.704 202.083 252.395 201.355C253.086 200.627 253.431 199.665 253.431 198.471H250.379C248.195 198.471 247.103 199.105 247.103 200.375C247.103 201.009 247.336 201.513 247.803 201.887C248.27 202.26 248.895 202.447 249.679 202.447ZM266.157 204.883H262.937V193.263H257.897V190.323H271.197V193.263H266.157V204.883ZM273.433 204.883V190.323H276.653V194.467H278.921C280.079 194.467 281.105 194.691 282.001 195.139C282.897 195.568 283.597 196.184 284.101 196.987C284.605 197.771 284.857 198.667 284.857 199.675C284.857 200.683 284.605 201.588 284.101 202.391C283.597 203.175 282.888 203.791 281.973 204.239C281.077 204.668 280.06 204.883 278.921 204.883H273.433ZM289.813 204.883H286.593V190.323H289.813V204.883ZM278.921 202.083C279.724 202.083 280.377 201.859 280.881 201.411C281.385 200.963 281.637 200.384 281.637 199.675C281.637 198.965 281.385 198.387 280.881 197.939C280.377 197.491 279.724 197.267 278.921 197.267H276.653V202.083H278.921Z" fill="white"/>
<rect x="347.59" y="151.589" width="476.589" height="86.5886" rx="27.7453" fill="black"/>
<path d="M382.703 210.623V190.323H385.111L385.783 192.675C386.38 191.947 387.145 191.331 388.079 190.827C389.012 190.304 390.085 190.043 391.299 190.043C392.661 190.043 393.884 190.369 394.967 191.023C396.049 191.657 396.889 192.553 397.487 193.711C398.103 194.849 398.411 196.147 398.411 197.603C398.411 199.059 398.103 200.365 397.487 201.523C396.889 202.661 396.049 203.557 394.967 204.211C393.884 204.845 392.661 205.163 391.299 205.163C390.123 205.163 389.077 204.929 388.163 204.463C387.248 203.977 386.501 203.38 385.923 202.671V210.623H382.703ZM390.515 202.279C391.859 202.279 392.951 201.849 393.791 200.991C394.631 200.113 395.051 198.984 395.051 197.603C395.051 196.221 394.631 195.101 393.791 194.243C392.951 193.365 391.859 192.927 390.515 192.927C389.152 192.927 388.041 193.365 387.183 194.243C386.343 195.101 385.923 196.221 385.923 197.603C385.923 198.984 386.343 200.113 387.183 200.991C388.041 201.849 389.152 202.279 390.515 202.279ZM415.495 197.435C415.495 197.715 415.476 198.06 415.439 198.471H403.735C403.884 199.609 404.351 200.524 405.135 201.215C405.919 201.887 406.917 202.223 408.131 202.223C408.952 202.223 409.689 202.064 410.343 201.747C411.015 201.429 411.528 201 411.883 200.459L414.907 200.963C414.384 202.307 413.479 203.343 412.191 204.071C410.921 204.799 409.503 205.163 407.935 205.163C406.479 205.163 405.172 204.845 404.015 204.211C402.876 203.557 401.98 202.661 401.327 201.523C400.692 200.365 400.375 199.059 400.375 197.603C400.375 196.147 400.692 194.849 401.327 193.711C401.98 192.553 402.876 191.657 404.015 191.023C405.172 190.369 406.479 190.043 407.935 190.043C409.391 190.043 410.688 190.369 411.827 191.023C412.984 191.657 413.88 192.544 414.515 193.683C415.168 194.803 415.495 196.053 415.495 197.435ZM407.935 192.843C406.964 192.843 406.115 193.123 405.387 193.683C404.677 194.243 404.192 194.999 403.931 195.951H411.995C411.715 195.017 411.211 194.271 410.483 193.711C409.773 193.132 408.924 192.843 407.935 192.843ZM421.224 204.883H418.004V190.323H430.828V204.883H427.608V193.263H421.224V204.883ZM444.825 190.323H448.101L442.137 206.703C441.633 208.084 440.979 209.083 440.177 209.699C439.393 210.315 438.338 210.623 437.013 210.623H434.801L434.521 207.683H437.237C437.778 207.683 438.189 207.561 438.469 207.319C438.767 207.095 439.019 206.693 439.225 206.115L439.393 205.667L432.925 190.323H436.369L440.653 200.823H441.101L444.825 190.323ZM457.348 204.883H454.128V193.263H449.088V190.323H462.388V193.263H457.348V204.883ZM470.014 190.043C471.88 190.043 473.346 190.631 474.41 191.807C475.492 192.964 476.034 194.597 476.034 196.707V204.883H473.654L472.982 202.587C472.571 203.277 471.964 203.884 471.162 204.407C470.359 204.911 469.407 205.163 468.306 205.163C467.335 205.163 466.458 204.967 465.674 204.575C464.908 204.183 464.311 203.632 463.882 202.923C463.452 202.213 463.238 201.411 463.238 200.515C463.238 199.133 463.779 198.032 464.862 197.211C465.963 196.371 467.559 195.951 469.65 195.951H472.786C472.711 194.98 472.412 194.215 471.89 193.655C471.386 193.076 470.704 192.787 469.846 192.787C469.155 192.787 468.558 192.955 468.054 193.291C467.55 193.627 467.176 194.037 466.934 194.523L463.966 194.019C464.32 192.787 465.048 191.816 466.15 191.107C467.27 190.397 468.558 190.043 470.014 190.043ZM469.062 202.447C470.182 202.447 471.087 202.083 471.778 201.355C472.468 200.627 472.814 199.665 472.814 198.471H469.762C467.578 198.471 466.486 199.105 466.486 200.375C466.486 201.009 466.719 201.513 467.186 201.887C467.652 202.26 468.278 202.447 469.062 202.447ZM494.647 209.223H491.427V204.883H479.527V190.323H482.747V201.943H488.907V190.323H492.127V201.943H494.647V209.223ZM501.454 204.883H496.89V190.323H499.97V201.131H500.418L505.85 190.323H510.414V204.883H507.334V194.075H506.886L501.454 204.883ZM521.006 205.163C519.513 205.163 518.169 204.845 516.974 204.211C515.798 203.557 514.874 202.661 514.202 201.523C513.549 200.365 513.222 199.059 513.222 197.603C513.222 196.147 513.549 194.849 514.202 193.711C514.874 192.553 515.798 191.657 516.974 191.023C518.169 190.369 519.513 190.043 521.006 190.043C522.5 190.043 523.834 190.369 525.01 191.023C526.205 191.657 527.129 192.553 527.782 193.711C528.454 194.849 528.79 196.147 528.79 197.603C528.79 199.059 528.454 200.365 527.782 201.523C527.129 202.661 526.205 203.557 525.01 204.211C523.834 204.845 522.5 205.163 521.006 205.163ZM521.006 202.223C522.313 202.223 523.377 201.803 524.198 200.963C525.02 200.104 525.43 198.984 525.43 197.603C525.43 196.221 525.02 195.111 524.198 194.271C523.377 193.412 522.313 192.983 521.006 192.983C519.7 192.983 518.636 193.412 517.814 194.271C516.993 195.111 516.582 196.221 516.582 197.603C516.582 198.984 516.993 200.104 517.814 200.963C518.636 201.803 519.7 202.223 521.006 202.223ZM541.334 196.063V190.323H544.554V204.883H541.334V199.003H534.81V204.883H531.59V190.323H534.81V196.063H541.334ZM557.931 196.063V190.323H561.151V204.883H557.931V199.003H551.407V204.883H548.187V190.323H551.407V196.063H557.931ZM570.721 190.043C572.588 190.043 574.053 190.631 575.117 191.807C576.2 192.964 576.741 194.597 576.741 196.707V204.883H574.361L573.689 202.587C573.278 203.277 572.672 203.884 571.869 204.407C571.066 204.911 570.114 205.163 569.013 205.163C568.042 205.163 567.165 204.967 566.381 204.575C565.616 204.183 565.018 203.632 564.589 202.923C564.16 202.213 563.945 201.411 563.945 200.515C563.945 199.133 564.486 198.032 565.569 197.211C566.67 196.371 568.266 195.951 570.357 195.951H573.493C573.418 194.98 573.12 194.215 572.597 193.655C572.093 193.076 571.412 192.787 570.553 192.787C569.862 192.787 569.265 192.955 568.761 193.291C568.257 193.627 567.884 194.037 567.641 194.523L564.673 194.019C565.028 192.787 565.756 191.816 566.857 191.107C567.977 190.397 569.265 190.043 570.721 190.043ZM569.769 202.447C570.889 202.447 571.794 202.083 572.485 201.355C573.176 200.627 573.521 199.665 573.521 198.471H570.469C568.285 198.471 567.193 199.105 567.193 200.375C567.193 201.009 567.426 201.513 567.893 201.887C568.36 202.26 568.985 202.447 569.769 202.447ZM591.938 190.323V204.883H588.718V200.207H586.142L583.062 204.883H579.394L582.866 199.703C581.914 199.329 581.167 198.751 580.626 197.967C580.085 197.183 579.814 196.277 579.814 195.251C579.814 194.299 580.057 193.449 580.542 192.703C581.027 191.956 581.699 191.377 582.558 190.967C583.417 190.537 584.387 190.323 585.47 190.323H591.938ZM588.718 197.407V193.123H585.47C584.742 193.123 584.154 193.319 583.706 193.711C583.258 194.103 583.034 194.616 583.034 195.251C583.034 195.904 583.258 196.427 583.706 196.819C584.154 197.211 584.742 197.407 585.47 197.407H588.718ZM609.23 191.807C610.48 191.807 611.6 192.087 612.59 192.647C613.579 193.207 614.354 193.991 614.914 194.999C615.474 196.007 615.754 197.155 615.754 198.443C615.754 199.731 615.436 200.888 614.802 201.915C614.186 202.941 613.327 203.744 612.226 204.323C611.124 204.883 609.874 205.163 608.474 205.163C607.279 205.163 606.196 204.948 605.226 204.519C604.255 204.071 603.434 203.417 602.762 202.559C601.623 201.065 601.054 199.003 601.054 196.371C601.054 193.477 601.688 191.181 602.958 189.483C604.246 187.784 606.383 186.804 609.37 186.543C610.023 186.487 610.518 186.393 610.854 186.263C611.208 186.132 611.46 185.955 611.61 185.731C611.759 185.488 611.871 185.152 611.946 184.723L614.774 184.975C614.699 186.113 614.419 187 613.934 187.635C613.467 188.251 612.86 188.689 612.114 188.951C611.367 189.212 610.462 189.389 609.398 189.483C608.147 189.595 607.167 189.847 606.458 190.239C605.748 190.612 605.244 191.125 604.946 191.779C604.647 192.432 604.451 193.281 604.358 194.327C604.918 193.487 605.59 192.861 606.374 192.451C607.176 192.021 608.128 191.807 609.23 191.807ZM608.502 202.279C609.678 202.279 610.63 201.933 611.358 201.243C612.104 200.533 612.478 199.609 612.478 198.471C612.478 197.351 612.104 196.445 611.358 195.755C610.63 195.045 609.678 194.691 608.502 194.691C607.307 194.691 606.336 195.045 605.59 195.755C604.862 196.445 604.498 197.351 604.498 198.471C604.498 199.609 604.862 200.533 605.59 201.243C606.336 201.933 607.307 202.279 608.502 202.279ZM632.686 197.435C632.686 197.715 632.667 198.06 632.63 198.471H620.926C621.075 199.609 621.542 200.524 622.326 201.215C623.11 201.887 624.109 202.223 625.322 202.223C626.143 202.223 626.881 202.064 627.534 201.747C628.206 201.429 628.719 201 629.074 200.459L632.098 200.963C631.575 202.307 630.67 203.343 629.382 204.071C628.113 204.799 626.694 205.163 625.126 205.163C623.67 205.163 622.363 204.845 621.206 204.211C620.067 203.557 619.171 202.661 618.518 201.523C617.883 200.365 617.566 199.059 617.566 197.603C617.566 196.147 617.883 194.849 618.518 193.711C619.171 192.553 620.067 191.657 621.206 191.023C622.363 190.369 623.67 190.043 625.126 190.043C626.582 190.043 627.879 190.369 629.018 191.023C630.175 191.657 631.071 192.544 631.706 193.683C632.359 194.803 632.686 196.053 632.686 197.435ZM625.126 192.843C624.155 192.843 623.306 193.123 622.578 193.683C621.869 194.243 621.383 194.999 621.122 195.951H629.186C628.906 195.017 628.402 194.271 627.674 193.711C626.965 193.132 626.115 192.843 625.126 192.843ZM643.483 197.463C644.286 197.705 644.948 198.125 645.471 198.723C646.012 199.301 646.283 200.02 646.283 200.879C646.283 201.681 646.031 202.409 645.527 203.063C645.042 203.697 644.332 204.211 643.399 204.603C642.484 204.976 641.43 205.163 640.235 205.163C638.648 205.163 637.286 204.789 636.147 204.043C635.027 203.296 634.29 202.307 633.935 201.075L636.903 200.571C637.22 201.224 637.64 201.7 638.163 201.999C638.686 202.279 639.367 202.419 640.207 202.419C641.122 202.419 641.822 202.26 642.307 201.943C642.811 201.625 643.063 201.187 643.063 200.627C643.063 199.525 642.111 198.975 640.207 198.975H638.387V196.175H640.207C641.066 196.175 641.719 196.035 642.167 195.755C642.615 195.456 642.839 195.055 642.839 194.551C642.839 194.009 642.606 193.58 642.139 193.263C641.672 192.945 641.094 192.787 640.403 192.787C639.712 192.787 639.087 192.955 638.527 193.291C637.986 193.627 637.566 194.084 637.267 194.663L634.299 194.159C634.728 192.815 635.494 191.797 636.595 191.107C637.715 190.397 639.022 190.043 640.515 190.043C641.579 190.043 642.531 190.22 643.371 190.575C644.211 190.929 644.864 191.424 645.331 192.059C645.816 192.693 646.059 193.412 646.059 194.215C646.059 195.017 645.816 195.708 645.331 196.287C644.864 196.865 644.248 197.257 643.483 197.463ZM656.03 205.163C654.536 205.163 653.192 204.845 651.998 204.211C650.822 203.557 649.898 202.661 649.226 201.523C648.572 200.365 648.246 199.059 648.246 197.603C648.246 196.147 648.572 194.849 649.226 193.711C649.898 192.553 650.822 191.657 651.998 191.023C653.192 190.369 654.536 190.043 656.03 190.043C657.523 190.043 658.858 190.369 660.034 191.023C661.228 191.657 662.152 192.553 662.806 193.711C663.478 194.849 663.814 196.147 663.814 197.603C663.814 199.059 663.478 200.365 662.806 201.523C662.152 202.661 661.228 203.557 660.034 204.211C658.858 204.845 657.523 205.163 656.03 205.163ZM656.03 202.223C657.336 202.223 658.4 201.803 659.222 200.963C660.043 200.104 660.454 198.984 660.454 197.603C660.454 196.221 660.043 195.111 659.222 194.271C658.4 193.412 657.336 192.983 656.03 192.983C654.723 192.983 653.659 193.412 652.838 194.271C652.016 195.111 651.606 196.221 651.606 197.603C651.606 198.984 652.016 200.104 652.838 200.963C653.659 201.803 654.723 202.223 656.03 202.223ZM669.833 204.883H666.613V190.323H679.437V204.883H676.217V193.263H669.833V204.883ZM689.01 190.043C690.877 190.043 692.342 190.631 693.406 191.807C694.489 192.964 695.03 194.597 695.03 196.707V204.883H692.65L691.978 202.587C691.567 203.277 690.961 203.884 690.158 204.407C689.355 204.911 688.403 205.163 687.302 205.163C686.331 205.163 685.454 204.967 684.67 204.575C683.905 204.183 683.307 203.632 682.878 202.923C682.449 202.213 682.234 201.411 682.234 200.515C682.234 199.133 682.775 198.032 683.858 197.211C684.959 196.371 686.555 195.951 688.646 195.951H691.782C691.707 194.98 691.409 194.215 690.886 193.655C690.382 193.076 689.701 192.787 688.842 192.787C688.151 192.787 687.554 192.955 687.05 193.291C686.546 193.627 686.173 194.037 685.93 194.523L682.962 194.019C683.317 192.787 684.045 191.816 685.146 191.107C686.266 190.397 687.554 190.043 689.01 190.043ZM688.058 202.447C689.178 202.447 690.083 202.083 690.774 201.355C691.465 200.627 691.81 199.665 691.81 198.471H688.758C686.574 198.471 685.482 199.105 685.482 200.375C685.482 201.009 685.715 201.513 686.182 201.887C686.649 202.26 687.274 202.447 688.058 202.447ZM705.271 205.163C703.815 205.163 702.508 204.845 701.351 204.211C700.194 203.557 699.288 202.661 698.635 201.523C698 200.365 697.683 199.059 697.683 197.603C697.683 196.147 698 194.849 698.635 193.711C699.288 192.553 700.194 191.657 701.351 191.023C702.508 190.369 703.815 190.043 705.271 190.043C706.876 190.043 708.295 190.444 709.527 191.247C710.778 192.031 711.664 193.151 712.187 194.607L709.163 195.111C708.846 194.476 708.351 193.963 707.679 193.571C707.026 193.179 706.288 192.983 705.467 192.983C704.16 192.983 703.096 193.412 702.275 194.271C701.454 195.129 701.043 196.24 701.043 197.603C701.043 198.965 701.454 200.076 702.275 200.935C703.096 201.793 704.16 202.223 705.467 202.223C706.326 202.223 707.091 202.027 707.763 201.635C708.435 201.224 708.939 200.692 709.275 200.039L712.299 200.543C711.776 202.017 710.871 203.156 709.583 203.959C708.295 204.761 706.858 205.163 705.271 205.163ZM724.291 196.063V190.323H727.511V204.883H724.291V199.003H717.767V204.883H714.547V190.323H717.767V196.063H724.291ZM738.088 205.163C736.595 205.163 735.251 204.845 734.056 204.211C732.88 203.557 731.956 202.661 731.284 201.523C730.631 200.365 730.304 199.059 730.304 197.603C730.304 196.147 730.631 194.849 731.284 193.711C731.956 192.553 732.88 191.657 734.056 191.023C735.251 190.369 736.595 190.043 738.088 190.043C739.582 190.043 740.916 190.369 742.092 191.023C743.287 191.657 744.211 192.553 744.864 193.711C745.536 194.849 745.872 196.147 745.872 197.603C745.872 199.059 745.536 200.365 744.864 201.523C744.211 202.661 743.287 203.557 742.092 204.211C740.916 204.845 739.582 205.163 738.088 205.163ZM738.088 202.223C739.395 202.223 740.459 201.803 741.28 200.963C742.102 200.104 742.512 198.984 742.512 197.603C742.512 196.221 742.102 195.111 741.28 194.271C740.459 193.412 739.395 192.983 738.088 192.983C736.782 192.983 735.718 193.412 734.896 194.271C734.075 195.111 733.664 196.221 733.664 197.603C733.664 198.984 734.075 200.104 734.896 200.963C735.718 201.803 736.782 202.223 738.088 202.223ZM755.42 205.163C753.964 205.163 752.657 204.845 751.5 204.211C750.342 203.557 749.437 202.661 748.784 201.523C748.149 200.365 747.832 199.059 747.832 197.603C747.832 196.147 748.149 194.849 748.784 193.711C749.437 192.553 750.342 191.657 751.5 191.023C752.657 190.369 753.964 190.043 755.42 190.043C757.025 190.043 758.444 190.444 759.676 191.247C760.926 192.031 761.813 193.151 762.336 194.607L759.312 195.111C758.994 194.476 758.5 193.963 757.828 193.571C757.174 193.179 756.437 192.983 755.616 192.983C754.309 192.983 753.245 193.412 752.424 194.271C751.602 195.129 751.192 196.24 751.192 197.603C751.192 198.965 751.602 200.076 752.424 200.935C753.245 201.793 754.309 202.223 755.616 202.223C756.474 202.223 757.24 202.027 757.912 201.635C758.584 201.224 759.088 200.692 759.424 200.039L762.448 200.543C761.925 202.017 761.02 203.156 759.732 203.959C758.444 204.761 757.006 205.163 755.42 205.163ZM771.008 204.883H767.788V193.263H762.748V190.323H776.048V193.263H771.008V204.883ZM778.285 204.883V190.323H781.505V194.467H784.193C785.35 194.467 786.377 194.691 787.273 195.139C788.169 195.568 788.869 196.184 789.373 196.987C789.877 197.771 790.129 198.667 790.129 199.675C790.129 200.683 789.877 201.588 789.373 202.391C788.869 203.175 788.16 203.791 787.245 204.239C786.349 204.668 785.332 204.883 784.193 204.883H778.285ZM784.193 202.083C784.996 202.083 785.649 201.859 786.153 201.411C786.657 200.963 786.909 200.384 786.909 199.675C786.909 198.965 786.657 198.387 786.153 197.939C785.649 197.491 784.996 197.267 784.193 197.267H781.505V202.083H784.193Z" fill="white"/>
</svg>
