<svg width="872" height="283" viewBox="0 0 872 283" fill="none" xmlns="http://www.w3.org/2000/svg">
<g clip-path="url(#clip0_7046_3621)">
<rect width="872" height="283" fill="#202020"/>
<rect x="16" y="36.5" width="446" height="93.8886" rx="18.3381" fill="black"/>
<path d="M42.8769 71.0161C41.4249 71.0161 40.1195 70.6788 38.9609 70.0041C37.8169 69.3148 36.9149 68.3615 36.2549 67.1441C35.6095 65.9268 35.2869 64.5555 35.2869 63.0301C35.2869 61.5048 35.6095 60.1408 36.2549 58.9381C36.9002 57.7208 37.7875 56.7748 38.9169 56.1001C40.0609 55.4108 41.3515 55.0661 42.7889 55.0661C44.3142 55.0661 45.6855 55.4475 46.9029 56.2101C48.1349 56.9581 49.0149 57.9775 49.5429 59.2681L47.7169 59.5541C47.2475 58.6888 46.5802 58.0141 45.7149 57.5301C44.8642 57.0315 43.9182 56.7821 42.8769 56.7821C41.7769 56.7821 40.8015 57.0461 39.9509 57.5741C39.1002 58.1021 38.4329 58.8428 37.9489 59.7961C37.4795 60.7348 37.2449 61.8128 37.2449 63.0301C37.2449 64.2621 37.4795 65.3548 37.9489 66.3081C38.4329 67.2468 39.1002 67.9801 39.9509 68.5081C40.8162 69.0215 41.8062 69.2781 42.9209 69.2781C44.0209 69.2781 44.9962 69.0288 45.8469 68.5301C46.6975 68.0315 47.3575 67.3275 47.8269 66.4181L49.6529 66.7041C49.0955 68.0241 48.2082 69.0728 46.9909 69.8501C45.7735 70.6275 44.4022 71.0161 42.8769 71.0161ZM51.8427 75.3061V59.5101H53.0307L53.5587 61.4241C54.0134 60.8081 54.6001 60.3021 55.3187 59.9061C56.0521 59.4955 56.9101 59.2901 57.8927 59.2901C58.9487 59.2901 59.8947 59.5395 60.7307 60.0381C61.5814 60.5368 62.2414 61.2335 62.7107 62.1281C63.1801 63.0081 63.4147 64.0128 63.4147 65.1421C63.4147 66.2715 63.1801 67.2835 62.7107 68.1781C62.2414 69.0728 61.5814 69.7695 60.7307 70.2681C59.8947 70.7668 58.9487 71.0161 57.8927 71.0161C56.9247 71.0161 56.0814 70.8181 55.3627 70.4221C54.6587 70.0261 54.0721 69.5275 53.6027 68.9261V75.3061H51.8427ZM57.5847 69.4101C58.3621 69.4101 59.0514 69.2341 59.6527 68.8821C60.2687 68.5155 60.7381 68.0095 61.0607 67.3641C61.3981 66.7188 61.5667 65.9781 61.5667 65.1421C61.5667 64.3208 61.3981 63.5875 61.0607 62.9421C60.7381 62.2968 60.2687 61.7981 59.6527 61.4461C59.0514 61.0795 58.3621 60.8961 57.5847 60.8961C56.8074 60.8961 56.1181 61.0795 55.5167 61.4461C54.9154 61.7981 54.4461 62.2968 54.1087 62.9421C53.7714 63.5875 53.6027 64.3208 53.6027 65.1421C53.6027 65.9781 53.7714 66.7188 54.1087 67.3641C54.4461 68.0095 54.9154 68.5155 55.5167 68.8821C56.1181 69.2341 56.8074 69.4101 57.5847 69.4101ZM76.5871 65.1201C76.5871 65.3108 76.5797 65.4941 76.5651 65.6701H67.0171C67.1197 66.7995 67.5377 67.7015 68.2711 68.3761C69.0044 69.0508 69.9357 69.3881 71.0651 69.3881C71.8571 69.3881 72.5611 69.2268 73.1771 68.9041C73.7931 68.5815 74.2477 68.1561 74.5411 67.6281L76.1911 67.8921C75.7364 68.9041 75.0397 69.6815 74.1011 70.2241C73.1624 70.7521 72.1211 71.0161 70.9771 71.0161C69.8477 71.0161 68.8431 70.7668 67.9631 70.2681C67.0831 69.7695 66.3937 69.0728 65.8951 68.1781C65.4111 67.2835 65.1691 66.2715 65.1691 65.1421C65.1691 64.0128 65.4111 63.0081 65.8951 62.1281C66.3791 61.2335 67.0537 60.5368 67.9191 60.0381C68.7844 59.5395 69.7671 59.2901 70.8671 59.2901C71.9671 59.2901 72.9497 59.5395 73.8151 60.0381C74.6804 60.5368 75.3551 61.2335 75.8391 62.1281C76.3377 63.0081 76.5871 64.0055 76.5871 65.1201ZM70.8671 60.8741C69.8991 60.8741 69.0704 61.1748 68.3811 61.7761C67.7064 62.3628 67.2737 63.1548 67.0831 64.1521H74.6731C74.4971 63.1695 74.0644 62.3775 73.3751 61.7761C72.7004 61.1748 71.8644 60.8741 70.8671 60.8741ZM76.9081 74.1401V69.1681H77.1061C77.7368 69.1681 78.2135 68.8895 78.5361 68.3321C78.8735 67.7748 79.1008 66.8361 79.2181 65.5161L79.7461 59.5101H87.4021V69.1681H89.2941V74.1401H87.5341V70.7961H78.6681V74.1401H76.9081ZM85.6421 69.1681V61.1161H81.3741L80.9781 65.5601C80.8901 66.5575 80.7581 67.3421 80.5821 67.9141C80.4208 68.4715 80.1935 68.8895 79.9001 69.1681H85.6421ZM98.8786 64.2841V59.5101H100.639V70.7961H98.8786V65.8901H93.0266V70.7961H91.2666V59.5101H93.0266V64.2841H98.8786ZM112.11 59.5101V70.7961H110.35V66.7481H107.754L105.091 70.7961H103.068L105.95 66.5061C105.158 66.2568 104.527 65.8315 104.058 65.2301C103.588 64.6141 103.354 63.9101 103.354 63.1181C103.354 62.4288 103.53 61.8128 103.882 61.2701C104.248 60.7128 104.747 60.2801 105.378 59.9721C106.023 59.6641 106.749 59.5101 107.556 59.5101H112.11ZM110.35 65.1421V61.0941H107.556C106.837 61.0941 106.25 61.2848 105.796 61.6661C105.356 62.0328 105.136 62.5168 105.136 63.1181C105.136 63.7195 105.356 64.2108 105.796 64.5921C106.25 64.9588 106.837 65.1421 107.556 65.1421H110.35ZM123.582 59.5101V70.7961H121.822V66.7481H119.226L116.564 70.7961H114.54L117.422 66.5061C116.63 66.2568 115.999 65.8315 115.53 65.2301C115.061 64.6141 114.826 63.9101 114.826 63.1181C114.826 62.4288 115.002 61.8128 115.354 61.2701C115.721 60.7128 116.219 60.2801 116.85 59.9721C117.495 59.6641 118.221 59.5101 119.028 59.5101H123.582ZM121.822 65.1421V61.0941H119.028C118.309 61.0941 117.723 61.2848 117.268 61.6661C116.828 62.0328 116.608 62.5168 116.608 63.1181C116.608 63.7195 116.828 64.2108 117.268 64.5921C117.723 64.9588 118.309 65.1421 119.028 65.1421H121.822ZM142.936 74.1401H141.176V70.7961H131.958V59.5101H133.718V69.1681H139.262V59.5101H141.022V69.1681H142.936V74.1401ZM155.241 65.1201C155.241 65.3108 155.234 65.4941 155.219 65.6701H145.671C145.774 66.7995 146.192 67.7015 146.925 68.3761C147.659 69.0508 148.59 69.3881 149.719 69.3881C150.511 69.3881 151.215 69.2268 151.831 68.9041C152.447 68.5815 152.902 68.1561 153.195 67.6281L154.845 67.8921C154.391 68.9041 153.694 69.6815 152.755 70.2241C151.817 70.7521 150.775 71.0161 149.631 71.0161C148.502 71.0161 147.497 70.7668 146.617 70.2681C145.737 69.7695 145.048 69.0728 144.549 68.1781C144.065 67.2835 143.823 66.2715 143.823 65.1421C143.823 64.0128 144.065 63.0081 144.549 62.1281C145.033 61.2335 145.708 60.5368 146.573 60.0381C147.439 59.5395 148.421 59.2901 149.521 59.2901C150.621 59.2901 151.604 59.5395 152.469 60.0381C153.335 60.5368 154.009 61.2335 154.493 62.1281C154.992 63.0081 155.241 64.0055 155.241 65.1201ZM149.521 60.8741C148.553 60.8741 147.725 61.1748 147.035 61.7761C146.361 62.3628 145.928 63.1548 145.737 64.1521H153.327C153.151 63.1695 152.719 62.3775 152.029 61.7761C151.355 61.1748 150.519 60.8741 149.521 60.8741ZM165.05 64.2841V59.5101H166.81V70.7961H165.05V65.8901H159.198V70.7961H157.438V59.5101H159.198V64.2841H165.05ZM174.167 59.2901C175.517 59.2901 176.58 59.7448 177.357 60.6541C178.149 61.5488 178.545 62.8248 178.545 64.4821V70.7961H177.357L176.873 69.0141C175.979 70.3488 174.732 71.0161 173.133 71.0161C171.989 71.0161 171.051 70.6861 170.317 70.0261C169.599 69.3661 169.239 68.5155 169.239 67.4741C169.239 66.4035 169.657 65.5528 170.493 64.9221C171.344 64.2768 172.561 63.9541 174.145 63.9541H176.785C176.727 62.9275 176.463 62.1501 175.993 61.6221C175.524 61.0795 174.893 60.8081 174.101 60.8081C173.529 60.8081 173.009 60.9401 172.539 61.2041C172.085 61.4681 171.733 61.8348 171.483 62.3041L169.833 62.0401C170.156 61.1895 170.706 60.5221 171.483 60.0381C172.275 59.5395 173.17 59.2901 174.167 59.2901ZM173.463 69.4981C174.446 69.4981 175.245 69.1755 175.861 68.5301C176.477 67.8848 176.785 66.9608 176.785 65.7581V65.4721H174.167C172.07 65.4721 171.021 66.1248 171.021 67.4301C171.021 68.0608 171.241 68.5668 171.681 68.9481C172.121 69.3148 172.715 69.4981 173.463 69.4981ZM192.77 65.0101C193.327 65.2008 193.789 65.5308 194.156 66.0001C194.522 66.4548 194.706 67.0121 194.706 67.6721C194.706 68.2881 194.53 68.8528 194.178 69.3661C193.826 69.8795 193.327 70.2828 192.682 70.5761C192.051 70.8695 191.318 71.0161 190.482 71.0161C189.338 71.0161 188.34 70.7448 187.49 70.2021C186.639 69.6595 186.082 68.9188 185.818 67.9801L187.446 67.7161C187.695 68.3028 188.076 68.7428 188.59 69.0361C189.118 69.3148 189.741 69.4541 190.46 69.4541C191.252 69.4541 191.86 69.2928 192.286 68.9701C192.711 68.6328 192.924 68.1708 192.924 67.5841C192.924 67.0561 192.726 66.6381 192.33 66.3301C191.934 66.0075 191.31 65.8461 190.46 65.8461H188.898V64.2621H190.46C191.193 64.2621 191.758 64.1155 192.154 63.8221C192.55 63.5288 192.748 63.1328 192.748 62.6341C192.748 62.0915 192.528 61.6588 192.088 61.3361C191.648 61.0135 191.105 60.8521 190.46 60.8521C189.858 60.8521 189.316 60.9988 188.832 61.2921C188.362 61.5708 188.01 61.9668 187.776 62.4801L186.126 62.1941C186.463 61.2701 187.028 60.5588 187.82 60.0601C188.612 59.5468 189.514 59.2901 190.526 59.2901C191.274 59.2901 191.948 59.4295 192.55 59.7081C193.166 59.9868 193.65 60.3681 194.002 60.8521C194.354 61.3361 194.53 61.8861 194.53 62.5021C194.53 63.1035 194.368 63.6315 194.046 64.0861C193.723 64.5261 193.298 64.8341 192.77 65.0101ZM201.388 59.2901C202.737 59.2901 203.801 59.7448 204.578 60.6541C205.37 61.5488 205.766 62.8248 205.766 64.4821V70.7961H204.578L204.094 69.0141C203.199 70.3488 201.953 71.0161 200.354 71.0161C199.21 71.0161 198.271 70.6861 197.538 70.0261C196.819 69.3661 196.46 68.5155 196.46 67.4741C196.46 66.4035 196.878 65.5528 197.714 64.9221C198.565 64.2768 199.782 63.9541 201.366 63.9541H204.006C203.947 62.9275 203.683 62.1501 203.214 61.6221C202.745 61.0795 202.114 60.8081 201.322 60.8081C200.75 60.8081 200.229 60.9401 199.76 61.2041C199.305 61.4681 198.953 61.8348 198.704 62.3041L197.054 62.0401C197.377 61.1895 197.927 60.5221 198.704 60.0381C199.496 59.5395 200.391 59.2901 201.388 59.2901ZM200.684 69.4981C201.667 69.4981 202.466 69.1755 203.082 68.5301C203.698 67.8848 204.006 66.9608 204.006 65.7581V65.4721H201.388C199.291 65.4721 198.242 66.1248 198.242 67.4301C198.242 68.0608 198.462 68.5668 198.902 68.9481C199.342 69.3148 199.936 69.4981 200.684 69.4981ZM215.293 59.5101H222.883V70.7961H221.123V61.1161H216.921L216.547 67.0561C216.473 68.3175 216.151 69.2781 215.579 69.9381C215.021 70.5835 214.259 70.9061 213.291 70.9061C213.027 70.9061 212.741 70.8841 212.433 70.8401L212.279 69.1461C212.469 69.1608 212.711 69.1681 213.005 69.1681C213.65 69.1681 214.097 69.0215 214.347 68.7281C214.596 68.4348 214.75 67.8921 214.809 67.1001L215.293 59.5101ZM228.68 70.7961H225.952V59.5101H227.668V68.9261H227.976L232.948 59.5101H235.676V70.7961H233.96V61.3801H233.674L228.68 70.7961ZM237.547 74.1401V69.1681H237.745C238.375 69.1681 238.852 68.8895 239.175 68.3321C239.512 67.7748 239.739 66.8361 239.857 65.5161L240.385 59.5101H248.041V69.1681H249.933V74.1401H248.173V70.7961H239.307V74.1401H237.547ZM246.281 69.1681V61.1161H242.013L241.617 65.5601C241.529 66.5575 241.397 67.3421 241.221 67.9141C241.059 68.4715 240.832 68.8895 240.539 69.1681H246.281ZM263.911 64.8341C264.497 65.0541 264.967 65.4135 265.319 65.9121C265.671 66.3961 265.847 66.9608 265.847 67.6061C265.847 68.2221 265.678 68.7721 265.341 69.2561C265.003 69.7401 264.534 70.1215 263.933 70.4001C263.331 70.6641 262.649 70.7961 261.887 70.7961H256.761V59.5101H261.733C262.818 59.5101 263.705 59.7961 264.395 60.3681C265.099 60.9255 265.451 61.6368 265.451 62.5021C265.451 63.0301 265.311 63.4921 265.033 63.8881C264.769 64.2841 264.395 64.5995 263.911 64.8341ZM258.521 61.0501V64.1521H261.733C262.305 64.1521 262.767 64.0128 263.119 63.7341C263.485 63.4408 263.669 63.0668 263.669 62.6121C263.669 62.1575 263.485 61.7835 263.119 61.4901C262.767 61.1968 262.305 61.0501 261.733 61.0501H258.521ZM261.887 69.2341C262.532 69.2341 263.053 69.0728 263.449 68.7501C263.859 68.4128 264.065 67.9801 264.065 67.4521C264.065 66.9241 263.859 66.4988 263.449 66.1761C263.053 65.8535 262.532 65.6921 261.887 65.6921H258.521V69.2341H261.887ZM280.973 70.7961H278.113L272.459 55.2861H274.483L279.389 68.9701H279.719L284.867 55.2861H286.825L280.973 70.7961ZM292.998 62.7881L300.698 70.7961H298.168L291.458 63.7561H290.776V70.7961H288.906V55.2861H290.776V61.9961H291.414L297.772 55.2861H300.148L292.998 62.7881ZM319.68 70.7961H317.678L316.314 67.0781H308.482L307.052 70.7961H305.094L311.1 55.2861H313.894L319.68 70.7961ZM312.31 57.1121L309.142 65.3621H315.676L312.64 57.1121H312.31ZM325.99 71.0161C324.934 71.0161 323.981 70.7668 323.13 70.2681C322.294 69.7695 321.641 69.0728 321.172 68.1781C320.703 67.2835 320.468 66.2715 320.468 65.1421C320.468 64.0128 320.703 63.0081 321.172 62.1281C321.641 61.2335 322.294 60.5368 323.13 60.0381C323.981 59.5395 324.934 59.2901 325.99 59.2901C326.958 59.2901 327.794 59.4881 328.498 59.8841C329.217 60.2801 329.811 60.7788 330.28 61.3801V55.2861H332.04V70.7961H330.852L330.324 68.8601C329.855 69.4908 329.261 70.0115 328.542 70.4221C327.823 70.8181 326.973 71.0161 325.99 71.0161ZM326.298 69.4101C327.075 69.4101 327.765 69.2341 328.366 68.8821C328.967 68.5155 329.437 68.0095 329.774 67.3641C330.111 66.7188 330.28 65.9781 330.28 65.1421C330.28 64.3208 330.111 63.5875 329.774 62.9421C329.437 62.2968 328.967 61.7981 328.366 61.4461C327.765 61.0795 327.075 60.8961 326.298 60.8961C325.521 60.8961 324.824 61.0795 324.208 61.4461C323.607 61.7981 323.137 62.2968 322.8 62.9421C322.477 63.5875 322.316 64.3208 322.316 65.1421C322.316 65.9781 322.477 66.7188 322.8 67.3641C323.137 68.0095 323.607 68.5155 324.208 68.8821C324.824 69.2341 325.521 69.4101 326.298 69.4101ZM343.78 62.8761C344.63 63.1255 345.298 63.5801 345.782 64.2401C346.28 64.9001 346.53 65.6775 346.53 66.5721C346.53 67.3788 346.317 68.1048 345.892 68.7501C345.466 69.3955 344.872 69.9015 344.11 70.2681C343.362 70.6201 342.504 70.7961 341.536 70.7961H335.442V55.2861H341.162C342.13 55.2861 342.988 55.4621 343.736 55.8141C344.498 56.1661 345.085 56.6648 345.496 57.3101C345.921 57.9408 346.134 58.6668 346.134 59.4881C346.134 60.2948 345.921 60.9988 345.496 61.6001C345.07 62.2015 344.498 62.6268 343.78 62.8761ZM337.312 56.9801V62.1721H341.162C342.056 62.1721 342.782 61.9375 343.34 61.4681C343.912 60.9841 344.198 60.3535 344.198 59.5761C344.198 58.7988 343.912 58.1755 343.34 57.7061C342.782 57.2221 342.056 56.9801 341.162 56.9801H337.312ZM341.536 69.1021C342.445 69.1021 343.178 68.8601 343.736 68.3761C344.308 67.8775 344.594 67.2395 344.594 66.4621C344.594 65.6848 344.308 65.0541 343.736 64.5701C343.178 64.0715 342.445 63.8221 341.536 63.8221H337.312V69.1021H341.536ZM351.035 70.7961H349.275V55.2861H351.035V70.7961ZM359.449 71.0161C358.32 71.0161 357.308 70.7668 356.413 70.2681C355.519 69.7695 354.822 69.0728 354.323 68.1781C353.825 67.2835 353.575 66.2715 353.575 65.1421C353.575 64.0128 353.825 63.0081 354.323 62.1281C354.822 61.2335 355.519 60.5368 356.413 60.0381C357.308 59.5395 358.32 59.2901 359.449 59.2901C360.579 59.2901 361.591 59.5395 362.485 60.0381C363.395 60.5368 364.099 61.2335 364.597 62.1281C365.096 63.0081 365.345 64.0128 365.345 65.1421C365.345 66.2715 365.096 67.2835 364.597 68.1781C364.099 69.0728 363.402 69.7695 362.507 70.2681C361.613 70.7668 360.593 71.0161 359.449 71.0161ZM359.449 69.3881C360.652 69.3881 361.627 68.9995 362.375 68.2221C363.123 67.4301 363.497 66.4035 363.497 65.1421C363.497 64.3208 363.329 63.5875 362.991 62.9421C362.654 62.2968 362.177 61.7981 361.561 61.4461C360.945 61.0795 360.241 60.8961 359.449 60.8961C358.657 60.8961 357.953 61.0795 357.337 61.4461C356.736 61.7981 356.267 62.2968 355.929 62.9421C355.592 63.5875 355.423 64.3208 355.423 65.1421C355.423 65.9781 355.592 66.7188 355.929 67.3641C356.267 68.0095 356.736 68.5081 357.337 68.8601C357.953 69.2121 358.657 69.3881 359.449 69.3881ZM372.808 75.3061C371.591 75.3061 370.498 75.0128 369.53 74.4261C368.577 73.8541 367.902 73.0621 367.506 72.0501L369.244 71.7641C369.567 72.3948 370.029 72.8715 370.63 73.1941C371.246 73.5315 371.965 73.7001 372.786 73.7001C373.916 73.7001 374.825 73.3628 375.514 72.6881C376.218 72.0135 376.57 71.0455 376.57 69.7841V68.3321C376.116 68.9041 375.544 69.3735 374.854 69.7401C374.18 70.0921 373.388 70.2681 372.478 70.2681C371.452 70.2681 370.528 70.0335 369.706 69.5641C368.9 69.0948 368.262 68.4421 367.792 67.6061C367.338 66.7701 367.11 65.8241 367.11 64.7681C367.11 63.7121 367.338 62.7735 367.792 61.9521C368.262 61.1161 368.9 60.4635 369.706 59.9941C370.528 59.5248 371.452 59.2901 372.478 59.2901C373.402 59.2901 374.209 59.4808 374.898 59.8621C375.602 60.2288 376.182 60.7055 376.636 61.2921L377.164 59.3561H378.33V69.7841C378.33 70.9135 378.088 71.8961 377.604 72.7321C377.12 73.5681 376.46 74.2061 375.624 74.6461C374.788 75.0861 373.85 75.3061 372.808 75.3061ZM372.786 68.6621C373.916 68.6621 374.825 68.3028 375.514 67.5841C376.218 66.8655 376.57 65.9268 376.57 64.7681C376.57 63.6095 376.218 62.6781 375.514 61.9741C374.825 61.2555 373.916 60.8961 372.786 60.8961C371.642 60.8961 370.718 61.2555 370.014 61.9741C369.31 62.6781 368.958 63.6095 368.958 64.7681C368.958 65.9268 369.31 66.8655 370.014 67.5841C370.718 68.3028 371.642 68.6621 372.786 68.6621ZM386.451 75.3061C385.234 75.3061 384.141 75.0128 383.173 74.4261C382.22 73.8541 381.545 73.0621 381.149 72.0501L382.887 71.7641C383.21 72.3948 383.672 72.8715 384.273 73.1941C384.889 73.5315 385.608 73.7001 386.429 73.7001C387.558 73.7001 388.468 73.3628 389.157 72.6881C389.861 72.0135 390.213 71.0455 390.213 69.7841V68.3321C389.758 68.9041 389.186 69.3735 388.497 69.7401C387.822 70.0921 387.03 70.2681 386.121 70.2681C385.094 70.2681 384.17 70.0335 383.349 69.5641C382.542 69.0948 381.904 68.4421 381.435 67.6061C380.98 66.7701 380.753 65.8241 380.753 64.7681C380.753 63.7121 380.98 62.7735 381.435 61.9521C381.904 61.1161 382.542 60.4635 383.349 59.9941C384.17 59.5248 385.094 59.2901 386.121 59.2901C387.045 59.2901 387.852 59.4808 388.541 59.8621C389.245 60.2288 389.824 60.7055 390.279 61.2921L390.807 59.3561H391.973V69.7841C391.973 70.9135 391.731 71.8961 391.247 72.7321C390.763 73.5681 390.103 74.2061 389.267 74.6461C388.431 75.0861 387.492 75.3061 386.451 75.3061ZM386.429 68.6621C387.558 68.6621 388.468 68.3028 389.157 67.5841C389.861 66.8655 390.213 65.9268 390.213 64.7681C390.213 63.6095 389.861 62.6781 389.157 61.9741C388.468 61.2555 387.558 60.8961 386.429 60.8961C385.285 60.8961 384.361 61.2555 383.657 61.9741C382.953 62.6781 382.601 63.6095 382.601 64.7681C382.601 65.9268 382.953 66.8655 383.657 67.5841C384.361 68.3028 385.285 68.6621 386.429 68.6621ZM405.814 65.1201C405.814 65.3108 405.806 65.4941 405.792 65.6701H396.244C396.346 66.7995 396.764 67.7015 397.498 68.3761C398.231 69.0508 399.162 69.3881 400.292 69.3881C401.084 69.3881 401.788 69.2268 402.404 68.9041C403.02 68.5815 403.474 68.1561 403.768 67.6281L405.418 67.8921C404.963 68.9041 404.266 69.6815 403.328 70.2241C402.389 70.7521 401.348 71.0161 400.204 71.0161C399.074 71.0161 398.07 70.7668 397.19 70.2681C396.31 69.7695 395.62 69.0728 395.122 68.1781C394.638 67.2835 394.396 66.2715 394.396 65.1421C394.396 64.0128 394.638 63.0081 395.122 62.1281C395.606 61.2335 396.28 60.5368 397.146 60.0381C398.011 59.5395 398.994 59.2901 400.094 59.2901C401.194 59.2901 402.176 59.5395 403.042 60.0381C403.907 60.5368 404.582 61.2335 405.066 62.1281C405.564 63.0081 405.814 64.0055 405.814 65.1201ZM400.094 60.8741C399.126 60.8741 398.297 61.1748 397.608 61.7761C396.933 62.3628 396.5 63.1548 396.31 64.1521H403.9C403.724 63.1695 403.291 62.3775 402.602 61.7761C401.927 61.1748 401.091 60.8741 400.094 60.8741ZM408.011 70.7961V59.5101H409.199L409.639 61.1161C410.269 60.0455 411.237 59.5101 412.543 59.5101H413.115L413.291 61.2041H412.279C411.428 61.2041 410.797 61.4681 410.387 61.9961C409.976 62.5095 409.771 63.1841 409.771 64.0201V70.7961H408.011Z" fill="white"/>
<path d="M41.7849 112.092H37.5609L46.1689 93.7244V93.2124H34.6169V89.5324H50.4889V93.5324L41.7849 112.092ZM61.7006 112.412C59.9086 112.412 58.3193 111.932 56.9326 110.972C55.5673 109.991 54.5006 108.626 53.7326 106.876C52.9646 105.127 52.5806 103.1 52.5806 100.796C52.5806 98.5137 52.9646 96.4977 53.7326 94.7484C54.5006 92.9777 55.5673 91.6124 56.9326 90.6524C58.3193 89.6924 59.9086 89.2124 61.7006 89.2124C63.4926 89.2124 65.0713 89.6924 66.4366 90.6524C67.8233 91.6124 68.9006 92.9777 69.6686 94.7484C70.4366 96.4977 70.8206 98.5137 70.8206 100.796C70.8206 103.1 70.4366 105.127 69.6686 106.876C68.9006 108.626 67.8233 109.991 66.4366 110.972C65.0713 111.932 63.4926 112.412 61.7006 112.412ZM61.7006 108.892C62.7246 108.892 63.6206 108.562 64.3886 107.9C65.1566 107.239 65.754 106.3 66.1806 105.084C66.6073 103.868 66.8206 102.439 66.8206 100.796C66.8206 99.1751 66.6073 97.7564 66.1806 96.5404C65.754 95.3244 65.1566 94.3857 64.3886 93.7244C63.6206 93.0631 62.7246 92.7324 61.7006 92.7324C60.6766 92.7324 59.7806 93.0631 59.0126 93.7244C58.2446 94.3857 57.6473 95.3244 57.2206 96.5404C56.794 97.7564 56.5806 99.1751 56.5806 100.796C56.5806 102.439 56.794 103.868 57.2206 105.084C57.6473 106.3 58.2446 107.239 59.0126 107.9C59.7806 108.562 60.6766 108.892 61.7006 108.892ZM89.8976 104.668H73.7056V101.468H89.8976V104.668ZM95.9191 112.092V95.7084H91.5031V92.1884H94.6391C95.0445 92.1884 95.3538 92.0817 95.5671 91.8684C95.8018 91.6337 95.9191 91.3137 95.9191 90.9084V89.5324H99.7591V112.092H95.9191ZM104.333 112.092V107.708L112.781 100.156C113.57 99.4311 114.168 98.7377 114.573 98.0764C114.978 97.3937 115.181 96.6791 115.181 95.9324C115.181 94.9724 114.872 94.2044 114.253 93.6284C113.634 93.0311 112.824 92.7324 111.821 92.7324C110.797 92.7324 109.965 93.0631 109.325 93.7244C108.685 94.3644 108.141 95.2604 107.693 96.4124L104.077 95.8044C104.632 93.8204 105.581 92.2311 106.925 91.0364C108.29 89.8204 109.986 89.2124 112.013 89.2124C113.378 89.2124 114.605 89.5004 115.693 90.0764C116.781 90.6524 117.634 91.4524 118.253 92.4764C118.872 93.4791 119.181 94.6204 119.181 95.9004C119.181 97.1804 118.85 98.3431 118.189 99.3884C117.549 100.412 116.546 101.532 115.181 102.748L109.229 108.028V108.54L119.341 108.444V112.092H104.333ZM131.326 112.412C129.534 112.412 127.944 111.932 126.558 110.972C125.192 109.991 124.126 108.626 123.358 106.876C122.59 105.127 122.206 103.1 122.206 100.796C122.206 98.5137 122.59 96.4977 123.358 94.7484C124.126 92.9777 125.192 91.6124 126.558 90.6524C127.944 89.6924 129.534 89.2124 131.326 89.2124C133.118 89.2124 134.696 89.6924 136.062 90.6524C137.448 91.6124 138.526 92.9777 139.294 94.7484C140.062 96.4977 140.446 98.5137 140.446 100.796C140.446 103.1 140.062 105.127 139.294 106.876C138.526 108.626 137.448 109.991 136.062 110.972C134.696 111.932 133.118 112.412 131.326 112.412ZM131.326 108.892C132.35 108.892 133.246 108.562 134.014 107.9C134.782 107.239 135.379 106.3 135.806 105.084C136.232 103.868 136.446 102.439 136.446 100.796C136.446 99.1751 136.232 97.7564 135.806 96.5404C135.379 95.3244 134.782 94.3857 134.014 93.7244C133.246 93.0631 132.35 92.7324 131.326 92.7324C130.302 92.7324 129.406 93.0631 128.638 93.7244C127.87 94.3857 127.272 95.3244 126.846 96.5404C126.419 97.7564 126.206 99.1751 126.206 100.796C126.206 102.439 126.419 103.868 126.846 105.084C127.272 106.3 127.87 107.239 128.638 107.9C129.406 108.562 130.302 108.892 131.326 108.892ZM151.658 118.652V95.4524H154.41L155.178 98.1404C155.861 97.3084 156.735 96.6044 157.802 96.0284C158.869 95.4311 160.095 95.1324 161.482 95.1324C163.039 95.1324 164.437 95.5057 165.674 96.2524C166.911 96.9777 167.871 98.0017 168.554 99.3244C169.258 100.626 169.61 102.108 169.61 103.772C169.61 105.436 169.258 106.93 168.554 108.252C167.871 109.554 166.911 110.578 165.674 111.324C164.437 112.05 163.039 112.412 161.482 112.412C160.138 112.412 158.943 112.146 157.898 111.612C156.853 111.058 155.999 110.375 155.338 109.564V118.652H151.658ZM160.586 109.116C162.122 109.116 163.37 108.626 164.33 107.644C165.29 106.642 165.77 105.351 165.77 103.772C165.77 102.194 165.29 100.914 164.33 99.9324C163.37 98.9297 162.122 98.4284 160.586 98.4284C159.029 98.4284 157.759 98.9297 156.778 99.9324C155.818 100.914 155.338 102.194 155.338 103.772C155.338 105.351 155.818 106.642 156.778 107.644C157.759 108.626 159.029 109.116 160.586 109.116ZM184.029 95.4524H187.773L180.957 114.172C180.381 115.751 179.635 116.892 178.717 117.596C177.821 118.3 176.616 118.652 175.101 118.652H172.573L172.253 115.292H175.357C175.976 115.292 176.445 115.154 176.765 114.876C177.107 114.62 177.395 114.162 177.629 113.5L177.821 112.988L170.429 95.4524H174.365L179.261 107.452H179.773L184.029 95.4524ZM199.046 97.1484C200.475 97.1484 201.755 97.4684 202.886 98.1084C204.017 98.7484 204.902 99.6444 205.542 100.796C206.182 101.948 206.502 103.26 206.502 104.732C206.502 106.204 206.139 107.527 205.414 108.7C204.71 109.874 203.729 110.791 202.47 111.452C201.211 112.092 199.782 112.412 198.182 112.412C196.817 112.412 195.579 112.167 194.47 111.676C193.361 111.164 192.422 110.418 191.654 109.436C190.353 107.73 189.702 105.372 189.702 102.364C189.702 99.0577 190.427 96.4337 191.878 94.4924C193.35 92.5511 195.793 91.4311 199.206 91.1324C199.953 91.0684 200.518 90.9617 200.902 90.8124C201.307 90.6631 201.595 90.4604 201.766 90.2044C201.937 89.9271 202.065 89.5431 202.15 89.0524L205.382 89.3404C205.297 90.6417 204.977 91.6551 204.422 92.3804C203.889 93.0844 203.195 93.5857 202.342 93.8844C201.489 94.1831 200.454 94.3857 199.238 94.4924C197.809 94.6204 196.689 94.9084 195.878 95.3564C195.067 95.7831 194.491 96.3697 194.15 97.1164C193.809 97.8631 193.585 98.8337 193.478 100.028C194.118 99.0684 194.886 98.3537 195.782 97.8844C196.699 97.3937 197.787 97.1484 199.046 97.1484ZM198.214 109.116C199.558 109.116 200.646 108.722 201.478 107.932C202.331 107.122 202.758 106.066 202.758 104.764C202.758 103.484 202.331 102.45 201.478 101.66C200.646 100.85 199.558 100.444 198.214 100.444C196.849 100.444 195.739 100.85 194.886 101.66C194.054 102.45 193.638 103.484 193.638 104.764C193.638 106.066 194.054 107.122 194.886 107.932C195.739 108.722 196.849 109.116 198.214 109.116ZM210.996 95.4524H223.188V112.092H219.508V98.8124H214.42L214.036 105.82C213.93 107.868 213.386 109.458 212.404 110.588C211.444 111.698 210.132 112.252 208.468 112.252C208.042 112.252 207.551 112.22 206.996 112.156L206.644 108.636C206.9 108.658 207.359 108.668 208.02 108.668C208.831 108.668 209.407 108.466 209.748 108.06C210.111 107.634 210.324 106.908 210.388 105.884L210.996 95.4524ZM243.666 103.58C243.666 103.9 243.644 104.295 243.602 104.764H230.226C230.396 106.066 230.93 107.111 231.826 107.9C232.722 108.668 233.863 109.052 235.25 109.052C236.188 109.052 237.031 108.871 237.778 108.508C238.546 108.146 239.132 107.655 239.538 107.036L242.994 107.612C242.396 109.148 241.362 110.332 239.89 111.164C238.439 111.996 236.818 112.412 235.026 112.412C233.362 112.412 231.868 112.05 230.546 111.324C229.244 110.578 228.22 109.554 227.474 108.252C226.748 106.93 226.386 105.436 226.386 103.772C226.386 102.108 226.748 100.626 227.474 99.3244C228.22 98.0017 229.244 96.9777 230.546 96.2524C231.868 95.5057 233.362 95.1324 235.026 95.1324C236.69 95.1324 238.172 95.5057 239.474 96.2524C240.796 96.9777 241.82 97.9911 242.546 99.2924C243.292 100.572 243.666 102.002 243.666 103.58ZM235.026 98.3324C233.916 98.3324 232.946 98.6524 232.114 99.2924C231.303 99.9324 230.748 100.796 230.45 101.884H239.666C239.346 100.818 238.77 99.9644 237.938 99.3244C237.127 98.6631 236.156 98.3324 235.026 98.3324ZM251.749 112.092H246.533V95.4524H250.053V107.804H250.565L256.773 95.4524H261.989V112.092H258.469V99.7404H257.957L251.749 112.092ZM254.277 93.4364C252.826 93.4364 251.61 93.0524 250.629 92.2844C249.648 91.5164 249.072 90.3431 248.901 88.7644H251.845C252.037 90.1297 252.848 90.8124 254.277 90.8124C255.706 90.8124 256.517 90.1297 256.709 88.7644H259.653C259.482 90.3431 258.906 91.5164 257.925 92.2844C256.944 93.0524 255.728 93.4364 254.277 93.4364Z" fill="white"/>
<rect x="16" y="152.389" width="447" height="93.8886" rx="18.3381" fill="black"/>
<path d="M49.8729 190.579H48.0029V186.685H36.0569V171.175H37.9269V184.947H45.7809V171.175H47.6509V184.947H49.8729V190.579ZM62.171 181.009C62.171 181.199 62.1637 181.383 62.149 181.559H52.601C52.7037 182.688 53.1217 183.59 53.855 184.265C54.5884 184.939 55.5197 185.277 56.649 185.277C57.441 185.277 58.145 185.115 58.761 184.793C59.377 184.47 59.8317 184.045 60.125 183.517L61.775 183.781C61.3204 184.793 60.6237 185.57 59.685 186.113C58.7464 186.641 57.705 186.905 56.561 186.905C55.4317 186.905 54.427 186.655 53.547 186.157C52.667 185.658 51.9777 184.961 51.479 184.067C50.995 183.172 50.753 182.16 50.753 181.031C50.753 179.901 50.995 178.897 51.479 178.017C51.963 177.122 52.6377 176.425 53.503 175.927C54.3684 175.428 55.351 175.179 56.451 175.179C57.551 175.179 58.5337 175.428 59.399 175.927C60.2644 176.425 60.939 177.122 61.423 178.017C61.9217 178.897 62.171 179.894 62.171 181.009ZM56.451 176.763C55.483 176.763 54.6544 177.063 53.965 177.665C53.2904 178.251 52.8577 179.043 52.667 180.041H60.257C60.081 179.058 59.6484 178.266 58.959 177.665C58.2844 177.063 57.4484 176.763 56.451 176.763ZM71.9801 180.173V175.399H73.7401V186.685H71.9801V181.779H66.1281V186.685H64.3681V175.399H66.1281V180.173H71.9801ZM81.0971 175.179C82.4464 175.179 83.5097 175.633 84.2871 176.543C85.0791 177.437 85.4751 178.713 85.4751 180.371V186.685H84.2871L83.8031 184.903C82.9084 186.237 81.6617 186.905 80.0631 186.905C78.9191 186.905 77.9804 186.575 77.2471 185.915C76.5284 185.255 76.1691 184.404 76.1691 183.363C76.1691 182.292 76.5871 181.441 77.4231 180.811C78.2737 180.165 79.4911 179.843 81.0751 179.843H83.7151C83.6564 178.816 83.3924 178.039 82.9231 177.511C82.4537 176.968 81.8231 176.697 81.0311 176.697C80.4591 176.697 79.9384 176.829 79.4691 177.093C79.0144 177.357 78.6624 177.723 78.4131 178.193L76.7631 177.929C77.0857 177.078 77.6357 176.411 78.4131 175.927C79.2051 175.428 80.0997 175.179 81.0971 175.179ZM80.3931 185.387C81.3757 185.387 82.1751 185.064 82.7911 184.419C83.4071 183.773 83.7151 182.849 83.7151 181.647V181.361H81.0971C78.9997 181.361 77.9511 182.013 77.9511 183.319C77.9511 183.949 78.1711 184.455 78.6111 184.837C79.0511 185.203 79.6451 185.387 80.3931 185.387ZM95.0016 175.399H102.592V186.685H100.832V177.005H96.6296L96.2556 182.945C96.1822 184.206 95.8596 185.167 95.2876 185.827C94.7302 186.472 93.9676 186.795 92.9996 186.795C92.7356 186.795 92.4496 186.773 92.1416 186.729L91.9876 185.035C92.1782 185.049 92.4202 185.057 92.7136 185.057C93.3589 185.057 93.8062 184.91 94.0556 184.617C94.3049 184.323 94.4589 183.781 94.5176 182.989L95.0016 175.399ZM108.389 186.685H105.661V175.399H107.377V184.815H107.685L112.657 175.399H115.385V186.685H113.669V177.269H113.383L108.389 186.685ZM117.256 190.029V185.057H117.454C118.084 185.057 118.561 184.778 118.884 184.221C119.221 183.663 119.448 182.725 119.566 181.405L120.094 175.399H127.75V185.057H129.642V190.029H127.882V186.685H119.016V190.029H117.256ZM125.99 185.057V177.005H121.722L121.326 181.449C121.238 182.446 121.106 183.231 120.93 183.803C120.768 184.36 120.541 184.778 120.248 185.057H125.99ZM135.667 175.179C137.017 175.179 138.08 175.633 138.857 176.543C139.649 177.437 140.045 178.713 140.045 180.371V186.685H138.857L138.373 184.903C137.479 186.237 136.232 186.905 134.633 186.905C133.489 186.905 132.551 186.575 131.817 185.915C131.099 185.255 130.739 184.404 130.739 183.363C130.739 182.292 131.157 181.441 131.993 180.811C132.844 180.165 134.061 179.843 135.645 179.843H138.285C138.227 178.816 137.963 178.039 137.493 177.511C137.024 176.968 136.393 176.697 135.601 176.697C135.029 176.697 134.509 176.829 134.039 177.093C133.585 177.357 133.233 177.723 132.983 178.193L131.333 177.929C131.656 177.078 132.206 176.411 132.983 175.927C133.775 175.428 134.67 175.179 135.667 175.179ZM134.963 185.387C135.946 185.387 136.745 185.064 137.361 184.419C137.977 183.773 138.285 182.849 138.285 181.647V181.361H135.667C133.57 181.361 132.521 182.013 132.521 183.319C132.521 183.949 132.741 184.455 133.181 184.837C133.621 185.203 134.215 185.387 134.963 185.387ZM155.92 180.173V175.399H157.68V186.685H155.92V181.779H150.068V186.685H148.308V175.399H150.068V180.173H155.92ZM163.497 186.685H160.769V175.399H162.485V184.815H162.793L167.765 175.399H170.493V186.685H168.777V177.269H168.491L163.497 186.685ZM188.049 186.685H185.805L181.625 181.801H180.965V186.685H179.227V181.801H178.567L174.387 186.685H172.143L177.115 180.877L172.583 175.399H174.629L178.545 180.151H179.227V175.399H180.965V180.151H181.647L185.541 175.399H187.609L183.077 180.877L188.049 186.685ZM199.585 181.009C199.585 181.199 199.578 181.383 199.563 181.559H190.015C190.118 182.688 190.536 183.59 191.269 184.265C192.002 184.939 192.934 185.277 194.063 185.277C194.855 185.277 195.559 185.115 196.175 184.793C196.791 184.47 197.246 184.045 197.539 183.517L199.189 183.781C198.734 184.793 198.038 185.57 197.099 186.113C196.16 186.641 195.119 186.905 193.975 186.905C192.846 186.905 191.841 186.655 190.961 186.157C190.081 185.658 189.392 184.961 188.893 184.067C188.409 183.172 188.167 182.16 188.167 181.031C188.167 179.901 188.409 178.897 188.893 178.017C189.377 177.122 190.052 176.425 190.917 175.927C191.782 175.428 192.765 175.179 193.865 175.179C194.965 175.179 195.948 175.428 196.813 175.927C197.678 176.425 198.353 177.122 198.837 178.017C199.336 178.897 199.585 179.894 199.585 181.009ZM193.865 176.763C192.897 176.763 192.068 177.063 191.379 177.665C190.704 178.251 190.272 179.043 190.081 180.041H197.671C197.495 179.058 197.062 178.266 196.373 177.665C195.698 177.063 194.862 176.763 193.865 176.763ZM216.235 178.677L223.935 186.685H221.405L214.695 179.645H214.013V186.685H212.143V171.175H214.013V177.885H214.651L221.009 171.175H223.385L216.235 178.677ZM225.785 186.685V171.175H230.823C231.879 171.175 232.818 171.387 233.639 171.813C234.475 172.238 235.121 172.839 235.575 173.617C236.045 174.379 236.279 175.252 236.279 176.235C236.279 177.203 236.045 178.068 235.575 178.831C235.121 179.593 234.475 180.187 233.639 180.613C232.818 181.038 231.879 181.251 230.823 181.251H227.655V186.685H225.785ZM230.823 179.535C231.865 179.535 232.708 179.234 233.353 178.633C234.013 178.017 234.343 177.217 234.343 176.235C234.343 175.237 234.013 174.431 233.353 173.815C232.708 173.199 231.865 172.891 230.823 172.891H227.655V179.535H230.823ZM240.678 186.685H238.808V171.175H240.678V186.685Z" fill="white"/>
<path d="M47.5129 217.901V211.341H51.1929V227.981H47.5129V221.261H40.0569V227.981H36.3769V211.341H40.0569V217.901H47.5129ZM62.1296 211.021C64.263 211.021 65.9376 211.693 67.1536 213.037C68.391 214.36 69.0096 216.226 69.0096 218.637V227.981H66.2896L65.5216 225.357C65.0523 226.146 64.359 226.84 63.4416 227.437C62.5243 228.013 61.4363 228.301 60.1776 228.301C59.0683 228.301 58.0656 228.077 57.1696 227.629C56.295 227.181 55.6123 226.552 55.1216 225.741C54.631 224.93 54.3856 224.013 54.3856 222.989C54.3856 221.41 55.0043 220.152 56.2416 219.213C57.5003 218.253 59.3243 217.773 61.7136 217.773H65.2976C65.2123 216.664 64.871 215.789 64.2736 215.149C63.6976 214.488 62.919 214.157 61.9376 214.157C61.1483 214.157 60.4656 214.349 59.8896 214.733C59.3136 215.117 58.887 215.586 58.6096 216.141L55.2176 215.565C55.623 214.157 56.455 213.048 57.7136 212.237C58.9936 211.426 60.4656 211.021 62.1296 211.021ZM61.0416 225.197C62.3216 225.197 63.3563 224.781 64.1456 223.949C64.935 223.117 65.3296 222.018 65.3296 220.653H61.8416C59.3456 220.653 58.0976 221.378 58.0976 222.829C58.0976 223.554 58.3643 224.13 58.8976 224.557C59.431 224.984 60.1456 225.197 61.0416 225.197ZM80.1454 227.981V223.597L88.5934 216.045C89.3827 215.32 89.98 214.626 90.3854 213.965C90.7907 213.282 90.9934 212.568 90.9934 211.821C90.9934 210.861 90.684 210.093 90.0654 209.517C89.4467 208.92 88.636 208.621 87.6334 208.621C86.6094 208.621 85.7774 208.952 85.1374 209.613C84.4974 210.253 83.9534 211.149 83.5054 212.301L79.8894 211.693C80.444 209.709 81.3934 208.12 82.7374 206.925C84.1027 205.709 85.7987 205.101 87.8254 205.101C89.1907 205.101 90.4174 205.389 91.5054 205.965C92.5934 206.541 93.4467 207.341 94.0654 208.365C94.684 209.368 94.9934 210.509 94.9934 211.789C94.9934 213.069 94.6627 214.232 94.0014 215.277C93.3614 216.301 92.3587 217.421 90.9934 218.637L85.0414 223.917V224.429L95.1534 224.333V227.981H80.1454ZM107.138 228.301C105.346 228.301 103.757 227.821 102.37 226.861C101.005 225.88 99.9381 224.514 99.1701 222.765C98.4021 221.016 98.0181 218.989 98.0181 216.685C98.0181 214.402 98.4021 212.386 99.1701 210.637C99.9381 208.866 101.005 207.501 102.37 206.541C103.757 205.581 105.346 205.101 107.138 205.101C108.93 205.101 110.509 205.581 111.874 206.541C113.261 207.501 114.338 208.866 115.106 210.637C115.874 212.386 116.258 214.402 116.258 216.685C116.258 218.989 115.874 221.016 115.106 222.765C114.338 224.514 113.261 225.88 111.874 226.861C110.509 227.821 108.93 228.301 107.138 228.301ZM107.138 224.781C108.162 224.781 109.058 224.45 109.826 223.789C110.594 223.128 111.191 222.189 111.618 220.973C112.045 219.757 112.258 218.328 112.258 216.685C112.258 215.064 112.045 213.645 111.618 212.429C111.191 211.213 110.594 210.274 109.826 209.613C109.058 208.952 108.162 208.621 107.138 208.621C106.114 208.621 105.218 208.952 104.45 209.613C103.682 210.274 103.085 211.213 102.658 212.429C102.231 213.645 102.018 215.064 102.018 216.685C102.018 218.328 102.231 219.757 102.658 220.973C103.085 222.189 103.682 223.128 104.45 223.789C105.218 224.45 106.114 224.781 107.138 224.781ZM135.335 220.557H119.143V217.357H135.335V220.557ZM147.454 212.749C148.862 212.749 150.12 213.08 151.23 213.741C152.36 214.402 153.235 215.32 153.854 216.493C154.494 217.666 154.814 219 154.814 220.493C154.814 222.008 154.472 223.362 153.79 224.557C153.107 225.73 152.147 226.648 150.91 227.309C149.694 227.97 148.296 228.301 146.718 228.301C144.67 228.301 142.899 227.736 141.406 226.605C139.934 225.474 138.974 223.992 138.526 222.157L142.206 221.549C142.654 222.616 143.251 223.426 143.998 223.981C144.744 224.514 145.619 224.781 146.622 224.781C147.88 224.781 148.904 224.386 149.694 223.597C150.483 222.786 150.878 221.752 150.878 220.493C150.878 219.234 150.494 218.221 149.726 217.453C148.979 216.664 147.998 216.269 146.782 216.269C145.95 216.269 145.192 216.45 144.51 216.813C143.827 217.176 143.272 217.645 142.846 218.221H139.166L140.478 205.421H153.758V208.941H143.71L143.198 214.029C144.392 213.176 145.811 212.749 147.454 212.749ZM166.826 228.301C165.034 228.301 163.444 227.821 162.058 226.861C160.692 225.88 159.626 224.514 158.858 222.765C158.09 221.016 157.706 218.989 157.706 216.685C157.706 214.402 158.09 212.386 158.858 210.637C159.626 208.866 160.692 207.501 162.058 206.541C163.444 205.581 165.034 205.101 166.826 205.101C168.618 205.101 170.196 205.581 171.562 206.541C172.948 207.501 174.026 208.866 174.794 210.637C175.562 212.386 175.946 214.402 175.946 216.685C175.946 218.989 175.562 221.016 174.794 222.765C174.026 224.514 172.948 225.88 171.562 226.861C170.196 227.821 168.618 228.301 166.826 228.301ZM166.826 224.781C167.85 224.781 168.746 224.45 169.514 223.789C170.282 223.128 170.879 222.189 171.306 220.973C171.732 219.757 171.946 218.328 171.946 216.685C171.946 215.064 171.732 213.645 171.306 212.429C170.879 211.213 170.282 210.274 169.514 209.613C168.746 208.952 167.85 208.621 166.826 208.621C165.802 208.621 164.906 208.952 164.138 209.613C163.37 210.274 162.772 211.213 162.346 212.429C161.919 213.645 161.706 215.064 161.706 216.685C161.706 218.328 161.919 219.757 162.346 220.973C162.772 222.189 163.37 223.128 164.138 223.789C164.906 224.45 165.802 224.781 166.826 224.781ZM184.239 215.949C183.172 215.949 182.212 215.725 181.359 215.277C180.505 214.808 179.844 214.157 179.375 213.325C178.905 212.493 178.671 211.554 178.671 210.509C178.671 209.464 178.905 208.536 179.375 207.725C179.844 206.893 180.505 206.253 181.359 205.805C182.212 205.336 183.172 205.101 184.239 205.101C185.284 205.101 186.223 205.336 187.055 205.805C187.908 206.253 188.569 206.893 189.039 207.725C189.529 208.536 189.775 209.464 189.775 210.509C189.775 211.554 189.54 212.493 189.071 213.325C188.601 214.157 187.94 214.808 187.087 215.277C186.255 215.725 185.305 215.949 184.239 215.949ZM185.647 227.981H182.255L196.175 205.421H199.567L185.647 227.981ZM184.239 213.229C185.028 213.229 185.668 212.984 186.159 212.493C186.649 211.981 186.895 211.32 186.895 210.509C186.895 209.72 186.649 209.08 186.159 208.589C185.668 208.077 185.028 207.821 184.239 207.821C183.449 207.821 182.799 208.066 182.287 208.557C181.796 209.048 181.551 209.698 181.551 210.509C181.551 211.32 181.796 211.981 182.287 212.493C182.799 212.984 183.449 213.229 184.239 213.229ZM197.583 228.301C196.516 228.301 195.556 228.077 194.703 227.629C193.849 227.16 193.188 226.509 192.719 225.677C192.249 224.845 192.015 223.906 192.015 222.861C192.015 221.816 192.249 220.888 192.719 220.077C193.188 219.245 193.849 218.605 194.703 218.157C195.556 217.688 196.516 217.453 197.583 217.453C198.628 217.453 199.567 217.688 200.399 218.157C201.252 218.605 201.913 219.245 202.383 220.077C202.873 220.888 203.119 221.816 203.119 222.861C203.119 223.906 202.884 224.845 202.415 225.677C201.945 226.509 201.284 227.16 200.431 227.629C199.599 228.077 198.649 228.301 197.583 228.301ZM197.583 225.581C198.372 225.581 199.012 225.336 199.503 224.845C199.993 224.333 200.239 223.672 200.239 222.861C200.239 222.072 199.993 221.432 199.503 220.941C199.012 220.429 198.372 220.173 197.583 220.173C196.793 220.173 196.143 220.418 195.631 220.909C195.14 221.4 194.895 222.05 194.895 222.861C194.895 223.672 195.14 224.333 195.631 224.845C196.143 225.336 196.793 225.581 197.583 225.581Z" fill="white"/>
<rect x="485" y="36.5" width="371.592" height="210" rx="18.3381" fill="black"/>
<path d="M512.185 120.866C512.962 121.115 513.615 121.555 514.143 122.186C514.671 122.817 514.935 123.601 514.935 124.54C514.935 125.376 514.715 126.139 514.275 126.828C513.835 127.517 513.204 128.067 512.383 128.478C511.562 128.874 510.594 129.072 509.479 129.072C508.012 129.072 506.78 128.713 505.783 127.994C504.786 127.275 504.104 126.315 503.737 125.112L505.519 124.804C505.93 125.655 506.45 126.293 507.081 126.718C507.712 127.129 508.504 127.334 509.457 127.334C510.557 127.334 511.422 127.077 512.053 126.564C512.684 126.051 512.999 125.361 512.999 124.496C512.999 123.689 512.698 123.037 512.097 122.538C511.496 122.039 510.608 121.79 509.435 121.79H507.433V120.096H509.457C510.41 120.096 511.188 119.854 511.789 119.37C512.39 118.886 512.691 118.255 512.691 117.478C512.691 116.701 512.383 116.07 511.767 115.586C511.151 115.087 510.374 114.838 509.435 114.838C508.614 114.838 507.895 115.043 507.279 115.454C506.663 115.865 506.208 116.415 505.915 117.104L504.155 116.796C504.58 115.608 505.255 114.699 506.179 114.068C507.118 113.437 508.225 113.122 509.501 113.122C510.484 113.122 511.364 113.305 512.141 113.672C512.918 114.039 513.527 114.552 513.967 115.212C514.407 115.857 514.627 116.591 514.627 117.412C514.627 118.263 514.392 118.989 513.923 119.59C513.468 120.191 512.889 120.617 512.185 120.866ZM521.63 117.346C522.98 117.346 524.043 117.801 524.82 118.71C525.612 119.605 526.008 120.881 526.008 122.538V128.852H524.82L524.336 127.07C523.442 128.405 522.195 129.072 520.596 129.072C519.452 129.072 518.514 128.742 517.78 128.082C517.062 127.422 516.702 126.571 516.702 125.53C516.702 124.459 517.12 123.609 517.956 122.978C518.807 122.333 520.024 122.01 521.608 122.01H524.248C524.19 120.983 523.926 120.206 523.456 119.678C522.987 119.135 522.356 118.864 521.564 118.864C520.992 118.864 520.472 118.996 520.002 119.26C519.548 119.524 519.196 119.891 518.946 120.36L517.296 120.096C517.619 119.245 518.169 118.578 518.946 118.094C519.738 117.595 520.633 117.346 521.63 117.346ZM520.926 127.554C521.909 127.554 522.708 127.231 523.324 126.586C523.94 125.941 524.248 125.017 524.248 123.814V123.528H521.63C519.533 123.528 518.484 124.181 518.484 125.486C518.484 126.117 518.704 126.623 519.144 127.004C519.584 127.371 520.178 127.554 520.926 127.554ZM536.03 128.852H534.27V117.566H543.532V128.852H541.772V119.172H536.03V128.852ZM557.361 123.176C557.361 123.367 557.353 123.55 557.339 123.726H547.791C547.893 124.855 548.311 125.757 549.045 126.432C549.778 127.107 550.709 127.444 551.839 127.444C552.631 127.444 553.335 127.283 553.951 126.96C554.567 126.637 555.021 126.212 555.315 125.684L556.965 125.948C556.51 126.96 555.813 127.737 554.875 128.28C553.936 128.808 552.895 129.072 551.751 129.072C550.621 129.072 549.617 128.823 548.737 128.324C547.857 127.825 547.167 127.129 546.669 126.234C546.185 125.339 545.943 124.327 545.943 123.198C545.943 122.069 546.185 121.064 546.669 120.184C547.153 119.289 547.827 118.593 548.693 118.094C549.558 117.595 550.541 117.346 551.641 117.346C552.741 117.346 553.723 117.595 554.589 118.094C555.454 118.593 556.129 119.289 556.613 120.184C557.111 121.064 557.361 122.061 557.361 123.176ZM551.641 118.93C550.673 118.93 549.844 119.231 549.155 119.832C548.48 120.419 548.047 121.211 547.857 122.208H555.447C555.271 121.225 554.838 120.433 554.149 119.832C553.474 119.231 552.638 118.93 551.641 118.93ZM559.558 133.362V117.566H560.746L561.274 119.48C561.728 118.864 562.315 118.358 563.034 117.962C563.767 117.551 564.625 117.346 565.608 117.346C566.664 117.346 567.61 117.595 568.446 118.094C569.296 118.593 569.956 119.289 570.426 120.184C570.895 121.064 571.13 122.069 571.13 123.198C571.13 124.327 570.895 125.339 570.426 126.234C569.956 127.129 569.296 127.825 568.446 128.324C567.61 128.823 566.664 129.072 565.608 129.072C564.64 129.072 563.796 128.874 563.078 128.478C562.374 128.082 561.787 127.583 561.318 126.982V133.362H559.558ZM565.3 127.466C566.077 127.466 566.766 127.29 567.368 126.938C567.984 126.571 568.453 126.065 568.776 125.42C569.113 124.775 569.282 124.034 569.282 123.198C569.282 122.377 569.113 121.643 568.776 120.998C568.453 120.353 567.984 119.854 567.368 119.502C566.766 119.135 566.077 118.952 565.3 118.952C564.522 118.952 563.833 119.135 563.232 119.502C562.63 119.854 562.161 120.353 561.824 120.998C561.486 121.643 561.318 122.377 561.318 123.198C561.318 124.034 561.486 124.775 561.824 125.42C562.161 126.065 562.63 126.571 563.232 126.938C563.833 127.29 564.522 127.466 565.3 127.466ZM580.694 122.89C581.281 123.11 581.75 123.469 582.102 123.968C582.454 124.452 582.63 125.017 582.63 125.662C582.63 126.278 582.461 126.828 582.124 127.312C581.787 127.796 581.317 128.177 580.716 128.456C580.115 128.72 579.433 128.852 578.67 128.852H573.544V117.566H578.516C579.601 117.566 580.489 117.852 581.178 118.424C581.882 118.981 582.234 119.693 582.234 120.558C582.234 121.086 582.095 121.548 581.816 121.944C581.552 122.34 581.178 122.655 580.694 122.89ZM575.304 119.106V122.208H578.516C579.088 122.208 579.55 122.069 579.902 121.79C580.269 121.497 580.452 121.123 580.452 120.668C580.452 120.213 580.269 119.839 579.902 119.546C579.55 119.253 579.088 119.106 578.516 119.106H575.304ZM578.67 127.29C579.315 127.29 579.836 127.129 580.232 126.806C580.643 126.469 580.848 126.036 580.848 125.508C580.848 124.98 580.643 124.555 580.232 124.232C579.836 123.909 579.315 123.748 578.67 123.748H575.304V127.29H578.67ZM590.166 129.072C589.037 129.072 588.025 128.823 587.13 128.324C586.235 127.825 585.539 127.129 585.04 126.234C584.541 125.339 584.292 124.327 584.292 123.198C584.292 122.069 584.541 121.064 585.04 120.184C585.539 119.289 586.235 118.593 587.13 118.094C588.025 117.595 589.037 117.346 590.166 117.346C591.295 117.346 592.307 117.595 593.202 118.094C594.111 118.593 594.815 119.289 595.314 120.184C595.813 121.064 596.062 122.069 596.062 123.198C596.062 124.327 595.813 125.339 595.314 126.234C594.815 127.129 594.119 127.825 593.224 128.324C592.329 128.823 591.31 129.072 590.166 129.072ZM590.166 127.444C591.369 127.444 592.344 127.055 593.092 126.278C593.84 125.486 594.214 124.459 594.214 123.198C594.214 122.377 594.045 121.643 593.708 120.998C593.371 120.353 592.894 119.854 592.278 119.502C591.662 119.135 590.958 118.952 590.166 118.952C589.374 118.952 588.67 119.135 588.054 119.502C587.453 119.854 586.983 120.353 586.646 120.998C586.309 121.643 586.14 122.377 586.14 123.198C586.14 124.034 586.309 124.775 586.646 125.42C586.983 126.065 587.453 126.564 588.054 126.916C588.67 127.268 589.374 127.444 590.166 127.444ZM609.245 123.176C609.245 123.367 609.238 123.55 609.223 123.726H599.675C599.778 124.855 600.196 125.757 600.929 126.432C601.663 127.107 602.594 127.444 603.723 127.444C604.515 127.444 605.219 127.283 605.835 126.96C606.451 126.637 606.906 126.212 607.199 125.684L608.849 125.948C608.395 126.96 607.698 127.737 606.759 128.28C605.821 128.808 604.779 129.072 603.635 129.072C602.506 129.072 601.501 128.823 600.621 128.324C599.741 127.825 599.052 127.129 598.553 126.234C598.069 125.339 597.827 124.327 597.827 123.198C597.827 122.069 598.069 121.064 598.553 120.184C599.037 119.289 599.712 118.593 600.577 118.094C601.443 117.595 602.425 117.346 603.525 117.346C604.625 117.346 605.608 117.595 606.473 118.094C607.339 118.593 608.013 119.289 608.497 120.184C608.996 121.064 609.245 122.061 609.245 123.176ZM603.525 118.93C602.557 118.93 601.729 119.231 601.039 119.832C600.365 120.419 599.932 121.211 599.741 122.208H607.331C607.155 121.225 606.723 120.433 606.033 119.832C605.359 119.231 604.523 118.93 603.525 118.93ZM618.058 128.852H616.298V117.566H625.56V128.852H623.8V119.172H618.058V128.852ZM633.844 129.072C632.715 129.072 631.703 128.823 630.808 128.324C629.913 127.825 629.217 127.129 628.718 126.234C628.219 125.339 627.97 124.327 627.97 123.198C627.97 122.069 628.219 121.064 628.718 120.184C629.217 119.289 629.913 118.593 630.808 118.094C631.703 117.595 632.715 117.346 633.844 117.346C634.973 117.346 635.985 117.595 636.88 118.094C637.789 118.593 638.493 119.289 638.992 120.184C639.491 121.064 639.74 122.069 639.74 123.198C639.74 124.327 639.491 125.339 638.992 126.234C638.493 127.129 637.797 127.825 636.902 128.324C636.007 128.823 634.988 129.072 633.844 129.072ZM633.844 127.444C635.047 127.444 636.022 127.055 636.77 126.278C637.518 125.486 637.892 124.459 637.892 123.198C637.892 122.377 637.723 121.643 637.386 120.998C637.049 120.353 636.572 119.854 635.956 119.502C635.34 119.135 634.636 118.952 633.844 118.952C633.052 118.952 632.348 119.135 631.732 119.502C631.131 119.854 630.661 120.353 630.324 120.998C629.987 121.643 629.818 122.377 629.818 123.198C629.818 124.034 629.987 124.775 630.324 125.42C630.661 126.065 631.131 126.564 631.732 126.916C632.348 127.268 633.052 127.444 633.844 127.444ZM643.193 117.566H650.783V128.852H649.023V119.172H644.821L644.447 125.112C644.374 126.373 644.051 127.334 643.479 127.994C642.922 128.639 642.159 128.962 641.191 128.962C640.927 128.962 640.641 128.94 640.333 128.896L640.179 127.202C640.37 127.217 640.612 127.224 640.905 127.224C641.55 127.224 641.998 127.077 642.247 126.784C642.496 126.491 642.65 125.948 642.709 125.156L643.193 117.566ZM661.883 117.566H663.731L658.935 130.876C658.612 131.756 658.187 132.387 657.659 132.768C657.145 133.164 656.456 133.362 655.591 133.362H653.963L653.809 131.756H655.679C656.119 131.756 656.456 131.661 656.691 131.47C656.94 131.294 657.145 130.979 657.307 130.524L657.659 129.512L652.643 117.566H654.535L658.363 126.872H658.649L661.883 117.566ZM667.579 128.852H665.819V117.566H672.969V119.172H667.579V128.852ZM679.627 129.072C678.498 129.072 677.486 128.823 676.591 128.324C675.696 127.825 675 127.129 674.501 126.234C674.002 125.339 673.753 124.327 673.753 123.198C673.753 122.069 674.002 121.064 674.501 120.184C675 119.289 675.696 118.593 676.591 118.094C677.486 117.595 678.498 117.346 679.627 117.346C680.756 117.346 681.768 117.595 682.663 118.094C683.572 118.593 684.276 119.289 684.775 120.184C685.274 121.064 685.523 122.069 685.523 123.198C685.523 124.327 685.274 125.339 684.775 126.234C684.276 127.129 683.58 127.825 682.685 128.324C681.79 128.823 680.771 129.072 679.627 129.072ZM679.627 127.444C680.83 127.444 681.805 127.055 682.553 126.278C683.301 125.486 683.675 124.459 683.675 123.198C683.675 122.377 683.506 121.643 683.169 120.998C682.832 120.353 682.355 119.854 681.739 119.502C681.123 119.135 680.419 118.952 679.627 118.952C678.835 118.952 678.131 119.135 677.515 119.502C676.914 119.854 676.444 120.353 676.107 120.998C675.77 121.643 675.601 122.377 675.601 123.198C675.601 124.034 675.77 124.775 676.107 125.42C676.444 126.065 676.914 126.564 677.515 126.916C678.131 127.268 678.835 127.444 679.627 127.444ZM686.072 132.196V127.224H686.27C686.901 127.224 687.378 126.945 687.7 126.388C688.038 125.831 688.265 124.892 688.382 123.572L688.91 117.566H696.566V127.224H698.458V132.196H696.698V128.852H687.832V132.196H686.072ZM694.806 127.224V119.172H690.538L690.142 123.616C690.054 124.613 689.922 125.398 689.746 125.97C689.585 126.527 689.358 126.945 689.064 127.224H694.806ZM703.159 128.852H700.431V117.566H702.147V126.982H702.455L707.427 117.566H710.155V128.852H708.439V119.436H708.153L703.159 128.852ZM723.993 123.176C723.993 123.367 723.986 123.55 723.971 123.726H714.423C714.526 124.855 714.944 125.757 715.677 126.432C716.411 127.107 717.342 127.444 718.471 127.444C719.263 127.444 719.967 127.283 720.583 126.96C721.199 126.637 721.654 126.212 721.947 125.684L723.597 125.948C723.143 126.96 722.446 127.737 721.507 128.28C720.569 128.808 719.527 129.072 718.383 129.072C717.254 129.072 716.249 128.823 715.369 128.324C714.489 127.825 713.8 127.129 713.301 126.234C712.817 125.339 712.575 124.327 712.575 123.198C712.575 122.069 712.817 121.064 713.301 120.184C713.785 119.289 714.46 118.593 715.325 118.094C716.191 117.595 717.173 117.346 718.273 117.346C719.373 117.346 720.356 117.595 721.221 118.094C722.087 118.593 722.761 119.289 723.245 120.184C723.744 121.064 723.993 122.061 723.993 123.176ZM718.273 118.93C717.305 118.93 716.477 119.231 715.787 119.832C715.113 120.419 714.68 121.211 714.489 122.208H722.079C721.903 121.225 721.471 120.433 720.781 119.832C720.107 119.231 719.271 118.93 718.273 118.93ZM730.628 128.852V126.564L736.436 121.108C737.096 120.477 737.58 119.905 737.888 119.392C738.196 118.864 738.35 118.285 738.35 117.654C738.35 116.818 738.093 116.143 737.58 115.63C737.067 115.102 736.392 114.838 735.556 114.838C734.735 114.838 734.045 115.102 733.488 115.63C732.945 116.143 732.527 116.818 732.234 117.654L730.496 117.368C730.863 116.092 731.486 115.065 732.366 114.288C733.246 113.511 734.331 113.122 735.622 113.122C736.531 113.122 737.338 113.32 738.042 113.716C738.761 114.097 739.318 114.633 739.714 115.322C740.11 115.997 740.308 116.767 740.308 117.632C740.308 118.541 740.088 119.348 739.648 120.052C739.208 120.756 738.511 121.548 737.558 122.428L732.916 126.806V127.092L740.418 127.026V128.852H730.628ZM748.49 129.072C747.346 129.072 746.326 128.742 745.432 128.082C744.537 127.407 743.84 126.469 743.342 125.266C742.858 124.049 742.616 122.655 742.616 121.086C742.616 119.517 742.858 118.131 743.342 116.928C743.84 115.725 744.537 114.794 745.432 114.134C746.326 113.459 747.346 113.122 748.49 113.122C749.648 113.122 750.668 113.459 751.548 114.134C752.442 114.794 753.139 115.725 753.638 116.928C754.136 118.131 754.386 119.517 754.386 121.086C754.386 122.655 754.136 124.049 753.638 125.266C753.139 126.469 752.442 127.407 751.548 128.082C750.668 128.742 749.648 129.072 748.49 129.072ZM748.49 127.334C749.282 127.334 749.971 127.077 750.558 126.564C751.159 126.051 751.621 125.325 751.944 124.386C752.266 123.433 752.428 122.333 752.428 121.086C752.428 119.839 752.266 118.747 751.944 117.808C751.621 116.855 751.159 116.121 750.558 115.608C749.971 115.095 749.282 114.838 748.49 114.838C747.712 114.838 747.023 115.095 746.422 115.608C745.835 116.121 745.38 116.855 745.058 117.808C744.735 118.747 744.574 119.839 744.574 121.086C744.574 122.333 744.735 123.433 745.058 124.386C745.38 125.325 745.835 126.051 746.422 126.564C747.023 127.077 747.712 127.334 748.49 127.334ZM756.173 128.852V126.564L761.981 121.108C762.641 120.477 763.125 119.905 763.433 119.392C763.741 118.864 763.895 118.285 763.895 117.654C763.895 116.818 763.638 116.143 763.125 115.63C762.611 115.102 761.937 114.838 761.101 114.838C760.279 114.838 759.59 115.102 759.033 115.63C758.49 116.143 758.072 116.818 757.779 117.654L756.041 117.368C756.407 116.092 757.031 115.065 757.911 114.288C758.791 113.511 759.876 113.122 761.167 113.122C762.076 113.122 762.883 113.32 763.587 113.716C764.305 114.097 764.863 114.633 765.259 115.322C765.655 115.997 765.853 116.767 765.853 117.632C765.853 118.541 765.633 119.348 765.193 120.052C764.753 120.756 764.056 121.548 763.103 122.428L758.461 126.806V127.092L765.963 127.026V128.852H756.173ZM773.627 118.534C774.595 118.534 775.453 118.761 776.201 119.216C776.949 119.656 777.536 120.279 777.961 121.086C778.386 121.878 778.599 122.78 778.599 123.792C778.599 124.819 778.372 125.735 777.917 126.542C777.477 127.334 776.854 127.957 776.047 128.412C775.24 128.852 774.324 129.072 773.297 129.072C771.948 129.072 770.811 128.713 769.887 127.994C768.963 127.275 768.318 126.315 767.951 125.112L769.733 124.804C770.085 125.64 770.554 126.271 771.141 126.696C771.742 127.121 772.454 127.334 773.275 127.334C774.272 127.334 775.086 127.011 775.717 126.366C776.348 125.706 776.663 124.848 776.663 123.792C776.663 122.751 776.355 121.9 775.739 121.24C775.138 120.58 774.353 120.25 773.385 120.25C772.652 120.25 772.014 120.426 771.471 120.778C770.928 121.13 770.51 121.585 770.217 122.142H768.391L769.293 113.342H777.939V115.058H770.877L770.437 119.656C770.833 119.304 771.302 119.033 771.845 118.842C772.402 118.637 772.996 118.534 773.627 118.534ZM788.279 128.852H786.519V117.566H793.669V119.172H788.279V128.852ZM800.326 129.072C799.197 129.072 798.185 128.823 797.29 128.324C796.396 127.825 795.699 127.129 795.2 126.234C794.702 125.339 794.452 124.327 794.452 123.198C794.452 122.069 794.702 121.064 795.2 120.184C795.699 119.289 796.396 118.593 797.29 118.094C798.185 117.595 799.197 117.346 800.326 117.346C801.456 117.346 802.468 117.595 803.362 118.094C804.272 118.593 804.976 119.289 805.474 120.184C805.973 121.064 806.222 122.069 806.222 123.198C806.222 124.327 805.973 125.339 805.474 126.234C804.976 127.129 804.279 127.825 803.384 128.324C802.49 128.823 801.47 129.072 800.326 129.072ZM800.326 127.444C801.529 127.444 802.504 127.055 803.252 126.278C804 125.486 804.374 124.459 804.374 123.198C804.374 122.377 804.206 121.643 803.868 120.998C803.531 120.353 803.054 119.854 802.438 119.502C801.822 119.135 801.118 118.952 800.326 118.952C799.534 118.952 798.83 119.135 798.214 119.502C797.613 119.854 797.144 120.353 796.806 120.998C796.469 121.643 796.3 122.377 796.3 123.198C796.3 124.034 796.469 124.775 796.806 125.42C797.144 126.065 797.613 126.564 798.214 126.916C798.83 127.268 799.534 127.444 800.326 127.444ZM806.771 132.196V127.224H806.969C807.6 127.224 808.077 126.945 808.399 126.388C808.737 125.831 808.964 124.892 809.081 123.572L809.609 117.566H817.265V127.224H819.157V132.196H817.397V128.852H808.531V132.196H806.771ZM815.505 127.224V119.172H811.237L810.841 123.616C810.753 124.613 810.621 125.398 810.445 125.97C810.284 126.527 810.057 126.945 809.763 127.224H815.505ZM825.183 117.346C826.532 117.346 827.596 117.801 828.373 118.71C829.165 119.605 829.561 120.881 829.561 122.538V128.852H828.373L827.889 127.07C826.994 128.405 825.748 129.072 824.149 129.072C823.005 129.072 822.066 128.742 821.333 128.082C820.614 127.422 820.255 126.571 820.255 125.53C820.255 124.459 820.673 123.609 821.509 122.978C822.36 122.333 823.577 122.01 825.161 122.01H827.801C827.742 120.983 827.478 120.206 827.009 119.678C826.54 119.135 825.909 118.864 825.117 118.864C824.545 118.864 824.024 118.996 823.555 119.26C823.1 119.524 822.748 119.891 822.499 120.36L820.849 120.096C821.172 119.245 821.722 118.578 822.499 118.094C823.291 117.595 824.186 117.346 825.183 117.346ZM824.479 127.554C825.462 127.554 826.261 127.231 826.877 126.586C827.493 125.941 827.801 125.017 827.801 123.814V123.528H825.183C823.086 123.528 822.037 124.181 822.037 125.486C822.037 126.117 822.257 126.623 822.697 127.004C823.137 127.371 823.731 127.554 824.479 127.554Z" fill="white"/>
<path d="M509.057 170.148H505.377V153.508H520.033V170.148H516.353V156.868H509.057V170.148ZM540.509 161.636C540.509 161.956 540.488 162.351 540.445 162.82H527.069C527.24 164.121 527.773 165.167 528.669 165.956C529.565 166.724 530.707 167.108 532.093 167.108C533.032 167.108 533.875 166.927 534.621 166.564C535.389 166.201 535.976 165.711 536.381 165.092L539.837 165.668C539.24 167.204 538.205 168.388 536.733 169.22C535.283 170.052 533.661 170.468 531.869 170.468C530.205 170.468 528.712 170.105 527.389 169.38C526.088 168.633 525.064 167.609 524.317 166.308C523.592 164.985 523.229 163.492 523.229 161.828C523.229 160.164 523.592 158.681 524.317 157.38C525.064 156.057 526.088 155.033 527.389 154.308C528.712 153.561 530.205 153.188 531.869 153.188C533.533 153.188 535.016 153.561 536.317 154.308C537.64 155.033 538.664 156.047 539.389 157.348C540.136 158.628 540.509 160.057 540.509 161.636ZM531.869 156.388C530.76 156.388 529.789 156.708 528.957 157.348C528.147 157.988 527.592 158.852 527.293 159.94H536.509C536.189 158.873 535.613 158.02 534.781 157.38C533.971 156.719 533 156.388 531.869 156.388ZM543.377 176.708V153.508H546.129L546.897 156.196C547.58 155.364 548.454 154.66 549.521 154.084C550.588 153.487 551.814 153.188 553.201 153.188C554.758 153.188 556.156 153.561 557.393 154.308C558.63 155.033 559.59 156.057 560.273 157.38C560.977 158.681 561.329 160.164 561.329 161.828C561.329 163.492 560.977 164.985 560.273 166.308C559.59 167.609 558.63 168.633 557.393 169.38C556.156 170.105 554.758 170.468 553.201 170.468C551.857 170.468 550.662 170.201 549.617 169.668C548.572 169.113 547.718 168.431 547.057 167.62V176.708H543.377ZM552.305 167.172C553.841 167.172 555.089 166.681 556.049 165.7C557.009 164.697 557.489 163.407 557.489 161.828C557.489 160.249 557.009 158.969 556.049 157.988C555.089 156.985 553.841 156.484 552.305 156.484C550.748 156.484 549.478 156.985 548.497 157.988C547.537 158.969 547.057 160.249 547.057 161.828C547.057 163.407 547.537 164.697 548.497 165.7C549.478 166.681 550.748 167.172 552.305 167.172ZM580.853 161.636C580.853 161.956 580.832 162.351 580.789 162.82H567.413C567.584 164.121 568.117 165.167 569.013 165.956C569.909 166.724 571.05 167.108 572.437 167.108C573.376 167.108 574.218 166.927 574.965 166.564C575.733 166.201 576.32 165.711 576.725 165.092L580.181 165.668C579.584 167.204 578.549 168.388 577.077 169.22C575.626 170.052 574.005 170.468 572.213 170.468C570.549 170.468 569.056 170.105 567.733 169.38C566.432 168.633 565.408 167.609 564.661 166.308C563.936 164.985 563.573 163.492 563.573 161.828C563.573 160.164 563.936 158.681 564.661 157.38C565.408 156.057 566.432 155.033 567.733 154.308C569.056 153.561 570.549 153.188 572.213 153.188C573.877 153.188 575.36 153.561 576.661 154.308C577.984 155.033 579.008 156.047 579.733 157.348C580.48 158.628 580.853 160.057 580.853 161.636ZM572.213 156.388C571.104 156.388 570.133 156.708 569.301 157.348C568.49 157.988 567.936 158.852 567.637 159.94H576.853C576.533 158.873 575.957 158.02 575.125 157.38C574.314 156.719 573.344 156.388 572.213 156.388ZM595.177 161.508C596.03 161.785 596.734 162.287 597.289 163.012C597.843 163.716 598.121 164.559 598.121 165.54C598.121 166.415 597.865 167.204 597.353 167.908C596.841 168.612 596.115 169.167 595.177 169.572C594.259 169.956 593.214 170.148 592.041 170.148H583.721V153.508H591.689C592.819 153.508 593.833 153.7 594.729 154.084C595.625 154.468 596.318 155.001 596.809 155.684C597.299 156.345 597.545 157.113 597.545 157.988C597.545 159.588 596.755 160.761 595.177 161.508ZM587.401 156.548V160.164H591.689C592.329 160.164 592.851 160.004 593.257 159.684C593.662 159.343 593.865 158.905 593.865 158.372C593.865 157.839 593.662 157.401 593.257 157.06C592.851 156.719 592.329 156.548 591.689 156.548H587.401ZM592.041 167.108C592.766 167.108 593.342 166.927 593.769 166.564C594.217 166.18 594.441 165.689 594.441 165.092C594.441 164.473 594.217 163.983 593.769 163.62C593.342 163.236 592.766 163.044 592.041 163.044H587.401V167.108H592.041ZM601.471 170.148V153.508H605.151V158.244H607.743C609.065 158.244 610.239 158.5 611.263 159.012C612.287 159.503 613.087 160.207 613.663 161.124C614.239 162.02 614.527 163.044 614.527 164.196C614.527 165.348 614.239 166.383 613.663 167.3C613.087 168.196 612.276 168.9 611.231 169.412C610.207 169.903 609.044 170.148 607.743 170.148H601.471ZM620.191 170.148H616.511V153.508H620.191V170.148ZM607.743 166.948C608.66 166.948 609.407 166.692 609.983 166.18C610.559 165.668 610.847 165.007 610.847 164.196C610.847 163.385 610.559 162.724 609.983 162.212C609.407 161.7 608.66 161.444 607.743 161.444H605.151V166.948H607.743ZM628.026 170.148H624.346V153.508H639.002V170.148H635.322V156.868H628.026V170.148ZM651.094 170.468C649.387 170.468 647.851 170.105 646.486 169.38C645.142 168.633 644.086 167.609 643.318 166.308C642.571 164.985 642.198 163.492 642.198 161.828C642.198 160.164 642.571 158.681 643.318 157.38C644.086 156.057 645.142 155.033 646.486 154.308C647.851 153.561 649.387 153.188 651.094 153.188C652.801 153.188 654.326 153.561 655.67 154.308C657.035 155.033 658.091 156.057 658.838 157.38C659.606 158.681 659.99 160.164 659.99 161.828C659.99 163.492 659.606 164.985 658.838 166.308C658.091 167.609 657.035 168.633 655.67 169.38C654.326 170.105 652.801 170.468 651.094 170.468ZM651.094 167.108C652.587 167.108 653.803 166.628 654.742 165.668C655.681 164.687 656.15 163.407 656.15 161.828C656.15 160.249 655.681 158.98 654.742 158.02C653.803 157.039 652.587 156.548 651.094 156.548C649.601 156.548 648.385 157.039 647.446 158.02C646.507 158.98 646.038 160.249 646.038 161.828C646.038 163.407 646.507 164.687 647.446 165.668C648.385 166.628 649.601 167.108 651.094 167.108ZM664.653 153.508H676.845V170.148H673.165V156.868H668.077L667.693 163.876C667.586 165.924 667.042 167.513 666.061 168.644C665.101 169.753 663.789 170.308 662.125 170.308C661.698 170.308 661.207 170.276 660.653 170.212L660.301 166.692C660.557 166.713 661.015 166.724 661.677 166.724C662.487 166.724 663.063 166.521 663.405 166.116C663.767 165.689 663.981 164.964 664.045 163.94L664.653 153.508ZM692.138 160.068V153.508H695.818V170.148H692.138V163.428H684.682V170.148H681.002V153.508H684.682V160.068H692.138ZM705.187 170.148H699.971V153.508H703.491V165.86H704.003L710.211 153.508H715.427V170.148H711.907V157.796H711.395L705.187 170.148ZM722.028 153.508H734.22V170.148H730.54V156.868H725.452L725.068 163.876C724.961 165.924 724.417 167.513 723.436 168.644C722.476 169.753 721.164 170.308 719.5 170.308C719.073 170.308 718.582 170.276 718.028 170.212L717.676 166.692C717.932 166.713 718.39 166.724 719.052 166.724C719.862 166.724 720.438 166.521 720.78 166.116C721.142 165.689 721.356 164.964 721.42 163.94L722.028 153.508ZM743.593 170.148H738.377V153.508H741.897V165.86H742.409L748.617 153.508H753.833V170.148H750.313V157.796H749.801L743.593 170.148ZM769.369 170.148H765.689V153.508H780.345V170.148H776.665V156.868H769.369V170.148ZM786.934 153.508H799.126V170.148H795.446V156.868H790.358L789.974 163.876C789.867 165.924 789.323 167.513 788.342 168.644C787.382 169.753 786.07 170.308 784.406 170.308C783.979 170.308 783.489 170.276 782.934 170.212L782.582 166.692C782.838 166.713 783.297 166.724 783.958 166.724C784.769 166.724 785.345 166.521 785.686 166.116C786.049 165.689 786.262 164.964 786.326 163.94L786.934 153.508ZM810.067 153.188C812.2 153.188 813.875 153.86 815.091 155.204C816.328 156.527 816.947 158.393 816.947 160.804V170.148H814.227L813.459 167.524C812.99 168.313 812.296 169.007 811.379 169.604C810.462 170.18 809.374 170.468 808.115 170.468C807.006 170.468 806.003 170.244 805.107 169.796C804.232 169.348 803.55 168.719 803.059 167.908C802.568 167.097 802.323 166.18 802.323 165.156C802.323 163.577 802.942 162.319 804.179 161.38C805.438 160.42 807.262 159.94 809.651 159.94H813.235C813.15 158.831 812.808 157.956 812.211 157.316C811.635 156.655 810.856 156.324 809.875 156.324C809.086 156.324 808.403 156.516 807.827 156.9C807.251 157.284 806.824 157.753 806.547 158.308L803.155 157.732C803.56 156.324 804.392 155.215 805.651 154.404C806.931 153.593 808.403 153.188 810.067 153.188ZM808.979 167.364C810.259 167.364 811.294 166.948 812.083 166.116C812.872 165.284 813.267 164.185 813.267 162.82H809.779C807.283 162.82 806.035 163.545 806.035 164.996C806.035 165.721 806.302 166.297 806.835 166.724C807.368 167.151 808.083 167.364 808.979 167.364ZM832.075 160.068V153.508H835.755V170.148H832.075V163.428H824.619V170.148H820.939V153.508H824.619V160.068H832.075Z" fill="white"/>
</g>
<defs>
<clipPath id="clip0_7046_3621">
<rect width="872" height="283" fill="white"/>
</clipPath>
</defs>
</svg>
