<svg width="669" height="254" viewBox="0 0 669 254" fill="none" xmlns="http://www.w3.org/2000/svg">
<g clip-path="url(#clip0_14_22787)">
<path d="M0 0C77.88 0 155.76 0 236 0C236 83.82 236 167.64 236 254C158.12 254 80.24 254 0 254C0 170.18 0 86.36 0 0ZM29 28C29 93.34 29 158.68 29 226C88.07 226 147.14 226 208 226C208 160.66 208 95.32 208 28C148.93 28 89.86 28 29 28Z" fill="white"/>
<path d="M65 56C74.24 56 83.48 56 93 56C93 84.38 93 112.76 93 142C103.89 142 114.78 142 126 142C126 113.62 126 85.24 126 56C135.24 56 144.48 56 154 56C154 84.38 154 112.76 154 142C161.92 142 169.84 142 178 142C178.3 148.073 178.558 154.12 178.714 160.195C178.779 162.254 178.601 165.319 178.714 167.377C179.68 185.407 178.379 184.078 173.681 189.385C170.534 192.282 168.64 194.769 165 197C163.081 198.535 161.181 200.092 159.312 201.688C155.257 205 155.257 205 153 205C153 193.45 153 181.9 153 170C123.96 170 94.92 170 65 170C65 132.38 65 94.76 65 56Z" fill="white"/>
<path d="M313 34C317.62 34 322.24 34 327 34C327 52.15 327 70.3 327 89C334.26 89 341.52 89 349 89C349 70.85 349 52.7 349 34C353.62 34 358.24 34 363 34C363 52.15 363 70.3 363 89C365.64 89 368.28 89 371 89C371 97.25 371 105.5 371 114C367.7 114 364.4 114 361 114C360 110 360 110 360 102C344.49 102 328.98 102 313 102C313 79.56 313 57.12 313 34Z" fill="white"/>
<path d="M563 32C563 35.96 563 39.92 563 44C557.064 47.1853 551.134 47.7314 544.523 48.375C540.933 49.0119 538.853 49.7563 536 52C534.631 55.58 534.631 55.58 534 59C534.835 58.3503 535.671 57.7006 536.531 57.0312C540.145 54.6308 543.153 54.4647 547.5 54.5C549.403 54.4845 549.403 54.4845 551.344 54.4688C556.583 55.2299 559.618 57.5799 563.25 61.3125C568.021 68.6395 567.959 77.3251 566.535 85.75C564.654 93.052 561.333 97.8473 555 101.938C548.232 104.349 539.132 104.348 532.5 101.562C526.927 98.1663 523.38 92.2537 521.625 86.0625C519.418 73.0508 519.768 57.3172 525.812 45.4375C532.9 37.5397 539.669 35.8874 549.75 34.4375C551.454 34.1892 553.157 33.9381 554.859 33.6836C555.607 33.5759 556.354 33.4682 557.124 33.3572C559.324 32.9383 560.732 32 563 32ZM536 71C534.036 74.9279 534.661 79.7087 535 84C536.18 87.3626 537.018 89.1933 539.75 91.4375C543.133 92.2832 545.643 91.8545 549 91C552.625 87.3747 553.168 83.5956 553.25 78.625C553.21 74.2596 552.968 71.4079 550 68C543.948 63.9653 540.417 65.6993 536 71Z" fill="white"/>
<path d="M607.75 53.1251C612.581 55.912 615.277 58.9219 617.117 64.211C619.193 73.1217 619.627 84.8346 615 93.0001C611.666 97.7335 608.702 101.36 603 103C599.449 103.195 599.449 103.195 595.688 103.125C592.377 103.063 592.377 103.063 589 103C588.67 108.94 588.34 114.88 588 121C583.38 121 578.76 121 574 121C574 98.5601 574 76.1201 574 53.0001C577.3 53.0001 580.6 53.0001 584 53.0001C584.66 54.3201 585.32 55.6401 586 57.0001C586.928 56.3607 587.856 55.7213 588.812 55.0626C594.954 51.0887 600.86 51.058 607.75 53.1251ZM589.766 65.8555C587.191 70.4406 587.454 74.5196 587.562 79.6876C587.555 80.6499 587.548 81.6121 587.541 82.6036C587.539 86.3246 587.539 86.3246 588 90.0001C591.541 92.3609 592.828 92.5728 597 92.0001C600.429 89.9364 602.708 87.8768 604 84.0001C604.146 81.7116 604.221 79.4181 604.25 77.1251C604.276 75.9108 604.302 74.6965 604.328 73.4454C603.95 69.4796 602.835 66.8354 600 64.0001C594.413 63.2214 594.413 63.2214 589.766 65.8555Z" fill="white"/>
<path d="M460.277 54.75C465.419 58.4811 466.692 63.5385 467.688 69.4922C468.864 78.9307 467.898 88.2999 462.43 96.3086C459.527 99.7422 456.206 101.598 452 103C449.814 103.095 447.625 103.13 445.438 103.125C444.281 103.128 443.125 103.13 441.934 103.133C439 103 439 103 437 102C437 108.27 437 114.54 437 121C432.71 121 428.42 121 424 121C424 98.56 424 76.12 424 53C427.3 53 430.6 53 434 53C434.66 54.32 435.32 55.64 436 57C436.743 56.3606 437.485 55.7212 438.25 55.0625C444.746 50.1904 453.421 50.8242 460.277 54.75ZM439.625 65.875C437.227 69.011 436.878 70.683 436.902 74.5703C436.906 75.4662 436.909 76.3621 436.912 77.2851C436.92 78.2223 436.929 79.1594 436.938 80.125C436.942 81.0699 436.947 82.0147 436.951 82.9883C436.963 85.3256 436.979 87.6627 437 90C440.762 91.9874 442.918 92.2631 447.098 91.6093C450.215 90.6109 451.399 88.7538 453 86C454.811 80.1916 454.941 73.5983 452.625 67.9375C451.32 64.9241 451.32 64.9241 449 64C443.921 63.4789 443.921 63.4789 439.625 65.875Z" fill="white"/>
<path d="M445.25 157.687C449.697 163.564 450.506 169.807 450.375 176.937C450.366 177.727 450.358 178.517 450.349 179.331C450.171 186.373 448.948 191.753 445.312 197.812C439.76 203.065 435.166 204.242 427.5 204.25C425.355 204.167 423.21 204.085 421 204C420.67 209.94 420.34 215.88 420 222C415.71 222 411.42 222 407 222C407 199.89 407 177.78 407 155C410.3 155 413.6 155 417 155C417.99 156.485 417.99 156.485 419 158C419.743 157.361 420.485 156.721 421.25 156.062C428.707 150.47 438.116 152.337 445.25 157.687ZM422.305 166.863C418.973 171.398 419.337 175.207 419.5 180.687C419.497 181.65 419.495 182.612 419.492 183.603C419.512 187.326 419.512 187.326 420 191C423.736 193.491 425.532 193.276 429.84 192.652C432.288 192.094 432.288 192.094 434.5 189.562C437.59 182.224 437.621 175.47 435 168C433.976 165.891 433.976 165.891 432 165C427.833 164.383 425.802 164.446 422.305 166.863Z" fill="white"/>
<path d="M660 54.9999C664.69 58.8707 667.874 64.0045 669 69.9999C669.783 79.8248 669.43 88.2826 664.312 96.8124C658.811 102.016 654.101 103.281 646.5 103.5C639.519 103.292 634.617 102.402 629.484 97.5741C623.92 91.3863 622.697 84.2671 622.852 76.1366C623.353 68.9202 625.201 62.5525 630 56.9999C638.445 50.4487 650.66 49.954 660 54.9999ZM640.125 66.2499C636.444 71.014 636.447 76.1475 637 81.9999C637.914 85.5013 639.347 88.2541 641.75 90.9999C645.244 92.5527 647.385 92.0973 651 90.9999C654.36 87.9841 654.877 86.1852 655.344 81.6991C655.507 75.2698 655.417 70.6137 652 64.9999C647.571 62.7856 643.942 63.2625 640.125 66.2499Z" fill="white"/>
<path d="M378.25 153.625C379.018 153.611 379.786 153.598 380.578 153.584C385.444 153.622 388.77 154.36 393 157C397.325 161.773 397.193 166.664 397.316 172.824C397.337 173.686 397.358 174.547 397.379 175.435C397.445 178.185 397.504 180.936 397.562 183.688C397.606 185.553 397.649 187.418 397.693 189.283C397.8 193.855 397.902 198.428 398 203C394.37 203 390.74 203 387 203C386.505 200.525 386.505 200.525 386 198C385.529 198.349 385.059 198.699 384.574 199.059C383.952 199.514 383.329 199.969 382.688 200.438C382.073 200.89 381.458 201.342 380.824 201.809C376.528 204.614 371.943 204.466 367 204C362.281 202.308 359.794 200.14 357 196C355.432 191.295 355.451 187.474 357.187 182.812C360.121 178.261 363.445 175.652 368.754 174.305C373.799 173.62 378.922 173.863 384 174C383.67 171.36 383.34 168.72 383 166C375.647 165.798 369.051 165.788 362 168C361.496 166.543 360.997 165.084 360.5 163.625C360.222 162.813 359.943 162.001 359.656 161.164C359 159 359 159 359 157C365.352 154.319 371.435 153.675 378.25 153.625ZM370 186C370.091 188.54 370.091 188.54 371 191C373.807 193.297 373.807 193.297 376.938 192.875C380.489 191.86 381.88 191.016 384 188C384.334 184.832 384.334 184.832 384 182C378.34 181.778 374.137 181.863 370 186Z" fill="white"/>
<path d="M509 55C513.597 59.3968 515.686 63.6768 516.148 70.0469C516.221 73.9066 515.762 77.1878 515 81C505.43 81 495.86 81 486 81C486.99 83.97 487.98 86.94 489 90C496.019 91.7549 503.267 91.9116 510 89C514.084 95.2458 514.084 95.2458 513.75 98.25C508.851 103.149 502.578 103.341 496 103.438C488.308 103.387 483.332 102.242 477.687 96.75C472.151 87.7271 471.583 77.7563 473.469 67.4336C475.3 61.8638 478.835 56.7098 484.039 53.8985C492.1 50.8506 501.418 50.5084 509 55ZM488 67C487.67 68.98 487.34 70.96 487 73C492.28 73 497.56 73 503 73C502.562 66.6299 502.562 66.6299 500.812 64.0625C495.799 61.1234 491.657 63.0291 488 67Z" fill="white"/>
<path d="M409 54.9999C412.665 58.0274 414.595 60.4906 416 64.9999C416.162 67.6277 416.235 70.1294 416.187 72.7499C416.187 73.4344 416.186 74.1189 416.186 74.8241C416.141 79.8592 416.141 79.8592 415 80.9999C412.927 81.0876 410.852 81.1068 408.777 81.0975C407.517 81.0943 406.257 81.0911 404.959 81.0878C403.618 81.0794 402.278 81.071 400.937 81.0624C399.593 81.0574 398.249 81.0528 396.904 81.0487C393.603 81.0369 390.301 81.0204 387 80.9999C387.425 82.2957 387.865 83.5865 388.312 84.8749C388.556 85.5942 388.8 86.3135 389.051 87.0546C389.963 89.3398 389.963 89.3398 393 90.9999C399.286 91.6805 405.065 91.11 411 88.9999C412.32 91.9699 413.64 94.9399 415 97.9999C405.816 103.475 395.935 104.835 385.348 102.387C380.085 100.094 377.26 96.1699 375 90.9999C371.899 81.6983 371.729 70.6555 376.117 61.7264C383.242 50.8986 397.996 48.8484 409 54.9999ZM388 67.9999C387.67 69.6499 387.34 71.2999 387 72.9999C392.61 72.9999 398.22 72.9999 404 72.9999C403.713 66.4647 403.713 66.4647 401.312 64.0624C395.286 61.2934 391.932 62.9442 388 67.9999Z" fill="white"/>
<path d="M526 156C529.665 159.028 531.595 161.491 533 166C533.162 168.628 533.235 171.129 533.187 173.75C533.187 174.434 533.186 175.119 533.186 175.824C533.141 180.859 533.141 180.859 532 182C529.927 182.088 527.852 182.107 525.777 182.098C524.517 182.094 523.257 182.091 521.959 182.088C520.618 182.08 519.278 182.071 517.937 182.062C516.593 182.057 515.249 182.053 513.904 182.049C510.603 182.037 507.301 182.021 504 182C504.425 183.296 504.865 184.587 505.312 185.875C505.556 186.594 505.8 187.314 506.051 188.055C506.963 190.34 506.963 190.34 510 192C515.203 193.452 518.992 192.48 524 191C525.98 190.505 525.98 190.505 528 190C529.32 192.97 530.64 195.94 532 199C524.745 205.139 515.909 204.678 506.929 204.187C501.939 203.704 498.816 202 495.492 198.34C489.952 190.631 489.372 181.11 490.398 171.934C491.679 165.69 494.048 160.698 498.875 156.5C507.809 152.212 517.099 151.122 526 156ZM507 166C504.71 169.764 504.71 169.764 504 174C509.61 174 515.22 174 521 174C520.728 167.444 520.728 167.444 518.25 165.062C514.228 163.163 510.608 163.354 507 166Z" fill="white"/>
<path d="M312 136C329.49 136 346.98 136 365 136C365 139.96 365 143.92 365 148C358.73 148 352.46 148 346 148C346 166.15 346 184.3 346 203C341.38 203 336.76 203 332 203C332 184.85 332 166.7 332 148C325.4 148 318.8 148 312 148C312 144.04 312 140.08 312 136Z" fill="white"/>
<path d="M536 155C549.2 155 562.4 155 576 155C576 158.96 576 162.92 576 167C571.71 167 567.42 167 563 167C563 178.88 563 190.76 563 203C558.38 203 553.76 203 549 203C549 191.12 549 179.24 549 167C544.71 167 540.42 167 536 167C536 163.04 536 159.08 536 155Z" fill="white"/>
<path d="M458 155C468.23 155 478.46 155 489 155C489 158.96 489 162.92 489 167C483.39 167 477.78 167 472 167C472 178.88 472 190.76 472 203C467.38 203 462.76 203 458 203C458 187.16 458 171.32 458 155Z" fill="white"/>
</g>
<defs>
<clipPath id="clip0_14_22787">
<rect width="669" height="254" fill="white"/>
</clipPath>
</defs>
</svg>
