<svg width="183" height="56" viewBox="0 0 183 56" fill="none" xmlns="http://www.w3.org/2000/svg">
<path d="M5.87681 47.2158V30.0326H14.975V47.2158H20.8518V24.762H0V47.2158H5.87681Z" fill="#F9FDFF"/>
<path d="M32.1065 56.0002V44.002C33.6736 45.716 36.5467 47.6443 40.4211 47.6443C46.9509 47.6443 51.5217 42.7593 51.5217 35.9889C51.5217 29.2185 46.9509 24.3335 40.4211 24.3335C36.3291 24.3335 33.3254 26.476 31.8453 28.2758L30.8005 24.762H26.2297V56.0002H32.1065ZM38.8104 42.5022C34.849 42.5022 32.1065 39.7597 32.1065 35.9889C32.1065 32.218 34.849 29.4756 38.8104 29.4756C42.7283 29.4756 45.3837 32.218 45.3837 35.9889C45.3837 39.7597 42.7283 42.5022 38.8104 42.5022Z" fill="#F9FDFF"/>
<path d="M66.6623 47.6443C73.9321 47.6443 79.0254 42.8021 79.0254 35.9889C79.0254 29.1756 73.9321 24.3335 66.6623 24.3335C59.436 24.3335 54.2992 29.1756 54.2992 35.9889C54.2992 42.8021 59.436 47.6443 66.6623 47.6443ZM66.6623 42.3736C62.9621 42.3736 60.4372 39.7597 60.4372 35.9889C60.4372 32.218 62.9621 29.6041 66.6623 29.6041C70.3625 29.6041 72.8874 32.218 72.8874 35.9889C72.8874 39.7597 70.3625 42.3736 66.6623 42.3736Z" fill="#F9FDFF"/>
<path d="M93.7755 47.6443C98.6511 47.6443 103.265 45.1589 104.963 40.274L99.4347 39.3741C98.4334 41.1738 96.4745 42.3736 94.0802 42.3736C90.5106 42.3736 87.9422 39.7169 87.9422 35.9889C87.9422 32.2609 90.5106 29.6041 94.0802 29.6041C96.431 29.6041 98.3899 30.804 99.2605 32.6465L104.789 31.7467C103.178 26.9045 98.8252 24.3335 93.7755 24.3335C86.7669 24.3335 81.8043 29.2185 81.8043 35.9889C81.8043 42.7593 86.7669 47.6443 93.7755 47.6443Z" fill="#F9FDFF"/>
<path d="M119.389 47.2158V30.0326H127.312V24.762H105.633V30.0326H113.512V47.2158H119.389Z" fill="#F9FDFF"/>
<path d="M140.76 47.6443C148.03 47.6443 153.123 42.8021 153.123 35.9889C153.123 29.1756 148.03 24.3335 140.76 24.3335C133.534 24.3335 128.397 29.1756 128.397 35.9889C128.397 42.8021 133.534 47.6443 140.76 47.6443ZM140.76 42.3736C137.06 42.3736 134.535 39.7597 134.535 35.9889C134.535 32.218 137.06 29.6041 140.76 29.6041C144.46 29.6041 146.985 32.218 146.985 35.9889C146.985 39.7597 144.46 42.3736 140.76 42.3736Z" fill="#F9FDFF"/>
<path d="M163.085 56.0002V44.002C164.652 45.716 167.525 47.6443 171.399 47.6443C177.929 47.6443 182.5 42.7593 182.5 35.9889C182.5 29.2185 177.929 24.3335 171.399 24.3335C167.307 24.3335 164.304 26.476 162.824 28.2758L161.779 24.762H157.208V56.0002H163.085ZM169.789 42.5022C165.827 42.5022 163.085 39.7597 163.085 35.9889C163.085 32.218 165.827 29.4756 169.789 29.4756C173.707 29.4756 176.362 32.218 176.362 35.9889C176.362 39.7597 173.707 42.5022 169.789 42.5022Z" fill="#F9FDFF"/>
</svg>
