<svg width="297" height="84" viewBox="0 0 297 84" fill="none" xmlns="http://www.w3.org/2000/svg">
<path fill-rule="evenodd" clip-rule="evenodd" d="M25.5843 57.2153C25.5843 58.9188 25.4645 60.0906 25.23 60.7209C24.801 61.8287 23.843 62.385 22.3712 62.385C19.9564 62.385 18.5295 60.4501 18.1004 56.5703C17.357 50.022 16.9878 41.0612 16.9878 29.678C16.9878 16.9654 17.1724 9.15174 17.5216 6.22716C17.9258 3.03179 19.208 1.43164 21.3733 1.43164C23.9228 1.43164 25.2001 2.95301 25.2001 5.99576C25.2001 6.75398 25.0554 9.76226 24.771 15.0058C24.4966 20.2543 24.3519 25.0991 24.3519 29.5204C24.3519 33.4002 24.5615 38.4172 24.9656 44.5766C25.3747 50.731 25.5843 54.9456 25.5843 57.2153ZM73.501 25.4093C73.501 28.0286 72.588 29.9734 70.7419 31.224C69.9337 31.7803 67.3443 32.4992 62.9837 33.3755C57.1961 34.5621 52.2568 35.1529 48.1706 35.1529C46.3146 35.1529 44.0694 35.0249 41.4401 34.7787C41.4401 44.3058 45.0972 49.0767 52.4164 49.0767C54.4421 49.0767 56.2582 48.5105 57.8896 47.3879C58.7129 46.8316 60.1747 45.4924 62.2902 43.3506C63.0485 42.5776 63.8568 42.1887 64.695 42.1887C65.7677 42.1887 66.6957 42.5875 67.479 43.3752C68.2473 44.163 68.6415 45.128 68.6415 46.2752C68.6415 47.2304 68.2773 48.1068 67.5289 48.9044C63.1383 53.6113 58.0044 55.9549 52.1121 55.9549C39.9234 55.9549 33.8365 48.993 33.8365 35.0692C33.8365 27.8858 35.7723 21.7018 39.649 16.478C44.0644 10.5599 49.5127 7.60575 56.0187 7.60575C61.0878 7.60575 65.2837 9.27976 68.5616 12.6327C71.8546 16.0004 73.501 20.2543 73.501 25.4093ZM65.8974 25.7982C65.7427 22.3173 64.8147 19.5699 63.1134 17.5464C61.417 15.5228 59.2966 14.5036 56.7371 14.5036C53.4193 14.5036 50.4906 15.6656 47.971 17.9993C45.3567 20.3479 43.4258 23.6713 42.1436 27.9793C43.9597 28.1714 45.8805 28.2748 47.9311 28.2748C52.8854 28.2748 58.8725 27.4476 65.8974 25.7982ZM114.343 10.2595C114.343 12.3225 113.794 15.5474 112.697 19.9294C111.494 24.7101 110.591 28.063 109.977 29.9734C108.186 35.5419 105.836 41.2532 102.898 47.1221C99.6596 53.631 96.9006 56.8953 94.6005 56.8953C93.1487 56.8953 92.0261 55.4921 91.2278 52.666C90.1851 48.7616 89.1373 44.8671 88.0946 40.9578C84.5023 29.6632 80.6606 20.3429 76.5844 13.0216C76.0505 12.1453 75.5117 11.2689 74.9928 10.3777C74.4689 9.50132 74.2095 8.72832 74.2095 8.08334C74.2095 5.81359 75.357 4.68117 77.657 4.68117C80.2415 4.68117 83.0903 7.99471 86.2036 14.607C89.1672 20.9091 92.6198 30.8005 96.5763 44.2713C100.822 36.0343 104.09 25.488 106.36 12.6327C106.959 9.24037 107.368 7.31034 107.538 6.83276C108.047 5.49356 109.039 4.8338 110.516 4.8338C113.061 4.8338 114.343 6.64074 114.343 10.2595ZM150.884 19.9983C150.884 20.9633 150.595 21.7658 150.011 22.4207C149.422 23.0804 148.719 23.4005 147.906 23.4005C147.292 23.4005 146.389 22.9475 145.187 22.0465C143.984 21.1455 142.901 20.6925 141.934 20.6925C139.519 20.6925 137.558 21.7511 136.056 23.8534C134.554 25.9656 133.796 28.8163 133.796 32.4007V37.3538C133.796 42.8829 133.207 47.2796 132.03 50.5439C130.932 53.6014 129.52 55.1228 127.784 55.1228C125.474 55.1228 124.312 53.9904 124.312 51.7206C124.312 51.2677 124.666 49.6084 125.369 46.7183C126.073 43.843 126.427 41.1252 126.427 38.5846C126.427 31.5341 125.409 25.8868 123.369 21.6575C123.314 21.5295 122.61 20.2642 121.263 17.8418C120.57 16.6158 120.23 15.6262 120.23 14.9024C120.23 14.09 120.624 13.3417 121.418 12.6327C122.201 11.9237 123.064 11.5741 123.977 11.5741C126.681 11.5741 128.927 14.8335 130.718 21.372C133.372 16.3303 137.239 13.8193 142.308 13.8193C144.857 13.8193 146.918 14.4002 148.499 15.572C150.086 16.734 150.884 18.216 150.884 19.9983ZM189.91 34.7837C189.91 41.6815 188.892 48.8896 186.842 56.4177C185.824 60.194 184.292 62.0798 182.282 62.0798C180.206 62.0798 179.173 60.9178 179.173 58.6136C179.173 58.0868 179.198 57.683 179.253 57.4418C176.654 58.8352 173.96 59.5294 171.181 59.5294C166.266 59.5294 162.414 58.1606 159.655 55.4182C156.886 52.6709 155.499 48.8305 155.499 43.8922C155.499 38.8899 156.991 34.9215 159.98 31.9773C162.958 29.0527 166.93 27.5805 171.869 27.5805C176.18 27.5805 179.827 28.9985 182.776 31.8345C182.292 21.8791 178.555 16.9063 171.555 16.9063C169.998 16.9063 168.342 17.3691 166.565 18.2997C164.789 19.2253 163.637 19.693 163.103 19.693C162.23 19.693 161.456 19.3435 160.763 18.6345C160.069 17.9255 159.73 17.1279 159.73 16.2121C159.73 14.7055 160.843 13.3121 163.063 12.0222C165.443 10.6436 168.277 9.94443 171.57 9.94443C183.793 9.93951 189.91 18.216 189.91 34.7837ZM182.147 43.587C182.147 37.1913 179.088 33.9959 172.987 33.9959C166.286 33.9959 162.938 37.1667 162.938 43.5082C162.938 49.9039 166.256 53.0992 172.907 53.0992C175.796 53.0992 178.056 52.2622 179.687 50.5833C181.324 48.9142 182.147 46.5805 182.147 43.587ZM237.398 31.9723C237.398 37.9692 236.405 43.9218 234.419 49.83C233.192 53.503 231.675 55.3493 229.859 55.3493C228.891 55.3493 228.068 55.0539 227.374 54.4581C226.681 53.8673 226.342 53.1583 226.342 52.3312C226.342 52.0998 226.955 49.8054 228.183 45.4333C229.41 41.076 230.024 36.7432 230.024 32.4351C230.024 22.6521 226.915 17.7482 220.684 17.7482C217.132 17.7482 214.218 19.0481 211.968 21.6428C209.628 24.3113 208.465 27.8316 208.465 32.2136C208.465 34.6655 208.829 38.0677 209.563 42.4398C210.296 46.8119 210.66 49.9186 210.66 51.7846C210.66 56.1174 209.408 58.2837 206.899 58.2837C205.616 58.2837 204.743 57.9981 204.244 57.4467C203.865 57.0233 203.551 56.142 203.291 54.8028C203.266 53.242 202.952 48.7419 202.338 41.2778C201.306 30.8498 200.782 23.4497 200.782 19.0628C200.782 11.4313 202.259 7.6156 205.212 7.6156C206.18 7.6156 207.003 7.91101 207.682 8.50676C208.36 9.09759 208.7 9.78196 208.7 10.5697C208.7 11.1261 208.545 12.1699 208.231 13.7011C207.916 15.2372 207.762 16.537 207.762 17.5956V18.4572C211.549 13.3909 216.149 10.8651 221.582 10.8651C226.571 10.8651 230.453 12.6819 233.222 16.3204C236.016 19.9589 237.398 25.1779 237.398 31.9723ZM279.821 34.7837C279.821 41.6815 278.804 48.8896 276.753 56.4177C275.735 60.194 274.203 62.0798 272.193 62.0798C270.117 62.0798 269.085 60.9178 269.085 58.6136C269.085 58.0868 269.109 57.683 269.164 57.4418C266.565 58.8352 263.871 59.5294 261.092 59.5294C256.177 59.5294 252.326 58.1606 249.567 55.4182C246.798 52.6709 245.411 48.8305 245.411 43.8922C245.411 38.8899 246.902 34.9215 249.891 31.9773C252.869 29.0527 256.841 27.5805 261.78 27.5805C266.091 27.5805 269.738 28.9985 272.687 31.8345C272.203 21.8791 268.466 16.9063 261.466 16.9063C259.909 16.9063 258.253 17.3691 256.477 18.2997C254.701 19.2253 253.548 19.693 253.014 19.693C252.141 19.693 251.368 19.3435 250.674 18.6345C249.981 17.9255 249.641 17.1279 249.641 16.2121C249.641 14.7055 250.754 13.3121 252.974 12.0222C255.354 10.6436 258.188 9.94443 261.481 9.94443C273.705 9.93951 279.821 18.216 279.821 34.7837ZM272.058 43.587C272.058 37.1913 269 33.9959 262.898 33.9959C256.197 33.9959 252.85 37.1667 252.85 43.5082C252.85 49.9039 256.167 53.0992 262.818 53.0992C265.707 53.0992 267.967 52.2622 269.598 50.5833C271.235 48.9142 272.058 46.5805 272.058 43.587Z" fill="white"/>
<path fill-rule="evenodd" clip-rule="evenodd" d="M68.3777 82.0593C68.3777 82.4679 68.1781 82.6747 67.779 82.6747C67.4996 82.6747 67.1902 82.4187 66.856 81.9017C66.6065 81.5177 66.2074 80.7595 65.6486 79.6221C64.0271 79.5975 62.191 79.2233 60.1454 78.5045C58.5089 80.1883 57.3963 81.0303 56.8026 81.0303C56.6479 81.0303 56.5132 80.9761 56.3985 80.8629C56.2837 80.7545 56.2289 80.6216 56.2289 80.4641C56.2289 80.2917 56.3686 80.0948 56.6529 79.8732C56.9323 79.6517 57.2167 79.435 57.4961 79.2135C57.9751 78.8344 58.4341 78.4257 58.8682 77.9875C58.1347 77.702 57.7705 77.4065 57.7705 77.1062C57.7705 76.9339 57.8254 76.7862 57.9402 76.6631C58.0549 76.54 58.1946 76.476 58.3543 76.476C58.489 76.476 58.6786 76.5351 58.938 76.6483C59.387 76.8502 59.6565 76.9683 59.7413 76.9979C61.4526 74.7823 62.4155 73.1625 62.6301 72.1384C62.6899 71.7888 62.7498 71.4392 62.8147 71.0896C62.8995 70.8287 63.099 70.7007 63.4134 70.7007C63.6728 70.7007 63.8474 70.809 63.9372 71.0207C63.9871 71.1487 64.032 71.3407 64.067 71.5968C64.1069 71.9119 64.1418 72.1334 64.1767 72.2565C64.5809 73.8764 65.3642 75.9147 66.5217 78.3716C66.7163 78.3666 66.9058 78.3568 67.0855 78.3371C67.2551 78.3223 67.3399 78.3174 67.3399 78.3174C67.8139 78.3174 68.0484 78.5291 68.0484 78.9525C68.0484 79.3907 67.8039 79.6074 67.315 79.6074H67.1304C67.295 79.9422 67.5844 80.4591 67.9885 81.1533C68.248 81.5915 68.3777 81.8919 68.3777 82.0593ZM65.0449 78.3568C64.3563 76.8994 63.7626 75.3583 63.2587 73.7287C62.65 75.0777 61.8916 76.3283 60.9886 77.4755C62.3107 77.953 63.6628 78.2485 65.0449 78.3568ZM106.51 73.0984C106.51 73.2609 106.446 73.4086 106.321 73.5416C106.196 73.6745 106.056 73.7385 105.912 73.7385C105.812 73.7385 105.682 73.704 105.538 73.6302C105.338 73.5366 105.218 73.4776 105.178 73.4677C104.62 73.2905 103.547 73.1575 101.95 73.064C102 74.9989 102.03 76.4218 102.03 77.3327C102.03 79.1052 101.985 80.6118 101.9 81.8623C101.871 82.2661 101.806 82.5467 101.711 82.7092C101.606 82.8914 101.426 82.98 101.182 82.98C100.773 82.98 100.568 82.7092 100.568 82.1676C100.568 82.1479 100.603 81.5817 100.668 80.4788C100.733 79.376 100.768 78.2829 100.768 77.1997C100.768 76.604 100.748 75.2205 100.703 73.0591C99.1414 73.0738 98.0338 73.2609 97.3852 73.6154C97.3103 74.4573 97.0459 74.8808 96.6018 74.8808C96.2426 74.8808 96.063 74.6198 96.063 74.093C96.063 73.2462 96.3324 72.6996 96.8713 72.4436C97.7843 72.0153 99.1963 71.7986 101.102 71.7986C104.709 71.7937 106.51 72.2319 106.51 73.0984ZM142.752 71.8971C142.752 72.2664 142.573 72.4535 142.219 72.4535C142.134 72.4535 141.979 72.4141 141.76 72.3402C141.914 73.6154 141.994 74.738 141.994 75.7178C141.994 78.1205 141.535 79.9569 140.622 81.2174C139.709 82.4778 138.402 83.108 136.7 83.108C135.463 83.108 134.515 82.7535 133.852 82.0445C133.188 81.3355 132.859 80.3163 132.859 78.9771C132.859 76.7271 133.497 74.6001 134.78 72.6012L134.455 72.6406C134.44 72.6406 134.415 72.6406 134.39 72.6455C134.365 72.6504 134.346 72.6504 134.336 72.6504C133.986 72.6504 133.812 72.4781 133.812 72.1334C133.812 71.4983 134.51 71.1783 135.902 71.1783C136.421 71.1783 136.875 71.3014 137.259 71.5525C137.618 71.7839 137.793 72.03 137.793 72.2861C137.793 72.4387 137.728 72.5766 137.603 72.7095C137.479 72.8424 137.339 72.9064 137.194 72.9064C137.085 72.9064 136.935 72.8473 136.755 72.7292C136.536 72.5913 136.361 72.5027 136.241 72.4682C134.829 74.5263 134.126 76.6926 134.126 78.9624C134.126 80.8973 134.964 81.8673 136.636 81.8673C139.36 81.8673 140.722 79.8683 140.722 75.8704C140.722 74.4869 140.637 73.3151 140.462 72.3648C140.288 72.4338 140.103 72.4633 139.914 72.4633C139.764 72.4633 139.634 72.3993 139.519 72.2762C139.405 72.1482 139.35 72.0005 139.35 71.8232C139.35 71.582 139.524 71.3851 139.874 71.2226C140.243 71.0552 140.712 70.9715 141.286 70.9715C141.73 70.9715 142.084 71.0601 142.348 71.2324C142.618 71.4048 142.752 71.6263 142.752 71.8971ZM183.544 81.498C183.544 81.8131 183.375 82.1134 183.031 82.4089V82.3941C182.706 82.6698 182.262 82.8077 181.693 82.8077C180.96 82.8077 180.416 82.6797 180.062 82.4286C179.957 82.3547 179.823 82.2267 179.668 82.0445C179.413 81.754 179.269 81.5915 179.229 81.5522C177.882 80.1489 176.954 79.3218 176.45 79.0805C176.225 79.0018 176.006 78.9181 175.791 78.8294C175.577 78.7457 175.467 78.5833 175.467 78.3519C175.467 77.953 175.806 77.7315 176.485 77.6823C177.213 77.6232 177.802 77.3376 178.261 76.8206C178.715 76.3037 178.944 75.6685 178.944 74.9152C178.944 73.2117 177.842 72.3599 175.637 72.3599H175.532C174.983 74.5755 174.709 76.9536 174.709 79.504C174.709 79.9422 174.723 80.405 174.748 80.8924C174.773 81.3798 174.783 81.6408 174.783 81.6851C174.783 82.2661 174.579 82.5615 174.17 82.5615C173.84 82.5615 173.621 82.3596 173.521 81.9657C173.441 81.6457 173.401 80.9958 173.401 80.0111C173.401 76.9831 173.666 74.477 174.2 72.4879C172.633 72.7489 171.765 72.8769 171.595 72.8769C170.987 72.8769 170.682 72.6603 170.682 72.227C170.682 71.9562 170.797 71.7691 171.021 71.6706C171.156 71.6165 171.321 71.5869 171.525 71.5771C171.7 71.5672 171.875 71.5623 172.054 71.5574C172.189 71.5426 172.738 71.4589 173.701 71.3014C174.419 71.1832 175.038 71.1241 175.557 71.1241C178.715 71.1241 180.296 72.3599 180.296 74.8365C180.296 75.6242 180.077 76.348 179.638 77.0127C179.199 77.6773 178.585 78.1992 177.797 78.5783C178.416 79.0362 179.019 79.5778 179.613 80.1933C180.321 80.9219 180.681 81.2961 180.701 81.306C180.915 81.4931 181.274 81.5915 181.773 81.5915C182.013 81.5915 182.162 81.5571 182.227 81.4931C182.362 81.3503 182.502 81.2075 182.636 81.0696C182.776 80.9466 182.911 80.8826 183.041 80.8826C183.18 80.8826 183.295 80.9416 183.39 81.0598C183.495 81.178 183.544 81.3257 183.544 81.498ZM228.118 82.0593C228.118 82.4679 227.919 82.6747 227.52 82.6747C227.24 82.6747 226.931 82.4187 226.597 81.9017C226.347 81.5177 225.948 80.7595 225.389 79.6221C223.768 79.5975 221.932 79.2233 219.886 78.5045C218.25 80.1883 217.137 81.0303 216.543 81.0303C216.389 81.0303 216.254 80.9761 216.139 80.8629C216.024 80.7545 215.97 80.6216 215.97 80.4641C215.97 80.2917 216.109 80.0948 216.394 79.8732C216.673 79.6517 216.957 79.435 217.237 79.2135C217.716 78.8344 218.175 78.4257 218.609 77.9875C217.876 77.702 217.511 77.4065 217.511 77.1062C217.511 76.9339 217.566 76.7862 217.681 76.6631C217.796 76.54 217.935 76.476 218.095 76.476C218.23 76.476 218.419 76.5351 218.679 76.6483C219.128 76.8502 219.397 76.9683 219.482 76.9979C221.193 74.7823 222.156 73.1625 222.371 72.1384C222.431 71.7888 222.491 71.4392 222.555 71.0896C222.64 70.8287 222.84 70.7007 223.154 70.7007C223.414 70.7007 223.588 70.809 223.678 71.0207C223.728 71.1487 223.773 71.3407 223.808 71.5968C223.848 71.9119 223.883 72.1334 223.917 72.2565C224.322 73.8764 225.105 75.9147 226.262 78.3716C226.457 78.3666 226.647 78.3568 226.826 78.3371C226.996 78.3223 227.081 78.3174 227.081 78.3174C227.555 78.3174 227.789 78.5291 227.789 78.9525C227.789 79.3907 227.545 79.6074 227.056 79.6074H226.871C227.036 79.9422 227.325 80.4591 227.729 81.1533C227.989 81.5915 228.118 81.8919 228.118 82.0593ZM224.786 78.3568C224.097 76.8994 223.503 75.3583 222.999 73.7287C222.391 75.0777 221.632 76.3283 220.729 77.4755C222.047 77.953 223.399 78.2485 224.786 78.3568ZM28.9626 71.8085C28.9626 71.9759 28.9027 72.4092 28.783 73.1034C28.6383 73.9502 28.5335 74.6986 28.4637 75.3485C28.2891 77.1013 28.2042 78.5439 28.2042 79.6664C28.2042 79.9766 28.2192 80.3607 28.2541 80.8235C28.2891 81.2863 28.304 81.5915 28.304 81.7393C28.304 82.3055 28.0695 82.591 27.6005 82.591C27.3062 82.591 26.9869 82.4433 26.6526 82.143C26.3732 81.8919 26.004 81.4537 25.54 80.8333C23.9684 78.6867 22.5514 76.2692 21.2941 73.5859C20.8501 75.1565 20.5907 77.3327 20.5108 80.0997C20.4759 81.2912 20.451 81.9313 20.436 82.0199C20.3711 82.4236 20.1716 82.6255 19.8373 82.6255C19.503 82.6255 19.2835 82.4039 19.1887 81.9657C19.1537 81.7836 19.1338 81.434 19.1338 80.917C19.1338 78.662 19.4232 76.1264 19.9919 73.32C20.1566 72.5421 20.3162 72.0005 20.4759 71.6854C20.6655 71.3161 20.9199 71.129 21.2343 71.129C21.4338 71.129 21.5985 71.2472 21.7332 71.4835C21.7382 71.4934 21.8928 71.8232 22.1872 72.483C23.6341 75.7128 25.2157 78.3519 26.932 80.3902V79.9225C26.932 77.3031 27.1316 74.8611 27.5307 72.5864C27.6255 72.0448 27.7303 71.6608 27.845 71.4343C27.9747 71.1881 28.1444 71.0601 28.3589 71.0601C28.758 71.0749 28.9626 71.321 28.9626 71.8085ZM269.135 79.4646C269.135 80.6216 268.776 81.4832 268.062 82.0494V82.0741C267.414 82.4679 266.441 82.6649 265.134 82.6649C263.213 82.6649 261.696 82.5467 260.588 82.3202C260.254 82.2513 260.02 82.1676 259.895 82.0741C259.75 81.9657 259.675 81.8033 259.675 81.5965C259.675 81.2715 259.9 81.1041 260.354 81.1041C260.574 81.1041 260.853 81.1337 261.192 81.1927C261.062 79.8092 260.998 78.6423 260.998 77.6724C260.998 76.0673 261.107 74.3835 261.322 72.6209L261.013 72.6455H260.963C260.569 72.6455 260.369 72.4584 260.369 72.0793C260.369 71.7986 260.494 71.6017 260.738 71.4885C260.963 71.3851 261.337 71.3309 261.861 71.3309C262.699 71.3309 263.362 71.4343 263.841 71.6411C264.286 71.8331 264.51 72.0842 264.51 72.3895C264.51 72.5569 264.45 72.7046 264.33 72.8277C264.211 72.9557 264.071 73.0147 263.921 73.0147C263.816 73.0147 263.637 72.9507 263.377 72.8277C263.098 72.6947 262.859 72.6209 262.659 72.6012C262.4 74.3195 262.265 76.0033 262.265 77.6576C262.265 78.3912 262.35 79.6221 262.514 81.3404C263.507 81.4438 264.3 81.4931 264.894 81.4931C265.952 81.4931 266.795 81.306 267.414 80.9367C267.593 80.7152 267.728 80.277 267.823 79.6369C267.883 79.2135 267.938 78.9476 267.993 78.8393C268.082 78.6571 268.252 78.5685 268.496 78.5685C268.921 78.5783 269.135 78.8738 269.135 79.4646Z" fill="white"/>
</svg>
