<svg width="195" height="48" viewBox="0 0 195 48" fill="none" xmlns="http://www.w3.org/2000/svg">
<g clip-path="url(#clip0_5474_14872)">
<path d="M66.7885 28.3012H62.4091V15.3506H58.4741V28.3012H54.0956V15.3506H50.2158V31.5944H70.6682V15.3506H66.7885V28.3012ZM103.367 16.1741C102.203 15.4602 100.707 15.1313 98.9889 15.1313C97.2147 15.1313 95.7184 15.4602 94.5543 16.1741C93.3902 16.8327 92.5039 17.8202 91.9491 19.0822C91.3951 20.2898 91.1181 21.7711 91.1181 23.4172C91.1181 25.0642 91.3951 26.5455 91.9491 27.8083C92.5039 29.0703 93.3902 30.0578 94.5543 30.7709C95.7184 31.4847 97.2147 31.8136 98.9328 31.8136C100.707 31.8136 102.203 31.4847 103.311 30.7717C104.475 30.0578 105.307 29.0703 105.861 27.8627C106.415 26.6007 106.692 25.1738 106.692 23.4725C106.692 21.8263 106.415 20.3451 105.861 19.1375C105.383 17.8998 104.505 16.857 103.367 16.1741ZM102.702 23.4725C102.702 25.0642 102.425 26.3262 101.815 27.2049C101.261 28.082 100.319 28.4661 98.9889 28.4661C97.6583 28.4661 96.7712 28.0276 96.1619 27.2041C95.5518 26.3262 95.2748 25.0642 95.2748 23.4725C95.2748 21.8816 95.5518 20.6187 96.1619 19.7409C96.7159 18.863 97.6583 18.4236 98.9889 18.4236C100.319 18.4236 101.261 18.863 101.815 19.6865C102.37 20.6187 102.702 21.8816 102.702 23.4725ZM111.238 27.2041C111.127 27.8067 110.573 28.2469 109.964 28.2469H108.467V31.5391H111.293C112.956 31.5391 114.397 30.3867 114.674 28.7406L116.559 18.6429H119.94V31.5944H123.82V15.3506H113.455L111.238 27.2041ZM156.52 16.1741C155.357 15.4602 153.916 15.1313 152.141 15.1313C150.368 15.1313 148.872 15.4602 147.708 16.1741C146.543 16.8327 145.656 17.8202 145.102 19.0822C144.548 20.2898 144.271 21.7711 144.271 23.4172C144.271 25.0642 144.548 26.5455 145.102 27.8083C145.656 29.0703 146.543 30.0578 147.708 30.7709C148.872 31.4847 150.368 31.8136 152.086 31.8136C153.859 31.8136 155.357 31.4847 156.465 30.7717C157.629 30.0578 158.46 29.0703 159.015 27.8627C159.569 26.6007 159.846 25.1738 159.846 23.4725C159.846 21.8263 159.569 20.3451 159.015 19.1375C158.571 17.8755 157.684 16.8871 156.52 16.1741ZM155.855 23.4725C155.855 25.0642 155.578 26.3262 154.968 27.2049C154.414 28.082 153.472 28.4661 152.141 28.4661C150.812 28.4661 149.924 28.0276 149.315 27.2041C148.705 26.3262 148.428 25.0642 148.428 23.4725C148.428 21.8816 148.705 20.6187 149.315 19.7409C149.924 18.863 150.812 18.4788 152.141 18.4788C153.472 18.4788 154.414 18.9182 154.968 19.7409C155.578 20.6196 155.855 21.8816 155.855 23.4733V23.4725ZM174.314 23.4172C174.093 23.2524 173.816 23.1428 173.539 23.0331C174.037 22.8139 174.425 22.4841 174.758 22.0456C175.201 21.387 175.422 20.5643 175.422 19.6304C175.422 18.0395 174.813 16.9415 173.649 16.2829C172.54 15.6803 170.878 15.3506 168.716 15.3506H163.506V31.5944H169.714C171.599 31.5944 173.04 31.155 174.148 30.3315C175.257 29.4536 175.811 28.3012 175.811 26.7647C175.811 25.886 175.7 25.173 175.422 24.6793C175.145 24.1311 174.813 23.6917 174.314 23.4172ZM167.497 24.7897H169.326C170.323 24.7897 170.989 24.9538 171.321 25.2835C171.654 25.5571 171.82 25.9965 171.82 26.4903C171.82 27.0392 171.654 27.533 171.321 27.8627C170.989 28.1916 170.323 28.3565 169.437 28.3565H167.497V24.7897ZM170.989 21.1669C170.656 21.4414 170.046 21.5519 169.159 21.5519H167.497V18.6429H168.993C169.88 18.6429 170.545 18.7525 170.933 18.9726C171.266 19.1919 171.487 19.5208 171.487 20.0145C171.487 20.5635 171.321 20.9476 170.989 21.1669ZM194.212 19.1383C193.658 17.8763 192.771 16.8879 191.663 16.2293C190.499 15.5163 189.058 15.1866 187.283 15.1866C185.51 15.1866 184.014 15.5163 182.85 16.2293C181.686 16.8879 180.799 17.8763 180.244 19.1383C179.69 20.3451 179.413 21.8272 179.413 23.4733C179.413 25.1195 179.69 26.6016 180.244 27.8636C180.799 29.1256 181.686 30.1131 182.85 30.8261C184.014 31.54 185.51 31.8697 187.228 31.8697C189.002 31.8697 190.499 31.54 191.607 30.8269C192.771 30.1131 193.603 29.1256 194.157 27.918C194.711 26.656 194.988 25.2291 194.988 23.5286C195.044 21.8272 194.766 20.3451 194.212 19.1383ZM190.942 23.4733C190.942 25.0651 190.664 26.3271 190.055 27.2049C189.501 28.0837 188.559 28.467 187.228 28.467C185.898 28.467 185.011 28.0284 184.401 27.2049C183.792 26.3262 183.515 25.0651 183.515 23.4733C183.515 21.8816 183.792 20.6196 184.401 19.7417C185.011 18.863 185.898 18.4797 187.228 18.4797C188.559 18.4797 189.501 18.9182 190.055 19.7417C190.664 20.6204 190.942 21.8816 190.942 23.4733ZM89.015 15.3506H85.08L81.6438 21.5519H79.0939V15.3506H75.1589V31.5944H79.0939V25.3931H81.8648L85.4675 31.5944H89.9573L84.803 23.1428L89.015 15.3506ZM142.168 15.3506H138.232L134.796 21.5519H132.191V15.3506H128.311V31.5944H132.191V25.3931H135.018L138.621 31.5944H143.111L137.955 23.1428L142.168 15.3506Z" fill="white"/>
<path opacity="0.4" d="M10.9464 25.3696L4.87988 31.3993L8.86592 35.3494L14.9132 29.3381L10.9464 25.3696Z" fill="#0399E9"/>
<path opacity="0.2" d="M8.50001 22.9214L0.0458984 31.378L4.87969 31.3973L10.9462 25.3676L8.50001 22.9214Z" fill="#0399E9"/>
<path opacity="0.6" d="M8.88253 40.2224L17.3358 31.7658L14.9097 29.3389L8.86328 35.3485L8.88253 40.2224Z" fill="#0399E9"/>
<path fill-rule="evenodd" clip-rule="evenodd" d="M24.1158 21.9036L18.3581 16.1443C17.9488 15.737 17.3949 15.5083 16.8174 15.5083C16.24 15.5083 15.686 15.737 15.2767 16.1443L8.49805 22.9255L17.3371 31.767L24.1158 24.9858C24.5228 24.5762 24.7511 24.0222 24.7511 23.4447C24.7511 22.8673 24.5228 22.3133 24.1158 21.9036ZM15.45 24.7934L15.4307 20.3822L19.8603 24.8126L15.45 24.7934Z" fill="#0399E9"/>
<path d="M33.4781 8.1397L32.1106 6.77225L27.5287 11.3567L28.8953 12.7241L33.4781 8.1397ZM33.458 38.8689L28.8744 34.2845L27.507 35.652L32.0905 40.2372L33.458 38.8689ZM5.95492 11.3567L1.3722 6.77309L0.00390625 8.1397L4.58747 12.7258L5.95492 11.3567ZM15.4761 11.7215H17.4092V6.76221H15.4761V11.7215ZM28.5162 22.8503V24.7843H33.473V22.8503H28.5162ZM0.00390625 40.2372V35.9273L4.31046 40.2372H0.00390625Z" fill="#0399E9"/>
</g>
<defs>
<clipPath id="clip0_5474_14872">
<rect width="195" height="33.475" fill="white" transform="translate(0 6.76221)"/>
</clipPath>
</defs>
</svg>
