<svg width="90" height="66" viewBox="0 0 90 66" fill="none" xmlns="http://www.w3.org/2000/svg">
<g clip-path="url(#clip0_6823_4079)">
<path d="M48.6652 20.6921C53.4036 20.5431 58.7679 24.6557 56.9053 31.808C56.3688 33.909 55.3556 35.8461 54.3424 37.7087C54.1934 37.8577 54.104 38.1706 53.8059 38.0961C53.5675 38.0961 53.493 37.7832 53.4185 37.6342C52.5394 35.1458 50.9897 33.2087 48.7546 31.808C48.3672 31.5696 48.2927 31.2716 48.2927 30.7948C48.2927 27.457 47.0559 24.6557 44.5675 22.4057C43.9417 21.8693 44.0311 21.7054 44.8059 21.3925C46.0278 20.9305 47.339 20.6176 48.6652 20.6921Z" fill="#38B7B7"/>
<path d="M37.014 20.6919C38.4147 20.6174 39.726 21.0048 41.0521 21.3922C41.5885 21.6306 41.827 21.8541 41.2011 22.331C38.6382 24.6555 37.4015 27.5313 37.4015 30.9435C37.4015 31.2565 37.327 31.5694 37.014 31.7184C34.7342 33.1637 33.1548 35.1604 32.2756 37.6935C32.0372 38.23 31.7392 38.3194 31.5008 37.8426C29.9511 35.1306 28.625 32.4038 28.5505 29.2151C28.4611 24.268 32.0372 20.6919 37.014 20.6919Z" fill="#38B7B7"/>
<path d="M34.7487 41.6722C36.9987 41.9851 39.1742 42.0596 41.0368 41.1357C42.4375 40.4354 43.5252 40.5993 44.8365 41.2102C46.5501 41.9851 48.4872 42.0596 50.4242 41.7467C50.6627 41.6722 50.8117 41.5977 50.9607 41.7467C51.1097 41.9851 50.9607 42.1341 50.8117 42.2831C48.5617 44.846 46.1478 47.0215 43.2719 48.8841C42.8845 49.1225 42.5716 49.0331 42.2587 48.8096C39.3829 47.0215 37.0584 44.697 34.7935 42.2831C34.6444 42.1341 34.4805 41.9702 34.6444 41.7467C34.6742 41.6722 34.8382 41.6722 34.7487 41.6722Z" fill="#38B7B7"/>
<path d="M43.1523 18.6057C43.2268 16.1918 43.1523 16.1173 45.4023 15.7299C49.7533 14.8806 53.7914 15.5809 57.4421 18.3673C58.2169 18.9932 58.2169 18.9932 57.4421 19.6935C56.8162 20.3193 56.2053 20.7812 55.654 21.4071C55.2666 21.7945 54.9537 21.7945 54.5663 21.4816C51.303 19.1571 47.8908 18.9187 44.2401 20.3938C43.1523 20.8557 43.1523 20.8557 43.1523 19.6935C43.1523 19.321 43.1523 18.9634 43.1523 18.6057Z" fill="#38B7B7"/>
<path d="M42.4511 18.5163C42.4511 19.0528 42.4511 19.6041 42.4511 20.066C42.5256 20.7663 42.3021 20.7663 41.7507 20.5279C38.0256 18.9037 34.4494 19.0528 31.1117 21.5412C30.7987 21.7796 30.5752 21.7796 30.2623 21.4667C29.5322 20.7961 28.817 20.1405 28.0868 19.5296C27.6249 19.0677 27.6994 18.8292 28.1613 18.4418C30.5752 16.5792 33.2872 15.4915 36.4014 15.417C38.1895 15.417 39.9775 15.566 41.7656 16.1173C42.3915 16.2663 42.615 16.5047 42.5405 17.1306C42.466 17.5925 42.5405 18.0693 42.5405 18.5312C42.466 18.5163 42.4511 18.5163 42.4511 18.5163Z" fill="#38B7B7"/>
<path d="M42.7654 55.1125C42.6164 55.1125 42.3779 54.9635 42.2289 54.8741C40.5154 53.8608 38.8167 52.937 37.2521 51.7598C36.7902 51.3724 36.6263 51.134 36.8647 50.5976C37.2521 49.6588 37.565 48.735 37.9525 47.7963C38.1015 47.2598 38.4144 47.2598 38.8018 47.6472C39.8895 48.586 41.0518 49.3608 42.3034 50.1357C42.6909 50.3741 43.0038 50.3741 43.4657 50.1357C44.628 49.3608 45.7902 48.6605 46.8034 47.7218C47.3399 47.1853 47.6528 47.3343 47.8912 48.0347C48.2041 48.9138 48.5319 49.7631 48.9044 50.5976C49.0534 50.985 48.9789 51.2979 48.666 51.6108C46.9525 52.937 45.0899 53.9353 43.2273 55.0231C43.0634 55.1125 42.9144 55.038 42.7654 55.1125Z" fill="#38B7B7"/>
<path d="M23.259 29.0068C23.1845 25.5946 24.2723 22.6294 26.5223 20.0664C26.9097 19.53 27.2226 19.53 27.6845 19.9919C28.3104 20.5582 28.9511 21.1244 29.6216 21.7055C30.0835 22.0929 30.0835 22.3314 29.6961 22.7933C27.5206 25.1178 26.9842 27.8446 27.5206 30.9439C27.759 31.9572 27.759 31.9572 26.6713 31.8827C25.8965 31.8082 25.0471 31.6443 24.2574 31.7337C23.5571 31.7337 23.2441 31.4208 23.2441 30.7949C23.259 30.1691 23.259 29.5731 23.259 29.0068Z" fill="#38B7B7"/>
<path d="M62.3288 28.7829C62.3288 29.0958 62.3288 29.2448 62.3288 29.4087C62.3288 31.6587 62.3288 31.6587 60.1533 31.8226C59.453 31.8971 58.6781 32.2845 58.2162 31.8971C57.8288 31.5097 58.2907 30.7349 58.3652 30.109C58.6781 27.3077 57.9033 24.8193 55.9513 22.8077C55.5639 22.4203 55.6384 22.1074 56.0258 21.7945C56.6516 21.258 57.352 20.6322 57.9629 20.0064C58.4993 19.47 58.8122 19.619 59.289 20.1554C61.4049 22.7183 62.5672 25.5941 62.3288 28.7829Z" fill="#38B7B7"/>
<path d="M42.9873 30.0943C41.6612 30.0943 40.4989 30.1688 39.3367 30.6307C38.6363 30.9437 38.5618 30.6307 38.6363 30.0943C38.8748 27.144 40.037 24.7301 42.287 22.8675C42.6744 22.5546 42.9873 22.5546 43.3748 22.8675C45.6546 24.7301 46.8764 27.1589 47.0254 30.1688C47.0999 30.7052 46.9509 30.8692 46.3251 30.6307C45.2373 30.2582 44.0751 30.0198 42.9873 30.0943Z" fill="#38B7B7"/>
<path d="M31.7242 40.5843C32.0372 40.5098 32.1862 40.7333 32.2607 40.8972C33.7358 42.9237 35.4494 44.6224 37.2375 46.3359C37.5504 46.5744 37.6994 46.8724 37.4759 47.2747C37.1183 48.2134 36.7458 49.1671 36.3881 50.1505C36.2391 50.6869 36.0007 50.8509 35.5388 50.3889C33.0504 48.2134 30.8004 45.8293 28.7739 43.2366C28.461 42.7747 28.3865 42.4618 28.9229 42.1489C29.6978 41.7614 30.4726 41.2101 31.1729 40.8227C31.4113 40.7333 31.5007 40.5098 31.7242 40.5843Z" fill="#38B7B7"/>
<path d="M57.2789 42.6857C57.1746 42.8347 57.0404 42.9986 56.8914 43.1476C54.9246 45.7403 52.7193 48.1244 50.2904 50.2999C49.754 50.7618 49.5156 50.6873 49.2772 50.0615C48.8898 48.9737 48.1895 47.886 48.1895 46.8728C48.264 45.785 49.6646 45.3231 50.365 44.5483C51.4527 43.4605 52.3914 42.2983 53.2408 41.0466C53.6282 40.5102 53.9411 40.3463 54.5669 40.7337C55.2673 41.2701 56.0421 41.6724 56.8169 42.1343C56.9808 42.2982 57.2789 42.3728 57.2789 42.6857Z" fill="#38B7B7"/>
<path d="M42.8399 31.346C44.0767 31.2715 45.1644 31.495 46.2522 31.8824C46.7141 32.0314 46.9525 32.2698 46.7886 32.8211C46.3267 35.1457 45.075 37.0976 43.287 38.5728C42.974 38.8857 42.6611 38.8112 42.3482 38.5728C40.4856 37.0231 39.3234 35.0711 38.7721 32.7466C38.6976 32.2847 38.9211 32.0463 39.3085 31.8973C40.5005 31.5695 41.6777 31.1821 42.8399 31.346Z" fill="#38B7B7"/>
<path d="M24.2726 32.3444C25.2858 32.4189 26.2991 32.5828 27.2229 32.6573C27.7593 32.6573 27.9977 32.8957 28.1616 33.3577C28.7875 35.4587 29.8752 37.4703 31.112 39.2583C31.4249 39.7203 31.4249 39.9587 30.963 40.2716C30.1285 40.7335 29.3537 41.2103 28.6385 41.6722C28.1765 41.9852 27.8636 41.9107 27.5507 41.4338C25.8371 38.7964 24.4365 35.9951 23.6616 32.9703C23.4977 32.1954 23.8852 32.2699 24.2726 32.3444Z" fill="#38B7B7"/>
<path d="M62.1064 32.5827C61.9574 33.2831 61.7935 33.8195 61.6445 34.4453C60.7951 36.9337 59.618 39.1837 58.1428 41.3592C57.8299 41.8957 57.6064 41.9851 57.055 41.6721C56.2802 41.1357 55.5054 40.6589 54.7305 40.197C54.3431 39.9586 54.2686 39.7351 54.4921 39.3476C55.8928 37.4106 56.9805 35.3841 57.6809 33.1341C57.7554 32.8212 57.9938 32.7466 58.3067 32.6721C59.3945 32.5678 60.512 32.4635 61.6445 32.3592C61.868 32.3443 62.1064 32.2698 62.1064 32.5827Z" fill="#38B7B7"/>
<path d="M48.5909 40.7334C47.1902 40.6589 45.879 40.4205 44.5528 39.884C44.0909 39.6456 44.0164 39.4221 44.4038 39.0347C46.2664 37.485 47.4584 35.533 47.9799 33.2085C48.0545 32.8211 48.2929 32.8211 48.6058 33.0595C50.8558 34.6092 52.1819 36.7847 52.7184 39.437C52.8674 39.8244 52.5694 39.9734 52.2564 40.0628C50.9899 40.5099 49.7531 40.6589 48.5909 40.7334Z" fill="#38B7B7"/>
<path d="M36.9381 40.7336C35.8503 40.6591 34.6881 40.4951 33.5258 40.1077C33.0639 39.9587 32.9 39.7203 33.0639 39.2584C33.6003 36.77 34.852 34.669 36.953 33.1938C37.3404 32.8809 37.6533 32.8809 37.8023 33.5067C38.3685 35.7269 39.5308 37.6044 41.304 39.0945C41.7659 39.4819 41.5424 39.7203 41.155 39.8693C39.799 40.4355 38.4877 40.6591 36.9381 40.7336Z" fill="#38B7B7"/>
<path d="M43.1514 65.4835C25.2408 65.4835 10.668 50.9106 10.668 33C10.668 15.0894 25.2408 0.516602 43.1514 0.516602C61.062 0.516602 75.6349 15.0894 75.6349 33C75.6349 50.9106 61.062 65.4835 43.1514 65.4835ZM43.1514 1.87256C25.9858 1.87256 12.0239 15.8345 12.0239 33C12.0239 50.1656 25.9858 64.1275 43.1514 64.1275C60.317 64.1275 74.2789 50.1656 74.2789 33C74.2789 15.8345 60.3021 1.87256 43.1514 1.87256Z" fill="#38B7B7"/>
</g>
<defs>
<clipPath id="clip0_6823_4079">
<rect width="90" height="64.9669" fill="white" transform="translate(0 0.516602)"/>
</clipPath>
</defs>
</svg>
