<svg width="91" height="48" viewBox="0 0 91 48" fill="none" xmlns="http://www.w3.org/2000/svg">
<g clip-path="url(#clip0_6014_9447)">
<path fill-rule="evenodd" clip-rule="evenodd" d="M15.5625 38.4953V27.6849C15.5625 26.4177 16.5905 25.3896 17.8578 25.3896H71.4246C72.6918 25.3896 73.7198 26.4177 73.7198 27.6849V38.4953C73.7198 39.7625 72.6918 40.7905 71.4246 40.7905H17.8578C16.5905 40.7905 15.5625 39.7625 15.5625 38.4953ZM25.3901 28.9974C20.3147 25.3961 16.3772 33.0901 25.3901 38.172C35.056 32.4371 29.6509 25.3961 25.3901 28.9974ZM38.0043 28.9974C32.9289 25.3961 28.9914 33.0901 38.0043 38.172C47.6703 32.4371 42.2651 25.3961 38.0043 28.9974ZM51.1099 28.9974C46.0345 25.3961 42.097 33.0901 51.1099 38.172C60.7759 32.4371 55.3707 25.3961 51.1099 28.9974ZM64.0539 28.9974C58.972 25.3961 55.0409 33.0901 64.0539 38.172C73.7198 32.4371 68.3147 25.3961 64.0539 28.9974Z" fill="#F16A51"/>
<path d="M25.3904 28.9978C20.315 25.3965 16.3775 33.0904 25.3904 38.1723C35.0564 32.4374 29.6512 25.3965 25.3904 28.9978Z" fill="white"/>
<path d="M38.0056 28.9978C32.9302 25.3965 28.9927 33.0904 38.0056 38.1723C47.6716 32.4374 42.2664 25.3965 38.0056 28.9978Z" fill="white"/>
<path d="M51.1111 28.9978C46.0357 25.3965 42.0982 33.0904 51.1111 38.1723C60.7771 32.4374 55.3719 25.3965 51.1111 28.9978Z" fill="white"/>
<path d="M64.0546 28.9978C58.9727 25.3965 55.0417 33.0904 64.0546 38.1723C73.7205 32.4374 68.3154 25.3965 64.0546 28.9978Z" fill="white"/>
<path d="M76.9021 9.77L70.1133 0.000606143H76.0228C76.9344 0.000606143 77.7749 0.472589 78.2534 1.24199L80.9236 5.56742L82.4107 1.68164C82.7986 0.666554 83.7749 -0.00585938 84.8611 -0.00585938H90.0982L84.1628 9.92518C83.4322 11.1472 83.0508 12.5372 83.0508 13.9597V23.2571H78.2986V14.2506C78.2986 12.6472 77.8072 11.0825 76.8956 9.76354L76.9021 9.77Z" fill="#F7A324"/>
<path fill-rule="evenodd" clip-rule="evenodd" d="M0 47.6703V25.0669H13.2672V35.8772H11.3017V37.3514H13.2672V47.6703H0ZM6.05819 30.304V35.8708C6.71121 36.2522 8.02371 36.2005 8.02371 32.9225C8.02371 29.6445 6.71121 29.8126 6.05819 30.304ZM6.05819 42.5884V38.166C6.71121 37.8945 8.02371 37.9721 8.02371 40.4613C8.02371 42.9505 6.71121 42.9182 6.05819 42.5884Z" fill="#7CCBB7"/>
<path d="M76.3379 36.039V25.0605H82.2344V36.039H84.3616V25.0605H89.9284V36.039H87.4715V37.6748H89.9284V47.9937H84.3616V37.6748H82.2344V47.9937H76.3379V37.6748H78.6332V36.039H76.3379Z" fill="#EADB2E"/>
<path d="M0 0.161621H20.6379V5.07541H6.22629V18.0194H20.6444V23.0948H0V0.161621Z" fill="#EADB2E"/>
<path fill-rule="evenodd" clip-rule="evenodd" d="M8.19141 8.35303V15.2323C8.19141 15.9565 8.77977 16.5448 9.50391 16.5448H19.0082C19.7324 16.5448 20.3207 15.9565 20.3207 15.2323V8.35303C20.3207 7.62889 19.7324 7.04053 19.0082 7.04053H9.50391C8.77977 7.04053 8.19141 7.62889 8.19141 8.35303ZM13.2668 13.9198C12.5427 13.9198 11.9543 13.3315 11.9543 12.6073V11.4629C11.9543 10.7388 12.5427 10.1504 13.2668 10.1504H15.5621C16.2862 10.1504 16.8746 10.7388 16.8746 11.4629V12.6073C16.8746 13.3315 16.2862 13.9198 15.5621 13.9198H13.2668Z" fill="#7CCBB7"/>
<path fill-rule="evenodd" clip-rule="evenodd" d="M8.19141 8.35303V15.2323C8.19141 15.9565 8.77977 16.5448 9.50391 16.5448H19.0082C19.7324 16.5448 20.3207 15.9565 20.3207 15.2323V8.35303C20.3207 7.62889 19.7324 7.04053 19.0082 7.04053H9.50391C8.77977 7.04053 8.19141 7.62889 8.19141 8.35303ZM13.2668 13.9198C12.5427 13.9198 11.9543 13.3315 11.9543 12.6073V11.4629C11.9543 10.7388 12.5427 10.1504 13.2668 10.1504H15.5621C16.2862 10.1504 16.8746 10.7388 16.8746 11.4629V12.6073C16.8746 13.3315 16.2862 13.9198 15.5621 13.9198H13.2668Z" fill="#7CCBB7"/>
<path d="M23.2623 22.2802V1.14438C23.2623 0.601276 23.702 0.161621 24.2451 0.161621H28.1761C28.7192 0.161621 29.1589 0.601276 29.1589 1.14438V17.1142C29.1589 17.6121 29.5597 18.0129 30.0576 18.0129C30.5554 18.0129 30.9563 17.6121 30.9563 17.1142V1.14438C30.9563 0.601276 31.3959 0.161621 31.939 0.161621H35.8701C36.4132 0.161621 36.8528 0.601276 36.8528 1.14438V22.2737C36.8528 22.8168 36.4132 23.2564 35.8701 23.2564H24.2386C23.6955 23.2564 23.2559 22.8168 23.2559 22.2737L23.2623 22.2802Z" fill="#F7A324"/>
<path d="M38.8262 23.2629V0.161621L43.0029 8.51507L45.9382 14.3858C46.2486 15.0064 47.1796 14.7866 47.1796 14.0948V6.71119C49.5331 6.71119 51.4404 8.61852 51.4404 10.972V23.2564H47.6322C47.3477 23.2564 47.0697 23.1336 46.8887 22.9138L43.8305 19.3448C43.6301 19.1121 43.2551 19.2543 43.2551 19.5582V22.2737C43.2551 22.8168 42.8154 23.2564 42.2723 23.2564H38.8326L38.8262 23.2629Z" fill="#7CCBB7"/>
<path d="M54.5325 4.58403H51.4419C48.998 4.58403 47.0195 2.60559 47.0195 0.161621H66.5131C66.5131 2.60559 64.5346 4.58403 62.0907 4.58403H59.6402C59.5432 4.58403 59.4721 4.66162 59.4721 4.75214V23.2564H54.72V4.77153C54.72 4.66809 54.6359 4.58403 54.5325 4.58403Z" fill="#EADB2E"/>
<path fill-rule="evenodd" clip-rule="evenodd" d="M62.4121 7.37061V23.2628H65.4444C66.0199 23.2628 66.466 22.7779 66.4272 22.2025L66.1815 19.0021L68.6772 22.8167C68.8582 23.0947 69.1686 23.2628 69.4983 23.2628H73.8819L68.3798 15.9245C68.2181 15.7111 68.3733 15.4008 68.6449 15.4008H70.2806C71.1858 15.4008 71.9164 14.6702 71.9164 13.765V9.01285C71.9164 8.10767 71.1858 7.37707 70.2806 7.37707H62.4186L62.4121 7.37061ZM66.0134 12.9374C65.6513 12.9374 65.3604 12.6465 65.3604 12.2844V10.4805C65.3604 10.1185 65.6513 9.8275 66.0134 9.8275H68.9617C69.3238 9.8275 69.6147 10.1185 69.6147 10.4805V12.2844C69.6147 12.6465 69.3238 12.9374 68.9617 12.9374H66.0134Z" fill="#7CCBB7"/>
<path d="M73.7158 42.7563H15.7266V47.9999H73.7158V42.7563Z" fill="#F7A324"/>
</g>
<defs>
<clipPath id="clip0_6014_9447">
<rect width="90.097" height="48" fill="white"/>
</clipPath>
</defs>
</svg>
