<svg width="212" height="49" viewBox="0 0 212 49" fill="none" xmlns="http://www.w3.org/2000/svg">
<mask id="mask0_7842_2764" style="mask-type:luminance" maskUnits="userSpaceOnUse" x="-27" y="-18" width="274" height="84">
<path d="M246.782 -17.1885H-26.9727V65.8429H246.782V-17.1885Z" fill="white"/>
</mask>
<g mask="url(#mask0_7842_2764)">
<path d="M170.099 9.3568C169.995 8.70904 169.865 8.58594 169.658 8.58594H148.445C145.162 8.58594 142.606 8.98755 142.496 9.49281L136.398 43.462C136.365 43.6496 136.586 43.7987 136.82 43.8764C137.533 44.1292 139.051 44.4531 142.418 44.4531H163.06C163.255 44.4531 163.43 44.2717 163.573 44.0515C164.186 42.8618 164.59 41.5755 164.766 40.249C165.039 39.0295 165.125 37.7758 165.02 36.5308C164.909 35.8182 164.766 35.7211 164.552 35.7211H149.722L150.728 30.1567H162.905C163.086 30.1567 163.255 29.9819 163.385 29.7745C163.974 28.6434 164.361 27.4178 164.526 26.1534C164.784 24.9955 164.865 23.8052 164.766 22.6232C164.656 21.9754 164.526 21.8523 164.319 21.8523H152.227L153.122 16.8839H168.237C168.425 16.8839 168.594 16.709 168.724 16.5017C169.314 15.3731 169.7 14.1496 169.865 12.8871C170.123 11.729 170.202 10.5386 170.099 9.3568Z" fill="white"/>
<path d="M18.1873 44.8033C17.0454 44.9262 15.9036 45.0299 14.7555 45.0818C14.7555 45.0818 0.35377 38.8048 0.528929 25.3184C0.658677 14.8503 5.54371 11.7928 5.54371 11.7928C7.94172 12.8638 10.1195 14.3707 11.966 16.2365C13.4586 17.8902 14.692 19.7597 15.6249 21.7816C16.9103 16.5875 19.827 11.9409 23.9479 8.52158C34.2172 -0.767457 45.3168 0.0163412 45.3168 0.0163412C46.8911 4.04809 47.7135 8.33351 47.743 12.6608C47.9246 29.7101 37.5645 42.0243 21.4437 44.4015C20.3604 44.5634 19.2706 44.706 18.2001 44.8291" fill="white"/>
</g>
<mask id="mask1_7842_2764" style="mask-type:luminance" maskUnits="userSpaceOnUse" x="3" y="7" width="39" height="38">
<path d="M16.4609 23.6339C15.6181 25.5701 14.9282 27.569 14.3977 29.6127C14.3977 29.6904 14.3589 29.7618 14.3329 29.8395C14.1578 30.3576 14.0604 30.5261 14.0087 30.4873C13.9567 30.4485 14.067 28.7382 14.2032 27.8248C14.3783 26.6072 14.5794 25.5189 14.8001 24.4953C12.7766 21.5195 10.0317 19.1037 6.82072 17.4735C5.38564 19.6941 4.44597 22.1974 4.066 24.8129C3.68597 27.4286 3.87451 30.0953 4.61858 32.6314C5.36266 35.1679 6.6451 37.5147 8.37836 39.512C10.1116 41.5095 12.2555 43.1106 14.6639 44.207C15.4632 44.2114 16.2623 44.1726 17.0575 44.0905C21.1513 43.5647 25.0815 42.1551 28.5749 39.9601C32.0682 37.7648 35.0409 34.8363 37.2868 31.3785C39.5325 27.9205 40.9974 24.0157 41.5795 19.9354C42.1619 15.8551 41.8473 11.6972 40.6582 7.75049C35.5673 7.98129 30.6331 9.57835 26.3746 12.3736C22.1164 15.1688 18.6915 19.0586 16.4609 23.6339Z" fill="white"/>
</mask>
<g mask="url(#mask1_7842_2764)">
<path d="M41.8642 7.74463H3.875V44.2207H41.8642V7.74463Z" fill="url(#paint0_linear_7842_2764)"/>
</g>
<mask id="mask2_7842_2764" style="mask-type:luminance" maskUnits="userSpaceOnUse" x="13" y="7" width="29" height="38">
<path d="M16.4619 23.6339C15.6191 25.5701 14.9292 27.569 14.399 29.6127C14.399 29.6904 14.3599 29.7618 14.3342 29.8395C14.1589 30.3576 14.0617 30.5261 14.0098 30.4873C13.0846 35.0437 13.3073 39.7582 14.6584 44.207C15.458 44.2114 16.257 44.1726 17.0523 44.0905C21.1461 43.5647 25.0763 42.1551 28.5696 39.9601C32.0629 37.7648 35.0357 34.8363 37.2813 31.3785C39.5272 27.9205 40.9921 24.0157 41.5743 19.9354C42.1564 15.8551 41.8421 11.6972 40.6529 7.75049C35.562 7.98129 30.6279 9.57835 26.3694 12.3736C22.1109 15.1688 18.6862 19.0586 16.4554 23.6339" fill="white"/>
</mask>
<g mask="url(#mask2_7842_2764)">
<path d="M40.2605 1.07129L4.34375 9.76764L14.3292 50.8883L50.2462 42.1919L40.2605 1.07129Z" fill="url(#paint1_linear_7842_2764)"/>
</g>
<mask id="mask3_7842_2764" style="mask-type:luminance" maskUnits="userSpaceOnUse" x="3" y="17" width="12" height="28">
<path d="M3.87501 27.4366C3.87118 30.9695 4.88663 34.4287 6.79989 37.4006C8.71288 40.3723 11.443 42.7312 14.6633 44.1944C13.3122 39.7456 13.0893 35.0311 14.0144 30.4747C13.8719 30.3644 14.073 28.7258 14.2092 27.8124C14.3843 26.5945 14.5853 25.5063 14.8058 24.4827C12.7826 21.5069 10.0374 19.0911 6.8267 17.4609C4.89648 20.4307 3.87091 23.8962 3.87501 27.4366Z" fill="white"/>
</mask>
<g mask="url(#mask3_7842_2764)">
<path d="M14.0675 14.6875L-2.91406 19.3295L4.66723 46.9824L21.6489 42.3404L14.0675 14.6875Z" fill="url(#paint2_linear_7842_2764)"/>
</g>
<mask id="mask4_7842_2764" style="mask-type:luminance" maskUnits="userSpaceOnUse" x="-27" y="-18" width="274" height="84">
<path d="M246.782 -17.1885H-26.9727V65.8429H246.782V-17.1885Z" fill="white"/>
</mask>
<g mask="url(#mask4_7842_2764)">
<path d="M210.471 9.07809C209.822 8.84491 207.98 8.55989 204.762 8.55989C203.046 8.51399 201.331 8.69699 199.663 9.10402C199.506 9.1493 199.361 9.23147 199.242 9.34371L184.6 27.4359L184.937 26.0561L187.909 9.55099C187.947 9.26597 187.604 9.16234 187.318 9.06518C186.669 8.83197 184.827 8.54695 181.609 8.54695C179.893 8.50105 178.178 8.68403 176.51 9.09105C176.251 9.18174 176.017 9.28539 175.965 9.57041L169.887 43.3452C169.835 43.6237 169.958 43.7014 170.159 43.7988C171.003 44.2004 173.364 44.4463 175.68 44.4463C178.697 44.4463 180.727 44.1484 181.415 43.8439C181.531 43.8059 181.636 43.7391 181.72 43.6497L196.31 25.7322L195.979 27.0797L193.046 43.3518C192.995 43.6303 193.118 43.708 193.319 43.8051C194.162 44.2067 196.523 44.4529 198.839 44.4529C201.856 44.4529 203.887 44.155 204.574 43.8505C204.762 43.7662 204.905 43.708 204.957 43.5072L211.068 9.56393C211.107 9.27891 210.763 9.17526 210.478 9.07809" fill="white"/>
<path d="M119.043 43.3844C119.133 43.6046 119.166 43.6889 119.529 43.8443C120.068 44.0839 122.552 44.4532 125.932 44.4532C130.207 44.4532 132.283 44.0968 132.912 43.8637C133.243 43.7472 133.47 43.6369 133.353 43.3261L124.524 24.0548L137.895 9.73908C138.102 9.48645 138.031 9.36335 137.83 9.24028C137.097 8.7998 134.586 8.59249 131.667 8.59249C128.748 8.59249 126.75 8.85164 125.945 9.16904C125.723 9.25114 125.528 9.39227 125.381 9.57714L113.496 22.2474L115.76 9.56417C115.792 9.27915 115.455 9.1755 115.17 9.07833C114.521 8.84512 112.679 8.56013 109.461 8.56013C107.745 8.51423 106.03 8.69724 104.362 9.10427C104.103 9.19495 103.869 9.2986 103.817 9.58362L97.7385 43.3584C97.6865 43.6369 97.8099 43.7146 98.0109 43.812C98.8543 44.2136 101.216 44.4595 103.532 44.4595C106.548 44.4595 108.579 44.1616 109.266 43.8571C109.448 43.7729 109.597 43.7146 109.649 43.5138L112.523 27.5008L119.043 43.3844Z" fill="white"/>
<path d="M196.85 0.00327272C195.769 -0.0208824 194.689 0.112231 193.646 0.3984C193.341 0.502051 192.997 0.663969 192.997 0.88421L190.727 11.5076C190.727 11.5983 190.765 11.6566 190.869 11.7344C191.355 11.9393 191.88 12.0366 192.407 12.0194C192.932 12.0391 193.457 11.9779 193.964 11.838C194.15 11.7904 194.312 11.6749 194.418 11.5141L200.691 1.18865C200.742 1.09972 200.755 0.994701 200.73 0.895645C200.705 0.79659 200.642 0.711212 200.555 0.657486C200.185 0.32711 198.673 0.00970092 196.883 0.00970092" fill="white"/>
<path d="M100.922 0.00327272C99.8404 -0.0208824 98.7609 0.112231 97.7173 0.3984C97.4126 0.502051 97.0687 0.663969 97.0362 0.88421L94.7656 11.5076C94.7656 11.5983 94.8047 11.6566 94.9084 11.7344C95.3943 11.9393 95.9187 12.0366 96.4458 12.0194C96.9691 12.0399 97.4922 11.9787 97.9963 11.838C98.1856 11.7924 98.3503 11.6766 98.457 11.5141L104.73 1.18865C104.781 1.09972 104.795 0.994701 104.769 0.895645C104.744 0.79659 104.681 0.711212 104.594 0.657486C104.224 0.32711 102.712 0.00970092 100.922 0.00970092" fill="white"/>
<path d="M94.448 21.6067C94.9412 36.2721 83.0239 45.1143 71.4183 45.1143C61.7395 45.1143 55.6999 40.146 55.4015 31.252C54.9473 17.6488 65.0414 7.43994 78.3661 7.43994C89.3103 7.43994 94.1887 13.9177 94.448 21.6067ZM67.4675 30.0276C67.5844 33.409 68.9467 36.3889 73.053 36.3889C78.8916 36.3889 82.6607 29.7751 82.4273 22.7209C82.3039 19.1386 80.6886 16.2431 76.6342 16.2431C69.842 16.2431 67.2859 24.5928 67.4675 30.0602" fill="white"/>
</g>
<defs>
<linearGradient id="paint0_linear_7842_2764" x1="6.97988" y1="23.5543" x2="40.5774" y2="23.5543" gradientUnits="userSpaceOnUse">
<stop stop-color="#00A13A"/>
<stop offset="0.25" stop-color="#31AB31"/>
<stop offset="0.78" stop-color="#94C11F"/>
<stop offset="1" stop-color="#94C11F"/>
</linearGradient>
<linearGradient id="paint1_linear_7842_2764" x1="25.7026" y1="22.455" x2="31.0307" y2="44.4608" gradientUnits="userSpaceOnUse">
<stop stop-color="#00A13A"/>
<stop offset="0.25" stop-color="#31AB31"/>
<stop offset="0.78" stop-color="#94C11F"/>
<stop offset="1" stop-color="#94C11F"/>
</linearGradient>
<linearGradient id="paint2_linear_7842_2764" x1="4.14228" y1="20.6363" x2="10.6385" y2="44.4016" gradientUnits="userSpaceOnUse">
<stop stop-color="#00A13A"/>
<stop offset="0.25" stop-color="#31AB31"/>
<stop offset="0.78" stop-color="#94C11F"/>
<stop offset="1" stop-color="#94C11F"/>
</linearGradient>
</defs>
</svg>
