<svg width="94" height="56" viewBox="0 0 94 56" fill="none" xmlns="http://www.w3.org/2000/svg">
<mask id="mask0_4903_1767" style="mask-type:luminance" maskUnits="userSpaceOnUse" x="0" y="0" width="94" height="56">
<path d="M93.0185 0.0532227H0V56.0001H93.0185V0.0532227Z" fill="white"/>
</mask>
<g mask="url(#mask0_4903_1767)">
<path d="M0.908808 47.8218C1.51488 46.9978 2.34426 46.3527 3.39514 45.8849C4.44603 45.417 5.61033 45.1831 6.88805 45.1831C8.03641 45.1831 9.07312 45.3656 9.99818 45.7325C10.9232 46.0975 11.6835 46.6115 12.2754 47.2742C12.8673 47.9353 13.2607 48.7115 13.4557 49.5993H9.90071C9.76249 49.2289 9.52856 48.9082 9.19894 48.6335C8.87109 48.3606 8.50248 48.155 8.09489 48.015C7.68729 47.8768 7.29033 47.8059 6.90046 47.8059C6.35464 47.8059 5.82476 47.9175 5.31084 48.1391C4.79692 48.3606 4.38046 48.6831 4.06147 49.1049C3.74248 49.5267 3.58299 50.0246 3.58299 50.597C3.58299 51.1694 3.74071 51.6692 4.05438 52.0892C4.36983 52.511 4.77919 52.8299 5.28248 53.0479C5.78755 53.2659 6.32628 53.374 6.90046 53.374C7.53843 53.374 8.12856 53.2216 8.67084 52.915C9.21312 52.6102 9.61185 52.1742 9.87236 51.6089H13.4415C13.2377 52.4879 12.8389 53.2588 12.247 53.9216C11.6551 54.5826 10.9002 55.0948 9.984 55.4563C9.0678 55.8178 8.03464 55.9968 6.88805 55.9968C5.61919 55.9968 4.46021 55.7611 3.40932 55.2879C2.35843 54.8165 1.52729 54.1679 0.917668 53.3439C0.306276 52.5198 0.00146484 51.6036 0.00146484 50.5953C0.00146484 49.5869 0.304504 48.6423 0.91058 47.8183L0.908808 47.8218Z" fill="white"/>
<path d="M17.7465 49.0998H23.2313V45.4474H26.648V55.7223H23.2313V51.7935H17.7465V55.7223H14.3174V45.4474H17.7465V49.0998Z" fill="white"/>
<path d="M36.8661 45.4474H40.3661V50.7107C40.3661 51.7102 40.0879 52.6122 39.5332 53.4185C38.9785 54.2249 38.2271 54.8557 37.2843 55.3147C36.3398 55.7737 35.3084 56.0023 34.1884 56.0023C32.9851 56.0023 31.8917 55.7755 30.9117 55.3218C29.9299 54.8681 29.1555 54.2408 28.5866 53.4398C28.0178 52.6388 27.7271 51.7385 27.7183 50.739V45.4492H31.2732V50.739C31.2732 51.5808 31.5621 52.2011 32.1416 52.5998C32.7193 52.9985 33.4069 53.197 34.2043 53.197C34.6208 53.197 35.0319 53.1155 35.4395 52.9542C35.8471 52.793 36.1874 52.5254 36.4603 52.1568C36.7332 51.7864 36.8697 51.315 36.8697 50.7408V45.4509L36.8661 45.4474Z" fill="white"/>
<path d="M47.6406 50.1542L53.2371 55.7223H49.03L44.8637 51.4178V55.7223H41.4346V45.4474H44.8637V49.0165L48.7801 45.4474H53.0298L47.6424 50.1542H47.6406Z" fill="white"/>
<path d="M52.3263 47.8218C52.9324 46.9978 53.7617 46.3527 54.8126 45.8849C55.8635 45.417 57.0278 45.1831 58.3055 45.1831C59.4539 45.1831 60.4906 45.3656 61.4157 45.7325C62.3407 46.0975 63.101 46.6115 63.6929 47.2742C64.2848 47.9353 64.6782 48.7115 64.8731 49.5993H61.3182C61.18 49.2289 60.946 48.9082 60.6164 48.6335C60.2886 48.3606 59.92 48.155 59.5124 48.015C59.1048 47.8768 58.7078 47.8059 58.3179 47.8059C57.7721 47.8059 57.2422 47.9175 56.7283 48.1391C56.2144 48.3606 55.7979 48.6831 55.4789 49.1049C55.16 49.5267 55.0005 50.0246 55.0005 50.597C55.0005 51.1694 55.1582 51.6692 55.4719 52.0892C55.7873 52.511 56.1967 52.8299 56.7 53.0479C57.205 53.2659 57.7438 53.374 58.3179 53.374C58.9559 53.374 59.546 53.2216 60.0883 52.915C60.6306 52.6102 61.0293 52.1742 61.2898 51.6089H64.8589C64.6551 52.4879 64.2564 53.2588 63.6645 53.9216C63.0726 54.5826 62.3177 55.0948 61.4015 55.4563C60.4853 55.8178 59.4521 55.9968 58.3055 55.9968C57.0367 55.9968 55.8777 55.7611 54.8268 55.2879C53.7759 54.8165 52.9448 54.1679 52.3352 53.3439C51.7238 52.5198 51.4189 51.6036 51.4189 50.5953C51.4189 49.5869 51.722 48.6423 52.3281 47.8183L52.3263 47.8218Z" fill="white"/>
<path d="M69.1637 49.0998H74.6485V45.4474H78.0653V55.7223H74.6485V51.7935H69.1637V55.7223H65.7346V45.4474H69.1637V49.0998Z" fill="white"/>
<path d="M93.0185 55.7223H89.5611L88.6023 53.959H82.7844L81.8256 55.7223H78.3682L83.9363 45.4474H87.4487L93.0168 55.7223H93.0185ZM85.7013 48.5859L84.0355 51.6411H87.3547L85.7031 48.5859H85.7013Z" fill="white"/>
<path d="M55.4416 39.968L68.3375 40.0424C68.3783 40.0424 68.4066 40.0017 68.3907 39.9645C68.1089 39.3318 66.0692 34.9918 61.536 31.5769C61.5165 31.5627 61.4899 31.5609 61.4704 31.5769C61.1727 31.809 58.8742 33.7194 55.3937 39.8829C55.3724 39.9201 55.399 39.968 55.4416 39.968Z" fill="white"/>
<path d="M89.1784 39.5212C89.1395 39.0498 88.8081 38.6529 88.6308 38.2275C88.1754 37.1341 88.0319 35.867 87.144 35.0005C84.5425 32.4574 82.8572 30.2794 80.5924 27.4493C79.4475 26.0174 77.2288 23.6144 75.6658 22.5227C65.3217 15.3012 55.4632 8.4979 45.2716 1.06018C43.0546 -0.557794 41.5944 -0.0545035 39.9516 1.38271C34.9665 5.44094 28.9802 9.86778 24.1475 14.1085C17.8972 19.5916 11.7248 24.6989 6.26121 30.9883C5.06147 32.3688 3.87235 33.7653 2.74527 35.5073C2.68147 35.6048 2.73995 35.7377 2.85514 35.7554C4.53159 36.0088 6.13185 35.8706 7.36349 35.5959C7.69489 35.5215 8.01742 35.4134 8.32754 35.2698C14.3617 32.484 20.5873 30.3043 26.6268 26.7192C31.9184 23.5789 37.2544 20.5167 42.5549 17.3923C43.1627 17.0344 43.7015 16.9688 44.3855 17.1247C47.7225 17.8886 50.9691 18.927 54.1554 20.1658C54.1554 20.1658 54.1589 20.1658 54.1607 20.1658C61.9156 22.3154 68.6711 26.8716 75.5045 31.045C79.9154 33.7387 84.2607 36.5298 88.4465 39.5673L89.0349 40.005C89.065 40.0263 89.1058 40.0156 89.1182 39.9802C89.1519 39.8863 89.205 39.7037 89.1767 39.5194L89.1784 39.5212Z" fill="white"/>
</g>
</svg>
