<svg width="281" height="48" viewBox="0 0 281 48" fill="none" xmlns="http://www.w3.org/2000/svg">
<path d="M75.8994 35.7802H70.1231L61.9043 12.51H66.1622L72.7307 31.6873H73.3909L80.1904 12.51H84.3823L75.8994 35.7802Z" fill="white"/>
<path d="M95.3794 23.7325L106.074 35.7802H100.859L92.1447 25.812H91.1545V35.7802H87.1936V12.51H91.1545V21.9831H92.1117L100.364 12.51H105.249L95.3794 23.7325Z" fill="white"/>
<path d="M135.356 35.7802H131.131L129.349 30.7961H118.324L116.476 35.7802H112.35L121.262 12.51H126.708L135.356 35.7802ZM123.606 16.6029L119.678 27.1653H128.062L124.266 16.6029H123.606Z" fill="white"/>
<path d="M144.574 36.1103C142.968 36.1103 141.526 35.7362 140.25 34.988C138.974 34.2178 137.973 33.1616 137.246 31.8193C136.542 30.455 136.19 28.9147 136.19 27.1983C136.19 25.4819 136.542 23.9526 137.246 22.6103C137.973 21.246 138.974 20.1897 140.25 19.4416C141.526 18.6714 142.968 18.2863 144.574 18.2863C145.96 18.2863 147.193 18.5724 148.271 19.1445C149.349 19.6946 150.229 20.3878 150.911 21.224V12.51H154.707V35.7802H151.869L151.076 33.0076C150.372 33.8658 149.47 34.6029 148.37 35.2191C147.27 35.8132 146.004 36.1103 144.574 36.1103ZM145.498 32.7105C147.105 32.7105 148.403 32.2044 149.393 31.1922C150.405 30.1579 150.911 28.8266 150.911 27.1983C150.911 25.5699 150.405 24.2496 149.393 23.2374C148.403 22.2032 147.105 21.6861 145.498 21.6861C143.914 21.6861 142.627 22.2032 141.636 23.2374C140.646 24.2496 140.151 25.5699 140.151 27.1983C140.151 28.8266 140.646 30.1579 141.636 31.1922C142.627 32.2044 143.914 32.7105 145.498 32.7105Z" fill="white"/>
<path d="M172.796 23.8315C174.05 24.2056 175.029 24.8768 175.734 25.845C176.46 26.7912 176.823 27.9354 176.823 29.2777C176.823 30.554 176.504 31.6873 175.866 32.6775C175.227 33.6457 174.336 34.4049 173.192 34.955C172.048 35.5051 170.727 35.7802 169.231 35.7802H159.494V12.51H168.571C170.045 12.51 171.355 12.7851 172.499 13.3352C173.643 13.8633 174.534 14.6115 175.172 15.5797C175.811 16.5479 176.13 17.6372 176.13 18.8474C176.13 20.0137 175.833 21.0369 175.238 21.9171C174.644 22.7973 173.83 23.4354 172.796 23.8315ZM163.455 15.9758V22.3462H168.571C169.627 22.3462 170.485 22.0601 171.145 21.488C171.806 20.8939 172.136 20.1237 172.136 19.1775C172.136 18.2313 171.806 17.4611 171.145 16.867C170.485 16.2728 169.627 15.9758 168.571 15.9758H163.455ZM169.231 32.3144C170.265 32.3144 171.112 32.0174 171.773 31.4232C172.433 30.8071 172.763 30.0149 172.763 29.0467C172.763 28.1005 172.433 27.3303 171.773 26.7362C171.112 26.12 170.265 25.812 169.231 25.812H163.455V32.3144H169.231Z" fill="white"/>
<path d="M184.399 35.7802H180.603V12.51H184.399V35.7802Z" fill="white"/>
<path d="M197.037 36.1103C195.277 36.1103 193.692 35.7362 192.284 34.988C190.898 34.2178 189.808 33.1616 189.016 31.8193C188.246 30.455 187.861 28.9147 187.861 27.1983C187.861 25.4819 188.246 23.9526 189.016 22.6103C189.808 21.246 190.898 20.1897 192.284 19.4416C193.692 18.6714 195.277 18.2863 197.037 18.2863C198.797 18.2863 200.371 18.6714 201.757 19.4416C203.165 20.1897 204.255 21.246 205.025 22.6103C205.817 23.9526 206.213 25.4819 206.213 27.1983C206.213 28.9147 205.817 30.455 205.025 31.8193C204.255 33.1616 203.165 34.2178 201.757 34.988C200.371 35.7362 198.797 36.1103 197.037 36.1103ZM197.037 32.6445C198.577 32.6445 199.832 32.1494 200.8 31.1592C201.768 30.1469 202.252 28.8266 202.252 27.1983C202.252 25.5699 201.768 24.2606 200.8 23.2704C199.832 22.2582 198.577 21.7521 197.037 21.7521C195.497 21.7521 194.242 22.2582 193.274 23.2704C192.306 24.2606 191.822 25.5699 191.822 27.1983C191.822 28.8266 192.306 30.1469 193.274 31.1592C194.242 32.1494 195.497 32.6445 197.037 32.6445Z" fill="white"/>
<path d="M217.336 42.5467C215.377 42.5467 213.639 42.0736 212.121 41.1274C210.624 40.2032 209.568 38.9159 208.952 37.2655L212.682 36.6384C213.166 37.4306 213.804 38.0357 214.596 38.4538C215.388 38.8719 216.312 39.0809 217.369 39.0809C218.887 39.0809 220.141 38.6518 221.132 37.7936C222.122 36.9355 222.617 35.5932 222.617 33.7667V32.2154C221.957 33.0736 221.11 33.7557 220.075 34.2619C219.063 34.746 217.908 34.988 216.61 34.988C215.047 34.988 213.65 34.6359 212.418 33.9318C211.207 33.2056 210.25 32.2154 209.546 30.9611C208.864 29.6848 208.523 28.2435 208.523 26.6372C208.523 25.0308 208.864 23.6005 209.546 22.3462C210.25 21.0699 211.207 20.0797 212.418 19.3755C213.65 18.6494 215.047 18.2863 216.61 18.2863C217.996 18.2863 219.206 18.5614 220.24 19.1115C221.297 19.6396 222.144 20.3768 222.782 21.323L223.574 18.6164H226.413V33.7998C226.413 35.6702 226.006 37.2655 225.191 38.5858C224.377 39.9061 223.277 40.8963 221.891 41.5565C220.526 42.2166 219.008 42.5467 217.336 42.5467ZM217.534 31.5883C219.03 31.5883 220.251 31.1372 221.198 30.235C222.144 29.3108 222.617 28.1115 222.617 26.6372C222.617 25.1628 222.144 23.9746 221.198 23.0724C220.251 22.1482 219.03 21.6861 217.534 21.6861C216.037 21.6861 214.816 22.1482 213.87 23.0724C212.946 23.9746 212.484 25.1628 212.484 26.6372C212.484 28.1115 212.946 29.3108 213.87 30.235C214.816 31.1372 216.037 31.5883 217.534 31.5883Z" fill="white"/>
<path d="M238.513 42.5467C236.555 42.5467 234.816 42.0736 233.298 41.1274C231.802 40.2032 230.746 38.9159 230.129 37.2655L233.859 36.6384C234.343 37.4306 234.981 38.0357 235.774 38.4538C236.566 38.8719 237.49 39.0809 238.546 39.0809C240.065 39.0809 241.319 38.6518 242.309 37.7936C243.299 36.9355 243.794 35.5932 243.794 33.7667V32.2154C243.134 33.0736 242.287 33.7557 241.253 34.2619C240.241 34.746 239.085 34.988 237.787 34.988C236.225 34.988 234.827 34.6359 233.595 33.9318C232.385 33.2056 231.428 32.2154 230.724 30.9611C230.041 29.6848 229.7 28.2435 229.7 26.6372C229.7 25.0308 230.041 23.6005 230.724 22.3462C231.428 21.0699 232.385 20.0797 233.595 19.3755C234.827 18.6494 236.225 18.2863 237.787 18.2863C239.173 18.2863 240.384 18.5614 241.418 19.1115C242.474 19.6396 243.321 20.3768 243.959 21.323L244.752 18.6164H247.59V33.7998C247.59 35.6702 247.183 37.2655 246.369 38.5858C245.555 39.9061 244.455 40.8963 243.068 41.5565C241.704 42.2166 240.186 42.5467 238.513 42.5467ZM238.711 31.5883C240.208 31.5883 241.429 31.1372 242.375 30.235C243.321 29.3108 243.794 28.1115 243.794 26.6372C243.794 25.1628 243.321 23.9746 242.375 23.0724C241.429 22.1482 240.208 21.6861 238.711 21.6861C237.215 21.6861 235.994 22.1482 235.047 23.0724C234.123 23.9746 233.661 25.1628 233.661 26.6372C233.661 28.1115 234.123 29.3108 235.047 30.235C235.994 31.1372 237.215 31.5883 238.711 31.5883Z" fill="white"/>
<path d="M268.702 27.0002C268.702 27.3303 268.68 27.7374 268.636 28.2215H254.839C255.015 29.5638 255.565 30.642 256.489 31.4562C257.413 32.2484 258.591 32.6445 260.021 32.6445C260.989 32.6445 261.858 32.4575 262.628 32.0834C263.421 31.7093 264.026 31.2032 264.444 30.565L268.009 31.1592C267.393 32.7435 266.325 33.9648 264.807 34.823C263.311 35.6812 261.638 36.1103 259.79 36.1103C258.073 36.1103 256.533 35.7362 255.169 34.988C253.827 34.2178 252.77 33.1616 252 31.8193C251.252 30.455 250.878 28.9147 250.878 27.1983C250.878 25.4819 251.252 23.9526 252 22.6103C252.77 21.246 253.827 20.1897 255.169 19.4416C256.533 18.6714 258.073 18.2863 259.79 18.2863C261.506 18.2863 263.036 18.6714 264.378 19.4416C265.742 20.1897 266.798 21.235 267.547 22.5773C268.317 23.8975 268.702 25.3719 268.702 27.0002ZM259.79 21.587C258.646 21.587 257.644 21.9171 256.786 22.5773C255.95 23.2374 255.378 24.1286 255.07 25.2508H264.576C264.246 24.1506 263.652 23.2704 262.793 22.6103C261.957 21.9281 260.956 21.587 259.79 21.587Z" fill="white"/>
<path d="M271.66 35.7802V18.6164H274.498L275.224 21.0919C275.775 20.1897 276.424 19.5516 277.172 19.1775C277.942 18.8034 278.866 18.6164 279.944 18.6164H280.671L281.001 22.2472H278.822C276.578 22.2472 275.455 23.3804 275.455 25.6469V35.7802H271.66Z" fill="white"/>
<path d="M0 23.0693C0 12.5369 0 7.27301 3.27188 4.00113C6.54376 0.729248 11.8076 0.729248 22.34 0.729248H24.2017C34.7341 0.729248 39.9979 0.729248 43.2698 4.00113C46.5417 7.27301 46.5417 12.5369 46.5417 23.0693V24.9309C46.5417 35.4633 46.5417 40.7272 43.2698 43.999C39.9979 47.2709 34.7341 47.2709 24.2017 47.2709H22.34C11.8076 47.2709 6.54376 47.2709 3.27188 43.999C0 40.7272 0 35.4633 0 24.9309V23.0693Z" fill="#00D3E6"/>
<path d="M37.2307 23.9999C37.2075 20.6303 37.3191 17.2514 37.0306 13.8864C36.784 10.191 35.6298 6.74692 31.9207 5.26225C29.3471 4.19179 26.5781 3.75895 23.8649 3.17718C21.6776 2.73038 19.4949 2.27427 17.303 1.87401C14.5665 1.39929 11.7603 0.882674 8.98657 1.31086C8.9633 1.31086 8.94003 1.32017 8.91676 1.32482C6.48745 1.78093 4.69573 2.58145 3.2763 4.00097C3.2763 4.00097 3.27165 4.00562 3.267 4.01027C3.20184 4.07543 3.14134 4.14525 3.07619 4.2104C3.025 4.2616 2.97846 4.31745 2.93192 4.36865C0.744615 6.82605 0.190807 10.3818 0.0465384 16.2414C0 18.2334 0 20.4953 0 23.0691V24.9308C0 28.8821 0 32.0889 0.172192 34.7278C0.172192 34.7324 0.172192 34.7371 0.172192 34.7464C0.200115 35.1373 0.228038 35.5143 0.260615 35.882C0.470038 38.1579 0.851653 39.9777 1.53111 41.4717C1.97323 42.4351 2.53634 43.2682 3.267 43.9989C3.48573 44.2176 3.71376 44.4224 3.95111 44.6086C3.96507 44.6225 3.98369 44.6318 3.99765 44.6458C4.20242 44.8087 4.41649 44.9576 4.63057 45.1019C4.70503 45.1531 4.78415 45.1997 4.86326 45.2462C4.9703 45.3114 5.08199 45.3719 5.18903 45.4324C6.05465 45.9071 7.04126 46.2562 8.17214 46.5168C11.1087 47.1218 14.3943 46.7076 17.289 46.1165C19.4856 45.7209 21.6683 45.2602 23.8509 44.8134C26.5641 44.2316 29.3332 43.7988 31.9067 42.7283C35.6158 41.239 36.77 37.8088 37.0166 34.1041C37.3098 30.7438 37.1981 27.3649 37.2168 23.9906L37.2307 23.9999Z" fill="#0077FF"/>
<path d="M11.7186 33.1777C11.7186 32.8659 11.7884 32.5634 11.8675 32.2655C12.0211 31.6977 12.17 31.1252 12.3236 30.5574C12.4772 29.9989 12.6308 29.4358 12.7844 28.8773C12.8728 28.5468 12.9566 28.2164 13.045 27.8859C13.1521 27.4903 13.2638 27.0947 13.3708 26.6991C13.4127 26.5409 13.4546 26.3873 13.4918 26.229C13.5104 26.1592 13.4918 26.1034 13.4313 26.0568C12.9938 25.7078 12.561 25.3541 12.1281 25.0003C11.8815 24.7956 11.6348 24.5908 11.3881 24.386C10.9693 24.0462 10.5504 23.7065 10.1315 23.3667C9.80572 23.1014 9.47993 22.8315 9.14948 22.5662C8.8935 22.3614 8.63752 22.1566 8.42343 21.9007C8.06506 21.4632 7.86493 20.9745 7.91613 20.3974C7.94405 20.0948 8.0511 19.8203 8.24192 19.5736C8.53978 19.1873 8.94004 18.9592 9.40546 18.8382C9.76848 18.7405 10.1362 18.7358 10.5038 18.7079C10.8762 18.6846 11.2532 18.666 11.6255 18.6334C11.8349 18.6148 12.0397 18.6102 12.2492 18.5916C12.668 18.559 13.0916 18.545 13.5104 18.5124C13.8316 18.4845 14.1574 18.4752 14.4785 18.4566C14.781 18.438 15.0835 18.4147 15.3907 18.3961C15.4838 18.3914 15.5769 18.3914 15.67 18.3914C15.7537 18.3914 15.8049 18.3542 15.8375 18.2751C16.0423 17.791 16.2517 17.307 16.4565 16.823C16.6427 16.3855 16.8289 15.9526 17.0104 15.5151C17.2896 14.8543 17.5689 14.1934 17.8574 13.5325C18.011 13.1834 18.1367 12.825 18.3275 12.4899C18.5137 12.1595 18.765 11.8849 19.1094 11.7173C19.37 11.5917 19.6446 11.5451 19.9332 11.587C20.4684 11.6708 20.8501 11.9826 21.1526 12.4062C21.3248 12.6482 21.4411 12.9135 21.5435 13.1881C21.7716 13.7745 22.0043 14.3609 22.2323 14.9473C22.4325 15.4593 22.6326 15.9666 22.8281 16.4786C23.0701 17.1022 23.3121 17.7305 23.5541 18.3588C23.5821 18.4333 23.6193 18.5031 23.6472 18.5776C23.6658 18.6288 23.7077 18.6567 23.7589 18.6614C24.1545 18.7079 24.5455 18.7684 24.9411 18.8243C25.3832 18.8894 25.83 18.9453 26.2768 19.0058C26.7841 19.0756 27.2914 19.15 27.7987 19.2199C28.0547 19.2571 28.3153 19.285 28.5713 19.3455C28.9064 19.42 29.195 19.5829 29.437 19.8389C29.7302 20.1507 29.8652 20.5277 29.8652 20.9466C29.8652 21.412 29.6976 21.8262 29.3998 22.1799C29.1531 22.4731 28.8552 22.7198 28.5806 22.9851C28.1292 23.4179 27.6731 23.8554 27.2216 24.2882C26.8912 24.6047 26.5607 24.9212 26.2256 25.2377C26.0488 25.4053 25.8719 25.5728 25.695 25.7404C25.6438 25.7869 25.6252 25.8334 25.6438 25.8986C25.7276 26.2197 25.8021 26.5409 25.8812 26.862C25.9696 27.225 26.0534 27.5927 26.1465 27.9557C26.2256 28.2536 26.3001 28.5561 26.3699 28.8586C26.4351 29.1379 26.5142 29.4078 26.5747 29.6871C26.6445 29.9896 26.7376 30.2921 26.8027 30.5946C26.8819 30.9437 26.9982 31.2881 27.0354 31.6465C27.0866 32.1352 27.0448 32.6192 26.7608 33.0474C26.5002 33.443 26.1325 33.671 25.6438 33.685C25.2296 33.6943 24.8759 33.5361 24.5455 33.308C24.2197 33.0846 23.8985 32.8612 23.5727 32.6332C23.247 32.4051 22.9258 32.1724 22.6 31.949C22.2835 31.7303 21.9624 31.5115 21.6459 31.2928C21.4039 31.1252 21.1665 30.9577 20.9245 30.7901C20.5894 30.5574 20.259 30.3294 19.9239 30.0966C19.8773 30.0641 19.8401 30.0687 19.7982 30.1013C19.3747 30.4457 18.9512 30.7901 18.5276 31.1299C18.146 31.4371 17.769 31.7442 17.3874 32.0514C17.0057 32.3632 16.6287 32.6751 16.2471 32.9822C15.8375 33.3173 15.4233 33.6431 15.0091 33.9782C14.7717 34.169 14.539 34.3692 14.2691 34.5228C13.9293 34.7182 13.5663 34.8439 13.1753 34.8346C12.561 34.8206 12.0676 34.5041 11.8349 33.8898C11.7465 33.6571 11.7093 33.4151 11.7093 33.1637L11.7186 33.1777Z" fill="white"/>
</svg>
