<svg width="145" height="48" viewBox="0 0 145 48" fill="none" xmlns="http://www.w3.org/2000/svg">
<path d="M4.66924 30.7876V16.6793H11.8979V30.7876H16.5672V12.3518H0V30.7876H4.66924Z" fill="white"/>
<path d="M25.5093 38V28.1488C26.7544 29.5562 29.0371 31.1394 32.1154 31.1394C37.3034 31.1394 40.9351 27.1286 40.9351 21.5697C40.9351 16.0108 37.3034 12 32.1154 12C28.8642 12 26.4777 13.7591 25.3017 15.2368L24.4716 12.3518H20.84V38H25.5093ZM30.8356 26.9175C27.6882 26.9175 25.5093 24.6658 25.5093 21.5697C25.5093 18.4736 27.6882 16.2219 30.8356 16.2219C33.9485 16.2219 36.0583 18.4736 36.0583 21.5697C36.0583 24.6658 33.9485 26.9175 30.8356 26.9175Z" fill="white"/>
<path d="M52.9646 31.1394C58.7406 31.1394 62.7873 27.1637 62.7873 21.5697C62.7873 15.9756 58.7406 12 52.9646 12C47.2231 12 43.1419 15.9756 43.1419 21.5697C43.1419 27.1637 47.2231 31.1394 52.9646 31.1394ZM52.9646 26.8119C50.0247 26.8119 48.0186 24.6658 48.0186 21.5697C48.0186 18.4736 50.0247 16.3275 52.9646 16.3275C55.9045 16.3275 57.9105 18.4736 57.9105 21.5697C57.9105 24.6658 55.9045 26.8119 52.9646 26.8119Z" fill="white"/>
<path d="M74.5066 31.1394C78.3803 31.1394 82.0465 29.0988 83.3954 25.088L79.0029 24.3491C78.2074 25.8268 76.651 26.8119 74.7487 26.8119C71.9126 26.8119 69.8719 24.6306 69.8719 21.5697C69.8719 18.5088 71.9126 16.3275 74.7487 16.3275C76.6164 16.3275 78.1728 17.3126 78.8645 18.8254L83.2571 18.0866C81.9774 14.111 78.5187 12 74.5066 12C68.9381 12 64.9952 16.0108 64.9952 21.5697C64.9952 27.1286 68.9381 31.1394 74.5066 31.1394Z" fill="white"/>
<path d="M94.857 30.7876V16.6793H101.152V12.3518H83.9275V16.6793H90.1877V30.7876H94.857Z" fill="white"/>
<path d="M111.837 31.1394C117.613 31.1394 121.659 27.1637 121.659 21.5697C121.659 15.9756 117.613 12 111.837 12C106.095 12 102.014 15.9756 102.014 21.5697C102.014 27.1637 106.095 31.1394 111.837 31.1394ZM111.837 26.8119C108.897 26.8119 106.891 24.6658 106.891 21.5697C106.891 18.4736 108.897 16.3275 111.837 16.3275C114.777 16.3275 116.783 18.4736 116.783 21.5697C116.783 24.6658 114.777 26.8119 111.837 26.8119Z" fill="white"/>
<path d="M129.574 38V28.1488C130.819 29.5562 133.102 31.1394 136.18 31.1394C141.368 31.1394 145 27.1286 145 21.5697C145 16.0108 141.368 12 136.18 12C132.929 12 130.543 13.7591 129.367 15.2368L128.537 12.3518H124.905V38H129.574ZM134.901 26.9175C131.753 26.9175 129.574 24.6658 129.574 21.5697C129.574 18.4736 131.753 16.2219 134.901 16.2219C138.013 16.2219 140.123 18.4736 140.123 21.5697C140.123 24.6658 138.013 26.9175 134.901 26.9175Z" fill="white"/>
</svg>
