<svg width="987" height="988" viewBox="0 0 987 988" fill="none" xmlns="http://www.w3.org/2000/svg">
<path d="M483.2 19.2L478.667 23.7333V62.5333C478.667 83.8667 478.267 101.333 477.867 101.333C477.333 101.333 469.867 94.4 461.2 86C449.067 74.4 444.267 70.5333 440.667 69.8667C434.267 68.6667 429.733 70.1333 425.2 74.6667C421.867 77.8667 421.333 79.6 421.333 85.6L421.2 92.6667L443.6 114.4C465.733 135.867 466 136.133 463.2 138.4C452.133 147.2 448 151.467 445.333 156.4C441.733 163.067 442.267 167.067 447.333 173.2C454.4 181.6 464.133 181.2 472.533 172.133C474.8 169.867 476.933 168 477.6 168C478.133 168 478.667 179.733 478.667 194C478.667 208.267 478.133 220 477.467 220C476.4 220 455.067 196.133 430.4 167.2C414.533 148.667 412 146.667 404.133 146.667C396.4 146.667 391.6 150 389.333 156.667C387.333 162.933 389.067 168.133 396.4 176.933C405.067 187.467 456.533 246 467.6 257.733L477.333 268.267V285.6V302.933L465.2 290.133C450.533 274.667 446.4 272.8 436.267 277.733C432.267 279.6 429.333 285.333 429.333 291.067C429.333 296.267 432.8 301.467 445.467 315.333C450.133 320.4 456.4 327.333 459.2 330.667C462 334 467.6 340 471.467 344.133L478.533 351.6L478.933 390.533C479.2 411.867 478.933 429.333 478.4 429.333C476.933 429.333 467.333 415.867 462.133 406.533L457.333 398L458 404.667C458.267 408.267 458.933 417.2 459.2 424.4L460 437.467L448.933 427.467C442.8 421.867 434.267 413.333 430.133 408.533L422.4 399.867L419.867 374.933C416.133 338 415.6 336 407.067 332.533C401.467 330.133 398.133 330.133 392.533 332.8C386.267 335.733 384 340.8 384 351.333C384 356.133 383.467 360 382.933 360C382.4 360 379.067 357.067 375.6 353.6L369.333 347.2L369.6 314.667L370 282.267L375.6 280.4C389.067 275.867 395.067 261.467 386.8 253.2C383.467 250 381.733 249.333 376.133 249.333H369.467L369.067 229.333C368.667 209.867 368.533 209.333 365.2 205.867C360.667 201.467 352.667 200.267 346.933 203.2C338.667 207.467 338.667 207.867 338.667 264.667V316L335.6 314.133C334 312.933 325.867 304.933 317.6 296L302.533 280L308.133 265.6C317.333 242.133 316.4 231.467 304.8 228.133C292.8 224.933 286 231.067 279.467 251.2C278.933 252.533 278.267 253.467 278 253.067C277.467 252.533 272.133 220.4 267.2 187.333C266.133 180 264.667 172 263.867 169.6C260.4 158.933 242.933 156.533 236.8 165.867C233.333 171.2 233.2 176.933 236 196C237.467 206.4 238.533 215.2 238.267 215.467C238 215.733 224.4 202.8 207.867 186.8C191.467 170.8 176.667 157.067 175.067 156.267C164.933 150.8 151.6 162 153.867 173.867C154.667 177.867 159.733 183.733 184.667 208.933C201.067 225.6 214.4 239.333 214.267 239.467C214.133 239.6 205.733 238.533 195.6 237.067C175.467 234.133 169.867 234.533 164.533 239.067C157.467 245.2 159.333 260.133 167.733 264.533C169.733 265.6 189.333 269.2 211.333 272.667C233.333 276.133 251.6 279.067 251.867 279.467C252.133 279.733 251.6 280.267 250.533 280.533C249.467 280.8 245.6 282.133 241.733 283.333C232.667 286.133 228 291.467 228 299.067C228 307.067 232 312.8 238.667 314.8C244 316.4 245.333 316.133 263.067 310.133L282 303.733L298.8 321.067L315.467 338.533L264.4 338.933L213.333 339.333L209.067 343.733C205.2 347.467 204.667 348.933 204.667 354.8C204.667 360.667 205.2 362 208.8 365.333C213.867 369.733 224.8 371.333 241.2 369.867L252 368.933V375.733C252 387.867 261.6 394.667 272.4 390.267C278.267 387.733 281.467 383.067 282.4 375.333L283.067 369.333H313.867H344.8L352.533 377.2L360.267 385.067L351.733 384.4C341.333 383.467 336 385.733 332.8 392.533C328.667 401.333 331.2 411.467 338.533 415.333C340.933 416.533 353.6 418.4 371.6 420.133L400.667 423.067L419.067 441.2C429.067 451.2 437.333 459.733 437.333 460.133C437.333 460.667 434.8 460.8 431.733 460.533C428.533 460.267 420.133 459.867 412.8 459.467L399.733 458.8L414.133 468.8L428.533 478.667H389.867H351.333L328.667 457.867C303.733 435.2 297.733 431.2 290.267 432.533C280.267 434.4 273.733 444.667 277.333 453.2C278.933 457.067 287.467 465.867 298 474.267L303.333 478.533L286.8 478.667C267.2 478.667 270.933 480.667 240.667 453.333C214.667 429.733 176.4 396 171.467 392.267C168.8 390.267 165.867 389.333 161.467 389.333C152 389.467 146.667 394.933 146.667 405.067C146.667 412.267 150.133 416 188.533 449.333C206.533 464.933 221.333 477.867 221.333 478.133C221.333 478.4 209.467 478.667 195.067 478.667H168.8L172.267 474.933C178.133 468.533 180 464.8 180 459.333C179.867 452.8 177.733 448.667 172.533 445.2C164.267 439.867 155.867 442.8 144 455.467C139.733 460.133 135.6 464 134.933 464C134.267 464 124.8 454.8 113.733 443.467C92.9333 422.133 89.6 419.867 81.0666 421.067C76.1333 421.867 69.8666 428.133 69.0666 433.067C67.8666 441.067 70.4 445.2 86.9333 462.133L103.067 478.667H66.8C27.4666 478.667 23.6 479.2 19.2 485.867C16 490.933 17.3333 500.533 21.8666 505.2L25.3333 508.667L64.6666 509.067C86.2666 509.333 104 509.6 104 509.733C104 509.867 96.2666 517.867 86.8 527.333C72.8 541.467 69.3333 545.6 68.6666 549.6C67.3333 556.667 71.2 563.867 77.7333 567.2C82.2666 569.333 83.6 569.467 88.4 568C92.9333 566.8 97.7333 562.533 114.667 545.2L135.333 523.867L144 532.667C148.8 537.6 154.267 542.4 156.267 543.467C162 546.533 169.867 545.867 174.533 542C182.933 534.933 182.667 524.8 173.733 515.733C171.067 512.933 169.2 510.4 169.6 510C170 509.6 181.867 509.467 196 509.6L221.867 510L201.2 528.133C189.867 538.133 173.2 552.8 164 560.8C144.267 578 141.733 582.533 146.133 591.467C149.333 598 156.667 602 163.2 600.8C165.733 600.267 170.133 598 173.067 595.6C179.733 590.267 234.667 541.2 247.467 529.2C252.667 524.4 260.133 517.867 264 514.8L270.933 509.333H286.8C295.467 509.333 302.667 509.6 302.667 509.867C302.667 510.133 296.933 515.867 290 522.667C282 530.533 277.2 536.4 276.667 538.8C274.533 548.533 281.867 558.667 291.067 558.667C293.867 558.667 297.467 558 299.067 557.2C300.667 556.267 310.4 547.467 320.667 537.467C330.933 527.467 342.133 517.067 345.467 514.267L351.6 509.333L390.133 509.6L428.667 510L414 520.4L399.467 530.8L418 529.867L436.667 528.933L426.667 539.467C421.2 545.2 416 550.533 415.2 551.333C414.4 552 410.533 555.733 406.533 559.6L399.333 566.533L376.667 568.667C337.6 572.267 340 571.733 335.067 576.667C331.333 580.4 330.667 582 330.667 587.2C330.667 592.4 331.467 594.133 335.2 598.4L339.867 603.333L350.533 603.2L361.2 603.067L354.267 610.8L347.333 618.533L315.333 618.267L283.467 618L282.4 612.133C279.2 593.467 255.467 593.467 252.267 612.133L251.2 618L241.067 617.467C235.333 617.2 226.4 617.467 221.067 618C212.533 618.933 210.933 619.467 207.067 623.333C199.2 631.2 202.133 642.933 212.8 647.467C216.267 648.933 227.6 649.333 266.267 649.333H315.333L298.667 666L282 682.667L268 679.2C246.8 674.133 242.8 673.467 237.867 674.8C231.333 676.667 228 681.733 228 689.6C228 698.933 232.533 703.067 246.133 706.133L256.267 708.267L253.2 711.467C249.733 714.8 242.4 715.867 202 718.667C172.267 720.667 169.6 721.2 165.067 725.2C160 729.733 158.533 738.667 161.867 745.067C165.867 752.8 172.4 754 197.333 751.6C207.2 750.533 215.6 750 216 750.267C216.267 750.533 203.867 763.467 188.267 779.067C172.667 794.667 159.067 808.8 157.867 810.533C154.8 814.8 155.067 823.333 158.267 827.733C161.467 832 169.467 835.067 174.4 833.867C176.667 833.333 189.2 821.867 208.4 802.8C225.067 786.267 238.667 773.333 238.667 774C238.667 774.8 237.733 781.333 236.667 788.667C232.933 814.667 234.533 823.733 243.6 827.6C249.867 830.133 256 828.933 261.2 824.133C266 819.6 265.867 820.267 271.2 773.2C274.533 742.933 275.733 735.333 277.333 735.333C278.533 735.333 279.6 737.333 280.267 740.933C281.6 748.933 285.867 758.133 289.067 759.867C293.2 762 302.4 761.6 306.667 759.067C314.8 754.4 315.2 747.067 308.667 723.867L304 707.333L321.333 690L338.667 672.667V722.4C338.667 761.6 339.067 773.067 340.533 776.533C345.067 787.333 356.8 790.133 364.667 782.267C368.4 778.533 369.2 776.667 370 768.933C370.533 764.133 370.667 757.867 370.4 755.2C369.867 750.933 370.667 749.6 378 741.6C388.533 730.133 390.667 726.8 390.667 722.4C390.667 713.733 386 709.467 375.867 708.667L370 708.267L369.733 675.867L369.467 643.333L377.333 634.667L385.333 626V636.667C385.333 644.8 386 648.267 388 651.6C393.333 660.4 408.4 660.133 413.733 651.067C415.467 648 416.933 640 418.8 621.733C420.267 608 421.867 594.8 422.4 592.4C423.067 589.333 428.267 583.2 441.2 570C451.067 560.133 459.2 552 459.467 552C459.733 552 458.8 576.4 458.133 584.933L457.6 590.667L465.467 578.933C469.733 572.533 474.533 565.867 476 564L478.667 560.667V599.467C478.667 634 478.4 638.533 476.4 640.133C475.2 641.2 463.867 652.933 451.067 666.267C429.6 688.933 428 690.933 428 695.6C428 702.533 431.867 708.267 438.533 711.2C448.267 715.733 454.667 711.733 474.533 689.333L478.533 684.667L478.667 700.8C478.667 714.133 478.267 717.333 476.533 718.8C475.333 719.733 463.467 733.733 450.267 749.867C436.933 766.133 418.667 788 409.733 798.533C391.333 820.4 388.667 824.667 390 831.6C392.267 843.733 405.867 848.133 415.333 839.733C419.733 836 426 828.4 463.867 781.333C470.667 772.933 476.8 765.867 477.467 765.6C478.133 765.333 478.667 776.4 478.667 792.533C478.667 807.6 478.133 820 477.467 820C476.933 820 473.733 817.867 470.533 815.333C463.467 809.867 458.933 808.667 452.667 810.667C446.4 812.8 442.667 817.733 442.667 824.267C442.667 831.733 445.333 835.867 456.133 845.6L465.6 854.267L453.2 866.133C446.267 872.8 436.933 881.6 432.4 885.867C418.933 898.533 416.533 907.467 424.533 915.467C428.267 919.2 430.133 920 434.667 920C437.733 920 441.467 919.333 443.067 918.533C444.667 917.6 452.933 910.4 461.467 902.533C470 894.533 477.333 888 477.867 888C478.4 888 478.667 904.8 478.667 925.2C478.533 950.667 478.933 963.333 480 965.333C483.733 972.4 496.267 975.6 502.533 971.2C508.8 966.8 509.333 962.667 509.333 923.867V887.733L524.133 901.867C540.933 917.733 545.867 920.667 553.733 919.6C564 918.267 569.6 906.933 564.8 897.733C563.733 895.467 553.467 884.933 542 874.533C530.667 864 521.333 855.2 521.333 854.933C521.333 854.533 526.4 849.6 532.533 843.867C545.2 832 547.2 827.6 543.333 819.467C537.867 807.867 524.8 806.8 514.4 816.933L509.333 821.867V793.333C509.467 770.533 509.733 765.067 511.067 766.8C512 767.867 522 779.867 533.333 793.467C544.8 806.933 557.2 822 561.067 826.933C571.467 840.133 576.4 844 582.8 844C597.333 844 603.467 831.067 594.533 818.8C587.867 809.467 562.4 778.533 535.067 746.4L509.333 716.133V700.533V685.067L521.733 697.867C534 710.667 534 710.667 540.533 710.667C546 710.667 547.6 710 551.467 706.133C555.333 702.267 556 700.667 556 695.6C556 688.4 554.267 686.133 527.733 658.4L509.467 639.2L509.067 599.6C508.8 577.867 508.8 560 508.933 560C509.733 560 520.267 574.8 524.667 582L529.6 590L528.667 570.667L527.867 551.333L546.267 569.333C567.733 590.133 565.867 585.733 568.533 622.267C570.533 648.4 571.867 653.2 578.667 656.667C586.133 660.533 596.667 658.133 600.267 651.6C601.2 650 602.267 644.4 602.667 639.333L603.333 630L611.067 637.2L618.667 644.4V676.8V709.333H614.933C600.4 709.333 591.6 719.467 596.4 730.933C598.667 736.4 605.333 740 613.2 740H618.667L617.867 749.733C616.667 763.733 618.133 773.867 622.133 778.667C628.667 786.4 641.067 784.933 646.667 775.733C649.2 771.6 649.333 768.933 649.333 722.933C649.333 696.4 649.733 674.667 650.4 674.667C650.933 674.667 658.8 682.133 667.867 691.2L684.4 707.733L678.667 722.933C671.467 742.267 670.933 750 676.533 755.867C684 763.6 696.133 762.533 702 753.6C703.6 750.8 706.133 745.2 707.333 740.8C708.533 736.533 709.733 733.333 710 733.6C710.667 734.133 716.4 774.933 719.333 799.067C720.4 808.533 722.267 818 723.333 820.133C727.6 828.267 739.467 830.533 746.533 824.533C752.8 819.333 753.867 813.733 752.133 795.333C751.333 786.667 750.8 779.467 751.067 779.067C751.333 778.8 764.667 790.533 780.533 805.2C810.533 832.933 813.467 834.933 822.133 832.8C824.133 832.267 827.333 830.133 829.467 828C832.533 825.067 833.333 822.933 833.333 818.533C833.333 810.667 830.267 806.533 813.733 791.733C792 772.4 771.2 752.4 772 751.6C772.4 751.2 775.733 751.467 779.333 752C783.067 752.667 792.933 753.6 801.467 754.133L816.933 755.067L821.2 751.2C828.667 744.533 828.933 732.4 821.867 726.8C820 725.333 816 723.867 812.933 723.467C806 722.533 761.2 717.733 749.067 716.533C739.733 715.6 734.933 712.667 736.4 708.8C736.8 707.733 740.533 705.867 744.533 704.533C748.667 703.2 753.2 700.8 754.8 699.2C760.8 692.8 758.4 679.067 750.667 674.933C745.467 672.267 735.333 673.867 720.133 680L706.267 685.467L689.067 668.4C679.733 659.067 672 650.933 672 650.267C672 649.733 694.4 649.333 721.867 649.467C769.2 649.733 772 649.6 776.133 647.2C785.067 642 785.467 628.533 776.933 622.133C773.6 619.733 770.933 619.333 756 618.933L738.8 618.4L737.867 613.6C735.867 602.4 732 598.667 722.4 598.667C714.533 598.667 709.333 603.867 708.4 612.4L707.733 618.267L688.8 619.067C678.533 619.6 664 620 656.667 620H643.467L635.733 612.4C631.467 608.133 628 604.4 628 604C628 603.6 631.2 603.467 635.067 603.733C648.133 604.533 656.667 598.267 656.667 587.867C656.667 581.467 653.733 576.267 648.8 573.733C646.267 572.4 634.667 570.8 616.133 569.067L587.333 566.533L568.667 547.867L550 529.2L568.267 529.6C589.467 530 589.467 530.933 568.667 517.6L556.667 510L595.733 509.6L634.667 509.333L656.133 528.267C684.267 553.2 689.2 557.2 694.267 558.133C702.933 559.733 712 551.867 712 542.667C712 536.133 708.933 531.733 696.4 520.133L684.667 509.333H700.667H716.667L752.4 540.533C772 557.733 793.333 576.533 799.733 582.4C806.133 588.267 813.733 594.533 816.533 596.533C827.467 603.867 840.667 599.2 842.267 587.2C843.6 577.067 843.867 577.467 794 534.533C779.333 522 766.8 511.2 766.133 510.533C765.333 509.867 776.667 509.333 792.667 509.333H820.533L815.733 514.267C809.333 520.933 806.4 527.733 807.867 532.933C809.733 539.467 811.867 542.533 816 544.667C824.667 549.2 831.067 546.533 844.533 532.667L853.067 524.133L868 539.2C876.133 547.467 883.733 555.6 884.933 557.2C888.8 562.933 897.467 568 902.933 568C913.067 568 918.533 562.667 918.667 553.2C918.667 545.6 915.733 541.333 898.133 524C891.067 517.067 885.333 510.933 885.333 510.4C885.333 509.733 902.133 509.333 922.8 509.333H960.267L964.8 504.8C968.4 501.2 969.333 499.2 969.333 495.067C969.333 487.733 965.2 481.867 959.067 480.133C956.133 479.333 939.6 478.667 919.467 478.667H884.8L899.6 463.6C907.733 455.467 915.333 446.8 916.533 444.4C920.667 436.133 918.533 428.267 910.8 423.067C900.933 416.4 895.6 419.467 870.667 446.133L853.067 465.067L843.067 454.533C828.933 439.733 820.533 437.733 812 447.467C808.933 450.933 808 453.333 808 457.467C808 463.867 809.467 467.067 815.6 473.467L820.133 478.267L801.733 478.933C791.6 479.333 779.333 479.2 774.533 478.8L765.6 478L797.2 450.667C814.533 435.6 831.467 420.667 834.933 417.333C844.133 408.267 844.933 401.467 837.6 393.2C832.8 387.733 824 386.533 818 390.4C815.867 391.867 792.4 412.267 766 435.867L718 478.667H702H686L697.067 468.533C703.067 462.933 708.933 456.667 710 454.533C714.533 446 710.933 434.133 702.8 430.8C695.6 427.733 690.533 429.867 678.133 441.067C671.867 446.667 659.867 457.467 651.467 464.933L636.267 478.667H597.2H558.133L572.4 468.8L586.8 458.933L568.4 459.6L550 460.267L568.133 442L586.267 423.733L616.133 420.533C635.467 418.4 646.933 416.667 648.933 415.333C659.333 408.4 658.8 392.667 647.867 387.067C646.133 386.133 640.533 385.333 635.333 385.333H626.133L634 377.333L642 369.333L673.867 369.6L705.867 370L706.933 375.333C709.067 385.867 714 390.667 722.667 390.667C731.6 390.667 736.8 385.2 737.6 374.8L738 370.267L757.333 370.133C779.333 370 782.667 368.8 786.133 360.4C787.867 356.4 787.867 354.933 786.4 350.267C785.467 347.333 782.933 343.6 780.933 342.133C777.2 339.467 775.467 339.333 724.933 338.933L672.8 338.533L689.867 321.467L706.933 304.4L721.067 309.067C739.2 314.933 750.133 315.6 755.2 310.8C759.467 306.8 761.867 299.867 760.667 294.667C759.467 289.333 754 284.933 743.467 281.333C738.667 279.6 734.667 277.733 734.667 277.2C734.667 276.4 744.667 274.8 762 272.667C765.733 272.267 778.933 271.067 791.467 270.133C817.2 268.133 822.533 266.4 825.867 259.333C828.533 253.733 828.533 248.667 825.867 244C820.8 235.6 814 234.533 787.333 237.867C779.333 238.933 772.533 239.6 772.267 239.333C772 239.067 785.333 225.333 801.867 208.8C825.867 184.667 832 177.867 832.667 174.267C834.533 164.8 826.133 154.667 816.533 154.667C810.933 154.667 808.267 157.067 776.267 189.2C761.467 204.133 749.333 215.6 749.333 214.533C749.333 213.467 750.267 206.667 751.333 199.333C755.067 173.2 753.6 165.867 743.333 162C738.8 160.133 737.2 160.133 732.8 161.6C724.933 164.267 722.667 168.267 720.667 184.133C719.6 191.733 717.2 209.6 715.333 223.867C713.467 238 711.333 250.667 710.667 251.867C709.6 253.6 709.467 253.733 709.333 252C709.333 248.4 701.733 234.133 698.4 230.933C688.667 222.133 672 229.333 672 242.4C672 244.667 674.133 252.267 676.8 259.6C679.333 266.8 682.133 274.533 682.933 276.933C684.4 281.2 684.4 281.2 667.467 297.867C658.267 307.067 650.267 314.667 649.867 314.667C649.467 314.667 649.333 291.733 649.467 263.6C649.867 206.8 649.733 206.4 640.8 202.133C634.533 199.2 629.067 199.467 624.667 202.933C618.667 207.6 617.333 212.8 617.333 232.133V249.6L613.867 248.8C609.067 247.6 601.867 250.133 598.667 254.267C595.333 258.533 595.067 268.667 598.133 273.2C600.533 276.667 609.733 281.2 614.133 281.333C616.533 281.333 617.067 282.4 617.867 288.267C618.267 292.133 618.667 306.667 618.667 320.667V346L611.2 353.6C607.067 357.867 603.467 361.333 603.067 361.333C602.8 361.333 602.933 358.133 603.333 354.133C604.533 344.667 602.267 337.867 596.8 334.533C591.867 331.467 584 331.2 578.8 334C572.4 337.2 570.667 343.2 568.533 369.067C567.6 382 566.4 394.533 566 396.667C565.467 399.6 560.4 405.6 546.667 419.333C536.533 429.467 527.867 437.6 527.6 437.333C527.2 436.933 527.6 429.733 528.267 421.333C528.933 412.933 529.2 404.8 529.067 403.467C528.8 401.6 525.733 405.2 519.333 415.067C514.267 422.933 509.467 429.333 508.8 429.333C508.133 429.333 507.867 412.933 508.267 390.133L509.067 350.8L529.467 328.667C559.2 296.4 560.533 294.267 557.333 284.8C555.467 278.933 550.933 276 544 276C536.267 276 532.267 278.533 521.067 290.667C515.6 296.533 510.667 301.333 510.267 301.333C509.733 301.333 509.333 294.133 509.333 285.2V269.2L519.2 258.267C524.533 252.267 539.467 235.6 552.133 221.333C564.8 207.067 579.733 190.533 585.2 184.667C590.667 178.8 596.267 172.133 597.6 170C604.4 158.8 596.133 145.333 582.533 145.333C577.2 145.333 572.533 150 537.733 189.467C524.267 204.533 512.533 217.733 511.333 218.667C509.6 220.133 509.333 217.6 509.333 195.467C509.333 181.867 509.867 170.667 510.533 170.667C511.2 170.667 512.4 171.6 513.467 172.8C516.267 176.267 522.267 178.667 528 178.667C532.267 178.667 534.4 177.733 538.267 174.267C542.4 170.4 543.067 168.933 543.067 163.867C543.067 156.533 540.8 152.8 530 143.333L521.467 136L542.133 116.4C553.467 105.733 563.6 95.3333 564.667 93.2C570.533 82 562.933 69.3333 550.4 69.3333C544.267 69.3333 540 72.4 524.133 87.7333C516.533 95.2 510 101.333 509.867 101.333C509.6 101.333 509.333 84.8 509.333 64.5333C509.333 24 508.8 20.5333 501.2 16.6666C494.667 13.2 488.267 14.1333 483.2 19.2Z" fill="white"/>
</svg>
