<svg width="248" height="204" viewBox="0 0 248 204" fill="none" xmlns="http://www.w3.org/2000/svg">
<path d="M164.52 101.214C166.104 96.7212 163.746 91.7953 159.254 90.2113C154.762 88.6273 149.836 90.9851 148.252 95.4775L118.02 181.219C116.436 185.712 118.794 190.638 123.286 192.222C127.779 193.806 132.704 191.448 134.288 186.955L164.52 101.214Z" fill="url(#paint0_linear_8461_6158)"/>
<path d="M164.52 101.214C166.104 96.7212 163.746 91.7953 159.254 90.2113C154.762 88.6273 149.836 90.9851 148.252 95.4775L118.02 181.219C116.436 185.712 118.794 190.638 123.286 192.222C127.779 193.806 132.704 191.448 134.288 186.955L164.52 101.214Z" fill="#007D88"/>
<path d="M159.899 165.937C158.226 159.81 161.837 153.487 167.964 151.814C174.091 150.141 180.414 153.752 182.087 159.879L183.602 165.425C185.275 171.552 181.664 177.876 175.537 179.549C169.41 181.222 163.087 177.611 161.414 171.484L159.899 165.937Z" fill="url(#paint1_linear_8461_6158)"/>
<path d="M159.899 165.937C158.226 159.81 161.837 153.487 167.964 151.814C174.091 150.141 180.414 153.752 182.087 159.879L183.602 165.425C185.275 171.552 181.664 177.876 175.537 179.549C169.41 181.222 163.087 177.611 161.414 171.484L159.899 165.937Z" fill="#007D88"/>
<path d="M106.927 102.916C100.8 104.589 97.1891 110.912 98.8622 117.039L100.377 122.586C102.05 128.713 108.373 132.323 114.5 130.65C120.627 128.977 124.238 122.654 122.565 116.527L121.05 110.98C119.377 104.853 113.054 101.243 106.927 102.916Z" fill="url(#paint2_linear_8461_6158)"/>
<path d="M106.927 102.916C100.8 104.589 97.1891 110.912 98.8622 117.039L100.377 122.586C102.05 128.713 108.373 132.323 114.5 130.65C120.627 128.977 124.238 122.654 122.565 116.527L121.05 110.98C119.377 104.853 113.054 101.243 106.927 102.916Z" fill="#007D88"/>
<path fill-rule="evenodd" clip-rule="evenodd" d="M90.4553 70.0915L90.6642 70.0403L90.7821 69.8603C91.1559 69.2878 91.5825 68.6188 92.1472 67.7326L92.4603 67.2412C94.5279 63.9954 96.6788 60.6187 98.8003 57.9021C101.208 54.8194 104.547 51.2704 109.508 48.8122C113.108 47.0285 117.019 45.9604 121.026 45.667C126.548 45.2626 131.228 46.6218 134.868 48.0531C138.075 49.3145 141.644 51.1293 145.074 52.8738L145.594 53.1379C146.531 53.6141 147.238 53.9734 147.851 54.2765L148.044 54.3716L148.25 54.3095C148.904 54.1111 149.661 53.8729 150.663 53.5571L151.219 53.3819C154.889 52.2245 158.707 51.0204 162.079 50.303C165.904 49.4889 170.744 48.9168 176.124 50.2226C180.028 51.1701 183.711 52.8661 186.969 55.2167C191.459 58.4564 194.17 62.5057 196.039 65.9419C197.685 68.97 199.252 72.654 200.759 76.1952L200.987 76.7316C201.398 77.6985 201.709 78.4285 201.984 79.0546L202.071 79.2515L202.268 79.3363C202.897 79.605 203.63 79.909 204.601 80.3113L205.139 80.5342C208.695 82.0067 212.393 83.5387 215.437 85.1562C218.891 86.9917 222.966 89.6642 226.249 94.123C228.63 97.3582 230.361 101.025 231.346 104.92C232.703 110.287 232.177 115.132 231.4 118.965C230.714 122.343 229.547 126.173 228.425 129.854L228.255 130.411C227.948 131.417 227.717 132.176 227.525 132.832L227.465 133.038L227.562 133.231C227.871 133.841 228.237 134.544 228.722 135.477L228.992 135.994C230.769 139.407 232.617 142.958 233.909 146.154C235.375 149.78 236.779 154.446 236.427 159.972C236.172 163.981 235.141 167.903 233.392 171.519C230.982 176.504 227.464 179.877 224.405 182.313C221.709 184.461 218.353 186.644 215.127 188.742L214.638 189.06C213.758 189.633 213.093 190.066 212.524 190.445L212.345 190.565L212.296 190.774C212.14 191.44 211.968 192.215 211.741 193.241L211.615 193.809C210.782 197.567 209.915 201.475 208.851 204.754C207.643 208.474 205.719 212.951 201.898 216.958C199.125 219.865 195.815 222.207 192.15 223.853C187.1 226.121 182.237 226.445 178.327 226.345C174.882 226.256 170.908 225.772 167.088 225.306L166.509 225.235C165.466 225.108 164.678 225.012 163.999 224.937L163.785 224.914L163.613 225.042C163.065 225.453 162.436 225.935 161.602 226.575L161.14 226.93C158.087 229.273 154.911 231.71 151.988 233.537C148.671 235.611 144.319 237.803 138.817 238.417C134.824 238.861 130.783 238.527 126.918 237.433C121.591 235.924 117.658 233.046 114.727 230.456C112.144 228.174 109.411 225.248 106.785 222.435L106.387 222.01C105.67 221.242 105.128 220.662 104.655 220.168L104.507 220.013L104.292 220C103.609 219.963 102.817 219.928 101.767 219.882L101.185 219.857C97.3399 219.689 93.3401 219.515 89.9266 219.036C86.0533 218.492 81.31 217.375 76.7006 214.307C73.3561 212.082 70.4753 209.228 68.2179 205.905C65.1067 201.325 63.9439 196.593 63.3635 192.725C62.852 189.316 62.6394 185.318 62.435 181.475L62.404 180.893C62.348 179.844 62.3055 179.052 62.2615 178.369L62.2474 178.155L62.0906 178.007C61.5917 177.54 61.007 177.004 60.2323 176.294L59.8027 175.9C56.9653 173.3 54.0134 170.595 51.7064 168.034C49.0886 165.128 46.1734 161.223 44.614 155.911C43.4826 152.056 43.1099 148.019 43.5167 144.022C44.0773 138.514 46.2285 134.141 48.2701 130.805C50.0694 127.865 52.4763 124.666 54.7899 121.59L55.1402 121.125C55.7718 120.285 56.2485 119.651 56.6534 119.1L56.7806 118.926L56.7552 118.712C56.6735 118.034 56.5703 117.247 56.4333 116.205L56.3573 115.627C55.8548 111.812 55.332 107.843 55.2109 104.398C55.0735 100.489 55.3505 95.6237 57.5708 90.5517C59.1818 86.8716 61.4916 83.539 64.3722 80.7389C68.3423 76.8797 72.8009 74.9128 76.5093 73.6695C79.7774 72.5738 83.6777 71.6702 87.4268 70.8016L87.9944 70.6701C89.0181 70.4327 89.7909 70.2533 90.4553 70.0915ZM106.694 77.0034C111.38 69.6515 113.722 65.9755 117.167 64.2688C118.767 63.4761 120.505 63.0013 122.286 62.8709C126.12 62.5901 130.006 64.5653 137.778 68.5155C141.428 70.3712 143.254 71.299 145.207 71.663C146.128 71.8348 147.065 71.9123 148.002 71.8942C149.989 71.8558 151.942 71.2404 155.848 70.0096C164.163 67.3894 168.32 66.0793 172.056 66.986C173.791 67.4071 175.428 68.1609 176.876 69.2056C179.993 71.4549 181.7 75.4657 185.115 83.4874C186.719 87.2556 187.521 89.1397 188.783 90.6739C189.378 91.3979 190.046 92.0594 190.776 92.648C192.322 93.8953 194.214 94.6792 197.997 96.2471C206.051 99.5847 210.078 101.254 212.357 104.349C213.415 105.787 214.185 107.417 214.622 109.148C215.564 112.875 214.294 117.045 211.753 125.384C210.56 129.302 209.963 131.261 209.944 133.247C209.935 134.185 210.021 135.121 210.202 136.04C210.584 137.99 211.53 139.806 213.42 143.439C217.444 151.173 219.456 155.04 219.212 158.876C219.099 160.658 218.641 162.401 217.863 164.008C216.189 167.469 212.536 169.847 205.229 174.602C201.797 176.836 200.08 177.953 198.789 179.462C198.179 180.175 197.644 180.947 197.191 181.768C196.231 183.507 195.787 185.506 194.9 189.504C193.012 198.015 192.068 202.271 189.415 205.053C188.182 206.345 186.711 207.386 185.082 208.117C181.576 209.692 177.249 209.165 168.594 208.112C164.529 207.616 162.496 207.369 160.537 207.695C159.612 207.848 158.705 208.096 157.831 208.434C155.977 209.149 154.353 210.395 151.103 212.888C144.186 218.194 140.727 220.847 136.906 221.273C135.132 221.47 133.336 221.322 131.618 220.835C127.919 219.788 124.943 216.603 118.991 210.233C116.195 207.24 114.797 205.744 113.087 204.734C112.279 204.258 111.426 203.864 110.539 203.561C108.659 202.918 106.613 202.828 102.522 202.649C93.8123 202.267 89.4574 202.076 86.257 199.946C84.7706 198.957 83.4903 197.689 82.487 196.212C80.3268 193.032 80.0944 188.679 79.6295 179.974C79.4111 175.884 79.3019 173.839 78.6408 171.966C78.3288 171.082 77.9275 170.232 77.4431 169.429C76.4168 167.728 74.9073 166.345 71.8884 163.577C65.4617 157.687 62.2484 154.741 61.1657 151.052C60.6629 149.339 60.4972 147.545 60.678 145.768C61.0672 141.944 63.6871 138.46 68.9269 131.492C71.3883 128.219 72.619 126.583 73.3167 124.723C73.6459 123.845 73.8849 122.936 74.0298 122.01C74.3369 120.047 74.07 118.017 73.5361 113.956C72.3996 105.313 71.8314 100.991 73.373 97.4692C74.089 95.8336 75.1156 94.3525 76.3959 93.108C79.1523 90.4285 83.3987 89.4437 91.8914 87.4741C95.8809 86.549 97.8756 86.0863 99.6057 85.1099C100.422 84.6491 101.189 84.1064 101.896 83.49C103.393 82.1839 104.493 80.457 106.694 77.0034Z" fill="url(#paint3_linear_8461_6158)"/>
<path fill-rule="evenodd" clip-rule="evenodd" d="M90.4553 70.0915L90.6642 70.0403L90.7821 69.8603C91.1559 69.2878 91.5825 68.6188 92.1472 67.7326L92.4603 67.2412C94.5279 63.9954 96.6788 60.6187 98.8003 57.9021C101.208 54.8194 104.547 51.2704 109.508 48.8122C113.108 47.0285 117.019 45.9604 121.026 45.667C126.548 45.2626 131.228 46.6218 134.868 48.0531C138.075 49.3145 141.644 51.1293 145.074 52.8738L145.594 53.1379C146.531 53.6141 147.238 53.9734 147.851 54.2765L148.044 54.3716L148.25 54.3095C148.904 54.1111 149.661 53.8729 150.663 53.5571L151.219 53.3819C154.889 52.2245 158.707 51.0204 162.079 50.303C165.904 49.4889 170.744 48.9168 176.124 50.2226C180.028 51.1701 183.711 52.8661 186.969 55.2167C191.459 58.4564 194.17 62.5057 196.039 65.9419C197.685 68.97 199.252 72.654 200.759 76.1952L200.987 76.7316C201.398 77.6985 201.709 78.4285 201.984 79.0546L202.071 79.2515L202.268 79.3363C202.897 79.605 203.63 79.909 204.601 80.3113L205.139 80.5342C208.695 82.0067 212.393 83.5387 215.437 85.1562C218.891 86.9917 222.966 89.6642 226.249 94.123C228.63 97.3582 230.361 101.025 231.346 104.92C232.703 110.287 232.177 115.132 231.4 118.965C230.714 122.343 229.547 126.173 228.425 129.854L228.255 130.411C227.948 131.417 227.717 132.176 227.525 132.832L227.465 133.038L227.562 133.231C227.871 133.841 228.237 134.544 228.722 135.477L228.992 135.994C230.769 139.407 232.617 142.958 233.909 146.154C235.375 149.78 236.779 154.446 236.427 159.972C236.172 163.981 235.141 167.903 233.392 171.519C230.982 176.504 227.464 179.877 224.405 182.313C221.709 184.461 218.353 186.644 215.127 188.742L214.638 189.06C213.758 189.633 213.093 190.066 212.524 190.445L212.345 190.565L212.296 190.774C212.14 191.44 211.968 192.215 211.741 193.241L211.615 193.809C210.782 197.567 209.915 201.475 208.851 204.754C207.643 208.474 205.719 212.951 201.898 216.958C199.125 219.865 195.815 222.207 192.15 223.853C187.1 226.121 182.237 226.445 178.327 226.345C174.882 226.256 170.908 225.772 167.088 225.306L166.509 225.235C165.466 225.108 164.678 225.012 163.999 224.937L163.785 224.914L163.613 225.042C163.065 225.453 162.436 225.935 161.602 226.575L161.14 226.93C158.087 229.273 154.911 231.71 151.988 233.537C148.671 235.611 144.319 237.803 138.817 238.417C134.824 238.861 130.783 238.527 126.918 237.433C121.591 235.924 117.658 233.046 114.727 230.456C112.144 228.174 109.411 225.248 106.785 222.435L106.387 222.01C105.67 221.242 105.128 220.662 104.655 220.168L104.507 220.013L104.292 220C103.609 219.963 102.817 219.928 101.767 219.882L101.185 219.857C97.3399 219.689 93.3401 219.515 89.9266 219.036C86.0533 218.492 81.31 217.375 76.7006 214.307C73.3561 212.082 70.4753 209.228 68.2179 205.905C65.1067 201.325 63.9439 196.593 63.3635 192.725C62.852 189.316 62.6394 185.318 62.435 181.475L62.404 180.893C62.348 179.844 62.3055 179.052 62.2615 178.369L62.2474 178.155L62.0906 178.007C61.5917 177.54 61.007 177.004 60.2323 176.294L59.8027 175.9C56.9653 173.3 54.0134 170.595 51.7064 168.034C49.0886 165.128 46.1734 161.223 44.614 155.911C43.4826 152.056 43.1099 148.019 43.5167 144.022C44.0773 138.514 46.2285 134.141 48.2701 130.805C50.0694 127.865 52.4763 124.666 54.7899 121.59L55.1402 121.125C55.7718 120.285 56.2485 119.651 56.6534 119.1L56.7806 118.926L56.7552 118.712C56.6735 118.034 56.5703 117.247 56.4333 116.205L56.3573 115.627C55.8548 111.812 55.332 107.843 55.2109 104.398C55.0735 100.489 55.3505 95.6237 57.5708 90.5517C59.1818 86.8716 61.4916 83.539 64.3722 80.7389C68.3423 76.8797 72.8009 74.9128 76.5093 73.6695C79.7774 72.5738 83.6777 71.6702 87.4268 70.8016L87.9944 70.6701C89.0181 70.4327 89.7909 70.2533 90.4553 70.0915ZM106.694 77.0034C111.38 69.6515 113.722 65.9755 117.167 64.2688C118.767 63.4761 120.505 63.0013 122.286 62.8709C126.12 62.5901 130.006 64.5653 137.778 68.5155C141.428 70.3712 143.254 71.299 145.207 71.663C146.128 71.8348 147.065 71.9123 148.002 71.8942C149.989 71.8558 151.942 71.2404 155.848 70.0096C164.163 67.3894 168.32 66.0793 172.056 66.986C173.791 67.4071 175.428 68.1609 176.876 69.2056C179.993 71.4549 181.7 75.4657 185.115 83.4874C186.719 87.2556 187.521 89.1397 188.783 90.6739C189.378 91.3979 190.046 92.0594 190.776 92.648C192.322 93.8953 194.214 94.6792 197.997 96.2471C206.051 99.5847 210.078 101.254 212.357 104.349C213.415 105.787 214.185 107.417 214.622 109.148C215.564 112.875 214.294 117.045 211.753 125.384C210.56 129.302 209.963 131.261 209.944 133.247C209.935 134.185 210.021 135.121 210.202 136.04C210.584 137.99 211.53 139.806 213.42 143.439C217.444 151.173 219.456 155.04 219.212 158.876C219.099 160.658 218.641 162.401 217.863 164.008C216.189 167.469 212.536 169.847 205.229 174.602C201.797 176.836 200.08 177.953 198.789 179.462C198.179 180.175 197.644 180.947 197.191 181.768C196.231 183.507 195.787 185.506 194.9 189.504C193.012 198.015 192.068 202.271 189.415 205.053C188.182 206.345 186.711 207.386 185.082 208.117C181.576 209.692 177.249 209.165 168.594 208.112C164.529 207.616 162.496 207.369 160.537 207.695C159.612 207.848 158.705 208.096 157.831 208.434C155.977 209.149 154.353 210.395 151.103 212.888C144.186 218.194 140.727 220.847 136.906 221.273C135.132 221.47 133.336 221.322 131.618 220.835C127.919 219.788 124.943 216.603 118.991 210.233C116.195 207.24 114.797 205.744 113.087 204.734C112.279 204.258 111.426 203.864 110.539 203.561C108.659 202.918 106.613 202.828 102.522 202.649C93.8123 202.267 89.4574 202.076 86.257 199.946C84.7706 198.957 83.4903 197.689 82.487 196.212C80.3268 193.032 80.0944 188.679 79.6295 179.974C79.4111 175.884 79.3019 173.839 78.6408 171.966C78.3288 171.082 77.9275 170.232 77.4431 169.429C76.4168 167.728 74.9073 166.345 71.8884 163.577C65.4617 157.687 62.2484 154.741 61.1657 151.052C60.6629 149.339 60.4972 147.545 60.678 145.768C61.0672 141.944 63.6871 138.46 68.9269 131.492C71.3883 128.219 72.619 126.583 73.3167 124.723C73.6459 123.845 73.8849 122.936 74.0298 122.01C74.3369 120.047 74.07 118.017 73.5361 113.956C72.3996 105.313 71.8314 100.991 73.373 97.4692C74.089 95.8336 75.1156 94.3525 76.3959 93.108C79.1523 90.4285 83.3987 89.4437 91.8914 87.4741C95.8809 86.549 97.8756 86.0863 99.6057 85.1099C100.422 84.6491 101.189 84.1064 101.896 83.49C103.393 82.1839 104.493 80.457 106.694 77.0034Z" fill="#007D88"/>
<defs>
<linearGradient id="paint0_linear_8461_6158" x1="115.115" y1="46.6808" x2="165.57" y2="231.451" gradientUnits="userSpaceOnUse">
<stop stop-color="#191919"/>
<stop offset="1" stop-color="#7F7F7F"/>
</linearGradient>
<linearGradient id="paint1_linear_8461_6158" x1="115.115" y1="46.6808" x2="165.57" y2="231.451" gradientUnits="userSpaceOnUse">
<stop stop-color="#191919"/>
<stop offset="1" stop-color="#7F7F7F"/>
</linearGradient>
<linearGradient id="paint2_linear_8461_6158" x1="115.115" y1="46.6808" x2="165.57" y2="231.451" gradientUnits="userSpaceOnUse">
<stop stop-color="#191919"/>
<stop offset="1" stop-color="#7F7F7F"/>
</linearGradient>
<linearGradient id="paint3_linear_8461_6158" x1="115.115" y1="46.6808" x2="165.57" y2="231.451" gradientUnits="userSpaceOnUse">
<stop stop-color="#191919"/>
<stop offset="1" stop-color="#7F7F7F"/>
</linearGradient>
</defs>
</svg>
