<svg width="219" height="180" viewBox="0 0 219 180" fill="none" xmlns="http://www.w3.org/2000/svg">
<path fill-rule="evenodd" clip-rule="evenodd" d="M88.8857 78.8082C87.3442 61.4103 100.198 46.0569 117.596 44.5154C134.994 42.9738 150.347 55.8279 151.889 73.2257L152.143 76.0895L89.1395 81.672L88.8857 78.8082ZM71.9611 83.2425L71.7031 80.3307C69.3206 53.4431 89.186 29.7151 116.074 27.3327C142.961 24.9503 166.689 44.8156 169.072 71.7032L169.33 74.615C180.943 73.7445 187.965 73.799 193.85 76.1689C200.608 78.8907 206.331 83.6821 210.199 89.8565C214.596 96.8757 215.449 106.499 217.154 125.745L217.662 131.473C220.22 160.342 221.499 174.777 216.857 186.302C212.775 196.439 205.587 205.024 196.326 210.825C185.797 217.421 171.362 218.7 142.493 221.258L124.164 222.882C95.2948 225.44 80.86 226.719 69.3354 222.077C59.1982 217.995 50.6136 210.808 44.8121 201.546C38.2166 191.017 36.9376 176.582 34.3796 147.713L33.8721 141.985C32.1667 122.739 31.314 113.116 34.4083 105.433C37.1301 98.6744 41.9215 92.9514 48.0958 89.0837C53.472 85.716 60.3758 84.4274 71.9611 83.2425ZM64.3717 101.598C69.205 100.769 75.6004 100.189 85.5072 99.3114L158.82 92.8154C168.727 91.9376 175.125 91.3842 180.028 91.3506C184.73 91.3184 186.518 91.8124 187.406 92.17C190.785 93.5309 193.646 95.9266 195.58 99.0138C196.088 99.825 196.889 101.498 197.684 106.132C198.513 110.966 199.094 117.361 199.971 127.268L200.479 132.995C201.783 147.714 202.656 157.72 202.71 165.51C202.762 173.098 201.987 177.049 200.856 179.858C198.134 186.616 193.343 192.339 187.169 196.207C184.603 197.814 180.849 199.271 173.37 200.554C165.693 201.871 155.688 202.771 140.97 204.075L122.642 205.699C107.924 207.003 97.917 207.876 90.1273 207.93C82.5396 207.982 78.5884 207.207 75.7797 206.076C69.0215 203.355 63.2984 198.563 59.4307 192.389C57.8233 189.823 56.3664 186.069 55.0834 178.591C53.7663 170.913 52.8664 160.909 51.5623 146.19L51.0548 140.463C50.177 130.556 49.6235 124.158 49.5899 119.254C49.5577 114.553 50.0518 112.765 50.4094 111.877C51.7703 108.498 54.166 105.636 57.2531 103.702C58.0643 103.194 59.7376 102.393 64.3717 101.598ZM75.8899 127.583C75.3994 122.047 79.4893 117.162 85.025 116.672C90.5607 116.181 95.4459 120.271 95.9364 125.807C96.4269 131.342 92.3369 136.228 86.8013 136.718C81.2656 137.209 76.3804 133.119 75.8899 127.583ZM162.347 109.82C156.811 110.311 152.721 115.196 153.212 120.732C153.702 126.267 158.588 130.357 164.123 129.867C169.659 129.376 173.749 124.491 173.258 118.956C172.768 113.42 167.883 109.33 162.347 109.82Z" fill="#191919"/>
<path fill-rule="evenodd" clip-rule="evenodd" d="M88.8857 78.8082C87.3442 61.4103 100.198 46.0569 117.596 44.5154C134.994 42.9738 150.347 55.8279 151.889 73.2257L152.143 76.0895L89.1395 81.672L88.8857 78.8082ZM71.9611 83.2425L71.7031 80.3307C69.3206 53.4431 89.186 29.7151 116.074 27.3327C142.961 24.9503 166.689 44.8156 169.072 71.7032L169.33 74.615C180.943 73.7445 187.965 73.799 193.85 76.1689C200.608 78.8907 206.331 83.6821 210.199 89.8565C214.596 96.8757 215.449 106.499 217.154 125.745L217.662 131.473C220.22 160.342 221.499 174.777 216.857 186.302C212.775 196.439 205.587 205.024 196.326 210.825C185.797 217.421 171.362 218.7 142.493 221.258L124.164 222.882C95.2948 225.44 80.86 226.719 69.3354 222.077C59.1982 217.995 50.6136 210.808 44.8121 201.546C38.2166 191.017 36.9376 176.582 34.3796 147.713L33.8721 141.985C32.1667 122.739 31.314 113.116 34.4083 105.433C37.1301 98.6744 41.9215 92.9514 48.0958 89.0837C53.472 85.716 60.3758 84.4274 71.9611 83.2425ZM64.3717 101.598C69.205 100.769 75.6004 100.189 85.5072 99.3114L158.82 92.8154C168.727 91.9376 175.125 91.3842 180.028 91.3506C184.73 91.3184 186.518 91.8124 187.406 92.17C190.785 93.5309 193.646 95.9266 195.58 99.0138C196.088 99.825 196.889 101.498 197.684 106.132C198.513 110.966 199.094 117.361 199.971 127.268L200.479 132.995C201.783 147.714 202.656 157.72 202.71 165.51C202.762 173.098 201.987 177.049 200.856 179.858C198.134 186.616 193.343 192.339 187.169 196.207C184.603 197.814 180.849 199.271 173.37 200.554C165.693 201.871 155.688 202.771 140.97 204.075L122.642 205.699C107.924 207.003 97.917 207.876 90.1273 207.93C82.5396 207.982 78.5884 207.207 75.7797 206.076C69.0215 203.355 63.2984 198.563 59.4307 192.389C57.8233 189.823 56.3664 186.069 55.0834 178.591C53.7663 170.913 52.8664 160.909 51.5623 146.19L51.0548 140.463C50.177 130.556 49.6235 124.158 49.5899 119.254C49.5577 114.553 50.0518 112.765 50.4094 111.877C51.7703 108.498 54.166 105.636 57.2531 103.702C58.0643 103.194 59.7376 102.393 64.3717 101.598ZM75.8899 127.583C75.3994 122.047 79.4893 117.162 85.025 116.672C90.5607 116.181 95.4459 120.271 95.9364 125.807C96.4269 131.342 92.3369 136.228 86.8013 136.718C81.2656 137.209 76.3804 133.119 75.8899 127.583ZM162.347 109.82C156.811 110.311 152.721 115.196 153.212 120.732C153.702 126.267 158.588 130.357 164.123 129.867C169.659 129.376 173.749 124.491 173.258 118.956C172.768 113.42 167.883 109.33 162.347 109.82Z" fill="#007D88"/>
</svg>
