<svg width="208" height="184" viewBox="0 0 208 184" fill="none" xmlns="http://www.w3.org/2000/svg">
<path fill-rule="evenodd" clip-rule="evenodd" d="M146.663 46.504L137.316 84.4582L159.434 88.4893C170.408 90.3415 180.307 95.5732 183.225 106.03C186.173 116.597 180.357 127.137 173.791 135.023L115.364 201.089C111.588 205.157 107.751 208.461 103.959 210.481C100.467 212.343 94.7964 214.212 89.3723 211.075C84.0717 208.009 82.723 202.271 82.4414 198.33C82.1323 194.006 82.8368 188.909 84.2346 183.366C84.2355 183.363 84.2338 183.37 84.2346 183.366L93.8472 144.901L73.0152 141.225C62.4425 139.413 51.8612 134.444 47.6787 124.502C43.2568 113.992 47.8339 102.71 56.9228 92.7848C62.2516 86.9658 67.8577 81.3992 73.1926 75.5824C82.8238 65.0809 96.9185 49.534 115.487 28.93C119.06 24.9057 122.786 21.6098 126.55 19.5701C130.068 17.6642 135.601 15.8656 140.982 18.7597C146.35 21.6464 147.944 27.2585 148.327 31.3448C148.738 35.7251 148.076 40.8839 146.663 46.504ZM130.866 37.7903C130.092 38.5335 129.257 39.4011 128.368 40.403C114.388 56.1654 100.146 71.7141 85.9055 87.2418C82.4785 90.9785 77.024 96.745 69.5799 104.505C62.3552 112.424 63.0496 116.555 63.5789 117.813C65.38 122.094 72.0174 123.553 75.9712 124.231L102.79 128.962C109.255 130.103 113.71 136.569 112.058 143.181L100.963 187.576C100.539 189.256 100.228 190.754 100.012 192.077C100.827 191.321 101.709 190.441 102.652 189.427L160.695 123.792C166.792 116.435 167.023 112.149 166.61 110.666C166.365 109.789 164.914 106.898 156.52 105.492L128.337 100.356C121.852 99.174 117.548 92.5914 119.125 86.1873L129.934 42.2981C130.36 40.6047 130.663 39.1042 130.866 37.7903Z" fill="#007D88"/>
</svg>
