<svg width="230" height="186" viewBox="0 0 230 186" fill="none" xmlns="http://www.w3.org/2000/svg">
<path fill-rule="evenodd" clip-rule="evenodd" d="M115 195.5C70.5411 195.5 34.5 159.459 34.5 115C34.5 70.5411 70.5411 34.5 115 34.5C159.459 34.5 195.5 70.5411 195.5 115C195.5 159.459 159.459 195.5 115 195.5ZM17.25 115C17.25 61.0142 61.0142 17.25 115 17.25C168.986 17.25 212.75 61.0142 212.75 115C212.75 168.986 168.986 212.75 115 212.75C61.0142 212.75 17.25 168.986 17.25 115ZM100.625 69C95.8615 69 92 72.8615 92 77.625V112.125H89.125C84.3615 112.125 80.5 115.987 80.5 120.75C80.5 125.513 84.3615 129.375 89.125 129.375H92V138H89.125C84.3615 138 80.5 141.862 80.5 146.625C80.5 151.388 84.3615 155.25 89.125 155.25H92V161C92 165.763 95.8615 169.625 100.625 169.625C105.388 169.625 109.25 165.763 109.25 161V155.25H126.5C131.263 155.25 135.125 151.388 135.125 146.625C135.125 141.862 131.263 138 126.5 138H109.25V129.375H127.938C144.61 129.375 158.125 115.86 158.125 99.1875C158.125 82.5154 144.61 69 127.938 69H100.625ZM127.938 112.125H109.25V86.25H127.938C135.083 86.25 140.875 92.0423 140.875 99.1875C140.875 106.333 135.083 112.125 127.938 112.125Z" fill="#191919"/>
<path fill-rule="evenodd" clip-rule="evenodd" d="M115 195.5C70.5411 195.5 34.5 159.459 34.5 115C34.5 70.5411 70.5411 34.5 115 34.5C159.459 34.5 195.5 70.5411 195.5 115C195.5 159.459 159.459 195.5 115 195.5ZM17.25 115C17.25 61.0142 61.0142 17.25 115 17.25C168.986 17.25 212.75 61.0142 212.75 115C212.75 168.986 168.986 212.75 115 212.75C61.0142 212.75 17.25 168.986 17.25 115ZM100.625 69C95.8615 69 92 72.8615 92 77.625V112.125H89.125C84.3615 112.125 80.5 115.987 80.5 120.75C80.5 125.513 84.3615 129.375 89.125 129.375H92V138H89.125C84.3615 138 80.5 141.862 80.5 146.625C80.5 151.388 84.3615 155.25 89.125 155.25H92V161C92 165.763 95.8615 169.625 100.625 169.625C105.388 169.625 109.25 165.763 109.25 161V155.25H126.5C131.263 155.25 135.125 151.388 135.125 146.625C135.125 141.862 131.263 138 126.5 138H109.25V129.375H127.938C144.61 129.375 158.125 115.86 158.125 99.1875C158.125 82.5154 144.61 69 127.938 69H100.625ZM127.938 112.125H109.25V86.25H127.938C135.083 86.25 140.875 92.0423 140.875 99.1875C140.875 106.333 135.083 112.125 127.938 112.125Z" fill="#007D88"/>
</svg>
