<svg width="405" height="334" viewBox="0 0 405 334" fill="none" xmlns="http://www.w3.org/2000/svg">
<g clip-path="url(#clip0_8461_6168)">
<path fill-rule="evenodd" clip-rule="evenodd" d="M239.911 75.7445C238.032 75.219 236.095 74.9273 234.145 74.8762C232.251 74.8266 230.216 75.0956 222.621 76.3109L130.911 90.9864C126.782 91.6471 124.398 92.0365 122.633 92.4465C121.55 92.698 121.109 92.8711 120.993 92.9228C120.319 93.329 119.757 93.8965 119.357 94.5742C119.306 94.6902 119.137 95.1329 118.896 96.2182C118.502 97.9876 118.134 100.375 117.512 104.509L101.437 211.261C96.1916 246.096 110.59 276.991 131.128 302.317C151.662 327.638 177.153 345.847 190.551 354.437C192.11 355.436 192.75 355.839 193.255 356.117C194.085 356.576 195.229 356.751 196.167 356.556C196.732 356.438 197.462 356.242 199.246 355.746C214.58 351.483 244.302 341.588 271.383 323.436C298.468 305.282 321.326 279.997 326.571 245.162L342.646 138.41C343.269 134.275 343.62 131.886 343.765 130.079C343.854 128.971 343.823 128.498 343.809 128.372C343.626 127.607 343.256 126.899 342.731 126.312C342.636 126.229 342.265 125.933 341.305 125.374C339.738 124.462 337.575 123.388 333.824 121.541L250.502 80.5092C243.601 77.1112 241.736 76.2549 239.911 75.7445ZM342.758 126.337L342.731 126.312ZM343.803 128.336L343.809 128.372ZM119.373 94.5413L119.357 94.5742ZM120.96 92.9389L120.993 92.9228ZM234.891 46.427C239.182 46.5394 243.443 47.181 247.576 48.3372C252.527 49.7218 257.099 52.0356 263.074 54.978L346.396 96.01C346.873 96.2446 347.354 96.4796 347.837 96.7158C353.485 99.4775 359.501 102.419 363.839 107.223C367.605 111.394 370.25 116.453 371.528 121.925C372.999 128.229 371.984 134.847 371.03 141.062C370.948 141.594 370.867 142.122 370.788 142.648L354.713 249.4C347.821 295.169 317.896 326.52 287.228 347.076C256.556 367.635 223.555 378.526 206.869 383.165C203.817 384.013 200.489 385.01 196.004 385.094C192.623 385.158 188.219 384.494 185.007 383.438C180.746 382.037 177.859 380.104 175.192 378.395C160.612 369.048 132.281 348.922 109.023 320.242C85.7689 291.566 66.4033 252.793 73.2953 207.024L89.37 100.272C89.4491 99.7464 89.5273 99.2173 89.6058 98.6852C90.5244 92.4651 91.5027 85.8407 94.7651 80.2503C97.5976 75.3966 101.616 71.3413 106.443 68.4643C112.003 65.1504 118.618 64.1111 124.83 63.1353C125.361 63.0518 125.889 62.9688 126.414 62.8849L218.124 48.2094C224.701 47.157 229.752 46.2923 234.891 46.427Z" fill="#191919"/>
<path fill-rule="evenodd" clip-rule="evenodd" d="M239.911 75.7445C238.032 75.219 236.095 74.9273 234.145 74.8762C232.251 74.8266 230.216 75.0956 222.621 76.3109L130.911 90.9864C126.782 91.6471 124.398 92.0365 122.633 92.4465C121.55 92.698 121.109 92.8711 120.993 92.9228C120.319 93.329 119.757 93.8965 119.357 94.5742C119.306 94.6902 119.137 95.1329 118.896 96.2182C118.502 97.9876 118.134 100.375 117.512 104.509L101.437 211.261C96.1916 246.096 110.59 276.991 131.128 302.317C151.662 327.638 177.153 345.847 190.551 354.437C192.11 355.436 192.75 355.839 193.255 356.117C194.085 356.576 195.229 356.751 196.167 356.556C196.732 356.438 197.462 356.242 199.246 355.746C214.58 351.483 244.302 341.588 271.383 323.436C298.468 305.282 321.326 279.997 326.571 245.162L342.646 138.41C343.269 134.275 343.62 131.886 343.765 130.079C343.854 128.971 343.823 128.498 343.809 128.372C343.626 127.607 343.256 126.899 342.731 126.312C342.636 126.229 342.265 125.933 341.305 125.374C339.738 124.462 337.575 123.388 333.824 121.541L250.502 80.5092C243.601 77.1112 241.736 76.2549 239.911 75.7445ZM342.758 126.337L342.731 126.312ZM343.803 128.336L343.809 128.372ZM119.373 94.5413L119.357 94.5742ZM120.96 92.9389L120.993 92.9228ZM234.891 46.427C239.182 46.5394 243.443 47.181 247.576 48.3372C252.527 49.7218 257.099 52.0356 263.074 54.978L346.396 96.01C346.873 96.2446 347.354 96.4796 347.837 96.7158C353.485 99.4775 359.501 102.419 363.839 107.223C367.605 111.394 370.25 116.453 371.528 121.925C372.999 128.229 371.984 134.847 371.03 141.062C370.948 141.594 370.867 142.122 370.788 142.648L354.713 249.4C347.821 295.169 317.896 326.52 287.228 347.076C256.556 367.635 223.555 378.526 206.869 383.165C203.817 384.013 200.489 385.01 196.004 385.094C192.623 385.158 188.219 384.494 185.007 383.438C180.746 382.037 177.859 380.104 175.192 378.395C160.612 369.048 132.281 348.922 109.023 320.242C85.7689 291.566 66.4033 252.793 73.2953 207.024L89.37 100.272C89.4491 99.7464 89.5273 99.2173 89.6058 98.6852C90.5244 92.4651 91.5027 85.8407 94.7651 80.2503C97.5976 75.3966 101.616 71.3413 106.443 68.4643C112.003 65.1504 118.618 64.1111 124.83 63.1353C125.361 63.0518 125.889 62.9688 126.414 62.8849L218.124 48.2094C224.701 47.157 229.752 46.2923 234.891 46.427Z" fill="#007D88"/>
<path fill-rule="evenodd" clip-rule="evenodd" d="M294.321 173.963C299.219 180.108 298.208 189.061 292.063 193.96L200.955 266.58C197.861 269.046 193.88 270.113 189.967 269.524C186.055 268.935 182.564 266.743 180.333 263.475L143.843 210.014C139.413 203.523 141.083 194.669 147.574 190.239C154.065 185.809 162.918 187.479 167.349 193.97L195.2 234.774L274.324 171.705C280.47 166.807 289.423 167.818 294.321 173.963Z" fill="#191919"/>
<path fill-rule="evenodd" clip-rule="evenodd" d="M294.321 173.963C299.219 180.108 298.208 189.061 292.063 193.96L200.955 266.58C197.861 269.046 193.88 270.113 189.967 269.524C186.055 268.935 182.564 266.743 180.333 263.475L143.843 210.014C139.413 203.523 141.083 194.669 147.574 190.239C154.065 185.809 162.918 187.479 167.349 193.97L195.2 234.774L274.324 171.705C280.47 166.807 289.423 167.818 294.321 173.963Z" fill="#007D88"/>
</g>
<defs>
<clipPath id="clip0_8461_6168">
<rect width="379.454" height="379.454" fill="white" transform="translate(56.5014) rotate(8.56329)"/>
</clipPath>
</defs>
</svg>
